<svg xmlns="http://www.w3.org/2000/svg" viewBox="0 0 108 133.47"><defs><style>.cls-1,.cls-5{fill:#29292a;}.cls-1,.cls-2,.cls-3{fill-rule:evenodd;}.cls-2{fill:#f5f3ef;}.cls-3,.cls-4{fill:#fefefe;}.cls-6{fill:#087d9f;}.cls-7{fill:#221f20;}.cls-8{fill:none;stroke:#29292a;stroke-miterlimit:10;stroke-width:0.23px;}</style></defs><g id="Capa_2" data-name="Capa 2"><g id="Capa_1-2" data-name="Capa 1"><path class="cls-1" d="M2.47,83.2a8.41,8.41,0,0,0,.22,1.3,3.81,3.81,0,0,0-1.16,3.7c.07.94,1.3,1.37,3.11,1.52A73.48,73.48,0,0,1,2.11,78.64a62.19,62.19,0,0,1-.72-11.59,82.49,82.49,0,0,1,2.24-21A92.53,92.53,0,0,1,8.55,32.73a81.66,81.66,0,0,1,9.64-14.92A52.57,52.57,0,0,1,31.51,6.37,47.76,47.76,0,0,1,49.11.28,42.8,42.8,0,0,1,63,.94,53.67,53.67,0,0,1,78.43,7.31a50.87,50.87,0,0,1,10.94,9.56,84.88,84.88,0,0,1,7.46,10.57,79.82,79.82,0,0,1,7,16.29A76.68,76.68,0,0,1,106.53,58a117.62,117.62,0,0,1,0,15.93,57.38,57.38,0,0,1-3.11,16.15c1.3,0,2.68,0,3.18-1.74a3.87,3.87,0,0,0-1.23-3.11c0-.51.07-1.09.07-1.6a5.15,5.15,0,0,1,1.16,8c-1,2.61-2,5.14-3,7.75,3.62,2.89,4.06,5.21,1.23,7a15.43,15.43,0,0,0-3.33,7.53,3.23,3.23,0,0,1-2.24,3.55c-3,.94-5.8.22-8.69-.8,1.59,2.32.29,4.93-2.32,7.61-1.74,2.31-2.17,5.21-1.88,8.47-9.71,1.88-14.92-.22-20.86-1.81-7.09,2.17-14.92,2.32-23.68-.29-6.95,1.74-13.83,3.69-22.16,1.74.44-3.41.73-6.81-1.59-9.63-2.53-2-2.61-4.2-.36-6.59-4.85,1.81-9.42,1.66-10.86-.73a16.41,16.41,0,0,0-4.06-10c-2.53-2.32-1.23-4.78,1.67-6.52-1-2.68-2-5.36-3-8.11-2.61-2.1-1.38-6.37,1-7.6"/><path class="cls-2" d="M20.94,79.58c-1.45-7-1-12.17-1.09-18a59.83,59.83,0,0,1,7.53-25.85A42.78,42.78,0,0,1,42.3,21c6.3-2.76,12.74-3.55,19.26-1.6A31.49,31.49,0,0,1,77.28,30.77c6.59,7.68,9.55,17.74,10.93,28.17.65,8.62.29,17.23-1.81,24.55-.8-.29-1.59-.8-2.39-1.09-.22-1.52.94-2,2.82-1.81-1.15-.65-3.47-.87-3.62,1.09.08,3.55.15,7,.08,10.21a40.59,40.59,0,0,1-4.13,7.17,32.63,32.63,0,0,0-15-.87c0,3.62,0,7.31.07,10.93,1.59.08,3.19.22,4.85.29a27.94,27.94,0,0,1-15.35,4.71c-6.37-.14-11.37-2-15.28-5.14a44.83,44.83,0,0,1,5.43-.22c0-3.62.08-7.31.15-11a32.91,32.91,0,0,0-15.35.8c-1.45-2.46-2.76-4.85-4-7.31.08-3.26.29-6.52.37-9.71-.22-2.24-1.67-2.24-3.7-1.59,2-.07,3.12.51,2.9,1.88-.87.37-1.67.73-2.54,1.09-.29-1.09-.5-2.17-.79-3.33"/><path class="cls-3" d="M105.23,85.73c-.44,1.31-.8,2.61-1.23,3.91,1.88-.14,3.18-2.46,1.23-3.91"/><path class="cls-3" d="M64.75,99c.07,3.12.14,6.3.14,9.42a36.42,36.42,0,0,1,18.83,4.2,60.79,60.79,0,0,0,9.49,4.05c3.91.58,6.88.15,7.24-2a15.63,15.63,0,0,1,3.19-8.84,26.28,26.28,0,0,1-11.88-1.74c-4.49-1.59-9-3.11-13.47-4.7A30.54,30.54,0,0,0,64.75,99"/><path class="cls-3" d="M86.55,96.09l1.3.43c-.8,1.45-1.59,3-2.39,4.42a11,11,0,0,1-1.45-.36c.94-1.45,1.74-3,2.54-4.49"/><path class="cls-3" d="M83.21,93.7a38.78,38.78,0,0,1-3.11,5.57c.44.15.87.29,1.23.44,1-1.52,2-3.26,3-5.07-.36-.29-.72-.65-1.09-.94"/><path class="cls-3" d="M89.8,96.38a63.07,63.07,0,0,1,.29,6.44,28.41,28.41,0,0,0,12.46,2.39c3.26-.14,3.76-2.53.07-5.21A40.65,40.65,0,0,0,89.8,96.38"/><path class="cls-3" d="M101.9,91.45c-3.77.94-6.81.22-10.29.51-2.82.73-2.6,3,.58,4,2.76.73,6,1.16,8.19,2,1.08-2.54,1.81-4.85,1.52-6.45"/><path class="cls-3" d="M88.72,96.31c-.87-4.49,1-5.65,4-5.29a16.64,16.64,0,0,0,2.68-4.64A30.69,30.69,0,0,1,83.87,83a55.91,55.91,0,0,1,0,10.43c-.08.29,4.78,3.33,4.85,2.9"/><path class="cls-3" d="M19.13,95.87c1.23-4.2-.58-5.72-3.91-5.36a12.75,12.75,0,0,1-2.46-3.76,57.55,57.55,0,0,0,11.65-4.49c-.14,3.62-.36,7.17-.21,10.64.07.29-5,3.41-5.07,3"/><path class="cls-3" d="M5.44,89.79l2.82.43A80.94,80.94,0,0,1,4.72,62.34c.65-10.35,2.46-20.63,8-30.48S24.49,15.42,31.22,10.64A45.64,45.64,0,0,1,52.87,3.25c9.2.08,17.24,2.1,23.75,6.88,6.16,3.91,11.16,9.49,15.5,16a63.75,63.75,0,0,1,9,20.2,79.35,79.35,0,0,1-1.16,44.25c.87-.08,1.81-.15,2.68-.29,3.26-9.2,3.69-20.43,2.82-34.26A73.08,73.08,0,0,0,92.7,22.37C87.56,15.56,82.06,10.06,75.9,6.66A42.59,42.59,0,0,0,47.59,1.37a49.24,49.24,0,0,0-23.18,11,74.56,74.56,0,0,0-13.83,18.1A75.19,75.19,0,0,0,2.76,55.54,83.42,83.42,0,0,0,5.44,89.79"/><path class="cls-3" d="M21.52,95.51a9.63,9.63,0,0,0-1.38.51c.8,1.44,1.59,2.89,2.39,4.41.51-.14,1-.29,1.45-.43a37.62,37.62,0,0,1-2.46-4.49"/><path class="cls-3" d="M24.78,93.12a42.77,42.77,0,0,0,3.11,5.58,12.28,12.28,0,0,0-1.23.5c-.94-1.59-2-3.26-2.9-5.07a13.94,13.94,0,0,0,1-1"/><path class="cls-3" d="M18.26,95.87a62.11,62.11,0,0,0-.36,6.45,29.55,29.55,0,0,1-12.46,2.39c-3.26-.22-3.69-2.61-.07-5.22a37.87,37.87,0,0,1,12.89-3.62"/><path class="cls-3" d="M6.09,90.87c3.77,1,6.88.22,10.29.58,2.82.73,2.67,2.9-.51,3.91-2.83.8-6.08,1.24-8.26,2-1.08-2.61-1.73-4.85-1.52-6.52"/><path class="cls-3" d="M2.83,85.23l1.31,4A3.06,3.06,0,0,1,2,87.83a2.4,2.4,0,0,1,.86-2.6"/><path class="cls-3" d="M43.24,98.41c-.07,3.18-.07,6.3-.14,9.48A37.09,37.09,0,0,0,24.27,112a55.64,55.64,0,0,1-9.49,4c-3.91.58-6.88.15-7.24-1.95a14.7,14.7,0,0,0-3.19-8.84,24.71,24.71,0,0,0,11.88-1.81c4.49-1.52,9-3.11,13.47-4.63a30.59,30.59,0,0,1,13.54-.43"/><path class="cls-1" d="M63.73,130.63a41.61,41.61,0,0,1-10.13,1.16,46.54,46.54,0,0,1-10.14-1.45,39.17,39.17,0,0,1,10-1.16,34.35,34.35,0,0,1,10.28,1.45"/><path class="cls-3" d="M17.24,117.38c-1.44,7.1,11,4.27,22.6,1.52A49.69,49.69,0,0,1,62,118.54c5.72,1.37,11.22,2.82,17.23,3.84a11,11,0,0,0,7.82-.8,4.36,4.36,0,0,0,2.75-4.27c.8.79,1.16,1.88-.29,4.2-2.39,2.6-4.49,5.43-3.83,10.64A37.24,37.24,0,0,1,73,131.93a57.63,57.63,0,0,1-7.31-1.59,75.61,75.61,0,0,0-11.88-2c-6.22-.08-12.45,1.52-18.68,3-7,1.3-11.3,1.08-14.84.43.5-4.49-.08-6.3-.66-8a6.46,6.46,0,0,0-1.73-1.95c-1.16-1.59-1.89-3.12-.66-4.49"/><path class="cls-3" d="M18.84,115.57c1.95,1.81,3.91,3.69,5.86,5.57-1.73.08-4.05.37-6.15-.94-1.23-1-1.23-3.11.29-4.63"/><path class="cls-3" d="M32.16,109.92c2.83,2.75,7,5.29,12.46,7.46-.8.22-1.6.36-2.39.58a38.64,38.64,0,0,1-11.37-7.46c.43-.22.87-.36,1.3-.58"/><path class="cls-3" d="M29.41,120.49l-3.69.65a41.3,41.3,0,0,1-5.94-5.86c.8-.36,1.52-.73,2.32-1.09a65.17,65.17,0,0,0,7.31,6.3"/><path class="cls-3" d="M24.05,113.11a50.3,50.3,0,0,0,8,7c-.58.14-1.16.14-1.81.29a37.91,37.91,0,0,1-7.39-6.52,10.45,10.45,0,0,0,1.16-.72"/><path class="cls-1" d="M18.77,116.36c1.52,1.53,3.11,3,4.63,4.35a5.22,5.22,0,0,1-4.71-1.23,2.42,2.42,0,0,1,.08-3.12"/><path class="cls-3" d="M75.39,110.21c-2.89,2.82-7,5.29-12.52,7.53.79.15,1.59.36,2.39.51a39.33,39.33,0,0,0,11.44-7.39l-1.31-.65"/><path class="cls-3" d="M77.71,121.43c1.23.15,2.32.29,3.55.51,2.32-2,5.43-4.2,7-6.08-.79-.44-1.73-.8-2.53-1.16a62.5,62.5,0,0,1-8,6.73"/><path class="cls-3" d="M83.79,113.54a56.77,56.77,0,0,1-8.69,7.24,15.32,15.32,0,0,1,1.81.51,42.08,42.08,0,0,0,8.11-7,10.59,10.59,0,0,1-1.23-.72"/><path class="cls-3" d="M88.86,116c-2.24,2.1-4.41,4.13-6.59,6.23a7.59,7.59,0,0,0,5.14-1.59c1.89-1.38,2.54-2.9,1.45-4.64"/><path class="cls-3" d="M35.71,109.49l1.74-.44a27.3,27.3,0,0,0,32.66.58l2,.22c-10.86,8.25-24.91,8.9-36.35-.36"/><path class="cls-1" d="M86,82.84c.22-.66.36-1.31.58-2-1.31-.07-2.25.29-2.39,1.3.65.22,1.23.44,1.81.66"/><path class="cls-3" d="M87.05,83.71a8.28,8.28,0,0,1,1.16.5A69.59,69.59,0,0,0,90.6,70.53a67.9,67.9,0,0,0-1.45-18.32,51.1,51.1,0,0,0-9.48-21.73c-6-8-13.33-12.82-22.09-14-8.4-1.08-16.08,1.52-23,7.75A46.42,46.42,0,0,0,22,42.79,60.53,60.53,0,0,0,17.68,66a63.51,63.51,0,0,0,2.24,17.74c.37-.22.73-.44,1.16-.65A75,75,0,0,1,19,66a63.83,63.83,0,0,1,2.54-17.88c1.74-5.8,3.69-10.14,6-13.4A45.13,45.13,0,0,1,38.17,23.09a27.11,27.11,0,0,1,14.41-5.5,27.58,27.58,0,0,1,17.17,4.93A43.34,43.34,0,0,1,80.54,34.1a58.73,58.73,0,0,1,7,16.73,59.6,59.6,0,0,1,1.66,13.32c.58,6.52-.57,13-2.17,19.56"/><path class="cls-1" d="M88.86,116.87l-5.21,4.85c1.66.15,5.79-1.88,5.21-4.85"/><path class="cls-4" d="M12.54,52.86a2.07,2.07,0,0,1,1.45.87,3,3,0,0,1,.21,1.66,2.21,2.21,0,0,1-.87,1.52,1.87,1.87,0,0,1-1.59.29l-3.19-.65.22-1.09,3.12.58a1.42,1.42,0,0,0,1-.07,1,1,0,0,0,.43-.72,1.11,1.11,0,0,0-.14-.87,1.28,1.28,0,0,0-.87-.44l-3.19-.58.22-1.15Zm3.26-5.14-.29,1.08L11.23,50l3.7,1-.29,1-5-1.38.36-1.3,3.77-1.16-3.26-.79.29-1.09ZM17,44,16,46.7l-.79-.22.29-.79L12.1,44.46l-.29.79L11.09,45,12,42.36l.72.21-.29.8,3.48,1.23.22-.79Zm-3.11-6.88,4.27,3.55-.43,1.09-5.5.14.36-1.08,4.05-.08-3.11-2.53ZM20.58,35,19.13,38.3l-4.71-2.1,1.45-3.26.79.29-1,2.32,1,.43.95-2.1.79.37-.94,2.1,1.38.58,1-2.25ZM23.47,30l-.65,1.24-2.46.43-.36.58,1.73.94-.58,1-4.56-2.46L17.53,30a2.76,2.76,0,0,1,1.09-1.23,1.31,1.31,0,0,1,1.16.08,1.65,1.65,0,0,1,.87,1.66ZM17.9,31.13l1.37.73.29-.44a1.31,1.31,0,0,0,.22-.94,1.12,1.12,0,0,0-.44-.58.82.82,0,0,0-.58,0c-.21.07-.36.29-.57.65Zm5.5-1.52-.87-.72.07-.07a5.23,5.23,0,0,0,.94-.37,3.17,3.17,0,0,0,.73-.65,1.15,1.15,0,0,0,.36-.72.46.46,0,0,0-.14-.51,1.08,1.08,0,0,0-.44-.14c-.14,0-.29.14-.51.29s-.36.29-.72.57a1.85,1.85,0,0,1-1.09.51,1.45,1.45,0,0,1-1-.36,1.36,1.36,0,0,1-.51-1.16,2.88,2.88,0,0,1,.65-1.52,4.24,4.24,0,0,1,1.38-1.16l.87.65-.07.08a2.37,2.37,0,0,0-1.52.94,1.22,1.22,0,0,0-.29.65.42.42,0,0,0,.14.51.56.56,0,0,0,.44.14,3.22,3.22,0,0,0,.5-.29A6.65,6.65,0,0,1,23,25.7a1.57,1.57,0,0,1,.65-.43c.14,0,.36-.08.51-.08a.83.83,0,0,1,.43.08c.15.07.22.14.36.21a1.58,1.58,0,0,1,.58,1.31,2.39,2.39,0,0,1-.65,1.52,5.09,5.09,0,0,1-1.52,1.3m5-5.79-1.74,2.24-.65-.5.58-.65-2.9-2.32-.51.65-.58-.43,1.74-2.25.58.51-.51.65L27.24,24l.58-.65Zm.65-.8-3.33-3.91L27,18a4,4,0,0,1,1.52-.87,1.93,1.93,0,0,1,1.3,0A3,3,0,0,1,31,18a3.2,3.2,0,0,1,.58,1.37,2.13,2.13,0,0,1-.14,1.31A4.45,4.45,0,0,1,30.35,22Zm-2-4.05,2.32,2.75.43-.36a1.57,1.57,0,0,0,.22-2.54,1.6,1.6,0,0,0-2.53-.21Zm10-2.1-1,.65-.94-.65L33.39,18l.36,1.08-.94.65L31.44,14.4l1.08-.72Zm-2.68-.51L32.6,15l.58,2.18Zm3.25.22L35.13,12l1.45-.8a7.54,7.54,0,0,1,1.66-.58,1.92,1.92,0,0,1,1.24.36,2.16,2.16,0,0,1,1,1.09,2.43,2.43,0,0,1,.36,1.37,2,2,0,0,1-.43,1.31,3.94,3.94,0,0,1-1.31,1Zm-1.08-4.42,1.66,3.19.51-.29a1.57,1.57,0,0,0,.73-2.39A1.59,1.59,0,0,0,37,11.94Zm12.67.29-1.08.22-2.9-3.41L45.85,13l-1,.22L44,8.1l1.37-.21,2.54,2.89-.51-3.25,1-.22ZM55,11.94,53.89,12l-.51-1.09-2,.14-.29,1.16H49.9L51.5,7l1.3-.08Zm-1.95-1.81-.87-2-.65,2.11Zm6.59,1.81a5.17,5.17,0,0,1-1.09.37h-.72a2.23,2.23,0,0,1-1.81-.8,2.62,2.62,0,0,1-.58-2,2.64,2.64,0,0,1,.8-1.95A2.23,2.23,0,0,1,58.16,7a3.22,3.22,0,0,1,1.74.5l-.08,1.09h-.07a2.24,2.24,0,0,0-1.52-.8,1.49,1.49,0,0,0-1.09.44,2,2,0,0,0-.5,1.37A2,2,0,0,0,57,10.93a1.16,1.16,0,0,0,1,.58,2.35,2.35,0,0,0,.73-.07,8.31,8.31,0,0,0,.87-.51h.14ZM63,13.25l-2.75-.73.22-.72.79.22,1-3.55-.87-.22.21-.72,2.76.72-.22.8-.8-.29-1,3.55.87.21Zm2.9,1.08A2.28,2.28,0,0,1,64.46,13a2.49,2.49,0,0,1,.07-2,2.75,2.75,0,0,1,1.38-1.59,2.45,2.45,0,0,1,2,0,2.26,2.26,0,0,1,1.45,1.37,2.7,2.7,0,0,1-.14,2.1,2.52,2.52,0,0,1-1.38,1.59,2.31,2.31,0,0,1-2-.07m1.73-4.27a1.29,1.29,0,0,0-1.15.15,2.44,2.44,0,0,0-.8,1.15,2,2,0,0,0-.22,1.38,1.13,1.13,0,0,0,.73.87,1.45,1.45,0,0,0,1.08-.07,2.54,2.54,0,0,0,.87-1.16,2.82,2.82,0,0,0,.22-1.45,1.44,1.44,0,0,0-.73-.87m5.44,7.68-1-.51-.22-4.42L70,16.14l-.94-.5,2.46-4.57,1.24.66L73,15.64l1.6-3,.87.5Zm4.49,3.76-.95-.79.44-1.09-1.59-1.38-1,.65-.87-.72,4.85-2.75.95.8Zm-.22-2.68.79-2.1-2,1.09Zm3.18,5.65L78,21.94l3.77-3.7.79.87-3.11,3,1.74,1.74Zm2,2.25,4.35-2.9.87,1.37a3.45,3.45,0,0,1,.72,1.6,2.1,2.1,0,0,1-.14,1.3,3.51,3.51,0,0,1-1,1.09,2.36,2.36,0,0,1-1.37.43,2,2,0,0,1-1.31-.29,3.85,3.85,0,0,1-1.16-1.23Zm4.27-1.53-3,2,.36.44a1.55,1.55,0,0,0,2.46.5,1.6,1.6,0,0,0,.51-2.46Zm.66,9.35-1.74-3.19,4.56-2.53L92.05,32l-.8.44-1.16-2.18-1,.51,1.16,2-.8.43-1.08-2-1.31.72,1.16,2.17Zm3.83,4.56a1.23,1.23,0,0,1-1.23,0A1.64,1.64,0,0,1,89.15,38a6.52,6.52,0,0,1-.36-1.08l.8-.37.07.08a2.82,2.82,0,0,0,.14.87c.08.14.22.28.29.43a1.08,1.08,0,0,0,.44.14,3.37,3.37,0,0,0,.79-.21l2.18-1-.51-1,.8-.36.94,2.1Zm2.39,5.14a1.88,1.88,0,0,1-1.66-.07,2.11,2.11,0,0,1-1-1.38A2.74,2.74,0,0,1,91,41.13,2,2,0,0,1,92.27,40l3-1.09L95.67,40l-3,1.09a1.37,1.37,0,0,0-.8.58,1.5,1.5,0,0,0,0,.79,1.25,1.25,0,0,0,.58.73,1.46,1.46,0,0,0,.94-.08l3-1.08.37,1.08Zm.58,3.62a1.49,1.49,0,0,1-1.23-.22,1.86,1.86,0,0,1-.72-1.16,3.13,3.13,0,0,1-.22-1.15l.87-.22.07.07a1.49,1.49,0,0,0,0,.8,1.6,1.6,0,0,0,.22.5.39.39,0,0,0,.36.22,2.06,2.06,0,0,0,.87-.07L96.76,46l-.29-1.09.79-.29.65,2.25ZM96,53.22a1.73,1.73,0,0,1-1.59-.29,1.92,1.92,0,0,1-.8-1.45,2.7,2.7,0,0,1,.15-1.74,2.12,2.12,0,0,1,1.37-.87l3.26-.65.22,1.16L95.45,50a1.68,1.68,0,0,0-.87.51.9.9,0,0,0-.14.79c.07.37.22.66.43.73a1.45,1.45,0,0,0,1,.14L99,51.48l.22,1.09ZM100.3,58l-3.47-1.23-2,.36L94.66,56l1.88-.36,2.82-2.53.22,1.23-2,1.66,2.47.73Z"/><path class="cls-5" d="M12.75,109.12l-2.31.37.21,1.23,2.1-.29.08.94-2.1.22.36,2.46-1.09.14-.72-5.5,3.4-.44Zm4.71,3.41-3.18,1-1.67-5.29,1-.36L15,112.38l2.17-.72Zm4.78-2-1.08.44-.8-1-1.74.8.15,1.23-1,.43-.51-5.86,1.09-.44Zm-2.46-1.23-1.52-1.81.29,2.32Zm6.88-.87-.94.44-1.67-3.55.15,2.82-.66.29-2-2,1.66,3.54-.94.44-2.32-5.07,1.09-.51,2.39,2.18-.14-3.19,1.08-.51Zm5.14-2-1,.36-1.38-3.69L29.34,106l-.65.22-1.89-2,1.38,3.69-.94.29-2-5.21,1.09-.44,2.24,2.39.08-3.26,1.08-.36Zm4.78-1.23-1.09.29-.65-1.09L33,105l-.07,1.23-1,.29.36-5.87,1.16-.29Zm-2.25-1.6-1.23-2L33,104.05Zm7.17,1.45H40.42l-.15-3.91-.94,2.61-.72.07-1.16-2.61.14,3.91-.94.08-.22-5.58,1.16-.07,1.38,3,1.09-3,1.23-.07Z"/><path class="cls-5" d="M71.41,100.43l-1.74.08.22,4.63-1.16.07-.14-4.63-1.74.07v-.94l4.49-.22Zm4.42-.36-2.54,5.36-1.16-.15-1.3-5.79,1.16.15.87,4.2L74.67,100Zm2.39,6.45-1.16-.29L77,105l-2-.51-.72,1.08-1.09-.29,3.26-4.92,1.23.29Zm-1.31-2.47-.14-2.31-1.23,2Zm6.23,4.57-1-.44,1.59-3.62-2.1,2-.65-.29V103.4L79.38,107l-.95-.43,2.25-5.14,1.16.5v3.26L84.23,103l1.16.51Zm5.29,2.82-.94-.58,1.16-2.24-2-1-1.16,2.25-1-.51,2.6-4.92,1,.5-1,1.89,2,1,.94-1.88,1,.58Zm1.95,1.09a2.25,2.25,0,0,1-1.3-1.52,3,3,0,0,1,.29-2.18A3.57,3.57,0,0,1,91,107.17a2.35,2.35,0,0,1,2,.14,2.54,2.54,0,0,1,1.37,1.52,3.67,3.67,0,0,1-.36,2.25,3.61,3.61,0,0,1-1.52,1.59,2.26,2.26,0,0,1-2-.14m2.18-4.42a1.14,1.14,0,0,0-1.09.07,2.35,2.35,0,0,0-1,1.16,2.62,2.62,0,0,0-.37,1.52,1.05,1.05,0,0,0,.66.87,1,1,0,0,0,1.08,0,2.51,2.51,0,0,0,1-1.23,2.39,2.39,0,0,0,.36-1.45,1.28,1.28,0,0,0-.65-.94m6.59,6.52c-.51.14-.87.21-1.09.29h-.72a2.73,2.73,0,0,1-1.82-1,3.49,3.49,0,0,1-.43-2.17,3.36,3.36,0,0,1,.94-2,2.33,2.33,0,0,1,2-.58,4.33,4.33,0,0,1,1.73.65l-.14,1.16h-.14A2.23,2.23,0,0,0,98,110a1.23,1.23,0,0,0-1.09.44,2,2,0,0,0-.58,1.44,2.45,2.45,0,0,0,.22,1.53,1.44,1.44,0,0,0,1,.65,2.5,2.5,0,0,0,.73-.08,2.94,2.94,0,0,0,.87-.5h.14Z"/><path class="cls-5" d="M28.83,124.69H26.22v1.23h2.32v.94H26.22v2.47H25.06v-5.58h3.77Zm3,4.35a2.16,2.16,0,0,1-2-.51,3.43,3.43,0,0,1-.58-4.2,2.22,2.22,0,0,1,1.82-1,2.47,2.47,0,0,1,2,.5,3.13,3.13,0,0,1,.94,2,3,3,0,0,1-.36,2.17,2.41,2.41,0,0,1-1.81,1m-.72-4.85a1.4,1.4,0,0,0-.94.65,3.14,3.14,0,0,0-.15,1.52,2.44,2.44,0,0,0,.58,1.45,1.2,1.2,0,0,0,1.09.36,1,1,0,0,0,.94-.65,2.42,2.42,0,0,0,.14-1.52,2.61,2.61,0,0,0-.58-1.45,1.17,1.17,0,0,0-1.08-.36m7.75,3a4,4,0,0,1-.95.58,3.39,3.39,0,0,1-.72.29,2.6,2.6,0,0,1-2.1-.37,2.92,2.92,0,0,1-1.16-2,3.08,3.08,0,0,1,.29-2.17A2.55,2.55,0,0,1,36,122.38a4,4,0,0,1,1.88.07l.22,1.16H38a2.31,2.31,0,0,0-1.74-.37,1.5,1.5,0,0,0-1,.73,2.84,2.84,0,0,0-.08,1.59,2.58,2.58,0,0,0,.73,1.38,1.24,1.24,0,0,0,1.23.21,1,1,0,0,0,.65-.29,2.13,2.13,0,0,0,.72-.72l.15-.07Zm2.31-.15a2.41,2.41,0,0,1-2-.29A3.07,3.07,0,0,1,38,124.91a2.87,2.87,0,0,1,.21-2.25,2.33,2.33,0,0,1,1.67-1.23,2.94,2.94,0,0,1,2.1.29,3.76,3.76,0,0,1,1.16,2,2.93,2.93,0,0,1-.22,2.24,2.36,2.36,0,0,1-1.74,1.16m-1.08-4.78a1.11,1.11,0,0,0-.87.73,2.84,2.84,0,0,0,0,1.59,3,3,0,0,0,.65,1.38,1.33,1.33,0,0,0,1.16.21,1.22,1.22,0,0,0,.87-.72,2.77,2.77,0,0,0,0-1.52,2.28,2.28,0,0,0-.73-1.38,1.16,1.16,0,0,0-1.08-.29m11.66,3-1.24.15L50,124.33l-2.1.22-.29,1.23-1.16.07,1.45-5.72,1.3-.14Zm-2.18-1.88-1-2.17-.51,2.32ZM55.7,125a6.17,6.17,0,0,1-1.09.44,2.81,2.81,0,0,1-.72.07,2.46,2.46,0,0,1-2-.8,2.83,2.83,0,0,1-.72-2.1,3.42,3.42,0,0,1,.72-2.17,2.62,2.62,0,0,1,2-.72,3.92,3.92,0,0,1,1.81.43v1.16h-.08a2.4,2.4,0,0,0-1.59-.73,1.36,1.36,0,0,0-1.16.51,2.9,2.9,0,0,0,0,3,1.57,1.57,0,0,0,1.16.51,3.13,3.13,0,0,0,.72-.14,3.67,3.67,0,0,0,.87-.58h.08Zm4.63.65a3.43,3.43,0,0,1-1.09.22h-.79a2.64,2.64,0,0,1-1.81-1,3.63,3.63,0,0,1-.44-2.25,3.17,3.17,0,0,1,1-2,2.25,2.25,0,0,1,2-.51,3.57,3.57,0,0,1,1.74.65l-.14,1.16h-.07a2.53,2.53,0,0,0-1.53-.94,1.33,1.33,0,0,0-1.15.36,2.11,2.11,0,0,0-.66,1.45,2.42,2.42,0,0,0,.22,1.52,1.55,1.55,0,0,0,1.09.65,2.48,2.48,0,0,0,.72,0,3.1,3.1,0,0,0,.94-.5h.15Zm4.2,1.31-3.62-.8,1.23-5.5,3.62.87-.22.87-2.46-.58L62.79,123l2.32.58-.14.87-2.39-.5-.37,1.59,2.54.51Zm5.29,1.3L68.73,128l-1.38-4.56-.94,3.91-1.08-.22,1.37-5.43,1.38.37,1.16,4,.87-3.48,1.08.29Zm1.45.36,1.15-5.43,1.67.36a4.15,4.15,0,0,1,1.67.66,2.81,2.81,0,0,1,.79,1.15,2.87,2.87,0,0,1,0,1.6,4,4,0,0,1-.65,1.37,2.37,2.37,0,0,1-1.23.73,3.74,3.74,0,0,1-1.74-.07Zm2.1-4.34-.8,3.76.58.15a1.74,1.74,0,0,0,2.24-1.52,1.7,1.7,0,0,0-1.45-2.25Zm7.53,6-3.77-.44.65-5.57,3.77.43-.15.94-2.53-.29-.15,1.16,2.39.29-.14.94-2.39-.29-.15,1.6,2.54.29Z"/><path class="cls-1" d="M21.88,82.4l2-.79c0-1-1.38-1.6-2.46-1.24Z"/><path class="cls-4" d="M54.18,85.15c-8.26,0-14.7-9.05-14.7-19.77h29.4c0,10.72-6.38,19.77-14.7,19.77"/><path class="cls-6" d="M57.43,40.76h.22s-.14-1.08-2.1-.94h-.43l-.22.58,1.3-.07s.94-.07,1.23.43"/><path class="cls-6" d="M55.33,41.49c0-.07.29-.29.29-.29h.08c-.08,0-.08.07-.08.14a.51.51,0,0,0,.29.44h.37a.62.62,0,0,0,.29-.44V41.2a.58.58,0,0,1,.43.29l.43.07s-.29-1.09-2.1-.8a6.72,6.72,0,0,0-.43.73Z"/><path class="cls-6" d="M51.13,41.49l.44-.07c.07-.15.29-.22.43-.29v.14a.4.4,0,0,0,.29.43s.29.08.29,0a.44.44,0,0,0,.36-.43.07.07,0,0,0-.07-.07H53l.21.22c0,.07.44.07.44,0l-.44-.66c-1.88-.36-2.1.73-2.1.73"/><path class="cls-6" d="M52.22,40.33l1.38.07-.15-.58h-.36c-2-.14-2.25.94-2.25.94l.22-.07c.29-.51,1.16-.36,1.16-.36"/><path class="cls-7" d="M56.13,54.52l-.07-.07Z"/><path class="cls-5" d="M55.84,87.76a20,20,0,0,0,7-3.19c1.66.15,2.24-1.08,3.4-1.73a.36.36,0,0,0-.29-.15c.65-.43,1-1,1.74-1.59a1.46,1.46,0,0,0-.58-.15c1.08-.36.36-.79,1.37-1.59,0-.07-.07-.07-.14-.14.65-.44.65-1.09,1.23-1.74-.07-.15-.29-.22-.58-.22,1.16-.36,1.09-1.16,1.81-2a1.77,1.77,0,0,1-.51-.08c.66-.5.51-1.23,1-2a2.07,2.07,0,0,0-.73-.08c1.09-.43.94-1.44,1.52-2.39a1.05,1.05,0,0,0-.5-.14c.87-.8-.22-.51.43-2.25-.14-.14-.43-.07-.65.08.87-.73.65-1.6,1.16-2.68-.58-.15-1.88.79-2.25,1.52v-.15a2,2,0,0,1,.8-.79c1.23-1,.8-1.81,1.16-3-.65-.08-1.74.94-2,1.73,0-.14-.07-.21-.07-.29.22-.29.22-.72.94-1.08,1.09-.58.8-1.74,1.16-3a1.17,1.17,0,0,0-.65.21c.21-.79-.29-1.37-.15-2.31-.65,0-1.45,1.16-1.45,1.88-.07-.07-.14-.22-.21-.29a1.46,1.46,0,0,1,.65-1c1.08-1.31.14-2,.29-3.26-.15,0-.22,0-.29.07-.07-.58-.51-1-.58-1.81-.65.07-1.23,1.23-1.16,2a1,1,0,0,0-.29-.36A2,2,0,0,1,69,54.74c.58-1.23,0-1.81-.07-3a.86.86,0,0,0-.58.29c0-.8-.44-1.16-.73-2-.36,0-.79.58-.94,1.16a4.54,4.54,0,0,1,.15-.87c.07-1.59-.65-1.74-1.16-3a2,2,0,0,0-.51.94C65,47.14,64.6,46.85,64,45.83a2.69,2.69,0,0,0-.43,2.1,1.51,1.51,0,0,1,0-1,3.89,3.89,0,0,0-1.45-2.39,2.11,2.11,0,0,0,1-.43,2,2,0,0,1-.86-.08c-.29-.14-.51-.5-.8-.65s-.72.07-1.3-.36l3.18-.65-3.11-.58a.87.87,0,0,1,.58-.22,1.42,1.42,0,0,0,.94-.36,1.69,1.69,0,0,1,1.45-.51,1.68,1.68,0,0,0-1.74-.07c-.44.29-.65.07-1.38.07L62.72,39l-3.11.65c.5-.8.94-.44,1.3-1.38a2.16,2.16,0,0,1,.94-.87c-.58-.14-1.16.22-1.81.87a3.81,3.81,0,0,1-1.09.44c0-.08,1.82-2.68,1.82-2.68s-1.82,1.3-2.68,1.81V37.8c.14-.73.58-.58.72-1.38A1.7,1.7,0,0,1,59.39,35c-.72.15-1.09.65-1.38,1.45-.07.29-.5.43-.87.8,0,.07.66-3,.66-3L56,36.78a.93.93,0,0,1-.08-.43,2.26,2.26,0,0,0,.22-1,1.68,1.68,0,0,1,0-1.66c-1,.58-.58,1.45-.8,2.1-.14.21-.36.58-.5.79l-.44-3.11-.65,3.11c-.36-.5-.14-.72-.36-1.16s-.8-.5-.8-1.8c-.21.5-.43.79.07,2,.15.15-.07.73,0,1.16l-1.73-2.61.65,3c-.44,0-.51-.66-.87-.95s-1-.29-1.38-1.3c-.14.73.15,1.09.8,1.74a3.12,3.12,0,0,1,.43,1.16L48,36.06s1.74,2.68,1.81,2.68c-.65.07-.65-.73-1.81-.73a1.9,1.9,0,0,1-1.09-.5c.36,1.3,1.31.94,1.67,1.44.07.15.5.58.58.73L46,39l2.68,1.74c-.43.22-1-.36-1.59-.07a1.47,1.47,0,0,1-1.59,0c.58.8,1,.65,1.66.65a2.65,2.65,0,0,1,1.3.51l-3.11.58,3,.65c-.36.29-.94.07-1.37.43a1.5,1.5,0,0,1-1.52.66,1.36,1.36,0,0,0,1.66.21l-.8.8a.83.83,0,0,0-.21-.58c-.58.87-1.38.94-1.6,2.1a1.64,1.64,0,0,0-.29-.73c-.57,1-1.15,1.09-1.3,2.18-.14-.29-.22-.51-.36-.58-.51,1.16-1.38,1.45-1.09,3a4.33,4.33,0,0,1,.08.94c-.08-.65-.37-1.3-.8-1.37a4.21,4.21,0,0,0-.87,2,.67.67,0,0,0-.51-.22c-.07,1.23-1,1.6-.14,3A1.52,1.52,0,0,1,39.77,56a.16.16,0,0,0-.15.15c.07-.73-.58-1.88-1.23-2-.07.94-.51,1.31-.44,2a.93.93,0,0,0-.43-.07c.14,1.23-.8,1.74.36,3a1.46,1.46,0,0,1,.65,1,.39.39,0,0,0-.14.29c-.07-.8-.87-1.81-1.45-1.81.07,1.3-.58,1.3-.14,2.17a1.38,1.38,0,0,0-.66-.14c.37,1.23-.07,2.17,1.09,2.89a1.77,1.77,0,0,1,.94,1.09c0,.07-.07.15-.07.22-.22-.73-1.38-1.74-2-1.67.29,1,.15,2,.73,2.61a1.84,1.84,0,0,0-1-.22c.51,1.23.22,1.89,1.31,2.9a.91.91,0,0,0-.94-.15c.29.8.21,1.45.5,2a.93.93,0,0,0-.43.15c.58.94.36,1.73,1.37,2.31a.74.74,0,0,0-.57.15c.43.65.43,1.3.79,1.81-.14.07-.29.07-.36.22.72.72.8,1.44,1.59,1.88a.55.55,0,0,0-.5.22c.58.58.79,1.15,1.3,1.59a3.74,3.74,0,0,0-.58.22c.87.65.94,1.37,1.88,1.66a.82.82,0,0,0-.58.22c1.09.87.37,1.16,1.45,1.52a.87.87,0,0,0-.21.14c1.15.66,1.3,2.1,3.83,2.1a14.4,14.4,0,0,0,6.88,3.19ZM71.41,69h0c-.29.79,0,1.3-.72,1.88-.44.07-.44.22-.58.36a2.54,2.54,0,0,1,.36-.8A1.77,1.77,0,0,0,70,71a1.22,1.22,0,0,1-.58-.58c-.29-.65-.07-.94-.14-1.59.29.58.87,1.16.94,1.52.14-.58.94-1.38,1.23-1.3m-1.3.43h0a1.81,1.81,0,0,1,.65-.65,3.28,3.28,0,0,0-.65.87Zm1.66-3.11h0c-.43.79-.14,1.23-.94,2-.51.22-.51.29-.65.51l.43-.87a2.79,2.79,0,0,0-.58.65c-.07-.07-.29-.07-.5-.43-.29-.58-.08-.94-.08-1.52.29.43.8.87.87,1.23.22-.58,1.16-1.52,1.45-1.52m-1.45-.73h0a3.39,3.39,0,0,1,1.16-1.74c-.21.87.15,1.24-.58,2a1,1,0,0,0-.5.58,2,2,0,0,1,.29-.87,4,4,0,0,0-.51.65c-.07-.07-.29.08-.58-.36s-.22-.87-.36-1.45c.36.44,1,.8,1.08,1.16m-.94-1.88h0c.36.36.58.51.65.8a3.3,3.3,0,0,0-.58-.51c0-.07-.07-.15-.07-.29m2.1-2.46h0c-.21.87.15,1.23-.5,2-.51.29-.44.36-.58.58a3.71,3.71,0,0,1,.29-.87,2.29,2.29,0,0,0-.51.65c-.07-.07-.29,0-.65-.36-.36-.58-.15-.87-.29-1.45.36.44,1,.8,1.08,1.16a3.08,3.08,0,0,1,1.16-1.66M70.18,61h0c.07-.58.58-1.67.94-1.74-.07.87.36,1.16-.22,2-.43.29-.36.36-.5.58a2,2,0,0,1,.21-.87,1.75,1.75,0,0,0-.43.65c-.15,0-.29.07-.65-.29-.58-.43-.36-.72-.65-1.3.5.36,1.15.65,1.3.94M68.44,72.55h0c0-.14.07-.36.07-.5,0,.07.08.07.08.07.29,1.09.58,1.09.5,1.81L69,74a2.51,2.51,0,0,0-.58-1.45m-1.3,5.15h0a2.2,2.2,0,0,0-.36-1.09c.07-.07.14-.22.21-.29.08.72.29.94.15,1.38m1.08-.29h0a2.88,2.88,0,0,0-1.08.58v-.08a2.53,2.53,0,0,1,1.08-.5M66.2,76h0a8.82,8.82,0,0,1-5.8-1.67,2.72,2.72,0,0,0,.22-1.74c-.07-.36-.07,0-.14.22a3,3,0,0,1-.87,1.09,7.67,7.67,0,0,0-2.32-1.67c-.87-.5-.94-.8-1.45-1.08-.87.36-2.17,1.15-2.82.65-.58-.29.58-.58,1.08-1.31a1.42,1.42,0,0,1,1.6-.58,22.56,22.56,0,0,1,4,1.6c2.32.14,4.13.87,6.52,1.37a4.64,4.64,0,0,0,1.3.22A22.9,22.9,0,0,1,66.2,76M55.77,73.35h0c.72.8,1.37,1,1.81,2a.45.45,0,0,1-.73.14c-1.08-1.16-2.1-1.38-1.66-1.88-.22-.07-.44.22-.36.43.21.8,1.16,1.16,1.45,1.88-.15.58-1.31.08-1.81-1.37l-.08-.07c-.21.36-.36.58.36,1.44.22.37.29.73-.28.66.14.07-.29-.08-.08,0h.08a.08.08,0,0,0-.08-.08c.29-1.44-1.08-1.15-1.08-1.15.21-.51-.58-1.09-1.31-.73.08-.43-.72-1-1.88-.58-.14-.43-1.16-.79-2.1.36-1.74.15-4.56,1.67-6.23,1a23,23,0,0,1-1.08-2.9c1.95-.15,6.44-.44,8-1.16,1.24-.8,3.63-1.16,4.13-.87,0,.44-1,1.23-.5,1.59.86.87,2.31.51,3.25-.07,1,1,2.54,1.16,3.19,2.54l-.22.43c-.29.22-.36.22-.72-.36-.94-1.23-1.81-.94-2-1.81-.29.07-.07.51-.07.65M51.13,76h0c-.29.14.15-.22.29-.29l.15-.22c.29-.22.72-.65,1-.07.15.36-1,1-1.23,1.08s-.22.08-.36-.07,0-.36.14-.43m-1-.08h0c-.22,0-.36.08-.51-.14s.29-.58.44-.8a.45.45,0,0,1,.29-.14l.21-.22c.44-.07.37,0,.51.22s-.72,1-.94,1.08M53,76h0s.43-.51.65.22c.07.29-.44.58-.94.72-.22-.14-.8-.07.29-.94M49,75h0c-.22.07-.51-.22-.36-.29l.22-.37c.29-.14.5-.29.65-.14s-.36.8-.51.8m-7.6,1.23h0c0,.14-.07.21-.15.36.08-.15.08-.29.15-.44Zm-.29,1.37h0a6.11,6.11,0,0,0-.65-.43,1.44,1.44,0,0,1,.58.29.22.22,0,0,0,.07.14m-1.74-3.91h0v-.07c-.14-.65.15-.72.44-1.74.07.15.07.29.14.44-.29.43-.65.94-.58,1.37m.15-14.12h0l-.44.22c.07-.15.29-.22.51-.44a.27.27,0,0,1-.07.22m.14,6H53.38v4.06a7.55,7.55,0,0,0-2.61,0c-2.53.43-1.66,1.66-10.43,1.81a22.21,22.21,0,0,1-.72-5.87m8.55-20.06h0c.14-.14.28-.14.36-.72.36-1.09.94-.94,1.74-1.45.21.36-.66,1.52-1.24,2,.37-.08.87.36,1.38.57-.65.08-.87.37-1.45.22s-.43-.36-.58-.5a1.67,1.67,0,0,0,.51-.66,2.87,2.87,0,0,1-.72.58m10.57-.36h0A2.26,2.26,0,0,1,58,45,9.39,9.39,0,0,0,59,44.6c.58.15,1.09.44,1.16.94-.5-.14-.65.15-1.37.29s-1-.21-1.67-.36a.69.69,0,0,1-.22-.36h.95l-.08.07a1.62,1.62,0,0,0,1,0m-2.25-.87h0a2.06,2.06,0,0,0,.94-.21,1,1,0,0,1-.65,0c.36-.22.65-.58,1.23-.58.8,0,.8.43,1.23.21.08.44-2.17,1.45-2.75.58m-1.08-.14h0c.36.07.72.72,1.16,1.16-.58-.22-.87,0-1.38-.44s-.36-.51-.44-.65a1.36,1.36,0,0,0,.66-.43,4.93,4.93,0,0,1-.87.29,1.13,1.13,0,0,0,.58-.58c.65-.66,1-.29,1.88-.44a3.09,3.09,0,0,1-1.59,1.09m-1.81.14h0c.36,0,.79.58,1.3.94-.58-.07-.87.15-1.45-.14s-.36-.44-.43-.58a2,2,0,0,0,.5-.58,1.77,1.77,0,0,1-.72.43,1.27,1.27,0,0,0,.43-.65c.58-.72.87-.43,1.67-.79a2.55,2.55,0,0,1-1.3,1.37M52.37,45.4h0c-.58,0-.87.29-1.45,0s-.37-.36-.51-.51a1.29,1.29,0,0,0,.51-.58,1.94,1.94,0,0,1-.73.51,1,1,0,0,0,.44-.65c.58-.87,1-.65,1.81-1.09a3,3,0,0,1-1.38,1.52,7.09,7.09,0,0,1,1.31.8m10,2.9h.22a.25.25,0,0,0-.15.07.07.07,0,0,1-.07-.07m5.07,7h0a1.31,1.31,0,0,1,.36.22.4.4,0,0,0-.29-.08c-.07-.07-.07-.07-.07-.14M60.19,70.74h0C58.81,70.45,57,68.93,55,69.08V65.6H68.73a29.53,29.53,0,0,1-1,6.59c-2.75,0-5.29-1.52-7.53-1.45M68.8,59.45h0a3.64,3.64,0,0,1,.58.43,2.1,2.1,0,0,0-.58-.29Zm1.6-2.68h0c-.08.87.36,1.16-.22,1.95-.44.29-.29.44-.44.58a1.36,1.36,0,0,1,.15-.79,1.71,1.71,0,0,0-.36.65c-.15-.08-.29.07-.73-.29s-.36-.8-.65-1.38c.51.36,1.23.65,1.38,1a2.64,2.64,0,0,1,.87-1.74M69,56.7h0c-.07-.58.29-1.67.58-1.74.07.79.58,1.08.14,1.88-.36.36-.29.51-.29.65a3.65,3.65,0,0,1-.07-.87,2.87,2.87,0,0,0-.21.73c-.15,0-.29.14-.8-.22s-.51-.73-.87-1.23c.58.29,1.3.5,1.52.8m-.65-4.2h0c.14.86.58,1.08.22,2-.44.29-.29.43-.37.65a1.83,1.83,0,0,1,0-.87,1.38,1.38,0,0,0-.29.65.88.88,0,0,1-.72-.21c-.65-.44-.51-.73-.87-1.31.51.37,1.23.58,1.52.87-.14-.58.22-1.66.51-1.73m-1.16-1.81h0c.29.86.8,1.08.58,2a.69.69,0,0,0-.22.65,2,2,0,0,1-.22-.87,2.84,2.84,0,0,0-.07.73.9.9,0,0,1-.79-.15c-.73-.29-.66-.65-1.16-1.16a11.51,11.51,0,0,1,1.74.66,2.35,2.35,0,0,1,.14-1.81m-.58,1.37h0a.75.75,0,0,0-.43-.36l.43.22Zm-1-3.69h0c.43.79.72.72.65,1.81a.92.92,0,0,0,0,.79,2.12,2.12,0,0,1-.36-.86,2.77,2.77,0,0,0,.07.79.66.66,0,0,1-.73.15c-.57-.15-.65-.58-1.15-.94.58.07,1.3-.08,1.59.21a3,3,0,0,1-.07-2m-1.38.43h0A3.05,3.05,0,0,1,64,46.92c.51.72.8.58.87,1.59-.14.58-.07.65,0,.8a1.67,1.67,0,0,1-.36-.8,2.84,2.84,0,0,0,.07.8.61.61,0,0,1-.65.22c-.65-.08-.72-.44-1.3-.73.65,0,1.3-.22,1.59,0M62,45.11h0c.5.72,1,.65,1.15,1.74-.14.5-.07.5,0,.72a2.46,2.46,0,0,1-.43-.72,2.38,2.38,0,0,0,.15.72c-.15.07-.15.29-.73.22s-.72-.36-1.3-.65a7.21,7.21,0,0,1,1.66-.08,3.2,3.2,0,0,1-.5-2m-.37-.58h0a.58.58,0,0,1-.07.29.65.65,0,0,0-.29-.36,2.86,2.86,0,0,1,.36.07m-.14.72h0a1,1,0,0,0,.14.8h-.14A3.26,3.26,0,0,1,61,45.4a3.77,3.77,0,0,0,.29.8c-.07.14-.14.21-.43.21a1.69,1.69,0,0,1-1.31-.29c.51-.22.8-.5,1.31-.36v-.14a1.23,1.23,0,0,0-.51-.58A2,2,0,0,1,60,44c.58.58,1.16.36,1.45,1.3m-.58-1.44h-.65c-.07-.08-.15-.15-.22-.22a3.16,3.16,0,0,1,.87.22m-11.8-.58h0a1.5,1.5,0,0,0,.72-.44L48,42.28l1.95-.36s-.07-.14-1.23-.5c-.22-.08,0-.29-.94-.44.36-.07.22.07.87.15a5.06,5.06,0,0,0,1.45-.08,20.18,20.18,0,0,0-2-1.3s1.31.36,2.25.58c0-.07-.8-.65-1.31-1.3-.14-.15-.14-.29-.29-.44.58.22.58.44.87.58a4.29,4.29,0,0,0,1.23.51c-.57-.87-1.37-2-1.37-2l2,1.38A6.13,6.13,0,0,0,51,37.94a9.44,9.44,0,0,0-.36-1.09,4,4,0,0,0,1.59,1.74l-.43-2.53L53,38.3a6.37,6.37,0,0,0,0-1.16c.07-1.16.07-.43-.08-1.3a4,4,0,0,1,.22.94,7.17,7.17,0,0,0,.65,1.3l.51-2.31.36,2.31c.22-.43.22-.72.44-1.08a5.88,5.88,0,0,0,.5-1.16c-.21.94-.21.65-.29,1.16.08.51,0,1.16.15,1.23l1.45-2-.58,2.39c.14,0,.72-.79,1.3-1.16a2.77,2.77,0,0,0,.36-.58c-.29.44-.36.73-.58,1.09-.21.51-.14.36-.43,1.16l2-1.38-1.38,2s.15.07,1-.44a3.6,3.6,0,0,0,1.3-.58c-.65.66-1,.58-1.88,1.74l2.31-.51-2,1.24c.14.14.94-.08,1.52,0a1.61,1.61,0,0,0,1-.08c-.58.22-.72.15-1.38.37a3.79,3.79,0,0,0-.94.5l2.32.44s-2.32.5-2.68.65H57.8a.54.54,0,0,0-.29.07.81.81,0,0,0,.14-.51,17.2,17.2,0,0,0-2.1.15.64.64,0,0,0,0-.51c-.94.44-1.74.29-2.53.87a1,1,0,0,0-.15-.58c-.79.44-1.52.15-2.1.65a.93.93,0,0,0-.07-.43,5.43,5.43,0,0,0-2.17,1.09c-.15,0-.29-.08-.51-.08L48,43.66l-.07.07h-.44a6.79,6.79,0,0,0,1.67-.5M46.35,46h0c.29-.87.8-.8,1.38-1.38A2.39,2.39,0,0,1,47,46.34c.29-.07.94.29,1.59.36-.58.22-.72.51-1.45.44-.51-.08-.51-.29-.65-.37a2.5,2.5,0,0,0,.29-.65,4.3,4.3,0,0,1-.58.65,1,1,0,0,0,.14-.79m1.24.14Zm-2.68,1.09h0c.14-1,.58-.94,1.08-1.67a3.1,3.1,0,0,1-.43,2c.29-.22.94,0,1.59.07-.58.22-.65.65-1.3.65s-.58-.21-.73-.21a1.52,1.52,0,0,0,.15-.8,2.79,2.79,0,0,1-.36.8,1.44,1.44,0,0,0,0-.8m-.37.8h0c-.07.14-.07.29-.14.43a1.49,1.49,0,0,1,.14-.43m-1.3.57h0c.07-1.08.36-.94.87-1.66a3.05,3.05,0,0,1-.22,1.88c.29-.22.94,0,1.52,0-.5.29-.58.73-1.23.73s-.58-.15-.72-.15a1.62,1.62,0,0,0,.14-.8,3.53,3.53,0,0,1-.36.8c0-.22.15-.29,0-.8m-.72-.07h0a2.69,2.69,0,0,1-.08,2c.29-.22,1-.15,1.53-.22-.44.36-.51.8-1.09.94a.85.85,0,0,1-.73-.14,2.5,2.5,0,0,0,.08-.8,3.56,3.56,0,0,1-.29.87,1.11,1.11,0,0,0-.07-.8c0-1,.28-1,.65-1.81m-1,3.55h0c.15-.07.22-.14.29-.14s-.21.14-.29.21Zm-.58-1.16h0a1.92,1.92,0,0,1,.15,1.74A6.17,6.17,0,0,1,42.73,52c-.43.43-.43.79-1.08,1.16-.51.21-.65.07-.8.14a1.21,1.21,0,0,0-.07-.72,1.38,1.38,0,0,1-.22.79c0-.14.15-.21-.22-.65-.21-.79.29-1,.58-1.81m-1.3,3.62h0c-.43-.79.07-1.08.15-1.88.28.07.65,1.09.57,1.67.22-.29.95-.51,1.45-.87-.36.5-.21.87-.87,1.3a.9.9,0,0,1-.72.22,1.11,1.11,0,0,0-.22-.65,3,3,0,0,1,0,.79,1.06,1.06,0,0,0-.36-.58m1.23.8h0c0,.07-.07.14-.07.22a2.2,2.2,0,0,0-.65.29c.14-.22.36-.29.72-.51M38.75,55h0c.29.07.65,1.16.51,1.74a9.55,9.55,0,0,1,1.52-.8c-.36.51-.22.8-.87,1.23-.43.29-.58.15-.72.22A2.1,2.1,0,0,0,39,56.7a1.87,1.87,0,0,1-.07.86.6.6,0,0,0-.29-.65c-.44-.87.07-1.08.14-1.88m-.58,3.69h0C37.59,58,38,57.64,38,56.84c.29,0,.87,1.09.87,1.67.15-.37.8-.66,1.31-1-.22.58-.08.87-.58,1.38a2.1,2.1,0,0,1-.73.29,1.71,1.71,0,0,0-.36-.65,1.36,1.36,0,0,1,.15.79.84.84,0,0,0-.44-.58m-.87.58h0A2.64,2.64,0,0,1,38.17,61c.15-.36.8-.58,1.31-.94-.29.51-.15.87-.66,1.3a.73.73,0,0,1-.65.22,1.63,1.63,0,0,0-.36-.58,2.72,2.72,0,0,1,.14.8c-.07-.15,0-.29-.5-.58-.51-.8-.07-1.09-.15-2m.87,4.13h0a3.31,3.31,0,0,0-.51-.58,1.09,1.09,0,0,1,.29.8c-.07-.15-.07-.29-.5-.51-.73-.72-.44-.94-.65-1.74.29,0,1.08.87,1.23,1.45.07-.36.72-.72,1.08-1.16-.14.58.08.87-.29,1.38s-.5.36-.65.36m.8.22h0v.29a2.17,2.17,0,0,0-.65.5c.14-.36.29-.43.65-.79m-2.17.29h0c.29,0,1.08.94,1.23,1.52.07-.36.72-.65,1.08-1.09-.14.58.08.87-.29,1.38a1.12,1.12,0,0,1-.65.36l-.43-.65a4.93,4.93,0,0,1,.29.87,1.09,1.09,0,0,0-.58-.58c-.65-.8-.44-.94-.65-1.81M38,67h0v.07a4,4,0,0,0-.73-.87A1.53,1.53,0,0,1,38,67m-1.31-.58h0c.29,0,1.09.72,1.31,1.3.07-.36.58-.8.87-1.23,0,.58.29.87-.08,1.45-.21.43-.43.36-.5.43a2.66,2.66,0,0,0-.58-.58,1.79,1.79,0,0,1,.43.8,1.28,1.28,0,0,0-.65-.51c-1.16-1.08.07.37-.8-1.66m1.52,2.9h0v.14a2.83,2.83,0,0,0-.79-.87,2.58,2.58,0,0,1,.79.73m0,.79h0c0-.36.58-.94.87-1.52-.07.65.15.94-.14,1.59s-.44.44-.58.58a1.74,1.74,0,0,0-.51-.5,1.51,1.51,0,0,1,.36.79c-.14-.14-.07-.29-.58-.43-.72-.51-.36-.8-.65-1.59.29-.08,1,.58,1.23,1.08m-1.08.8h0c.22-.15,1.16.5,1.45,1a10.25,10.25,0,0,1,.65-1.59c.07.65.36.87.07,1.52s-.36.58-.43.65a1.72,1.72,0,0,0-.58-.36,2.17,2.17,0,0,1,.5.65c-.21-.07-.21-.22-.65-.29-.87-.43-.65-.87-1-1.59m2.32,3.47h0c-.08-.43.36-1,.65-1.59,0,.58.29.8.07,1.52a.78.78,0,0,1-.43.58c-.22-.14-.44-.29-.58-.36a4.58,4.58,0,0,1,.43.65.78.78,0,0,0-.65-.22c-.8-.43-.58-.94-1-1.66.29-.07,1.24.58,1.53,1.08m-1,.87h0a2.25,2.25,0,0,1,1.74.8,6.73,6.73,0,0,1,.36-1.67c.15.58.51.73.36,1.45a.79.79,0,0,1-.36.65,1.94,1.94,0,0,0-.65-.29,5.65,5.65,0,0,1,.65.58c-.22-.07-.22-.21-.72-.14-.94-.29-.8-.8-1.38-1.38m1.09,2.1h0a2.68,2.68,0,0,1,1.66.87c-.07-.36.29-.94.51-1.59.07.65.43.8.29,1.45-.07.5-.29.5-.36.65a1.28,1.28,0,0,0-.73-.29c.29.07.44.29.66.58-.22-.15-.22-.29-.73-.22-.94-.29-.72-.79-1.3-1.45m.79,1.81h0a2.93,2.93,0,0,1,1.89.51c-.15-.29.14-.94.21-1.52.22.51.58.65.58,1.3s-.21.58-.29.66a2.26,2.26,0,0,0-.72-.15,1.48,1.48,0,0,1,.72.43c-.21-.07-.21-.21-.79-.07-.94-.14-.94-.65-1.6-1.16M43,80.88h0c0,.07.08.22.08.29a1.86,1.86,0,0,0-1-.43,2.71,2.71,0,0,1,.87.14M41.5,81h0a3.11,3.11,0,0,1,1.89.65c-.15-.29.14-.94.29-1.52.21.58.57.72.5,1.37s-.21.51-.29.66a3,3,0,0,0-.72-.3,2.74,2.74,0,0,1,.72.51,1,1,0,0,0-.79-.14c-1-.22-1-.73-1.6-1.23m4.35,3h0a1,1,0,0,0-.8-.22c-1.08-.07-1.37-.8-2.17-1.23a3.41,3.41,0,0,1,2.1.43c-.22-.29-.07-.94-.07-1.52.36.51.72.58.79,1.23a5.32,5.32,0,0,0,.22,1.16,3.09,3.09,0,0,0-.58-.43,3.78,3.78,0,0,1,.51.58m5.5,2.75h0c-2.24-.72-4.27-1.81-4.78-2.61a3.81,3.81,0,0,1-.36-1.52v-.07a12.41,12.41,0,0,0,5.29,2.82h-.15c-.65.8-.29,1.24,0,1.38m2.75-1.88h0c-6.3-.08-10.06-5.29-11.51-7.75-.22-.29,3.62-1.52,4.49-1.74l1-.29c.08.51.87.65.8.44.22.14-.07.43.43.79s.8.15.87,0c-.29.36.8.94,1.45.51-.07.36.44.43.58.51a1.64,1.64,0,0,0,1.16,0v3.47c.07.65.14.8.43.94,1.38.07,1.09-.36,1.23-.79,0-1.52-.07-3.7-.07-3.62,1-.15.73-.37,1.09-.51a.82.82,0,0,0,1-.44.89.89,0,0,0,1.09-.5c.43.14,1-.22,1.37-1,.95.29,4.35,2.1,5.94,2.61-.72,1.16-4.63,7.39-11.37,7.39m11-3.62h0a1,1,0,0,1,.51-.15,3.9,3.9,0,0,0-.58.29c0-.07.07-.07.07-.14m-1.59,1.52h0v0ZM61.85,83h0c-.07.58-.14,1-.22,1.38-.58,1.08-3.54,2-4.78,2.46a.85.85,0,0,0,.08-1.38h-.08a12,12,0,0,0,5.07-2.6c0,.07-.07.07-.07.14m1.52,1h0a1.08,1.08,0,0,0-1,.36,1.61,1.61,0,0,1,.58-.65,2.2,2.2,0,0,0-.65.29c.07-.22,0-.51.07-1,.07-.65.51-.72.87-1.23-.08.58.14,1.23-.15,1.52A4.31,4.31,0,0,1,65.25,83c-.86.44-.86.94-1.88,1M65,82.62h0a1,1,0,0,0-.8.14,2.27,2.27,0,0,1,.73-.5,1.45,1.45,0,0,0-.73.21c-.07-.14-.29-.14-.29-.65s.36-.79.58-1.37c.07.58.36,1.23.22,1.59a3,3,0,0,1,2-.72c-.72.57-.65,1.08-1.66,1.3m1.16-1.88h0c-.51-.08-.58.07-.8.07a4.54,4.54,0,0,1,.8-.44,1.72,1.72,0,0,0-.8.22c0-.14-.22-.22-.22-.72-.07-.65.29-.8.58-1.38,0,.65.29,1.31.15,1.6.43-.37,1.66-.73,2-.51-.72.51-.65,1-1.66,1.16m1.15-1.52h0c-.57-.08-.57.07-.72.14a2.28,2.28,0,0,1,.58-.58,1.76,1.76,0,0,0-.65.29,1,1,0,0,1-.44-.65c-.14-.65.22-.8.37-1.45.14.65.5,1.23.43,1.67.36-.51,1.52-1,1.81-.87-.58.58-.43,1.08-1.38,1.45M68.51,77h0c-.5-.07-.5.07-.72.15a4.24,4.24,0,0,1,.65-.58,1.11,1.11,0,0,0-.65.36,1.3,1.3,0,0,1-.36-.73c-.15-.72.21-.86.36-1.44a5.62,5.62,0,0,1,.36,1.59c.36-.44,1.52-.87,1.74-.72-.58.57-.44,1.08-1.38,1.37m.87-1.74h0c-.5,0-.5.15-.65.29a2.68,2.68,0,0,1,.51-.72,3.18,3.18,0,0,0-.65.43c-.08-.14-.29-.14-.44-.65-.22-.72.07-.94.07-1.52A5.86,5.86,0,0,1,69,74.65c.29-.5,1.23-1.15,1.52-1.08-.44.72-.22,1.23-1.09,1.66m.22-1.66h0a.39.39,0,0,1,.36-.22c-.14.07-.29.07-.36.22m.65-.8h0c-.51,0-.51.22-.65.29a1.49,1.49,0,0,1,.51-.65,1.45,1.45,0,0,0-.66.36c-.07-.14-.28-.14-.43-.65-.29-.73.07-.94.07-1.59a10.48,10.48,0,0,1,.65,1.66C70,71.69,71,71,71.27,71.11c-.44.72-.22,1.23-1,1.66"/><path class="cls-4" d="M49.11,43.23a1.5,1.5,0,0,0,.72-.44L48,42.28l1.95-.36s-.07-.14-1.23-.5c-.22-.08,0-.29-.94-.44.36-.07.22.07.87.15a5.06,5.06,0,0,0,1.45-.08,20.18,20.18,0,0,0-2-1.3s1.31.36,2.25.58c0-.07-.8-.65-1.31-1.3-.14-.15-.14-.29-.29-.44.58.22.58.44.87.58a4.29,4.29,0,0,0,1.23.51c-.57-.87-1.37-2-1.37-2l2,1.38A6.13,6.13,0,0,0,51,37.94a9.44,9.44,0,0,0-.36-1.09,4,4,0,0,0,1.59,1.74l-.43-2.53L53,38.3a6.37,6.37,0,0,0,0-1.16c.07-1.16.07-.43-.08-1.3a4,4,0,0,1,.22.94,7.17,7.17,0,0,0,.65,1.3l.51-2.31.36,2.31c.22-.43.22-.72.44-1.08a5.88,5.88,0,0,0,.5-1.16c-.21.94-.21.65-.29,1.16.08.5,0,1.16.15,1.23l1.45-2-.58,2.39c.14,0,.72-.8,1.3-1.16a4.85,4.85,0,0,0,.44-.58,6.2,6.2,0,0,0-.66,1.09c-.21.51-.14.36-.43,1.16l2-1.38-1.38,2s.15.07,1-.44a3.6,3.6,0,0,0,1.3-.58c-.65.66-1,.58-1.88,1.74l2.31-.51-2,1.24c.14.14.94-.08,1.52,0a1.61,1.61,0,0,0,1-.08c-.58.22-.72.15-1.38.37a3.79,3.79,0,0,0-.94.5l2.32.44s-2.32.5-2.68.65H57.8a.54.54,0,0,0-.29.07.81.81,0,0,0,.14-.51,17.2,17.2,0,0,0-2.1.15.64.64,0,0,0,0-.51c-.94.44-1.74.29-2.53.87a1,1,0,0,0-.15-.58c-.79.44-1.52.15-2.1.65a.93.93,0,0,0-.07-.43,5.54,5.54,0,0,0-2.17,1.08c-.15,0-.29-.07-.51-.07L48,43.66l-.07.07h-.44a6.79,6.79,0,0,0,1.67-.5"/><path class="cls-5" d="M57.43,40.76h.22s-.14-1.08-2.1-.94h-.43l-.22.58,1.3-.07s.94-.07,1.23.43"/><path class="cls-5" d="M55.33,41.49c0-.07.29-.29.29-.29h.08c-.08,0-.08.07-.08.14a.51.51,0,0,0,.29.44h.37a.62.62,0,0,0,.29-.44V41.2a.58.58,0,0,1,.43.29l.43.07s-.21-1.09-2.1-.8a6.72,6.72,0,0,0-.43.73Z"/><path class="cls-5" d="M51.13,41.49l.44-.07c.07-.15.29-.22.43-.29v.14a.4.4,0,0,0,.29.43s.29.08.29,0a.44.44,0,0,0,.36-.43.07.07,0,0,0-.07-.07H53l.21.22c0,.07.44.07.44,0l-.44-.66c-1.88-.36-2.1.73-2.1.73"/><path class="cls-5" d="M52.22,40.33l1.38.07-.15-.58h-.36c-2-.14-2.25.94-2.25.94l.29-.07c.22-.51,1.09-.36,1.09-.36"/><path class="cls-4" d="M71.41,69c-.29.79,0,1.3-.72,1.88-.44.07-.44.22-.58.36a2.54,2.54,0,0,1,.36-.8A1.77,1.77,0,0,0,70,71a.94.94,0,0,1-.5-.58c-.37-.65-.15-.94-.22-1.59a8,8,0,0,1,.94,1.52c.14-.58.94-1.38,1.23-1.3"/><path class="cls-4" d="M71.77,66.33c-.36.79-.14,1.23-.94,2-.51.22-.51.29-.65.51l.43-.87a2.3,2.3,0,0,0-.5.65c-.15-.07-.37,0-.58-.43-.29-.58,0-.94-.07-1.52a8.08,8.08,0,0,1,.86,1.23c.22-.58,1.16-1.52,1.45-1.52"/><path class="cls-4" d="M70.32,65.6a3,3,0,0,1,1.24-1.74c-.29.87.07,1.23-.58,2-.51.29-.44.44-.58.58a3.71,3.71,0,0,1,.29-.87,4,4,0,0,0-.51.65c-.07-.07-.29.08-.58-.36s-.22-.87-.36-1.45c.43.44,1,.8,1.08,1.16"/><path class="cls-4" d="M71.56,61.26c-.29.87.07,1.23-.58,2-.51.29-.44.36-.58.58a3.71,3.71,0,0,1,.29-.87,2.29,2.29,0,0,0-.51.65c-.07-.07-.29,0-.58-.36-.43-.58-.22-.87-.36-1.45.36.44,1,.8,1.08,1.16a2.8,2.8,0,0,1,1.24-1.66"/><path class="cls-4" d="M70.25,61c0-.58.51-1.67.87-1.74-.07.87.36,1.16-.22,2-.43.29-.36.36-.43.58a1.9,1.9,0,0,1,.14-.87,1,1,0,0,0-.36.65.77.77,0,0,1-.72-.29c-.58-.43-.36-.72-.65-1.3a9,9,0,0,1,1.37.94"/><path class="cls-4" d="M48.17,45.54c.14-.14.29-.14.36-.72.36-1.09.94-.94,1.74-1.45.29.36-.66,1.52-1.24,2,.37-.08.87.36,1.38.57-.65.08-.87.37-1.45.22a1.52,1.52,0,0,1-.58-.5,1.67,1.67,0,0,0,.51-.66,1.43,1.43,0,0,1-.72.58"/><path class="cls-4" d="M58.74,45.18A2.69,2.69,0,0,1,58,45a3.78,3.78,0,0,0,1-.44c.58.15,1.08.44,1.15.94-.5-.14-.57.15-1.37.29s-1-.21-1.59-.36c-.22-.14-.29-.29-.29-.36h.94v.07a1.38,1.38,0,0,0,.94,0"/><path class="cls-4" d="M56.49,44.31a2,2,0,0,0,.94-.21,1,1,0,0,1-.65,0c.37-.22.65-.58,1.23-.58.8,0,.8.43,1.31.21,0,.44-2.25,1.45-2.83.58"/><path class="cls-4" d="M55.41,44.17c.36.07.72.72,1.16,1.16-.58-.22-.87,0-1.38-.44s-.36-.51-.36-.65a1.64,1.64,0,0,0,.58-.43,3.64,3.64,0,0,1-.8.28c.14-.14.29-.07.51-.57.65-.66,1-.29,1.88-.44a2.74,2.74,0,0,1-1.59,1.09"/><path class="cls-4" d="M53.6,44.31c.36.08.79.58,1.3.94-.58-.07-.87.22-1.45-.14s-.36-.44-.43-.58a1.88,1.88,0,0,0,.5-.58,1.5,1.5,0,0,1-.72.44,1,1,0,0,0,.43-.66c.58-.72.87-.43,1.67-.79a2.55,2.55,0,0,1-1.3,1.37"/><path class="cls-4" d="M70.4,56.77c-.08.87.36,1.16-.15,1.95-.51.36-.36.44-.51.65a1.6,1.6,0,0,1,.15-.86,1.71,1.71,0,0,0-.36.65c-.15-.08-.29.07-.73-.29s-.36-.8-.65-1.38c.51.36,1.23.65,1.38,1a2.64,2.64,0,0,1,.87-1.74"/><path class="cls-4" d="M69.09,56.69c-.14-.57.22-1.66.51-1.73.07.79.58,1.08.15,1.95-.37.29-.22.44-.29.58a3,3,0,0,1-.08-.8,2.41,2.41,0,0,0-.21.66c-.15,0-.29.14-.73-.22-.65-.36-.58-.73-.94-1.23a8.07,8.07,0,0,1,1.59.79"/><path class="cls-4" d="M68.37,52.49c.14.87.65,1.09.22,2-.44.36-.29.43-.37.65a1.83,1.83,0,0,1,0-.87,2.77,2.77,0,0,0-.28.65.89.89,0,0,1-.73-.21c-.65-.44-.51-.73-.87-1.31.51.37,1.23.58,1.52.87-.14-.58.22-1.66.51-1.74"/><path class="cls-4" d="M67.28,50.76c.22.79.73,1,.51,1.88a.73.73,0,0,0-.22.65,2,2,0,0,1-.22-.87,2.84,2.84,0,0,0-.07.73.9.9,0,0,1-.79-.15c-.66-.29-.66-.65-1.09-1.16.58.29,1.38.37,1.67.73-.22-.58-.08-1.74.21-1.81"/><path class="cls-4" d="M65.62,48.37c.43.79.72.72.65,1.81a.92.92,0,0,0,0,.79,2.78,2.78,0,0,1-.36-.86,2.77,2.77,0,0,0,.07.79c-.15.07-.22.29-.65.15-.65-.15-.73-.58-1.23-.94.65.07,1.3,0,1.59.21a3,3,0,0,1-.07-2"/><path class="cls-4" d="M64.24,48.8A3.06,3.06,0,0,1,64,46.92c.51.72.8.58.87,1.59a1.31,1.31,0,0,0,0,.8,1.67,1.67,0,0,1-.36-.8,2.84,2.84,0,0,0,.07.8c-.07.07-.14.29-.65.22s-.72-.44-1.3-.73c.65,0,1.3-.22,1.59,0"/><path class="cls-4" d="M62,45.11c.5.72,1,.65,1.16,1.74a1,1,0,0,0,0,.72,2.28,2.28,0,0,1-.44-.72,1.18,1.18,0,0,0,.22.72.79.79,0,0,1-.73.22c-.72,0-.79-.36-1.3-.65.58,0,1.23-.22,1.59-.08a3.1,3.1,0,0,1-.5-2"/><path class="cls-4" d="M61.49,45.25a1,1,0,0,0,.14.8h-.14c-.22-.22-.36-.51-.51-.65a8,8,0,0,0,.29.87c-.07.07-.14.14-.43.14a1.8,1.8,0,0,1-1.31-.29c.51-.21.8-.5,1.31-.36v-.14a1.17,1.17,0,0,0-.51-.58A2,2,0,0,1,60,44c.58.58,1.16.36,1.45,1.3"/><path class="cls-4" d="M46.36,46.05c.29-.94.79-.87,1.37-1.45.15.29-.29,1.38-.72,1.81.36-.14.94.22,1.59.36-.58.15-.72.51-1.45.37-.5-.08-.5-.29-.65-.37a2.2,2.2,0,0,0,.29-.65,3.82,3.82,0,0,1-.58.65c.07-.21.22-.21.15-.72"/><path class="cls-4" d="M44.91,47.21c.14-1,.65-.94,1.08-1.67.22.22-.07,1.45-.43,2,.29-.22.94,0,1.59.07-.58.22-.65.65-1.3.65s-.58-.21-.73-.21a1.41,1.41,0,0,0,.15-.8,2.79,2.79,0,0,1-.36.8,1.44,1.44,0,0,0,0-.8"/><path class="cls-4" d="M43.24,48.58c.07-1.08.36-.94.87-1.66a2.94,2.94,0,0,1-.22,1.88,5.42,5.42,0,0,1,1.52,0c-.5.29-.58.73-1.23.73a.76.76,0,0,1-.65-.15,3.1,3.1,0,0,0,.07-.8,1.58,1.58,0,0,1-.36.8c0-.22.15-.29,0-.8"/><path class="cls-4" d="M42.52,48.51a2.73,2.73,0,0,1-.07,2A4.53,4.53,0,0,1,44,50.25c-.51.36-.58.8-1.16.94a.62.62,0,0,1-.72-.14,2.84,2.84,0,0,0,.07-.8,1.84,1.84,0,0,1-.29.87,1.1,1.1,0,0,0-.07-.8c0-1,.29-1,.65-1.81"/><path class="cls-4" d="M40.92,50.9c.29.07.44,1.23.15,1.74A6.3,6.3,0,0,1,42.73,52c-.43.43-.36.79-1.08,1.16-.51.21-.65.07-.8.14a1.21,1.21,0,0,0-.07-.72,1.87,1.87,0,0,1-.22.87c0-.22.15-.29-.21-.66-.22-.86.28-1.08.57-1.88"/><path class="cls-4" d="M39.62,54.52c-.43-.79.07-1.08.15-1.88.28.07.65,1.09.57,1.74.22-.36.95-.58,1.53-.94-.44.58-.29.87-.87,1.3a1.12,1.12,0,0,1-.8.22,1.11,1.11,0,0,0-.22-.65,3,3,0,0,1,0,.79,1.06,1.06,0,0,0-.36-.58"/><path class="cls-4" d="M38.75,55c.29.07.65,1.16.51,1.74a9.55,9.55,0,0,1,1.52-.8c-.36.51-.22.8-.87,1.23-.43.29-.58.15-.72.22A2.1,2.1,0,0,0,39,56.7a1.88,1.88,0,0,1-.07.86.6.6,0,0,0-.29-.65c-.44-.87.07-1.08.14-1.88"/><path class="cls-4" d="M38.17,58.72C37.59,58,38,57.64,38,56.84a2.49,2.49,0,0,1,.86,1.67c.15-.37.87-.66,1.31-1-.22.58-.07.87-.58,1.38-.36.29-.58.21-.73.29a1.71,1.71,0,0,0-.36-.65,1.36,1.36,0,0,1,.15.79.84.84,0,0,0-.44-.58"/><path class="cls-4" d="M37.3,59.3A2.64,2.64,0,0,1,38.17,61c.15-.36.8-.58,1.31-.94-.29.5-.08.87-.58,1.3a1.9,1.9,0,0,1-.73.29,1.31,1.31,0,0,0-.36-.65,1.41,1.41,0,0,1,.15.8.82.82,0,0,0-.44-.58c-.58-.8-.14-1.09-.22-2"/><path class="cls-4" d="M38.17,63.5a5.23,5.23,0,0,0-.43-.65,2.53,2.53,0,0,1,.29.87c-.15-.22-.07-.36-.58-.58-.73-.72-.44-.94-.65-1.74.29,0,1.08.87,1.23,1.45.07-.36.72-.72,1.16-1.16-.22.58.07.87-.37,1.38a.87.87,0,0,1-.65.43"/><path class="cls-4" d="M36.8,63.94c.29,0,1.08.94,1.23,1.52.07-.36.72-.65,1.08-1.09-.14.58.08.87-.29,1.38s-.5.29-.65.36a3.18,3.18,0,0,0-.43-.65,4.23,4.23,0,0,1,.29.87c-.15-.15-.07-.29-.58-.58-.65-.8-.44-.94-.65-1.81"/><path class="cls-4" d="M36.72,66.4A2.29,2.29,0,0,1,38,67.7c.07-.36.58-.79.87-1.23,0,.58.29.87-.08,1.45-.21.43-.43.36-.5.43a2.46,2.46,0,0,0-.58-.58,1.69,1.69,0,0,1,.43.8,1.28,1.28,0,0,0-.65-.51c-1.16-1.08.07.37-.8-1.66"/><path class="cls-4" d="M38.24,70.09c0-.36.58-.94.95-1.52-.15.65.14.94-.22,1.59s-.44.44-.58.58a1.74,1.74,0,0,0-.51-.5,1.51,1.51,0,0,1,.36.79c-.14-.14-.07-.29-.57-.43C37,70.09,37.3,69.8,37,69c.29-.08,1,.57,1.23,1.08"/><path class="cls-4" d="M37.16,70.89c.29-.15,1.23.51,1.45,1.08a8.4,8.4,0,0,1,.65-1.66c.07.65.36.87.07,1.52s-.36.58-.43.65a1.72,1.72,0,0,0-.58-.36,2.17,2.17,0,0,1,.5.65,1,1,0,0,0-.65-.29c-.79-.36-.65-.87-1-1.59"/><path class="cls-4" d="M39.48,74.36c-.08-.36.36-1,.65-1.59,0,.58.29.8.07,1.52-.15.51-.36.51-.43.65a3.46,3.46,0,0,0-.58-.43,3.47,3.47,0,0,1,.43.65.78.78,0,0,0-.65-.22c-.8-.43-.58-.94-1-1.66.29-.07,1.24.58,1.53,1.08"/><path class="cls-4" d="M38.46,75.23a2.25,2.25,0,0,1,1.74.8,6.73,6.73,0,0,1,.36-1.67c.15.58.51.8.36,1.45a.79.79,0,0,1-.36.65.89.89,0,0,0-.65-.21c.29.07.43.29.65.5-.22-.07-.22-.21-.72-.14-.94-.22-.8-.8-1.38-1.38"/><path class="cls-4" d="M39.55,77.33a3.33,3.33,0,0,1,1.74.87c-.15-.36.29-.94.43-1.59.07.65.44.8.29,1.45-.07.5-.29.5-.36.65a1.29,1.29,0,0,0-.65-.29,1.16,1.16,0,0,1,.58.58c-.15-.15-.22-.29-.73-.22-.94-.29-.72-.79-1.3-1.45"/><path class="cls-4" d="M40.34,79.14a2.93,2.93,0,0,1,1.89.51,7.07,7.07,0,0,1,.21-1.52c.22.51.58.65.58,1.3s-.21.58-.29.65a2.14,2.14,0,0,0-.72-.14,1.48,1.48,0,0,1,.72.43c-.21,0-.21-.21-.79-.07-.94-.14-.94-.65-1.6-1.16"/><path class="cls-4" d="M41.5,81a3.45,3.45,0,0,1,2,.65c-.15-.29.14-.94.22-1.52.21.58.58.72.5,1.37s-.21.51-.29.66a2,2,0,0,0-.72-.29,2.5,2.5,0,0,1,.72.5,1,1,0,0,0-.79-.14c-1-.22-.94-.73-1.6-1.23"/><path class="cls-4" d="M45.85,84.07a1,1,0,0,0-.8-.22c-1.08-.07-1.37-.72-2.17-1.23a3.41,3.41,0,0,1,2.1.43c-.22-.29,0-.94-.07-1.52.36.51.72.65.79,1.23a4.59,4.59,0,0,0,.22,1.16,3.64,3.64,0,0,0-.58-.43c.22.22.36.43.51.58"/><path class="cls-4" d="M63.37,84a1.08,1.08,0,0,0-1,.36,1.61,1.61,0,0,1,.58-.65,2.2,2.2,0,0,0-.65.29c.07-.22,0-.51.07-1,.07-.65.51-.72.87-1.23-.07.58.14,1.23-.07,1.52a3.93,3.93,0,0,1,2.1-.36c-.87.44-.87.94-1.89,1"/><path class="cls-4" d="M65,82.62a1.14,1.14,0,0,0-.8.14,1.93,1.93,0,0,1,.8-.5,1.52,1.52,0,0,0-.8.21c-.07-.14-.29-.14-.29-.65s.36-.79.58-1.37c.07.65.36,1.23.22,1.59a3,3,0,0,1,2-.72c-.72.58-.65,1.08-1.66,1.3"/><path class="cls-4" d="M66.2,80.74a1.4,1.4,0,0,0-.73.07,2.54,2.54,0,0,1,.73-.44,1.28,1.28,0,0,0-.73.22,1,1,0,0,1-.29-.72c-.07-.65.29-.8.58-1.38a5.05,5.05,0,0,1,.15,1.67c.5-.44,1.66-.8,2-.58-.72.5-.65,1-1.66,1.16"/><path class="cls-4" d="M67.36,79.22c-.58-.08-.58.07-.73.14a2.28,2.28,0,0,1,.58-.58,2.65,2.65,0,0,0-.65.29c-.07-.07-.29-.07-.36-.65s.14-.8.29-1.45c.14.65.5,1.23.43,1.67.36-.51,1.52-1,1.81-.87-.58.58-.43,1.08-1.37,1.45"/><path class="cls-4" d="M68.51,77c-.5-.07-.5.07-.72.15a4.24,4.24,0,0,1,.65-.58,1.11,1.11,0,0,0-.65.36,1.3,1.3,0,0,1-.36-.73c-.15-.72.21-.86.36-1.44.14.58.51,1.23.36,1.66a2.38,2.38,0,0,1,1.81-.8c-.58.58-.51,1.09-1.45,1.38"/><path class="cls-4" d="M69.38,75.23c-.5,0-.5.22-.65.29a1.63,1.63,0,0,1,.51-.65,1,1,0,0,0-.58.36c-.15-.14-.36-.14-.51-.65-.22-.72.07-.87.07-1.52A5.86,5.86,0,0,1,69,74.65c.29-.5,1.23-1.15,1.52-1.08-.44.72-.22,1.23-1.09,1.66"/><path class="cls-4" d="M70.25,72.77a1,1,0,0,0-.65.29,1.49,1.49,0,0,1,.51-.65,3.07,3.07,0,0,0-.66.36c-.07-.14-.28-.14-.43-.65-.22-.73.07-.94.07-1.59a6.32,6.32,0,0,1,.65,1.66C70,71.69,71,71,71.27,71.11c-.44.72-.22,1.23-1,1.66"/><path class="cls-4" d="M66.2,76a8.82,8.82,0,0,1-5.8-1.67,2.66,2.66,0,0,0,.22-1.74c-.07-.36-.07,0-.14.22a2.06,2.06,0,0,1-.95,1.09,6.49,6.49,0,0,0-2.24-1.67c-.87-.5-.94-.79-1.45-1.08-.87.36-2.17,1.15-2.9.65-.5-.22.66-.58,1.16-1.31a1.42,1.42,0,0,1,1.6-.58,20.35,20.35,0,0,1,3.91,1.6c2.39.14,4.2.87,6.59,1.45a10.37,10.37,0,0,0,1.3.14A22.9,22.9,0,0,1,66.2,76"/><path class="cls-4" d="M55.77,73.35c.72.8,1.38,1,1.81,2a.44.44,0,0,1-.72.14c-1.09-1.16-2.1-1.38-1.67-1.88-.22-.07-.43.22-.36.43.14.8,1.16,1.16,1.45,2-.15.5-1.31,0-1.81-1.45l-.08-.07c-.21.36-.36.58.37,1.52.14.29.29.65-.29.58.14.07-.29-.08-.08,0h.08a.08.08,0,0,1-.08-.08c.29-1.44-1.08-1.15-1.08-1.15.21-.51-.58-1.09-1.31-.73.08-.43-.72-1-1.88-.58-.14-.43-1.16-.79-2.1.44-1.74.07-4.56,1.59-6.23.87-.07.07-1.08-2.76-1.16-2.83,2-.22,6.52-.51,8.12-1.23,1.23-.8,3.62-1.16,4.12-.87-.07.44-1,1.23-.5,1.59.86.87,2.24.51,3.25-.07,1,1,2.54,1.16,3.19,2.54l-.22.43c-.29.22-.36.22-.72-.36-.94-1.23-1.88-.94-2-1.81-.36.07-.07.51-.07.65"/><path class="cls-4" d="M51.13,76c-.36.14.15-.22.29-.29l.15-.22c.29-.22.72-.65,1,0,.15.29-1,.94-1.23,1s-.22.08-.36-.07,0-.36.14-.43"/><path class="cls-4" d="M50.12,75.88c-.22,0-.36.08-.51-.14s.29-.58.44-.8a.35.35,0,0,1,.29-.14l.21-.22c.44-.07.37,0,.44.22s-.65,1-.87,1.08"/><path class="cls-4" d="M52.94,76s.51-.51.73.22c.07.29-.44.58-.94.72-.22-.14-.8-.07.21-.94"/><path class="cls-4" d="M49,75c-.21.14-.5-.22-.36-.29l.22-.37c.29-.14.5-.29.65-.14s-.36.8-.51.8"/><path class="cls-5" d="M54.18,46.05c-7.83,0-14.27,8.33-14.56,18.76h29C68.37,54.38,62,46.05,54.18,46.05"/><path class="cls-8" d="M54.18,46.05c-7.83,0-14.27,8.33-14.56,18.76h29C68.37,54.38,62,46.05,54.18,46.05Z"/><path class="cls-6" d="M51.93,57.71c-.8.07-1.16.51-1.88.51a6.72,6.72,0,0,1,1.66-3.34A9.21,9.21,0,0,1,54.54,53l-.07-.14c-.66.07-2.39.43-2.9-.37-.07-.72,1-1.59,2.46-1.66a3.26,3.26,0,0,1,2.17.65,3.47,3.47,0,0,1,1.31,2.32,7.74,7.74,0,0,0-1.38.72c.15,0,.44.07.65.07.44,0,.58-.07.8-.07V55a.56.56,0,0,1,.14.29c-1.73.72-2.6,1.09-2.75.94a2.17,2.17,0,0,0,.73.15A11.6,11.6,0,0,0,57.8,56a.72.72,0,0,0,.5.8v.07c-1.81.94-2.46.87-2.6.72l-1.31-.21a6.2,6.2,0,0,0,1.67.79c.65.15,1.81-.43,2.46-.58l.22.8c-1.09,0-2.25,1.52-3.84.94-.8-.58-1.81-1.59-3-1.59"/><path class="cls-6" d="M53.38,60c-.8-.07-2,0-2.1-.07-.36-.07-1.45-.65-1.3-.87a2.92,2.92,0,0,0,1.37-.29c1.09-.5,2,.94,2,1.23"/><path class="cls-5" d="M58.88,59.08c-.07.29-.29.8-.58.87a16.62,16.62,0,0,0-1.88,0,1.77,1.77,0,0,0,.94-.29c1.74-.79,1.52-.58,1.52-.58"/><path class="cls-1" d="M54.25,86.53c.29,1.3-1.09,3.33,2.46,5.65.22-.22,1-.51,1.23-.73-4.2-2.31-3-3.25-3-5.35a5.27,5.27,0,0,0-.72.43"/><path class="cls-1" d="M54.47,85.23c-.15.14.14.07.07.21a9.74,9.74,0,0,1-1.16,1.67A11.43,11.43,0,0,1,51,88.7c-2.17,1.16-3.69.58-2.53-.94s2.17-4,6-2.53"/><path class="cls-1" d="M54.18,85.3c.07.14.07.43.14.58s0,.65.15.94-.15.14.07.29-.51-.73.36.22c1.74,2,3.84,2.39,4.92,2,1.52-.58.15-2.32-.29-2.9-.79-1.08-2.1-1.95-5.35-1.08"/><path class="cls-3" d="M55,85.88c.51.58.07.29.87,1.08,3.26,3.05,3.62-.14,1-1.08a3.29,3.29,0,0,0-1.89,0"/><path class="cls-3" d="M52.94,86.6c-.94.8-3.11,1.89-3.25,1.67s0-.44.21-.73a6.79,6.79,0,0,1,.94-1.15c.66-.58,1.74-1.38,2.39-.8.29.29.08.65-.29,1"/><path class="cls-1" d="M54.9,86.46c-1.59,1-.8,2.75-2.9,5.5-.21-.22-1.08-.22-1.3-.43,2.61-2.68,1.81-3.7,3.4-5.51a8.22,8.22,0,0,0,.8.44"/><path class="cls-1" d="M54.32,87.11a1.18,1.18,0,1,0,0-2.32,1.17,1.17,0,1,0,0,2.32"/><path class="cls-1" d="M47.88,60.68c-.22-3.48.07-4.85,3.4-8.33-1.38,1.59-1.52,1.95-1.52,4.85-2.83,4.27,11.58,4.06,8.4.15.07-3.55-.8-4.13-3-7a2.42,2.42,0,0,0-3.26-.14c-3.69,3.84-4.78,5-4.78,10.21-2.17,2.68,2.75,2.46.8.22"/><path class="cls-4" d="M47.59,60.68A9.68,9.68,0,0,1,48,56.41a12.59,12.59,0,0,1,3-4.2.2.2,0,0,1,.36,0c.15.07.15.21,0,.36a4.3,4.3,0,0,0-1.15,1.81A8.33,8.33,0,0,0,50,57.2v.15a1.21,1.21,0,0,0,.36,1.95,7.66,7.66,0,0,0,3.91.8,6.41,6.41,0,0,0,3.69-.94c.44-.37.58-.94,0-1.67-.07,0-.07-.07-.07-.14.07-3-.58-3.84-2.17-5.87-.22-.29-.51-.58-.8-.94a2.06,2.06,0,0,0-2.82-.07A19.63,19.63,0,0,0,48.31,55c-.72,1.37-.94,3-1,5.5a.26.26,0,0,1-.08.22c-.58.72-.5,1.16-.29,1.3a.61.61,0,0,0,.51.15A1.41,1.41,0,0,0,48,62c.22-.22.22-.58-.29-1.16-.07,0-.07-.07-.07-.14m.94-4.06a8.34,8.34,0,0,0-.44,3.91c.73.87.58,1.45.22,1.81a1.34,1.34,0,0,1-.87.37,1.44,1.44,0,0,1-.87-.29c-.43-.37-.58-1,.22-2a11,11,0,0,1,1.09-5.65,19.19,19.19,0,0,1,3.83-4.63V50h.08a2.69,2.69,0,0,1,3.54.15v.07a8.54,8.54,0,0,1,.73.94c1.74,2.1,2.39,2.9,2.32,6.08a1.45,1.45,0,0,1-.15,2.32,6.89,6.89,0,0,1-4,1,7.43,7.43,0,0,1-4.2-.87,1.68,1.68,0,0,1-.58-2.61,11.75,11.75,0,0,1,.14-2.46,7.54,7.54,0,0,0-1.08,1.95"/><path class="cls-3" d="M49.76,56.69c2.1-.79,6.15-.57,8.33.22v.51a17.06,17.06,0,0,0-8.33-.22.62.62,0,0,0,0-.51"/><path class="cls-3" d="M49.54,58.58a20.8,20.8,0,0,1,8.76.07c.66,1.81-8,2.61-8.76-.07"/><path class="cls-3" d="M54,58.43h0c.29,0,.94.22.94.58V65.6H53.38V59a.59.59,0,0,1,.65-.58"/></g></g></svg>