<svg xmlns="http://www.w3.org/2000/svg" viewBox="0 0 38.84 48"><defs><style>.cls-1,.cls-5,.cls-8{fill:#29292a;}.cls-1,.cls-2,.cls-3{fill-rule:evenodd;}.cls-2{fill:#f5f3ef;}.cls-3,.cls-4{fill:#fefefe;}.cls-6{fill:#087d9f;}.cls-7{fill:#221f20;}.cls-8{stroke:#29292a;stroke-miterlimit:10;stroke-width:0.23px;}</style></defs><g id="Capa_2" data-name="Capa 2"><g id="Capa_1-2" data-name="Capa 1"><path class="cls-1" d="M.89,29.92a2.57,2.57,0,0,0,.08.47,1.33,1.33,0,0,0-.42,1.33c0,.34.47.49,1.12.54a25.78,25.78,0,0,1-.91-4A21.79,21.79,0,0,1,.5,24.11a29.41,29.41,0,0,1,.81-7.55,32.17,32.17,0,0,1,1.77-4.79A29.18,29.18,0,0,1,6.54,6.4a18.94,18.94,0,0,1,4.79-4.11A17.21,17.21,0,0,1,17.66.1a15.31,15.31,0,0,1,5,.24,19.55,19.55,0,0,1,5.55,2.29,18.11,18.11,0,0,1,3.93,3.44,29.38,29.38,0,0,1,2.68,3.8,29,29,0,0,1,2.53,5.86,28,28,0,0,1,1,5.13,42.14,42.14,0,0,1,0,5.73,20.45,20.45,0,0,1-1.12,5.8c.47,0,1,0,1.15-.62a1.4,1.4,0,0,0-.45-1.12c0-.18,0-.39,0-.57a1.85,1.85,0,0,1,.42,2.86l-1.1,2.79c1.31,1,1.46,1.87.45,2.52A5.47,5.47,0,0,0,36.49,41a1.18,1.18,0,0,1-.81,1.28A4.74,4.74,0,0,1,32.56,42c.57.83.1,1.77-.84,2.74a4.25,4.25,0,0,0-.67,3c-3.49.68-5.37-.08-7.5-.65A14.49,14.49,0,0,1,15,47c-2.5.62-5,1.33-8,.62a4.24,4.24,0,0,0-.57-3.46,1.41,1.41,0,0,1-.13-2.37c-1.75.65-3.39.6-3.91-.26A5.89,5.89,0,0,0,1,37.91c-.91-.83-.44-1.71.6-2.34-.36-1-.73-1.93-1.07-2.92a1.73,1.73,0,0,1,.37-2.73Z"/><path class="cls-2" d="M7.53,28.62a29.58,29.58,0,0,1-.39-6.46,21.46,21.46,0,0,1,2.71-9.3,15.31,15.31,0,0,1,5.36-5.31A9.8,9.8,0,0,1,22.14,7a11.31,11.31,0,0,1,5.65,4.09c2.37,2.76,3.44,6.38,3.93,10.13A25.43,25.43,0,0,1,31.07,30c-.29-.1-.57-.28-.86-.39-.08-.54.34-.7,1-.65-.42-.23-1.25-.31-1.3.39,0,1.28.05,2.53,0,3.68a15.11,15.11,0,0,1-1.48,2.57,11.84,11.84,0,0,0-5.39-.31c0,1.3,0,2.63,0,3.93l1.75.11A10.07,10.07,0,0,1,19.33,41a8.68,8.68,0,0,1-5.5-1.85,15.9,15.9,0,0,1,1.95-.08c0-1.3,0-2.63.06-4a11.9,11.9,0,0,0-5.52.29c-.52-.88-1-1.74-1.44-2.63,0-1.17.11-2.34.13-3.49-.07-.81-.6-.81-1.32-.57.72,0,1.12.18,1,.68l-.91.39c-.11-.39-.19-.79-.29-1.2Z"/><path class="cls-3" d="M37.84,30.83c-.15.47-.28.94-.44,1.41a.77.77,0,0,0,.44-1.41Z"/><path class="cls-3" d="M23.28,35.6c0,1.12.06,2.26.06,3.38a13.22,13.22,0,0,1,6.77,1.51A22.17,22.17,0,0,0,33.52,42c1.41.21,2.47,0,2.6-.73a5.67,5.67,0,0,1,1.15-3.17A9.41,9.41,0,0,1,33,37.42l-4.85-1.69a11,11,0,0,0-4.87-.13Z"/><path class="cls-3" d="M31.12,34.56l.47.15c-.28.52-.57,1.07-.86,1.59a4.94,4.94,0,0,1-.52-.13,18.38,18.38,0,0,0,.91-1.61Z"/><path class="cls-3" d="M29.93,33.7a15.08,15.08,0,0,1-1.12,2l.44.16c.36-.55.7-1.17,1.07-1.83-.13-.1-.26-.23-.39-.33Z"/><path class="cls-3" d="M32.3,34.66c.07.78.1,1.54.1,2.32a10.41,10.41,0,0,0,4.48.86c1.17-.06,1.35-.91,0-1.88a14.68,14.68,0,0,0-4.6-1.3Z"/><path class="cls-3" d="M36.64,32.89a19.41,19.41,0,0,1-3.69.18c-1,.26-.94,1.07.2,1.43s2.17.42,3,.71a4.6,4.6,0,0,0,.54-2.32Z"/><path class="cls-3" d="M31.9,34.63c-.31-1.61.37-2,1.46-1.9a6,6,0,0,0,1-1.66,11.12,11.12,0,0,1-4.17-1.23,20.42,20.42,0,0,1,0,3.75c0,.11,1.72,1.2,1.74,1Z"/><path class="cls-3" d="M6.88,34.48c.44-1.51-.21-2.06-1.41-1.93a4.62,4.62,0,0,1-.88-1.35,20.54,20.54,0,0,0,4.19-1.62c0,1.3-.13,2.58-.08,3.83a6.21,6.21,0,0,1-1.82,1.07Z"/><path class="cls-3" d="M2,32.29l1,.16a29.21,29.21,0,0,1-1.27-10,24.56,24.56,0,0,1,2.89-11,22.26,22.26,0,0,1,6.64-7.63A16.32,16.32,0,0,1,19,1.17a14.37,14.37,0,0,1,8.55,2.47A19.42,19.42,0,0,1,33.13,9.4a23.09,23.09,0,0,1,3.23,7.26,28.53,28.53,0,0,1-.42,15.92c.31,0,.65-.06,1-.11,1.18-3.31,1.33-7.34,1-12.32A26.35,26.35,0,0,0,33.34,8a20.35,20.35,0,0,0-6-5.65A15.38,15.38,0,0,0,17.11.49a17.69,17.69,0,0,0-8.33,4,26.82,26.82,0,0,0-5,6.51A26.9,26.9,0,0,0,1,20,30,30,0,0,0,2,32.29Z"/><path class="cls-3" d="M7.74,34.35a3.34,3.34,0,0,0-.5.18c.29.52.58,1,.86,1.59L8.62,36a13.66,13.66,0,0,1-.88-1.61Z"/><path class="cls-3" d="M8.91,33.49a15.46,15.46,0,0,0,1.12,2c-.13.06-.29.11-.44.19-.34-.58-.71-1.18-1-1.83a4.07,4.07,0,0,0,.36-.36Z"/><path class="cls-3" d="M6.57,34.48a21.93,21.93,0,0,0-.13,2.32A10.68,10.68,0,0,1,2,37.65c-1.18-.07-1.33-.93,0-1.87a13.45,13.45,0,0,1,4.64-1.3Z"/><path class="cls-3" d="M2.19,32.68a19.74,19.74,0,0,0,3.7.21c1,.26,1,1-.18,1.41s-2.19.44-3,.72a5,5,0,0,1-.55-2.34Z"/><path class="cls-3" d="M1,30.65l.47,1.46a1.13,1.13,0,0,1-.78-.52A.86.86,0,0,1,1,30.65Z"/><path class="cls-3" d="M15.55,35.39c0,1.14,0,2.26-.05,3.41a13.41,13.41,0,0,0-6.77,1.48,19.48,19.48,0,0,1-3.41,1.46c-1.41.21-2.48.06-2.61-.7a5.27,5.27,0,0,0-1.14-3.18,8.91,8.91,0,0,0,4.27-.65c1.61-.55,3.23-1.12,4.84-1.66a11,11,0,0,1,4.87-.16Z"/><path class="cls-1" d="M22.92,47a15.41,15.41,0,0,1-3.65.41,16.16,16.16,0,0,1-3.64-.52,14.19,14.19,0,0,1,3.59-.41,12.17,12.17,0,0,1,3.7.52Z"/><path class="cls-3" d="M6.2,42.21c-.52,2.55,4,1.54,8.13.55a17.89,17.89,0,0,1,8-.13c2.05.49,4,1,6.19,1.38a4,4,0,0,0,2.82-.29,1.58,1.58,0,0,0,1-1.53c.28.28.41.67-.11,1.51a4.31,4.31,0,0,0-1.38,3.82,13.51,13.51,0,0,1-4.56-.07,20.67,20.67,0,0,1-2.63-.58,27.93,27.93,0,0,0-4.27-.7,27.56,27.56,0,0,0-6.72,1.09,14,14,0,0,1-5.33.16,5.69,5.69,0,0,0-.24-2.89,2.41,2.41,0,0,0-.62-.7c-.42-.58-.68-1.12-.24-1.62Z"/><path class="cls-3" d="M6.77,41.56c.71.65,1.41,1.33,2.11,2a3.67,3.67,0,0,1-2.21-.34,1.14,1.14,0,0,1,.1-1.67Z"/><path class="cls-3" d="M11.57,39.53a13.59,13.59,0,0,0,4.48,2.68c-.29.08-.58.13-.86.21a13.74,13.74,0,0,1-4.09-2.68c.15-.08.31-.13.47-.21Z"/><path class="cls-3" d="M10.58,43.33l-1.33.24a15.32,15.32,0,0,1-2.14-2.11L8,41.07a23.28,23.28,0,0,0,2.63,2.26Z"/><path class="cls-3" d="M8.65,40.68a18,18,0,0,0,2.89,2.5c-.21,0-.42,0-.65.1a13.91,13.91,0,0,1-2.66-2.34,4.78,4.78,0,0,0,.42-.26Z"/><path class="cls-1" d="M6.75,41.85c.55.54,1.12,1.09,1.66,1.56A1.88,1.88,0,0,1,6.72,43a.86.86,0,0,1,0-1.12Z"/><path class="cls-3" d="M27.11,39.63a13.83,13.83,0,0,1-4.5,2.71c.28,0,.57.13.86.18a14,14,0,0,0,4.11-2.65l-.47-.24Z"/><path class="cls-3" d="M28,43.67c.44,0,.83.1,1.27.18a23.07,23.07,0,0,0,2.53-2.19c-.29-.15-.63-.28-.91-.41A23,23,0,0,1,28,43.67Z"/><path class="cls-3" d="M30.13,40.83A20.55,20.55,0,0,1,27,43.44a5.25,5.25,0,0,1,.65.18,15.32,15.32,0,0,0,2.92-2.53,3.47,3.47,0,0,1-.45-.26Z"/><path class="cls-3" d="M32,41.72c-.81.75-1.59,1.48-2.37,2.24a2.77,2.77,0,0,0,1.85-.58c.67-.49.91-1,.52-1.66Z"/><path class="cls-3" d="M12.84,39.37l.63-.15a9.83,9.83,0,0,0,11.74.21l.71.07a10.22,10.22,0,0,1-13.08-.13Z"/><path class="cls-1" d="M30.94,29.79c.08-.23.13-.47.21-.7-.47,0-.81.1-.86.47.23.07.44.15.65.23Z"/><path class="cls-3" d="M31.31,30.1a3.65,3.65,0,0,1,.41.18,24.89,24.89,0,0,0,.86-4.92,24.1,24.1,0,0,0-.52-6.59A18.48,18.48,0,0,0,28.65,11a11.83,11.83,0,0,0-7.94-5.05A10,10,0,0,0,12.45,8.7a16.65,16.65,0,0,0-4.56,6.69,21.72,21.72,0,0,0-1.53,8.36,22.91,22.91,0,0,0,.8,6.38l.42-.24a26.72,26.72,0,0,1-.75-6.17,22.8,22.8,0,0,1,.91-6.43A16.42,16.42,0,0,1,9.9,12.47a16,16,0,0,1,3.83-4.16,9.55,9.55,0,0,1,5.18-2A9.88,9.88,0,0,1,25.08,8.1,15.73,15.73,0,0,1,29,12.26a21.11,21.11,0,0,1,2.53,6,21.66,21.66,0,0,1,.6,4.79,21.65,21.65,0,0,1-.78,7Z"/><path class="cls-1" d="M32,42l-1.88,1.74c.6.06,2.09-.67,1.88-1.74Z"/><path class="cls-4" d="M4.51,19a.72.72,0,0,1,.52.31,1.14,1.14,0,0,1,.08.6.85.85,0,0,1-.31.55.73.73,0,0,1-.58.1l-1.14-.23L3.15,20l1.12.2a.55.55,0,0,0,.37,0,.43.43,0,0,0,.1-.57.44.44,0,0,0-.31-.16l-1.15-.21.08-.42Zm1.17-1.85-.1.39L4,18l1.33.37-.11.36-1.79-.49.13-.47L5,17.34l-1.17-.28.1-.4Zm.42-1.33-.34,1-.29-.07.11-.29L4.35,16l-.1.28L4,16.2l.34-1,.26.08-.11.29L5.73,16l.08-.29ZM5,13.36l1.53,1.27L6.36,15l-2,.06.13-.39,1.46,0-1.12-.91ZM7.4,12.6l-.52,1.17L5.19,13l.52-1.17L6,12l-.36.83.36.16.34-.75.29.13-.34.75.49.21.37-.81Zm1-1.82-.23.44-.89.16-.13.21.63.34-.21.36L6,11.4l.34-.62a.91.91,0,0,1,.39-.44.43.43,0,0,1,.41,0,.6.6,0,0,1,.32.6Zm-2,.42.49.26L7,11.3c.08-.16.11-.26.08-.34A.43.43,0,0,0,7,10.75a.37.37,0,0,0-.21,0c-.08,0-.13.11-.21.24Zm2-.55-.31-.26,0,0a1.81,1.81,0,0,0,.34-.13A1.21,1.21,0,0,0,8.73,10a.4.4,0,0,0,.13-.26.17.17,0,0,0,0-.18.4.4,0,0,0-.16-.06c-.05,0-.1.06-.18.11l-.26.21a.69.69,0,0,1-.39.18.56.56,0,0,1-.37-.13.5.5,0,0,1-.18-.42A1.12,1.12,0,0,1,7.5,8.9,1.51,1.51,0,0,1,8,8.49l.31.23,0,0a.82.82,0,0,0-.54.34.45.45,0,0,0-.11.23c0,.08,0,.16.06.18a.17.17,0,0,0,.15.06L8,9.45a3,3,0,0,1,.26-.21.53.53,0,0,1,.24-.15l.18,0a.3.3,0,0,1,.16,0L9,9.16a.59.59,0,0,1,.21.47.82.82,0,0,1-.24.55,1.77,1.77,0,0,1-.55.47Zm1.8-2.08-.62.8-.24-.18L9.56,9l-1-.84-.18.24L8.13,8.2l.62-.81L9,7.58l-.18.23,1,.81.2-.24Zm.24-.29L9.25,6.87l.44-.39a1.65,1.65,0,0,1,.55-.31.75.75,0,0,1,.47,0,1.27,1.27,0,0,1,.44.31,1.3,1.3,0,0,1,.21.5.86.86,0,0,1,0,.47,1.5,1.5,0,0,1-.4.46ZM9.74,6.82l.84,1,.15-.13a.56.56,0,0,0,.08-.91.57.57,0,0,0-.91-.08Zm3.6-.75L13,6.3l-.34-.23L12,6.48l.13.39-.34.24-.49-1.93.39-.26Zm-1-.19-.65-.49.21.78ZM13.55,6l-.92-1.64L13.15,4a2.77,2.77,0,0,1,.6-.2A.66.66,0,0,1,14.2,4a.73.73,0,0,1,.36.39.82.82,0,0,1,.13.49.71.71,0,0,1-.16.47,1.49,1.49,0,0,1-.46.37Zm-.4-1.59.6,1.15.19-.11a.56.56,0,0,0,.26-.85.58.58,0,0,0-.89-.27Zm4.56.11-.39.08-1-1.23.21,1.36-.37.07-.31-1.85.5-.07.91,1L17,2.71l.37-.08Zm2.09-.19-.42,0-.18-.39-.73,0-.11.42H18l.57-1.9.47,0Zm-.71-.65-.31-.73-.23.76Zm2.37.65a1.7,1.7,0,0,1-.39.14h-.26a.82.82,0,0,1-.65-.29A1,1,0,0,1,20,3.41a1,1,0,0,1,.29-.7.79.79,0,0,1,.68-.21,1.16,1.16,0,0,1,.62.18l0,.39h0a.83.83,0,0,0-.55-.29.53.53,0,0,0-.39.16.73.73,0,0,0-.18.5.67.67,0,0,0,.13.49.42.42,0,0,0,.36.21.66.66,0,0,0,.26,0,1.59,1.59,0,0,0,.32-.18h0Zm1.2.47-1-.26.08-.26.28.08L22.4,3,22.09,3l.08-.26,1,.26-.07.28-.29-.1-.36,1.28.31.07Zm1,.39a.82.82,0,0,1-.52-.49.89.89,0,0,1,0-.73,1,1,0,0,1,.49-.57.85.85,0,0,1,.73,0,.82.82,0,0,1,.52.49,1,1,0,0,1-.05.76.9.9,0,0,1-.5.57.82.82,0,0,1-.7,0Zm.63-1.53a.47.47,0,0,0-.42,0,1,1,0,0,0-.29.42.69.69,0,0,0-.07.49.38.38,0,0,0,.26.31.48.48,0,0,0,.39,0,.93.93,0,0,0,.31-.42,1.06,1.06,0,0,0,.08-.52.54.54,0,0,0-.26-.31Zm2,2.76-.36-.18-.08-1.59-.65,1.2-.34-.19L25.73,4l.45.24.07,1.4.58-1.06.31.18Zm1.61,1.35-.33-.28.15-.39-.57-.5-.37.23-.31-.26,1.75-1,.34.29Zm-.07-1L28.1,6l-.7.39ZM29,8.8l-.91-.91L29.4,6.56l.29.31L28.57,8l.63.62Zm.73.81,1.56-1,.32.49a1.36,1.36,0,0,1,.26.57.76.76,0,0,1-.06.47,1.16,1.16,0,0,1-.36.39.82.82,0,0,1-.49.16.66.66,0,0,1-.47-.11A1.27,1.27,0,0,1,30,10.1Zm1.54-.55-1.07.73.13.16a.57.57,0,0,0,.89.18.59.59,0,0,0,.18-.89Zm.23,3.36-.62-1.15,1.64-.91.62,1.15-.28.15-.42-.78-.37.19.42.72-.28.16-.4-.73-.46.26.41.78Zm1.38,1.64a.43.43,0,0,1-.44,0,.57.57,0,0,1-.34-.39,3,3,0,0,1-.13-.39l.29-.13,0,0a.85.85,0,0,0,.06.31,1.3,1.3,0,0,0,.1.15.31.31,0,0,0,.16.06,1.27,1.27,0,0,0,.28-.08l.78-.37-.18-.36.29-.13.34.75Zm.86,1.85a.66.66,0,0,1-.6,0,.75.75,0,0,1-.36-.49,1,1,0,0,1,0-.6.75.75,0,0,1,.47-.39L34.27,14l.13.39-1.09.39A.49.49,0,0,0,33,15a.66.66,0,0,0,0,.28.47.47,0,0,0,.21.26.51.51,0,0,0,.34,0l1.1-.39.13.39Zm.21,1.3a.49.49,0,0,1-.44-.08.64.64,0,0,1-.26-.41,1,1,0,0,1-.08-.42l.31-.08,0,0a.43.43,0,0,0,0,.28.49.49,0,0,0,.08.19.13.13,0,0,0,.13.07s.15,0,.31,0l.81-.24-.11-.39L35,16l.23.81Zm.62,1.93A.63.63,0,0,1,34,19a.67.67,0,0,1-.28-.52.89.89,0,0,1,0-.62.72.72,0,0,1,.49-.31l1.17-.24.08.42L34.33,18a.6.6,0,0,0-.32.18.36.36,0,0,0,0,.29c0,.13.08.23.16.26a.56.56,0,0,0,.36.05l1.12-.24.08.39Zm1.54,1.72-1.25-.45-.7.13L34,20.15l.68-.13,1-.91.08.45-.7.59.88.26Z"/><path class="cls-5" d="M4.59,39.24l-.84.13.08.45.76-.11,0,.34-.75.08L4,41l-.39.06-.26-2,1.22-.16Zm1.69,1.23-1.15.36-.6-1.9.37-.13.49,1.61.79-.26ZM8,39.76l-.39.16-.29-.36-.62.28,0,.44-.37.16L6.2,38.33l.39-.15Zm-.89-.44-.54-.65.1.83ZM9.59,39l-.34.15-.6-1.27,0,1L8.47,39l-.73-.7.6,1.27L8,39.74l-.84-1.83.4-.18.85.78-.05-1.14.39-.18Zm1.85-.7-.37.13-.49-1.33,0,1-.23.08-.68-.73.49,1.33-.33.1L9.09,37l.39-.16.81.86,0-1.17.39-.13Zm1.71-.45-.39.11-.23-.39-.68.18,0,.44-.37.11.13-2.11.42-.11Zm-.8-.57-.45-.7,0,.83Zm2.58.52h-.4l0-1.41-.34.94-.26,0-.41-.94,0,1.41-.34,0-.08-2,.42,0L14,36.9l.39-1.09.45,0Z"/><path class="cls-5" d="M25.68,36.12l-.62,0,.07,1.67-.41,0,0-1.67-.63,0v-.34l1.61-.08ZM27.27,36l-.91,1.92-.42,0-.47-2.08.42,0,.31,1.51L26.85,36Zm.86,2.32-.42-.11,0-.44L27,37.58l-.26.39-.39-.11,1.17-1.77.45.11Zm-.47-.89-.05-.83-.44.7Zm2.24,1.64-.37-.16.58-1.3-.76.71-.23-.11v-1l-.57,1.3-.34-.16.8-1.85.42.18v1.18l.86-.78.42.18Zm1.9,1-.34-.21.42-.81-.7-.36-.42.8-.37-.18.94-1.77.37.18-.37.68.7.36.34-.67.37.21Zm.7.39a.84.84,0,0,1-.47-.55,1.12,1.12,0,0,1,.11-.78,1.28,1.28,0,0,1,.57-.6.85.85,0,0,1,.71.05.91.91,0,0,1,.49.55,1.36,1.36,0,0,1-.13.81,1.38,1.38,0,0,1-.55.57.83.83,0,0,1-.73-.05Zm.78-1.59a.45.45,0,0,0-.39,0,.85.85,0,0,0-.36.42.94.94,0,0,0-.13.55.38.38,0,0,0,.23.31.35.35,0,0,0,.39,0,.92.92,0,0,0,.37-.44.87.87,0,0,0,.13-.52.45.45,0,0,0-.24-.34Zm2.37,2.34-.39.11H35a1,1,0,0,1-.65-.37,1.32,1.32,0,0,1,.18-1.51.87.87,0,0,1,.71-.21,1.59,1.59,0,0,1,.62.24l0,.41h-.05a.8.8,0,0,0-.52-.33.43.43,0,0,0-.39.15.78.78,0,0,0-.21.52.84.84,0,0,0,.08.55.49.49,0,0,0,.36.23,1.23,1.23,0,0,0,.26,0,1.18,1.18,0,0,0,.31-.18h.06Z"/><path class="cls-5" d="M10.37,44.84H9.43v.44h.83v.34H9.43v.89H9v-2h1.36Zm1.09,1.56a.76.76,0,0,1-.73-.18,1,1,0,0,1-.36-.7,1.06,1.06,0,0,1,.15-.81.78.78,0,0,1,.66-.36.86.86,0,0,1,.72.18,1.09,1.09,0,0,1,.34.73,1.06,1.06,0,0,1-.13.78.83.83,0,0,1-.65.36Zm-.26-1.74a.53.53,0,0,0-.34.23,1.15,1.15,0,0,0,0,.55A.84.84,0,0,0,11,46a.4.4,0,0,0,.39.13.36.36,0,0,0,.34-.23.86.86,0,0,0,.05-.55,1,1,0,0,0-.21-.52.42.42,0,0,0-.39-.13ZM14,45.75a1,1,0,0,1-.34.21,1.45,1.45,0,0,1-.26.11,1,1,0,0,1-.76-.13,1.1,1.1,0,0,1-.41-.71,1.06,1.06,0,0,1,.1-.78A1,1,0,0,1,13,44a1.53,1.53,0,0,1,.67,0l.08.42h0a.86.86,0,0,0-.63-.13.52.52,0,0,0-.36.26,1,1,0,0,0,0,.57.89.89,0,0,0,.26.5.47.47,0,0,0,.44.08.36.36,0,0,0,.24-.11.8.8,0,0,0,.26-.26l.05,0Zm.83,0a.87.87,0,0,1-.73-.1,1.1,1.1,0,0,1-.41-.68,1,1,0,0,1,.07-.81.87.87,0,0,1,.6-.44,1.07,1.07,0,0,1,.76.1,1.3,1.3,0,0,1,.41.71,1,1,0,0,1-.07.8.86.86,0,0,1-.63.42ZM14.43,44a.4.4,0,0,0-.31.26,1.29,1.29,0,0,0,.23,1.07.48.48,0,0,0,.42.08.46.46,0,0,0,.31-.26,1,1,0,0,0,0-.55.8.8,0,0,0-.26-.49.41.41,0,0,0-.39-.11Zm4.19,1.1-.44.05L18,44.71l-.75.08-.11.44-.41,0,.52-2.06.47-.05Zm-.78-.68-.36-.78-.18.83ZM20,45a2.28,2.28,0,0,1-.39.15.86.86,0,0,1-.26,0,.88.88,0,0,1-.7-.29,1,1,0,0,1-.26-.75,1.18,1.18,0,0,1,.26-.78.9.9,0,0,1,.7-.26,1.47,1.47,0,0,1,.65.15v.42h0a.86.86,0,0,0-.57-.26.5.5,0,0,0-.42.18.88.88,0,0,0-.15.55.87.87,0,0,0,.15.54.57.57,0,0,0,.42.19,1,1,0,0,0,.26-.06,1.1,1.1,0,0,0,.31-.2h0Zm1.67.23a1.41,1.41,0,0,1-.39.08H21a.93.93,0,0,1-.65-.37,1.29,1.29,0,0,1-.16-.8,1.11,1.11,0,0,1,.37-.71.81.81,0,0,1,.73-.18,1.34,1.34,0,0,1,.62.24l-.05.41h0a.91.91,0,0,0-.54-.34.51.51,0,0,0-.42.13.8.8,0,0,0-.24.52.9.9,0,0,0,.08.55.6.6,0,0,0,.39.24,1.13,1.13,0,0,0,.26,0,1.09,1.09,0,0,0,.34-.19h.05Zm1.51.47-1.31-.29.45-2,1.3.32-.08.31-.88-.21-.11.42.84.21-.06.31-.86-.18-.13.57.91.18Zm1.9.47L24.72,46l-.5-1.64-.34,1.41-.39-.08.5-2,.49.13.42,1.44.31-1.25.39.1Zm.52.13.42-2,.59.13a1.47,1.47,0,0,1,.6.23,1,1,0,0,1,.29.42,1.09,1.09,0,0,1,0,.57,1.48,1.48,0,0,1-.23.49.84.84,0,0,1-.45.26,1.2,1.2,0,0,1-.62,0Zm.75-1.56L26.1,46l.21.05a.69.69,0,0,0,.28-1.35Zm2.71,2.16-1.35-.16.23-2,1.36.15-.06.34-.91-.1-.05.41.86.11-.05.34-.86-.11-.05.57.91.11Z"/><path class="cls-1" d="M7.87,29.63l.73-.28c0-.37-.5-.58-.89-.45Z"/><path class="cls-4" d="M19.48,30.62c-3,0-5.28-3.25-5.28-7.11H24.77c0,3.86-2.29,7.11-5.29,7.11Z"/><path class="cls-6" d="M20.65,14.66h.08s-.05-.39-.75-.34h-.16l-.08.21.47,0s.34,0,.44.16Z"/><path class="cls-6" d="M19.9,14.92s.1-.1.1-.1h0s0,0,0,0a.17.17,0,0,0,.11.15h.13a.2.2,0,0,0,.1-.15v0a.23.23,0,0,1,.16.1l.15,0s-.1-.39-.75-.29a2,2,0,0,0-.16.26Z"/><path class="cls-6" d="M18.39,14.92l.16,0c0-.05.1-.07.15-.1v.05a.15.15,0,0,0,.11.16s.1,0,.1,0a.17.17,0,0,0,.13-.16s0,0,0,0h.06l.07.07s.16,0,.16,0l-.16-.23c-.67-.13-.75.26-.75.26Z"/><path class="cls-6" d="M18.78,14.5l.49,0-.05-.21h-.13c-.73-.05-.81.34-.81.34l.08,0c.11-.18.42-.13.42-.13Z"/><path class="cls-7" d="M20.19,19.61l0,0,0,0Z"/><path class="cls-5" d="M20.08,31.56a7.12,7.12,0,0,0,2.53-1.15c.6.06.81-.39,1.22-.62a.11.11,0,0,0-.1-.05c.23-.16.36-.37.62-.58a.59.59,0,0,0-.21-.05c.39-.13.13-.28.5-.57,0,0,0,0-.05-.05.23-.16.23-.39.44-.63a.23.23,0,0,0-.21-.08c.42-.13.39-.41.65-.7l-.18,0c.23-.19.18-.45.36-.73a.66.66,0,0,0-.26,0c.39-.16.34-.52.55-.86a.32.32,0,0,0-.18-.05c.31-.29-.08-.18.16-.81-.06,0-.16,0-.24,0,.31-.26.24-.58.42-1-.21-.05-.68.29-.81.55v-.05a.7.7,0,0,1,.29-.29c.44-.34.28-.65.41-1.09-.23,0-.62.34-.73.62,0-.05,0-.07,0-.1s.08-.26.34-.39.28-.63.41-1.07a.46.46,0,0,0-.23.08c.08-.29-.11-.5-.05-.83-.24,0-.52.41-.52.67,0,0-.06-.08-.08-.1a.51.51,0,0,1,.23-.37c.39-.46.05-.73.11-1.17-.06,0-.08,0-.11,0,0-.21-.18-.37-.21-.65-.23,0-.44.44-.41.73a.33.33,0,0,0-.11-.13.75.75,0,0,1,.21-.39c.21-.45,0-.66,0-1.1a.29.29,0,0,0-.21.11c0-.29-.16-.42-.26-.73-.13,0-.29.21-.34.41a1.4,1.4,0,0,1,.05-.31c0-.57-.23-.62-.42-1.07a.82.82,0,0,0-.18.34c-.05-.39-.21-.49-.42-.86a1,1,0,0,0-.15.76.56.56,0,0,1,0-.37,1.41,1.41,0,0,0-.52-.86.7.7,0,0,0,.36-.15.79.79,0,0,1-.31,0c-.1-.05-.18-.18-.29-.23s-.26,0-.47-.13l1.15-.24L21.67,15a.34.34,0,0,1,.21-.07.54.54,0,0,0,.34-.13.6.6,0,0,1,.52-.19.62.62,0,0,0-.63,0c-.15.1-.23,0-.49,0l.94-.6-1.12.24c.18-.29.33-.16.46-.5a1,1,0,0,1,.34-.31c-.21-.05-.41.08-.65.31a1.27,1.27,0,0,1-.39.16s.65-1,.65-1-.65.47-1,.65v0c.05-.26.21-.21.26-.49a.59.59,0,0,1,.21-.52c-.26.05-.39.23-.5.52,0,.1-.18.15-.31.28s.23-1.09.23-1.09l-.65.94a.48.48,0,0,1,0-.16.79.79,0,0,0,.08-.36.61.61,0,0,1,0-.6c-.37.21-.21.52-.29.75l-.18.29L19.56,12l-.23,1.12c-.13-.18-.06-.26-.13-.42s-.29-.18-.29-.65c-.08.18-.16.29,0,.73,0,0,0,.26,0,.42l-.63-.94.24,1.09c-.16,0-.19-.23-.32-.34s-.36-.1-.49-.46c0,.26.05.39.28.62a1.26,1.26,0,0,1,.16.42L17.24,13s.63,1,.65,1c-.23,0-.23-.26-.65-.26a.68.68,0,0,1-.39-.18c.13.47.47.34.6.52s.18.21.21.26L16.54,14l1,.62c-.15.08-.36-.13-.57,0a.53.53,0,0,1-.57,0c.21.28.36.23.6.23a1.07,1.07,0,0,1,.47.18l-1.12.21,1.09.24c-.13.1-.34,0-.5.15-.33.39-.65.19-.54.24a.5.5,0,0,0,.6.08l-.29.28a.32.32,0,0,0-.08-.21c-.21.32-.49.34-.57.76a.64.64,0,0,0-.1-.26c-.21.34-.42.39-.47.78-.06-.1-.08-.18-.13-.21-.19.42-.5.52-.39,1.1a2.13,2.13,0,0,1,0,.33c0-.23-.13-.47-.28-.49a1.53,1.53,0,0,0-.32.7.23.23,0,0,0-.18-.08c0,.45-.36.58-.05,1.1.18.15.15.28.18.41a.06.06,0,0,0-.05.06c0-.26-.21-.68-.44-.71,0,.34-.19.47-.16.73a.41.41,0,0,0-.16,0c.06.44-.28.62.13,1.06a.53.53,0,0,1,.24.37.11.11,0,0,0,0,.1c0-.28-.32-.65-.53-.65,0,.47-.2.47,0,.78a.47.47,0,0,0-.23-.05c.13.44,0,.78.39,1a.64.64,0,0,1,.34.39s0,.06,0,.08c-.08-.26-.49-.62-.7-.6.1.37.05.73.26.94a.75.75,0,0,0-.37-.08c.19.44.08.68.47,1a.35.35,0,0,0-.34-.05c.11.29.08.52.19.73a.43.43,0,0,0-.16.05c.21.34.13.63.5.84a.29.29,0,0,0-.21.05c.15.23.15.47.28.65,0,0-.1,0-.13.08.26.26.29.52.58.67a.23.23,0,0,0-.19.08c.21.21.29.42.47.58l-.21.07c.32.24.34.5.68.6a.32.32,0,0,0-.21.08c.39.31.13.42.52.55a.16.16,0,0,0-.07.05c.41.23.46.75,1.38.75h0a5.17,5.17,0,0,0,2.47,1.15Zm5.6-6.74h0c-.1.28,0,.46-.26.67a.27.27,0,0,0-.21.13,1,1,0,0,1,.13-.28.52.52,0,0,0-.18.18.51.51,0,0,1-.21-.21c-.1-.23,0-.34-.05-.57.1.21.31.41.34.54.05-.2.34-.49.44-.46Zm-.47.15h0a.66.66,0,0,1,.24-.23,1.08,1.08,0,0,0-.24.31V25Zm.6-1.12h0c-.16.29,0,.45-.34.71-.18.07-.18.1-.23.18l.15-.31a.9.9,0,0,0-.2.23s-.11,0-.19-.16,0-.34,0-.54c.1.15.28.31.31.44.08-.21.42-.55.52-.55Zm-.52-.26h0a1.13,1.13,0,0,1,.42-.62c-.08.31.05.44-.21.73-.16.1-.16.15-.18.2a.8.8,0,0,1,.1-.31,1.25,1.25,0,0,0-.18.24s-.11,0-.21-.13-.08-.32-.13-.52c.13.15.36.28.39.41ZM25,22.91h0c.13.14.21.19.24.29A2,2,0,0,0,25,23s0-.05,0-.11Zm.76-.88h0c-.08.31.05.44-.19.7-.18.11-.15.13-.2.21a1.24,1.24,0,0,1,.1-.31.8.8,0,0,0-.18.23.44.44,0,0,1-.24-.13c-.13-.21-.05-.31-.1-.52.13.16.36.29.39.42a1.07,1.07,0,0,1,.42-.6ZM25.24,22h0c0-.21.21-.6.34-.62,0,.31.13.41-.08.73-.16.1-.13.13-.18.2a.73.73,0,0,1,.07-.31.63.63,0,0,0-.15.24s-.11,0-.24-.11-.13-.26-.23-.47c.18.13.42.24.47.34Zm-.63,4.14h0c0-.05,0-.13,0-.18a0,0,0,0,0,0,0c.1.39.2.39.18.65l0,0a.85.85,0,0,0-.21-.52Zm-.47,1.85h0a.75.75,0,0,0-.13-.39l.08-.1c0,.26.11.33.05.49Zm.39-.1h0a1.1,1.1,0,0,0-.39.21v0c.11-.05.19-.16.39-.18Zm-.72-.52h0a3.22,3.22,0,0,1-2.09-.6,1,1,0,0,0,.08-.63c0-.13,0,0-.05.08a1.05,1.05,0,0,1-.31.39,2.8,2.8,0,0,0-.84-.6,6.22,6.22,0,0,1-.52-.39c-.31.13-.78.42-1,.24s.2-.21.39-.47a.5.5,0,0,1,.57-.21,7.82,7.82,0,0,1,1.43.57,14.51,14.51,0,0,1,2.35.5,1.72,1.72,0,0,0,.46.07,9.16,9.16,0,0,1-.46,1.05Zm-3.75-.94h0c.26.28.49.36.65.7a.16.16,0,0,1-.26.05c-.39-.41-.76-.49-.6-.67-.08,0-.16.07-.13.15.08.29.41.42.52.68,0,.21-.47,0-.65-.49l0,0c-.08.13-.13.21.13.52.08.13.11.26-.1.23.05,0-.11,0,0,0h0s0,0,0,0c.11-.52-.39-.42-.39-.42.08-.18-.21-.39-.47-.26,0-.16-.26-.36-.68-.21-.05-.15-.41-.28-.75.13-.63.06-1.64.6-2.24.34a7.32,7.32,0,0,1-.39-1,12.58,12.58,0,0,0,2.89-.42A2.39,2.39,0,0,1,19,25.31c0,.16-.36.44-.18.57a1,1,0,0,0,1.17,0c.34.36.92.41,1.15.91l-.08.16c-.1.07-.13.07-.26-.13-.34-.45-.65-.34-.73-.66-.1,0,0,.19,0,.24Zm-1.67.94h0c-.11.05.05-.08.1-.11l.06-.08c.1-.07.26-.23.36,0s-.36.36-.44.39-.08,0-.13,0,0-.13.05-.15Zm-.37,0h0c-.07,0-.13,0-.18-.05S18,27,18,27a.15.15,0,0,1,.1-.05l.08-.08c.16,0,.13,0,.18.08s-.26.36-.34.39Zm1.05.05h0s.15-.18.23.08c0,.1-.16.21-.34.26s-.28,0,.11-.34ZM17.61,27h0c-.08,0-.18-.08-.13-.11l.08-.13c.1,0,.18-.1.23,0s-.13.29-.18.29Zm-2.74.44h0a.24.24,0,0,1,0,.13.75.75,0,0,0,0-.16v0Zm-.1.49h0a1.67,1.67,0,0,0-.24-.15.46.46,0,0,1,.21.1.06.06,0,0,0,0,.05Zm-.63-1.4h0v0c-.05-.23.06-.26.16-.62a.88.88,0,0,1,0,.15.9.9,0,0,0-.21.5Zm.06-5.08h0l-.16.08c0-.05.1-.08.18-.16a.12.12,0,0,1,0,.08Zm.05,2.16H19.2v1.46a2.93,2.93,0,0,0-.94,0,8.14,8.14,0,0,1-3.75.65,7.74,7.74,0,0,1-.26-2.11Zm3.07-7.21h0c.05-.05.11-.05.13-.26.13-.39.34-.34.63-.52.07.13-.24.54-.45.7.13,0,.32.13.5.21-.24,0-.31.13-.52.08s-.16-.13-.21-.19a.53.53,0,0,0,.18-.23.89.89,0,0,1-.26.21Zm3.8-.13h0a1,1,0,0,1-.26-.05L21.2,16c.21.05.39.16.42.34-.18-.05-.24.05-.5.1s-.36-.08-.6-.13a.21.21,0,0,1-.07-.13h.33l0,0a.63.63,0,0,0,.36,0Zm-.8-.31h0a.7.7,0,0,0,.33-.08.45.45,0,0,1-.23,0c.13-.08.23-.21.44-.21s.29.16.45.08c0,.15-.79.52-1,.21Zm-.39-.06h0c.13,0,.26.26.41.42-.21-.08-.31,0-.49-.16s-.13-.18-.16-.23a.49.49,0,0,0,.24-.16,1.35,1.35,0,0,1-.32.11c.08,0,.11,0,.21-.21s.37-.11.68-.16a1.11,1.11,0,0,1-.57.39Zm-.66.06h0c.13,0,.29.2.47.33-.21,0-.31.06-.52-.05a.24.24,0,0,1-.15-.21.86.86,0,0,0,.18-.2A.7.7,0,0,1,19,16a.43.43,0,0,0,.15-.23c.21-.26.32-.16.6-.29a1,1,0,0,1-.47.5Zm-.44.39h0c-.21,0-.31.1-.52,0s-.13-.13-.18-.19a.49.49,0,0,0,.18-.2.75.75,0,0,1-.26.18.38.38,0,0,0,.16-.24c.21-.31.36-.23.65-.39a1.07,1.07,0,0,1-.5.55,2.41,2.41,0,0,1,.47.29Zm3.6,1h.07l-.05,0a0,0,0,0,1,0,0Zm1.82,2.52h0l.13.08a.22.22,0,0,0-.11,0,.07.07,0,0,1,0-.06Zm-2.61,5.55h0c-.49-.1-1.14-.65-1.87-.6V23.59h4.95A10.36,10.36,0,0,1,24.35,26c-1,0-1.9-.55-2.71-.52Zm3.1-4.06h0a1.27,1.27,0,0,1,.21.15,1,1,0,0,0-.21-.1v-.05Zm.58-1h0c0,.32.13.42-.08.71-.16.1-.11.15-.16.21a.54.54,0,0,1,.05-.29.86.86,0,0,0-.13.23.37.37,0,0,1-.26-.1c-.18-.18-.13-.29-.23-.49.18.13.44.23.49.36a1,1,0,0,1,.32-.63Zm-.5,0h0c0-.21.11-.6.21-.63,0,.29.21.39,0,.68-.13.13-.1.18-.1.24a1.16,1.16,0,0,1,0-.32,1.29,1.29,0,0,0-.08.26c-.05,0-.1.06-.28-.08s-.19-.26-.32-.44c.21.11.47.18.55.29Zm-.23-1.51h0c.05.31.21.39.08.7-.16.11-.11.16-.14.24a.86.86,0,0,1,0-.32.5.5,0,0,0-.1.24.35.35,0,0,1-.26-.08c-.23-.16-.18-.26-.31-.47.18.13.44.21.54.31,0-.21.08-.6.19-.62Zm-.42-.65h0c.1.31.29.39.21.7-.11.13-.08.16-.08.23a.68.68,0,0,1-.08-.31,1.28,1.28,0,0,0,0,.26.34.34,0,0,1-.29-.05c-.26-.1-.23-.23-.42-.42a3.83,3.83,0,0,1,.63.24.83.83,0,0,1,.05-.65Zm-.21.49h0a.28.28,0,0,0-.15-.13l.15.08v0Zm-.36-1.33h0c.15.29.26.26.23.65a.38.38,0,0,0,0,.29A.82.82,0,0,1,23.7,18a.89.89,0,0,0,0,.29.25.25,0,0,1-.26.05c-.21-.05-.24-.21-.42-.34.21,0,.47,0,.57.08a1.16,1.16,0,0,1,0-.71Zm-.5.16h0a1.15,1.15,0,0,1-.08-.68c.19.26.29.21.32.58-.06.2,0,.23,0,.28a.52.52,0,0,1-.13-.28,1.23,1.23,0,0,0,0,.28.2.2,0,0,1-.23.08c-.24,0-.26-.16-.47-.26.23,0,.47-.08.57,0Zm-.8-1.33h0c.18.26.36.24.41.63a.31.31,0,0,0,0,.26.84.84,0,0,1-.15-.26.8.8,0,0,0,.05.26c-.05,0-.05.1-.26.08s-.26-.13-.47-.24c.23,0,.47-.08.6,0a1.14,1.14,0,0,1-.18-.71ZM22.17,16h0a.18.18,0,0,1,0,.11c0-.05-.05-.11-.11-.13l.14,0Zm-.06.26h0a.37.37,0,0,0,.06.29h-.06a1.34,1.34,0,0,1-.18-.23,1.22,1.22,0,0,0,.1.28c0,.05-.05.08-.15.08a.6.6,0,0,1-.47-.1c.18-.08.29-.19.47-.13V16.4h0a.57.57,0,0,0-.18-.2.79.79,0,0,1-.11-.39c.21.2.42.13.52.46Zm-.21-.52h-.23l-.08-.07a1.31,1.31,0,0,1,.31.07Zm-4.24-.21h0a.49.49,0,0,0,.26-.15l-.68-.18.71-.13s0-.06-.45-.19c-.07,0,0-.1-.33-.15.13,0,.07,0,.31,0a1.63,1.63,0,0,0,.52,0s-.42-.31-.7-.47c0,0,.46.14.8.21a6.2,6.2,0,0,1-.47-.47c-.05,0-.05-.1-.1-.15.21.08.21.15.31.21a1.78,1.78,0,0,0,.44.18c-.2-.31-.49-.73-.49-.73l.7.49c0-.18-.15-.33-.15-.39-.11-.31-.08-.28-.13-.39a1.45,1.45,0,0,0,.57.63L18.62,13l.45.8a2.78,2.78,0,0,0,0-.41,1,1,0,0,0,0-.47,1.87,1.87,0,0,1,.08.34,3.42,3.42,0,0,0,.23.47l.18-.84.14.84a2.89,2.89,0,0,1,.15-.39,2.24,2.24,0,0,0,.18-.42c-.07.34-.07.23-.1.42s0,.41.05.44l.52-.73-.21.86c.06,0,.26-.29.47-.42a1.2,1.2,0,0,0,.13-.21c-.1.16-.13.26-.21.39l-.15.42.73-.49-.5.7s.05,0,.37-.16a1.29,1.29,0,0,0,.47-.21c-.24.24-.37.21-.68.63l.83-.18-.73.44c.06.05.34,0,.55,0a.5.5,0,0,0,.36,0,4.93,4.93,0,0,1-.49.13c-.1.06-.31.13-.34.19l.83.15s-.83.18-1,.24h-.16l-.1,0a.29.29,0,0,0,.05-.18,5.43,5.43,0,0,0-.75,0,.27.27,0,0,0,0-.18c-.34.16-.63.1-.91.31a.32.32,0,0,0-.06-.21c-.28.16-.54.06-.75.24a.3.3,0,0,0,0-.16,2.12,2.12,0,0,0-.78.39l-.18,0,0,0,0,0h-.16a2.34,2.34,0,0,0,.6-.19Zm-1,1h0c.1-.31.29-.28.5-.49a.87.87,0,0,1-.27.62c.11,0,.34.11.58.13-.21.08-.26.19-.52.16s-.19-.1-.24-.13a1.58,1.58,0,0,0,.11-.23l-.21.23c0-.08.08-.08.05-.29Zm.44.06Zm-1,.39h0c.05-.37.21-.34.39-.6a1.13,1.13,0,0,1-.16.7c.11-.08.34,0,.58,0-.21.08-.24.23-.47.23s-.21-.08-.26-.08a.56.56,0,0,0,.05-.28,1,1,0,0,1-.13.28.49.49,0,0,0,0-.28Zm-.13.28h0a1.42,1.42,0,0,0,0,.16h0a.47.47,0,0,1,0-.16Zm-.47.21h0c0-.39.13-.34.31-.6a1,1,0,0,1-.08.68c.11-.08.34,0,.55,0-.18.1-.21.26-.44.26s-.21,0-.26,0a.59.59,0,0,0,0-.29,1.85,1.85,0,0,1-.13.29.53.53,0,0,0,0-.29Zm-.26,0h0a.91.91,0,0,1,0,.7c.11-.08.34,0,.55-.08-.16.13-.18.29-.39.34a.3.3,0,0,1-.26-.05.86.86,0,0,0,0-.29,1.12,1.12,0,0,1-.11.31.4.4,0,0,0,0-.28c0-.37.1-.37.23-.65Zm-.36,1.27h0c.05,0,.07,0,.1,0s-.08,0-.1.08v0Zm-.21-.41h0c.08,0,.15.44,0,.62a2,2,0,0,1,.6-.23c-.16.15-.16.28-.39.41s-.24,0-.29.05a.45.45,0,0,0,0-.26.55.55,0,0,1-.08.29c0-.05.05-.08-.08-.23s.1-.37.21-.65Zm-.47,1.3h0c-.16-.29,0-.39.05-.68.1,0,.23.39.21.6.08-.1.34-.18.52-.31-.13.18-.08.31-.31.47a.32.32,0,0,1-.26.07.46.46,0,0,0-.08-.23,1.4,1.4,0,0,1,0,.29.38.38,0,0,0-.13-.21Zm.44.28h0s0,.06,0,.08a.86.86,0,0,0-.24.11c.05-.08.13-.11.26-.19Zm-.75-.1h0c.1,0,.23.42.18.62a3.09,3.09,0,0,1,.55-.28c-.14.18-.08.28-.32.44s-.21.05-.26.08a.66.66,0,0,0-.08-.26.68.68,0,0,1,0,.31c0-.08,0-.13-.11-.23-.15-.32,0-.39.06-.68Zm-.21,1.33h0c-.21-.26-.05-.39-.08-.68.1,0,.31.39.31.6,0-.13.29-.23.47-.36-.08.2,0,.31-.21.49a.6.6,0,0,1-.26.1.65.65,0,0,0-.13-.23.54.54,0,0,1,.05.29c0-.06,0-.11-.15-.21Zm-.31.21h0a.94.94,0,0,1,.31.62c0-.13.28-.21.47-.34-.11.18-.06.32-.24.47a.24.24,0,0,1-.23.08A.62.62,0,0,0,13.6,22a1.16,1.16,0,0,1,.05.29s0-.11-.18-.21c-.19-.29,0-.39-.05-.7Zm.31,1.48h0a1.68,1.68,0,0,0-.18-.21.43.43,0,0,1,.1.29.3.3,0,0,0-.18-.18c-.26-.26-.16-.34-.24-.63.11,0,.39.31.45.52,0-.13.26-.26.39-.41-.06.2,0,.31-.11.49s-.18.13-.23.13Zm.28.08h0V23c-.07.06-.18.11-.23.19.05-.13.1-.16.23-.29Zm-.78.1h0c.11,0,.39.34.45.55,0-.13.26-.23.39-.39-.06.21,0,.31-.11.49a.38.38,0,0,1-.23.13l-.16-.23a1.92,1.92,0,0,1,.11.31.44.44,0,0,0-.21-.21c-.24-.28-.16-.33-.24-.65Zm.45,1.1h0v0a1.78,1.78,0,0,0-.26-.31.59.59,0,0,1,.26.29Zm-.47-.21h0c.1,0,.39.26.47.47,0-.13.2-.29.31-.45,0,.21.1.32,0,.53a.25.25,0,0,1-.18.15.84.84,0,0,0-.21-.21.69.69,0,0,1,.16.29.46.46,0,0,0-.24-.18c-.41-.39,0,.13-.28-.6Zm.54,1h0v0a1,1,0,0,0-.28-.31.89.89,0,0,1,.28.26Zm0,.29h0c0-.13.21-.34.32-.55,0,.23,0,.34-.06.57s-.15.16-.2.21a.65.65,0,0,0-.19-.18.51.51,0,0,1,.13.29c-.05-.06,0-.11-.2-.16s-.13-.29-.24-.57c.11,0,.37.2.44.39Zm-.39.28h0c.08,0,.42.19.52.37a4,4,0,0,1,.24-.58c0,.24.13.32,0,.55a.32.32,0,0,1-.15.24.42.42,0,0,0-.21-.13.68.68,0,0,1,.18.23c-.08,0-.08-.08-.23-.1-.31-.16-.24-.32-.37-.58Zm.84,1.25h0c0-.15.13-.36.23-.57,0,.21.1.29,0,.55a.31.31,0,0,1-.16.21,1.1,1.1,0,0,0-.21-.13,1.52,1.52,0,0,1,.16.23C14.2,27,14.2,27,14,27s-.2-.34-.36-.6a1,1,0,0,1,.55.39Zm-.37.32h0c.11-.06.5.1.63.28a1.91,1.91,0,0,1,.13-.6c.05.21.18.26.13.52a.33.33,0,0,1-.13.24.88.88,0,0,0-.24-.11,2.25,2.25,0,0,1,.24.21c-.08,0-.08-.08-.26-.05-.34-.1-.29-.29-.5-.49Zm.39.75h0a.94.94,0,0,1,.6.31c0-.13.11-.34.18-.57,0,.23.16.29.11.52s-.11.18-.13.24a.43.43,0,0,0-.26-.11c.1,0,.15.11.23.21-.08-.05-.08-.1-.26-.08-.34-.1-.26-.28-.47-.52Zm.29.65h0a1.06,1.06,0,0,1,.68.18c-.06-.1.05-.33.07-.54.08.18.21.23.21.47a.25.25,0,0,1-.1.23.8.8,0,0,0-.26-.05.57.57,0,0,1,.26.15.34.34,0,0,0-.29,0c-.34-.05-.34-.24-.57-.42Zm1,.63h0s0,.07,0,.1a.72.72,0,0,0-.34-.16.85.85,0,0,1,.31.06Zm-.54.05h0a1.1,1.1,0,0,1,.67.23c0-.1.05-.34.11-.54.07.2.21.26.18.49s-.08.18-.11.24a.85.85,0,0,0-.26-.11.86.86,0,0,1,.26.18.39.39,0,0,0-.28-.05c-.37-.08-.34-.26-.57-.44Zm1.56,1.09h0a.39.39,0,0,0-.29-.08c-.39,0-.49-.28-.78-.44a1.29,1.29,0,0,1,.76.16c-.08-.11,0-.34,0-.55.13.18.26.21.29.44a1.53,1.53,0,0,0,.07.42,1.4,1.4,0,0,0-.2-.16,1.68,1.68,0,0,1,.18.21Zm2,1h0a3.8,3.8,0,0,1-1.72-.94,1.26,1.26,0,0,1-.13-.54v0a4.47,4.47,0,0,0,1.9,1h-.05c-.24.28-.11.44,0,.49Zm1-.67h0a5.16,5.16,0,0,1-4.14-2.79c-.08-.11,1.3-.55,1.61-.63l.37-.1c0,.18.31.23.28.16s0,.15.16.28.28.05.31,0c-.1.13.29.34.52.18,0,.13.16.16.21.19a.67.67,0,0,0,.42,0v1.25c0,.23.05.28.15.34.5,0,.39-.13.45-.29,0-.55,0-1.33,0-1.3.36-.06.26-.13.39-.19s.23,0,.36-.15c.19,0,.34,0,.4-.18.15.05.36-.08.49-.37.34.11,1.56.76,2.14.94-.27.42-1.67,2.66-4.09,2.66Zm4-1.31h0a.43.43,0,0,1,.18,0,1.34,1.34,0,0,0-.21.11s0,0,0-.06Zm-.58.55h0v0Zm-.6.05h0c0,.21,0,.37-.07.5-.21.39-1.28.73-1.72.88a.3.3,0,0,0,0-.49h0a4.41,4.41,0,0,0,1.82-.94s0,0,0,.05Zm.55.37h0a.37.37,0,0,0-.36.13.61.61,0,0,1,.2-.24,1,1,0,0,0-.23.11c0-.08,0-.19,0-.34s.18-.26.31-.44c0,.2.05.44,0,.54a1.57,1.57,0,0,1,.78-.13c-.32.16-.32.34-.68.37Zm.6-.5h0a.44.44,0,0,0-.29.05,1,1,0,0,1,.26-.18.52.52,0,0,0-.26.08c0-.05-.1-.05-.1-.23s.13-.29.21-.5c0,.21.13.44.07.57a1.14,1.14,0,0,1,.71-.26c-.26.21-.24.39-.6.47Zm.42-.68h0a.85.85,0,0,0-.29,0,1.64,1.64,0,0,1,.29-.16.6.6,0,0,0-.29.08c0-.05-.08-.08-.08-.26s.11-.28.21-.49c0,.23.1.47.05.57.16-.13.6-.26.7-.18-.26.18-.23.36-.59.41Zm.41-.54h0c-.21,0-.21,0-.26.05a.7.7,0,0,1,.21-.21.55.55,0,0,0-.23.11.38.38,0,0,1-.16-.24c-.05-.23.08-.29.13-.52.05.23.18.44.16.6.13-.18.54-.37.65-.31-.21.21-.16.39-.5.52Zm.42-.81h0c-.18,0-.18,0-.26.05a2.19,2.19,0,0,1,.23-.21.48.48,0,0,0-.23.13.37.37,0,0,1-.13-.26c-.05-.26.08-.31.13-.52a2.3,2.3,0,0,1,.13.58c.13-.16.55-.32.62-.26-.2.2-.15.39-.49.49Zm.31-.62h0c-.18,0-.18.05-.23.1a.93.93,0,0,1,.18-.26.87.87,0,0,0-.23.16c0-.06-.11-.06-.16-.24s0-.34,0-.55a2,2,0,0,1,.27.58c.1-.19.44-.42.54-.39-.15.26-.08.44-.39.6Zm.08-.6h0a.14.14,0,0,1,.13-.08c-.05,0-.1,0-.13.08Zm.23-.29h0c-.18,0-.18.08-.23.1a.53.53,0,0,1,.18-.23.54.54,0,0,0-.23.13c0-.05-.11-.05-.16-.23s0-.34,0-.58a3.81,3.81,0,0,1,.23.6c.11-.18.44-.44.55-.39-.16.26-.08.44-.37.6Z"/><path class="cls-4" d="M17.66,15.54a.49.49,0,0,0,.26-.15l-.68-.18.71-.13s0-.06-.45-.19c-.07,0,0-.1-.33-.15.13,0,.07,0,.31,0a1.63,1.63,0,0,0,.52,0s-.42-.31-.7-.47c0,0,.46.14.8.21a6.2,6.2,0,0,1-.47-.47c-.05,0-.05-.1-.1-.15.21.08.21.15.31.21a1.78,1.78,0,0,0,.44.18c-.2-.31-.49-.73-.49-.73l.7.49c0-.18-.15-.33-.15-.39-.11-.31-.08-.28-.13-.39a1.45,1.45,0,0,0,.57.63L18.62,13l.45.8a2.78,2.78,0,0,0,0-.41,1,1,0,0,0,0-.47,1.87,1.87,0,0,1,.08.34,3.42,3.42,0,0,0,.23.47l.18-.84.14.84a2.89,2.89,0,0,1,.15-.39,2.24,2.24,0,0,0,.18-.42c-.07.34-.07.23-.1.42s0,.41.05.44l.52-.73-.21.86c.06,0,.26-.29.47-.42a2.36,2.36,0,0,0,.16-.21,2.59,2.59,0,0,0-.24.39l-.15.42.73-.49-.5.7s.05,0,.37-.16a1.29,1.29,0,0,0,.47-.21c-.24.24-.37.21-.68.63l.83-.18-.73.44c.06.05.34,0,.55,0a.5.5,0,0,0,.36,0,4.93,4.93,0,0,1-.49.13c-.1.06-.31.13-.34.19l.83.15s-.83.18-1,.24h-.16l-.1,0a.29.29,0,0,0,.05-.18,5.43,5.43,0,0,0-.75,0,.27.27,0,0,0,0-.18c-.34.16-.63.1-.91.31a.32.32,0,0,0-.06-.21c-.28.16-.54.06-.75.24a.3.3,0,0,0,0-.16,2.12,2.12,0,0,0-.78.39l-.18,0,0,0,0,0h-.16a2.34,2.34,0,0,0,.6-.19Z"/><path class="cls-5" d="M20.65,14.66h.08s-.05-.39-.75-.34h-.16l-.08.21.47,0s.34,0,.44.16Z"/><path class="cls-5" d="M19.9,14.92s.1-.1.1-.1h0s0,0,0,0a.17.17,0,0,0,.11.15h.13a.2.2,0,0,0,.1-.15v0a.23.23,0,0,1,.16.1l.15,0s-.07-.39-.75-.29a2,2,0,0,0-.16.26Z"/><path class="cls-5" d="M18.39,14.92l.16,0c0-.05.1-.07.15-.1v.05a.15.15,0,0,0,.11.16s.1,0,.1,0a.17.17,0,0,0,.13-.16s0,0,0,0h.06l.07.07s.16,0,.16,0l-.16-.23c-.67-.13-.75.26-.75.26Z"/><path class="cls-5" d="M18.78,14.5l.49,0-.05-.21h-.13c-.73-.05-.81.34-.81.34l.11,0c.08-.18.39-.13.39-.13Z"/><path class="cls-4" d="M25.68,24.82c-.1.28,0,.46-.26.67a.27.27,0,0,0-.21.13,1,1,0,0,1,.13-.28.52.52,0,0,0-.18.18.38.38,0,0,1-.18-.21c-.13-.23-.05-.34-.08-.57a3.17,3.17,0,0,1,.34.54c.05-.2.34-.49.44-.46Z"/><path class="cls-4" d="M25.81,23.85c-.13.29,0,.45-.34.71-.18.07-.18.1-.23.18l.15-.31a.84.84,0,0,0-.18.23c-.05,0-.13,0-.21-.16s0-.34,0-.54a3.36,3.36,0,0,1,.31.44c.08-.21.42-.55.52-.55Z"/><path class="cls-4" d="M25.29,23.59c.05-.23.31-.6.44-.62-.1.31,0,.44-.21.73-.18.1-.15.15-.2.2a1.39,1.39,0,0,1,.1-.31,1.25,1.25,0,0,0-.18.24s-.11,0-.21-.13-.08-.32-.13-.52c.16.15.36.28.39.41Z"/><path class="cls-4" d="M25.73,22c-.1.31,0,.44-.21.7-.18.11-.15.13-.2.21a1.24,1.24,0,0,1,.1-.31.8.8,0,0,0-.18.23.33.33,0,0,1-.21-.13c-.16-.21-.08-.31-.13-.52.13.16.36.29.39.42a1,1,0,0,1,.44-.6Z"/><path class="cls-4" d="M25.26,22c0-.21.19-.6.32-.62,0,.31.13.41-.08.73-.16.1-.13.13-.16.2a.7.7,0,0,1,.05-.31.41.41,0,0,0-.13.24.29.29,0,0,1-.26-.11c-.2-.15-.13-.26-.23-.47a3.07,3.07,0,0,1,.49.34Z"/><path class="cls-4" d="M17.32,16.38c.05-.05.11-.05.13-.26.13-.39.34-.34.63-.52.1.13-.24.54-.45.7.13,0,.32.13.5.21-.24,0-.31.13-.52.08a.44.44,0,0,1-.21-.19.53.53,0,0,0,.18-.23.5.5,0,0,1-.26.21Z"/><path class="cls-4" d="M21.12,16.25a1.32,1.32,0,0,1-.26-.05A1.53,1.53,0,0,0,21.2,16c.21.05.39.16.42.34-.18-.05-.21.05-.5.1s-.36-.08-.57-.13-.1-.1-.1-.13h.33v0a.56.56,0,0,0,.34,0Z"/><path class="cls-4" d="M20.32,15.94a.7.7,0,0,0,.33-.08.45.45,0,0,1-.23,0c.13-.08.23-.21.44-.21s.29.16.47.08c0,.15-.81.52-1,.21Z"/><path class="cls-4" d="M19.93,15.88c.13,0,.26.26.41.42-.21-.08-.31,0-.49-.16s-.13-.18-.13-.23a.59.59,0,0,0,.21-.16,1.31,1.31,0,0,1-.29.11c.05,0,.1,0,.18-.21.24-.24.37-.11.68-.16a1,1,0,0,1-.57.39Z"/><path class="cls-4" d="M19.27,15.94c.13,0,.29.2.47.33-.21,0-.31.08-.52-.05a.24.24,0,0,1-.15-.21.86.86,0,0,0,.18-.2A.57.57,0,0,1,19,16a.34.34,0,0,0,.15-.23c.21-.26.32-.16.6-.29a1,1,0,0,1-.47.5Z"/><path class="cls-4" d="M25.32,20.41c0,.32.13.42-.06.71-.18.13-.13.15-.18.23a.63.63,0,0,1,.05-.31.86.86,0,0,0-.13.23.37.37,0,0,1-.26-.1c-.18-.18-.13-.29-.23-.49.18.13.44.23.49.36a1,1,0,0,1,.32-.63Z"/><path class="cls-4" d="M24.85,20.39c-.05-.21.08-.6.18-.63,0,.29.21.39,0,.71-.13.1-.08.15-.1.21a1.06,1.06,0,0,1,0-.29c0,.08-.08.15-.08.23s-.1.06-.26-.08-.21-.26-.34-.44a3.11,3.11,0,0,1,.58.29Z"/><path class="cls-4" d="M24.59,18.88c.05.31.23.39.08.7-.16.13-.11.16-.14.24a.86.86,0,0,1,0-.32,1.22,1.22,0,0,0-.1.24.35.35,0,0,1-.26-.08c-.23-.16-.18-.26-.31-.47.18.13.44.21.54.31,0-.21.08-.6.19-.62Z"/><path class="cls-4" d="M24.2,18.25c.07.29.26.37.18.68a.24.24,0,0,0-.08.23.68.68,0,0,1-.08-.31,1.28,1.28,0,0,0,0,.26.34.34,0,0,1-.29-.05c-.23-.1-.23-.23-.39-.42.21.11.49.13.6.26-.08-.2,0-.62.08-.65Z"/><path class="cls-4" d="M23.6,17.39c.15.29.26.26.23.65a.38.38,0,0,0,0,.29A1.44,1.44,0,0,1,23.7,18a.89.89,0,0,0,0,.29c-.05,0-.08.1-.24.05s-.26-.21-.44-.34c.23,0,.47,0,.57.08a1.16,1.16,0,0,1,0-.71Z"/><path class="cls-4" d="M23.1,17.55a1.15,1.15,0,0,1-.08-.68c.19.26.29.21.32.58a.38.38,0,0,0,0,.28.52.52,0,0,1-.13-.28,1.23,1.23,0,0,0,0,.28s-.05.11-.23.08-.26-.16-.47-.26c.23,0,.47-.08.57,0Z"/><path class="cls-4" d="M22.3,16.22c.18.26.36.24.41.63a.4.4,0,0,0,0,.26.84.84,0,0,1-.15-.26.46.46,0,0,0,.07.26.29.29,0,0,1-.26.08c-.26,0-.28-.13-.47-.24.21,0,.45-.08.58,0a1.1,1.1,0,0,1-.18-.71Z"/><path class="cls-4" d="M22.11,16.27a.37.37,0,0,0,.06.29h-.06c-.08-.08-.13-.18-.18-.23a2.86,2.86,0,0,0,.1.31.18.18,0,0,1-.15.05.63.63,0,0,1-.47-.1c.18-.08.29-.19.47-.13V16.4h0a.47.47,0,0,0-.18-.2.79.79,0,0,1-.11-.39c.21.2.42.13.52.46Z"/><path class="cls-4" d="M16.67,16.56c.1-.34.29-.31.5-.52a1,1,0,0,1-.27.65c.13-.05.34.08.58.13-.21.05-.26.18-.52.13s-.19-.1-.24-.13a1.58,1.58,0,0,0,.11-.23l-.21.23c0-.08.08-.08.05-.26Z"/><path class="cls-4" d="M16.15,17c.05-.37.23-.34.39-.6.08.08,0,.52-.16.7.11-.08.34,0,.58,0-.21.08-.24.23-.47.23s-.21-.08-.26-.08a.5.5,0,0,0,.05-.28,1,1,0,0,1-.13.28.49.49,0,0,0,0-.28Z"/><path class="cls-4" d="M15.55,17.47c0-.39.13-.34.31-.6a1,1,0,0,1-.08.68,2,2,0,0,1,.55,0c-.18.1-.21.26-.44.26a.29.29,0,0,1-.24,0,1,1,0,0,0,0-.29.59.59,0,0,1-.13.29.53.53,0,0,0,0-.29Z"/><path class="cls-4" d="M15.29,17.45a.91.91,0,0,1,0,.7,1.75,1.75,0,0,1,.58-.08c-.19.13-.21.29-.42.34a.25.25,0,0,1-.26-.05.86.86,0,0,0,0-.29.61.61,0,0,1-.11.31.39.39,0,0,0,0-.28c0-.37.1-.37.23-.65Z"/><path class="cls-4" d="M14.72,18.31c.1,0,.15.44,0,.62a2,2,0,0,1,.6-.23c-.16.15-.13.28-.39.41s-.24,0-.29.05a.45.45,0,0,0,0-.26.76.76,0,0,1-.08.32c0-.08.05-.11-.08-.24-.08-.31.1-.39.21-.67Z"/><path class="cls-4" d="M14.25,19.61c-.16-.29,0-.39.05-.68.1,0,.23.39.21.63.08-.13.34-.21.55-.34-.16.21-.11.31-.32.47a.38.38,0,0,1-.28.07.46.46,0,0,0-.08-.23,1.4,1.4,0,0,1,0,.29.38.38,0,0,0-.13-.21Z"/><path class="cls-4" d="M13.94,19.79c.1,0,.23.42.18.62a3.09,3.09,0,0,1,.55-.28c-.14.18-.08.28-.32.44s-.21.05-.26.08a.66.66,0,0,0-.08-.26.68.68,0,0,1,0,.31c0-.08,0-.13-.11-.23-.15-.32,0-.39.06-.68Z"/><path class="cls-4" d="M13.73,21.12c-.21-.26-.05-.39-.08-.68A.91.91,0,0,1,14,21c0-.13.31-.23.47-.36-.08.2,0,.31-.21.49a.53.53,0,0,1-.26.1.65.65,0,0,0-.13-.23.54.54,0,0,1,.05.29c0-.06,0-.11-.15-.21Z"/><path class="cls-4" d="M13.42,21.33a.94.94,0,0,1,.31.62c0-.13.28-.21.47-.34-.11.18,0,.32-.21.47a.76.76,0,0,1-.26.11A.54.54,0,0,0,13.6,22a.54.54,0,0,1,.05.29s0-.11-.16-.21c-.21-.29-.05-.39-.07-.7Z"/><path class="cls-4" d="M13.73,22.84a1.66,1.66,0,0,0-.16-.24,1,1,0,0,1,.11.31c-.06-.07,0-.13-.21-.2-.26-.26-.16-.34-.24-.63.11,0,.39.31.45.52,0-.13.26-.26.41-.41-.08.2,0,.31-.13.49s-.18.13-.23.16Z"/><path class="cls-4" d="M13.23,23c.11,0,.39.34.45.55,0-.13.26-.23.39-.39-.06.21,0,.31-.11.49s-.18.11-.23.13a2.44,2.44,0,0,0-.16-.23,1.92,1.92,0,0,1,.11.31c-.06-.05,0-.1-.21-.21-.24-.28-.16-.33-.24-.65Z"/><path class="cls-4" d="M13.21,23.88a.85.85,0,0,1,.47.47c0-.13.2-.29.31-.45,0,.21.1.32,0,.53a.25.25,0,0,1-.18.15.84.84,0,0,0-.21-.21.69.69,0,0,1,.16.29.46.46,0,0,0-.24-.18c-.41-.39,0,.13-.28-.6Z"/><path class="cls-4" d="M13.75,25.21c0-.13.21-.34.34-.55-.05.23.05.34-.08.57s-.15.16-.2.21a.65.65,0,0,0-.19-.18.51.51,0,0,1,.13.29c-.05-.06,0-.11-.2-.16s-.13-.29-.24-.57c.11,0,.37.2.44.39Z"/><path class="cls-4" d="M13.36,25.49c.11,0,.45.19.52.39,0-.15.16-.36.24-.6,0,.24.13.32,0,.55a.32.32,0,0,1-.15.24.42.42,0,0,0-.21-.13.68.68,0,0,1,.18.23.32.32,0,0,0-.23-.1c-.29-.13-.24-.32-.37-.58Z"/><path class="cls-4" d="M14.2,26.74c0-.13.13-.36.23-.57,0,.21.1.29,0,.55s-.13.18-.16.23a.91.91,0,0,0-.21-.15,1.19,1.19,0,0,1,.16.23C14.2,27,14.2,27,14,27s-.2-.34-.36-.6a1,1,0,0,1,.55.39Z"/><path class="cls-4" d="M13.83,27.06c.11-.06.5.1.63.28a1.91,1.91,0,0,1,.13-.6c.05.21.18.29.13.52a.33.33,0,0,1-.13.24.35.35,0,0,0-.24-.08.53.53,0,0,1,.24.18c-.08,0-.08-.08-.26-.05-.34-.08-.29-.29-.5-.49Z"/><path class="cls-4" d="M14.22,27.81a1.18,1.18,0,0,1,.63.31c0-.13.1-.34.15-.57,0,.23.16.29.11.52s-.11.18-.13.24a.43.43,0,0,0-.24-.11.43.43,0,0,1,.21.21c0-.05-.08-.1-.26-.08-.34-.1-.26-.28-.47-.52Z"/><path class="cls-4" d="M14.51,28.46a1.06,1.06,0,0,1,.68.18,2.72,2.72,0,0,1,.07-.54c.08.18.21.23.21.47a.25.25,0,0,1-.1.23.71.71,0,0,0-.26-.05.57.57,0,0,1,.26.15c-.08,0-.08-.07-.29,0s-.34-.24-.57-.42Z"/><path class="cls-4" d="M14.93,29.14a1.25,1.25,0,0,1,.7.23c-.05-.1,0-.34.08-.54.07.2.21.26.18.49s-.08.18-.11.24a.62.62,0,0,0-.26-.11.86.86,0,0,1,.26.18.39.39,0,0,0-.28-.05c-.37-.08-.34-.26-.57-.44Z"/><path class="cls-4" d="M16.49,30.23a.39.39,0,0,0-.29-.08c-.39,0-.49-.26-.78-.44a1.29,1.29,0,0,1,.76.16c-.08-.11,0-.34,0-.55.13.18.26.24.29.44a1.34,1.34,0,0,0,.07.42c-.05-.05-.13-.1-.2-.16l.18.21Z"/><path class="cls-4" d="M22.79,30.21a.37.37,0,0,0-.36.13.61.61,0,0,1,.2-.24,1,1,0,0,0-.23.11c0-.08,0-.19,0-.34s.18-.26.31-.44c0,.2.05.44,0,.54a1.47,1.47,0,0,1,.76-.13c-.32.16-.32.34-.68.37Z"/><path class="cls-4" d="M23.39,29.71a.5.5,0,0,0-.29.05.79.79,0,0,1,.29-.18.55.55,0,0,0-.29.08c0-.05-.1-.05-.1-.23s.13-.29.21-.5c0,.23.13.44.07.57a1.14,1.14,0,0,1,.71-.26c-.26.21-.24.39-.6.47Z"/><path class="cls-4" d="M23.81,29a.55.55,0,0,0-.26,0,.82.82,0,0,1,.26-.16.42.42,0,0,0-.26.08.33.33,0,0,1-.11-.26c0-.23.11-.28.21-.49a1.68,1.68,0,0,1,.05.6c.18-.16.6-.29.7-.21-.26.18-.23.36-.59.41Z"/><path class="cls-4" d="M24.22,28.49c-.21,0-.21,0-.26.05a.7.7,0,0,1,.21-.21.7.7,0,0,0-.23.11s-.11,0-.13-.24.05-.29.1-.52c.05.23.18.44.16.6.13-.18.54-.37.65-.31-.21.21-.16.39-.5.52Z"/><path class="cls-4" d="M24.64,27.68c-.18,0-.18,0-.26.05a2.19,2.19,0,0,1,.23-.21.48.48,0,0,0-.23.13.37.37,0,0,1-.13-.26c-.05-.26.08-.31.13-.52.05.21.18.45.13.6.13-.18.55-.34.65-.28-.21.2-.18.39-.52.49Z"/><path class="cls-4" d="M25,27.06c-.18,0-.18.07-.23.1a.53.53,0,0,1,.18-.23.32.32,0,0,0-.21.13c-.05-.06-.13-.06-.18-.24s0-.31,0-.55a2,2,0,0,1,.27.58c.1-.19.44-.42.54-.39-.15.26-.08.44-.39.6Z"/><path class="cls-4" d="M25.26,26.17a.44.44,0,0,0-.23.1.53.53,0,0,1,.18-.23,1.34,1.34,0,0,0-.23.13c0-.05-.11-.05-.16-.23s0-.34,0-.58a2.49,2.49,0,0,1,.23.6c.11-.18.44-.44.55-.39-.16.26-.08.44-.37.6Z"/><path class="cls-4" d="M23.81,27.32a3.22,3.22,0,0,1-2.09-.6,1,1,0,0,0,.08-.63c0-.13,0,0-.05.08a.71.71,0,0,1-.34.39,2.35,2.35,0,0,0-.81-.6,6.22,6.22,0,0,1-.52-.39c-.31.13-.78.42-1,.24s.23-.21.42-.47a.5.5,0,0,1,.57-.21,7.22,7.22,0,0,1,1.41.57,12.58,12.58,0,0,1,2.37.52,2.91,2.91,0,0,0,.46.05,9.16,9.16,0,0,1-.46,1.05Z"/><path class="cls-4" d="M20.06,26.38c.26.28.49.36.65.7a.16.16,0,0,1-.26.05c-.39-.41-.76-.49-.6-.67-.08,0-.16.07-.13.15.05.29.41.42.52.71,0,.18-.47,0-.65-.52l0,0c-.08.13-.13.21.13.55,0,.1.11.23-.1.2.05,0-.11,0,0,0h0s0,0,0,0c.11-.52-.39-.42-.39-.42.08-.18-.21-.39-.47-.26,0-.16-.26-.36-.68-.21-.05-.15-.41-.28-.75.16-.63,0-1.64.57-2.24.31,0,0-.39-1-.42-1a14.41,14.41,0,0,0,2.92-.45A2.39,2.39,0,0,1,19,25.31c0,.16-.36.44-.18.57a1,1,0,0,0,1.17,0c.34.36.92.41,1.15.91l-.08.16c-.1.07-.13.07-.26-.13-.34-.45-.68-.34-.73-.66-.13,0,0,.19,0,.24Z"/><path class="cls-4" d="M18.39,27.32c-.13.05.05-.08.1-.11l.06-.08c.1-.07.26-.23.36,0s-.36.34-.44.37-.08,0-.13,0,0-.13.05-.15Z"/><path class="cls-4" d="M18,27.29c-.07,0-.13,0-.18-.05S18,27,18,27a.13.13,0,0,1,.1-.05l.08-.08c.16,0,.13,0,.16.08s-.24.36-.32.39Z"/><path class="cls-4" d="M19,27.34s.18-.18.26.08c0,.1-.16.21-.34.26s-.28,0,.08-.34Z"/><path class="cls-4" d="M17.61,27c-.08.05-.18-.08-.13-.11l.08-.13c.1,0,.18-.1.23,0s-.13.29-.18.29Z"/><path class="cls-8" d="M19.48,16.56c-2.81,0-5.13,3-5.23,6.75H24.69c-.1-3.75-2.39-6.75-5.21-6.75Z"/><path class="cls-6" d="M18.68,20.75c-.29,0-.42.19-.68.19a2.4,2.4,0,0,1,.6-1.2,3.39,3.39,0,0,1,1-.68l0,0c-.24,0-.86.15-1-.13s.36-.57.88-.6a1.16,1.16,0,0,1,.78.23,1.22,1.22,0,0,1,.47.84,2.1,2.1,0,0,0-.49.26l.23,0c.16,0,.21,0,.29,0v.18a.31.31,0,0,1,.05.1c-.63.26-.94.39-1,.34a.83.83,0,0,0,.26.05,4.33,4.33,0,0,0,.75-.15.25.25,0,0,0,.19.28v0h0c-.65.34-.89.31-.94.26l-.47-.08a2.1,2.1,0,0,0,.6.29c.23.05.65-.16.89-.21l.07.29c-.39,0-.8.54-1.38.34-.28-.21-.65-.58-1.06-.58Z"/><path class="cls-6" d="M19.2,21.56c-.29,0-.73,0-.76,0s-.52-.23-.47-.31a1,1,0,0,0,.5-.1c.39-.18.73.34.73.44Z"/><path class="cls-5" d="M21.18,21.25c0,.1-.11.28-.21.31a5.08,5.08,0,0,0-.68,0,.68.68,0,0,0,.34-.1c.62-.29.55-.21.55-.21Z"/><path class="cls-1" d="M19.51,31.12c.1.47-.39,1.2.88,2,.08-.08.37-.18.45-.26-1.51-.83-1.07-1.17-1.07-1.93a3,3,0,0,0-.26.16Z"/><path class="cls-1" d="M19.59,30.65c-.06.05.05,0,0,.08a4,4,0,0,1-.41.6,4.43,4.43,0,0,1-.86.57c-.78.42-1.33.21-.91-.34s.78-1.43,2.16-.91Z"/><path class="cls-1" d="M19.48,30.68a1.46,1.46,0,0,1,.05.2c0,.08,0,.24.06.34s-.06.05,0,.11-.18-.26.13.07a1.78,1.78,0,0,0,1.77.71c.55-.21.06-.84-.1-1-.29-.39-.76-.71-1.93-.39Z"/><path class="cls-3" d="M19.77,30.88c.18.21,0,.11.31.39,1.17,1.1,1.3-.05.37-.39a1.31,1.31,0,0,0-.68,0Z"/><path class="cls-3" d="M19,31.14c-.34.29-1.12.68-1.17.6s0-.15.08-.26a2,2,0,0,1,.33-.41c.24-.21.63-.5.86-.29s0,.23-.1.36Z"/><path class="cls-1" d="M19.74,31.09c-.57.37-.28,1-1,2-.08-.08-.39-.08-.47-.16.94-1,.65-1.32,1.23-2a2.37,2.37,0,0,0,.28.15Z"/><path class="cls-1" d="M19.53,31.33a.43.43,0,1,0,0-.84.42.42,0,1,0,0,.84Z"/><path class="cls-1" d="M17.22,21.82c-.08-1.25,0-1.74,1.22-3-.49.57-.55.7-.55,1.74-1,1.54,4.17,1.46,3,.05,0-1.27-.29-1.48-1.1-2.5a.87.87,0,0,0-1.17-.05c-1.33,1.38-1.72,1.8-1.72,3.67-.78,1,1,.89.29.08Z"/><path class="cls-4" d="M17.11,21.82a3.71,3.71,0,0,1,.16-1.54,4.63,4.63,0,0,1,1.09-1.51h0a.07.07,0,0,1,.13,0c.06,0,.06.08,0,.13h0a1.59,1.59,0,0,0-.41.66,2.88,2.88,0,0,0-.11,1v.05h0a.44.44,0,0,0,.13.71,2.88,2.88,0,0,0,1.41.28,2.3,2.3,0,0,0,1.33-.34c.15-.13.21-.33,0-.59,0,0,0,0,0-.06A2.58,2.58,0,0,0,20,18.51l-.29-.33a.73.73,0,0,0-1,0,7.34,7.34,0,0,0-1.36,1.61,4.34,4.34,0,0,0-.36,2,.09.09,0,0,1,0,.08c-.21.26-.18.42-.1.47a.22.22,0,0,0,.18.05.41.41,0,0,0,.18-.05c.08-.08.08-.21-.1-.42,0,0,0,0,0-.05Zm.34-1.46a3,3,0,0,0-.15,1.41c.26.31.2.52.07.65a.44.44,0,0,1-.31.13.54.54,0,0,1-.31-.1c-.16-.13-.21-.37.08-.73a3.92,3.92,0,0,1,.39-2A6.78,6.78,0,0,1,18.6,18v0h0A1,1,0,0,1,19.9,18h0v0c.1.11.18.24.26.34A2.58,2.58,0,0,1,21,20.6a.52.52,0,0,1,0,.83,2.51,2.51,0,0,1-1.43.36A2.59,2.59,0,0,1,18,21.48a.61.61,0,0,1-.21-.94,4.22,4.22,0,0,1,.05-.88,2.94,2.94,0,0,0-.39.7Z"/><path class="cls-3" d="M17.89,20.39a5.29,5.29,0,0,1,3,.08v.18a6.11,6.11,0,0,0-3-.08s0-.1,0-.18Z"/><path class="cls-3" d="M17.82,21.07a7.53,7.53,0,0,1,3.15,0c.23.65-2.89.94-3.15,0Z"/><path class="cls-3" d="M19.43,21h0c.1,0,.34.08.34.21v2.37H19.2V21.22a.21.21,0,0,1,.23-.21Z"/></g></g></svg>