<svg xmlns="http://www.w3.org/2000/svg" viewBox="0 0 37.01 39.95"><defs><style>.cls-1{fill:#29292a;stroke:#29292a;stroke-miterlimit:10;stroke-width:0.5px;}</style></defs><g id="Capa_2" data-name="Capa 2"><g id="Capa_1-2" data-name="Capa 1"><path class="cls-1" d="M33.48,39.7H7.12a6,6,0,0,1-1-.33,3.74,3.74,0,0,1-2.28-3.54c0-.52,0-1,0-1.59-.66,0-1.26,0-1.87,0A1.65,1.65,0,0,1,.32,32.75c0-.41,0-.82,0-1.23a1.73,1.73,0,0,1,1.89-1.9H3.8V26.28H2.1a1.76,1.76,0,0,1-1.32-.53,3.31,3.31,0,0,1,0-3.54A1.67,1.67,0,0,1,2,21.66c.6,0,1.2,0,1.8,0V18.29c-.61,0-1.2,0-1.79,0A1.66,1.66,0,0,1,.31,16.71a9.9,9.9,0,0,1,0-1.54,1.62,1.62,0,0,1,1.38-1.45,5.36,5.36,0,0,1,.8,0H3.8V10.33H2.08A1.71,1.71,0,0,1,.3,8.6c0-.35,0-.71,0-1.07A1.7,1.7,0,0,1,2.15,5.72H3.83V4.29a3.82,3.82,0,0,1,4-4h8.71c5.39,0,10.78,0,16.18,0a3.94,3.94,0,0,1,2.07.5,3.81,3.81,0,0,1,1.94,3.52V35.74a3.8,3.8,0,0,1-3.18,3.91A.19.19,0,0,0,33.48,39.7ZM11.09,38.47H32.75a2.58,2.58,0,0,0,2.78-2.76V4.24a2.57,2.57,0,0,0-2.78-2.75H11.09Zm-6-16.81h1a1.68,1.68,0,0,1,1.7,1.68c0,.35,0,.69,0,1a1.74,1.74,0,0,1-1.9,1.89H5.09v3.34h1a1.7,1.7,0,0,1,1.73,1.73c0,.35,0,.7,0,1A1.71,1.71,0,0,1,6,34.24H5.07c0,.66,0,1.27,0,1.87a2.44,2.44,0,0,0,2.12,2.3,22.71,22.71,0,0,0,2.61,0V1.49H9.44c-.68,0-1.36,0-2,0A2.45,2.45,0,0,0,5.16,3.43,18.65,18.65,0,0,0,5,5.72H6.1A1.7,1.7,0,0,1,7.81,7.43c0,.36,0,.72,0,1.08A1.72,1.72,0,0,1,6,10.33H5.08v3.35h1a1.71,1.71,0,0,1,1.75,1.76c0,.37,0,.75,0,1.12a1.69,1.69,0,0,1-1.73,1.73c-.33,0-.66,0-1,0ZM4,17.06H6c.44,0,.59-.16.6-.61s0-.64,0-1-.17-.57-.57-.57H2.09c-.39,0-.55.17-.56.57s0,.64,0,1,.15.6.6.6Zm.06,5.84h-2c-.43,0-.58.15-.59.58s0,.69,0,1a.48.48,0,0,0,.54.52q2,0,4,0a.5.5,0,0,0,.55-.55v-1c0-.44-.16-.59-.61-.59ZM4,7h-2a.48.48,0,0,0-.55.51q0,.56,0,1.11a.49.49,0,0,0,.54.53H6a.5.5,0,0,0,.55-.56c0-.33,0-.66,0-1S6.41,7,6,7ZM4.05,33H6c.39,0,.56-.16.57-.56s0-.69,0-1A.48.48,0,0,0,6,30.86H2.1c-.4,0-.56.17-.57.57s0,.66,0,1,.17.57.59.57Z"/><path class="cls-1" d="M27.66,8h4.66c.51,0,.77.21.78.6s-.26.63-.78.63h-9.4c-.3,0-.61,0-.7-.35a.76.76,0,0,1,.06-.63.86.86,0,0,1,.6-.24C24.48,8,26.07,8,27.66,8Z"/><path class="cls-1" d="M27.65,11.81h4.74a.63.63,0,0,1,.7.47.61.61,0,0,1-.65.76c-.52,0-1,0-1.58,0H23.08c-.12,0-.23,0-.35,0a.6.6,0,0,1-.59-.63.59.59,0,0,1,.62-.6h4.89Z"/><path class="cls-1" d="M27.6,28.15H22.86a.66.66,0,0,1-.69-.4.61.61,0,0,1,.58-.83c.44,0,.88,0,1.31,0h8.09c.12,0,.24,0,.35,0a.6.6,0,0,1,.6.62.59.59,0,0,1-.61.6c-.46,0-.93,0-1.39,0Z"/><path class="cls-1" d="M27.59,31.93H22.85c-.43,0-.68-.21-.71-.56a.6.6,0,0,1,.66-.67h9.63a.6.6,0,0,1,.67.63.59.59,0,0,1-.66.59H27.59Z"/><path class="cls-1" d="M27.6,16.82H23a1.35,1.35,0,0,1-.35,0,.58.58,0,0,1-.5-.63.57.57,0,0,1,.52-.57,1,1,0,0,1,.3,0h9.58a.61.61,0,0,1,0,1.22H27.6Z"/><path class="cls-1" d="M27.6,20.59H23.06c-.1,0-.2,0-.31,0a.59.59,0,0,1-.61-.6.61.61,0,0,1,.6-.63h9.61c.49,0,.76.23.75.63s-.27.6-.73.6a1.77,1.77,0,0,1-.23,0Z"/><path class="cls-1" d="M27.58,24.37H22.92c-.17,0-.41,0-.5-.12a.9.9,0,0,1-.24-.62c0-.18.26-.34.44-.46s.22,0,.34,0h9.51a.6.6,0,0,1,.63.63.59.59,0,0,1-.62.6h-4.9Z"/><path class="cls-1" d="M15.64,17.63,18.52,15l.29-.26c.42-.37.76-.41,1-.09s.2.63-.19,1l-3,2.69c-.2.18-.4.37-.61.54a.61.61,0,0,1-.89,0q-.75-.72-1.47-1.47a.62.62,0,0,1,0-.92.6.6,0,0,1,.89.05C14.93,16.88,15.27,17.25,15.64,17.63Z"/><path class="cls-1" d="M15.69,24l3.09-2.8c.09-.07.17-.16.26-.22a.58.58,0,0,1,.8.11.55.55,0,0,1,0,.77,3,3,0,0,1-.36.35l-3.3,3c-.44.4-.71.39-1.12,0L13.8,23.92c-.36-.37-.4-.73-.12-1s.64-.22,1,.15l.9.89Z"/><path class="cls-1" d="M15.64,11.21l3.08-2.8.2-.18a.63.63,0,0,1,.93,0,.62.62,0,0,1-.09.89c-.18.18-.38.35-.57.52l-3,2.71c-.44.4-.7.4-1.12,0L13.75,11a.64.64,0,0,1-.07-.95.61.61,0,0,1,.92.07C15,10.47,15.28,10.83,15.64,11.21Z"/><path class="cls-1" d="M15.65,30.48l3.06-2.78a2.49,2.49,0,0,1,.36-.3.55.55,0,0,1,.76.11.57.57,0,0,1,0,.78,1.36,1.36,0,0,1-.24.24l-3.39,3.08c-.5.45-.73.44-1.21,0l-1.28-1.28a.64.64,0,0,1-.07-.95c.27-.27.61-.25.94.09S15.29,30.1,15.65,30.48Z"/></g></g></svg>