<svg xmlns="http://www.w3.org/2000/svg" viewBox="0 0 137.33 57.84"><defs><style>.cls-1{fill:#eb3f4c;}.cls-2{fill:#fff;}</style></defs><g id="Capa_2" data-name="Capa 2"><g id="Capa_1-2" data-name="Capa 1"><path class="cls-1" d="M137.33,23.4V34.55a3.73,3.73,0,0,0-.09.46c-.15,2.59-.3,5.17-.46,7.76a27.34,27.34,0,0,1-1.18,6.46c-1.19,3.81-3.59,6.45-7.52,7.31a44.94,44.94,0,0,1-6.87.71c-3.21.19-6.43.3-9.65.37-5.07.11-10.15.27-15.23.21-8.14-.1-16.27-.33-24.4-.6a44.48,44.48,0,0,1-6.81-.75A9.2,9.2,0,0,1,58,51.25a19,19,0,0,1-1.69-5.79,110.1,110.1,0,0,1-.87-13.09A165,165,0,0,1,56,15.29a31.25,31.25,0,0,1,1.4-7.23,9.84,9.84,0,0,1,7.79-6.88A40.51,40.51,0,0,1,71.32.6C77.11.38,82.9.17,88.7.07q14.05-.24,28.1.32c3.34.12,6.69.26,10,.64a9.58,9.58,0,0,1,8.09,5.89,21.26,21.26,0,0,1,1,2.87c.9,3.19.93,6.49,1.19,9.77C137.2,20.83,137.26,22.12,137.33,23.4Zm-35.11-1.84V21c0-3.55,0-7.11,0-10.66,0-.47-.13-.62-.6-.61-1.25,0-2.51,0-3.76,0-.49,0-.62.14-.62.63q0,18,0,35.91a6,6,0,0,0,0,.61h5V44.18l.52.57a8.21,8.21,0,0,0,2.88,2.1,4.27,4.27,0,0,0,6-3.1,12,12,0,0,0,.32-2.38c0-5.38,0-10.75,0-16.13a10.13,10.13,0,0,0-1-4.25,3.79,3.79,0,0,0-4-2.31,5,5,0,0,0-2.67,1C103.67,20.27,103,20.9,102.22,21.56ZM88,19.11v.75q0,9.88,0,19.78a1.09,1.09,0,0,1-.11.66,20.12,20.12,0,0,1-1.78,1.91,1.42,1.42,0,0,1-1.65.25c-.54-.28-.51-.85-.51-1.37v-22H78.68c0,.18,0,.34,0,.49,0,7.18,0,14.37,0,21.55a17.08,17.08,0,0,0,.5,3.75,3.13,3.13,0,0,0,3,2.32,4.45,4.45,0,0,0,3-.85c.82-.61,1.56-1.34,2.34-2,.13-.12.25-.26.48-.49v3l.62,0c1.32,0,2.64,0,4,0,.51,0,.67-.13.67-.65q0-13.26,0-26.53c0-.19,0-.38,0-.58Zm32.72,14.73H130c.28,0,.55,0,.54-.38-.07-2.64-.06-5.29-.22-7.92a7.53,7.53,0,0,0-1.54-4.17,7.43,7.43,0,0,0-12.62,1.86,11.94,11.94,0,0,0-.75,4.14c0,3.53,0,7.07,0,10.61a18.88,18.88,0,0,0,.12,2.13c.5,4.13,3.14,6.78,6.82,7.06,3.26.24,6.13-1.07,7.46-4.23.78-1.86.64-3.83.66-5.82h-5.23c0,.22,0,.41,0,.6,0,.92,0,1.83,0,2.74a2.11,2.11,0,0,1-1.78,2.11A2.06,2.06,0,0,1,121,40.94a6.09,6.09,0,0,1-.23-1.47c0-1.64,0-3.29,0-4.93ZM62.22,15c1.77,0,3.48,0,5.2,0,.4,0,.52.12.52.51,0,1.56,0,3.11,0,4.67q0,13,0,26c0,.53.11.72.68.7,1.41,0,2.82,0,4.23,0,.21,0,.42,0,.68,0V15h6V9.74H62.22Z"/><path class="cls-2" d="M36.78,18.9h5.15V41.36c0,1,.71,1.56,1.64,1.12a7.38,7.38,0,0,0,1.68-1.29A2.69,2.69,0,0,0,46.09,39c0-6.45,0-12.9,0-19.35v-.73h5.15V46.77H46.05v-3c-.24.25-.37.41-.51.54-.89.75-1.72,1.56-2.67,2.21a4.06,4.06,0,0,1-3.14.59,3,3,0,0,1-2.5-2.29,14,14,0,0,1-.45-3.22c0-7.45,0-14.9,0-22.35C36.75,19.16,36.77,19.06,36.78,18.9Z"/><path class="cls-2" d="M0,9.39H1.6c1.19,0,2.39,0,3.59,0,.42,0,.58.12.68.53q1.76,6.75,3.55,13.51l.15.51c.08-.22.13-.36.17-.5Q11.51,16.71,13.26,10c.11-.43.28-.56.72-.55,1.52,0,3,0,4.56,0h.59c-.3,1-.58,1.92-.87,2.84q-2.91,9.4-5.82,18.81a3.06,3.06,0,0,0-.13.9q0,7.06,0,14.15v.63H6.84V32.08a3.3,3.3,0,0,0-.13-.89Q3.44,20.57.16,10C.11,9.8.07,9.63,0,9.39Z"/><path class="cls-2" d="M18.11,33c0-2.16-.08-4.32,0-6.48A11.85,11.85,0,0,1,18.85,23a6.11,6.11,0,0,1,5.83-4.29,10.57,10.57,0,0,1,3,.27,6.28,6.28,0,0,1,4.75,5.37,24.39,24.39,0,0,1,.33,4.1c0,3.11.06,6.22,0,9.33a21.49,21.49,0,0,1-.51,4.39,6.4,6.4,0,0,1-5.45,5,6.91,6.91,0,0,1-7-2.48,8,8,0,0,1-1.72-5.08C18.06,37.37,18.11,35.17,18.11,33Zm5.13,0c0,2.12,0,4.25,0,6.38a7.07,7.07,0,0,0,.26,1.89,2.05,2.05,0,0,0,3.92,0,8.19,8.19,0,0,0,.29-2.15q0-6.12,0-12.22a8.22,8.22,0,0,0-.3-2.16,1.83,1.83,0,0,0-2-1.35,1.87,1.87,0,0,0-1.95,1.38,7.07,7.07,0,0,0-.26,1.89C23.22,28.76,23.24,30.87,23.24,33Z"/><path class="cls-1" d="M102.26,33c0-2.61,0-5.22,0-7.82a1.09,1.09,0,0,1,.52-1,3.15,3.15,0,0,1,2.48-.77,1.48,1.48,0,0,1,1.26,1.09,7.57,7.57,0,0,1,.32,1.94q0,6.44,0,12.87a7.18,7.18,0,0,1-.28,1.95,1.72,1.72,0,0,1-2.17,1.32,4.22,4.22,0,0,1-.91-.3,1.8,1.8,0,0,1-1.24-1.92C102.33,37.88,102.26,35.43,102.26,33Z"/><path class="cls-1" d="M120.53,29.64c.1-1.64.11-3.21.31-4.76.14-1.14.91-1.59,2.19-1.56s1.91.5,2,1.63c.15,1.45.12,2.92.15,4.38,0,.1-.17.29-.26.29C123.52,29.64,122.1,29.64,120.53,29.64Z"/></g></g></svg>