<svg xmlns="http://www.w3.org/2000/svg" viewBox="0 0 60.81 40.45"><defs><style>.cls-1{fill:#29292a;}</style></defs><g id="Capa_2" data-name="Capa 2"><g id="Capa_1-2" data-name="Capa 1"><path class="cls-1" d="M60.81,34.68a2.53,2.53,0,0,1-2.75,1.57c-1.63-.07-3.27,0-5,0,0,.61.09,1.15.12,1.7a2.12,2.12,0,0,1-2.4,2.51H31.23c-6.41,0-12.82,0-19.24,0a3.81,3.81,0,0,1-2.07-.57c-1.19-.73-2.43-1.4-3.62-2.14a5,5,0,0,0-2.47-.88c-.44,0-.87-.14-1.3-.15A2.5,2.5,0,0,1,0,35v-.95c.32-1.4.64-2.8,1-4.21.11-.51.33-.89.92-.9s1,.51.83,1.26c-.27,1.31-.54,2.63-.85,3.93-.13.51,0,.69.52.74l2.16.25L5.75,16.7H5.61c-.32,1.49-.65,3-1,4.48s-.63,3-.95,4.45c-.16.73-.57,1.05-1.13.92s-.77-.58-.62-1.27Q3.79,16.65,5.64,8c.3-1.39.6-2.78.89-4.17.21-1,.37-1.11,1.38-1.15a.69.69,0,0,0,.51-.26C9.79-.27,12.18-.78,14.56,1.2a3.64,3.64,0,0,1,5.39,0A3.72,3.72,0,0,1,22.65,0,3.56,3.56,0,0,1,25.33,1.2a3.76,3.76,0,0,1,5.45-.05c2.09-1.54,3.56-1.53,5.42.05a3.64,3.64,0,0,1,5.39,0A3.79,3.79,0,0,1,44.28,0,3.71,3.71,0,0,1,47,1.21,3.67,3.67,0,0,1,50.07,0a3.58,3.58,0,0,1,3.06,4.71,2.07,2.07,0,0,0-.05,1.13q3.73,13.61,7.51,27.21c0,.18.15.35.22.53Zm-9.52,1.55h-.71c-1.28,0-2.57,0-3.85,0a.87.87,0,0,1-.93-.87.9.9,0,0,1,.91-.9H58.23c.86,0,.89,0,.66-.88Q56,23.29,53.2,13a.71.71,0,0,0-.83-.64H10.86l.83,3,2.13,7.7c.19.7-.1,1.24-.71,1.28s-.87-.32-1-.86c-.88-3.23-1.79-6.46-2.68-9.69-.06-.18-.12-.37-.17-.55a23.29,23.29,0,0,0,.11,2.38l1.71,22c.08,1,.08,1,1.1,1H50.8c.48.05.7-.12.64-.64S51.34,36.88,51.29,36.23ZM10.35,10.53H52.51l-1-3.68c-.62.12-1.15.27-1.69.32a.87.87,0,0,1-1-.84.92.92,0,0,1,.83-.92,3,3,0,0,0,.8-.19c.18-.08.3-.3.45-.46-.2-.09-.39-.26-.59-.27-.63,0-1.27,0-1.9,0A.7.7,0,0,0,47.6,5a3.49,3.49,0,0,1-2.9,2.16c-.73.11-1.19-.19-1.26-.75s.27-.91,1-1a1.68,1.68,0,0,0,1.38-.92c-1,0-2,0-3,0a.58.58,0,0,0-.65.43,3.51,3.51,0,0,1-2.95,2.26c-.72.1-1.19-.2-1.27-.76a1,1,0,0,1,1.05-1,1.47,1.47,0,0,0,1.35-.9c-1,0-1.93,0-2.85,0a.69.69,0,0,0-.78.5,3.47,3.47,0,0,1-3,2.2c-.68.08-1.13-.24-1.18-.79s.3-.89,1-1A1.68,1.68,0,0,0,35,4.48c-1,0-2,0-2.94,0a.61.61,0,0,0-.68.47,3.52,3.52,0,0,1-3,2.23c-.68.09-1.14-.21-1.21-.75s.28-.93,1-1a1.69,1.69,0,0,0,1.36-.88H26.16a3.64,3.64,0,0,1-3.11,2.64c-.72.11-1.18-.19-1.27-.75s.3-.91,1-1a1.63,1.63,0,0,0,1.36-.92c-1,0-2,0-3,0a.57.57,0,0,0-.64.44,3.5,3.5,0,0,1-3,2.26c-.68.08-1.13-.23-1.18-.78s.29-.9,1-1a1.59,1.59,0,0,0,1.38-.9H15.36c-.09.19-.17.4-.26.59a3.53,3.53,0,0,1-3,2.08c-.67.08-1.13-.24-1.19-.79s.32-.89,1-1a1.6,1.6,0,0,0,1.37-.88H8.69Zm-2.7,6.25H7.53c-.14,2.05-.27,4.09-.4,6.14-.26,3.88-.48,7.76-.79,11.64-.06.81.06,1.31.84,1.66s1.34.76,2.09,1.19Zm43.65-14a1.73,1.73,0,0,0-1.65-.93,1.69,1.69,0,0,0-1.49.93Zm-10.86,0a1.74,1.74,0,0,0-1.72-.87,1.58,1.58,0,0,0-1.34.87Zm-27.09,0a1.71,1.71,0,0,0-3,0Zm5.43,0a1.72,1.72,0,0,0-3,0ZM35,2.68a1.76,1.76,0,0,0-1.74-.87A1.62,1.62,0,0,0,32,2.68Zm10.81,0a1.7,1.7,0,0,0-1.57-.87,1.62,1.62,0,0,0-1.48.87Zm-21.63,0a1.74,1.74,0,0,0-1.73-.87,1.6,1.6,0,0,0-1.34.87Zm5.41,0a1.74,1.74,0,0,0-1.72-.87,1.58,1.58,0,0,0-1.34.87Z"/><path class="cls-1" d="M29.69,36.23H17.76c-1.7,0-2.26-.42-2.71-2q-.84-3-1.69-6.1a1,1,0,0,1,.32-1.21c.55-.36,1.17-.06,1.38.68.49,1.73,1,3.46,1.44,5.19s.47,1.71,2.22,1.71H42.23c.65,0,1.05.34,1.07.87s-.39.9-1.08.9C38,36.24,33.87,36.23,29.69,36.23Z"/><path class="cls-1" d="M19.16,14.77h1.78a2,2,0,0,1,2,1.42c.54,1.63,1.08,3.26,1.56,4.9a2,2,0,0,1-1.78,2.6c-1.32.07-2.65,0-4,0A1.84,1.84,0,0,1,17,22.36c-.57-1.66-1.12-3.33-1.61-5a2,2,0,0,1,1.92-2.56c.61,0,1.23,0,1.84,0Zm0,1.73v.05H17.62c-.42,0-.58.14-.44.58.48,1.46.93,2.92,1.43,4.37a.76.76,0,0,0,.57.43c1,0,2.06,0,3.08,0,.51,0,.61-.22.45-.68-.32-.93-.6-1.87-.91-2.8-.2-.62-.27-1.45-.7-1.77S19.82,16.55,19.16,16.5Z"/><path class="cls-1" d="M19.46,26.83c0-.58.21-.89.64-1a.78.78,0,0,1,1,.48c.43,1.41.83,2.83,1.18,4.27a.76.76,0,0,1-.66.91.84.84,0,0,1-1.06-.61c-.27-.91-.51-1.82-.76-2.74Z"/><path class="cls-1" d="M25.34,30.45c0,.59-.2.92-.65,1a.79.79,0,0,1-1-.48,21.68,21.68,0,0,1-.62-2.23.87.87,0,0,1,1.64-.5C25,29,25.16,29.81,25.34,30.45Z"/><path class="cls-1" d="M44.16,15.14a8.61,8.61,0,0,1,.88,0,.83.83,0,0,1,.79.87.81.81,0,0,1-.78.88,14,14,0,0,1-1.83,0,.87.87,0,0,1,0-1.74A7.51,7.51,0,0,1,44.16,15.14Z"/><path class="cls-1" d="M49.68,16.9c-.28,0-.55,0-.83,0A.87.87,0,0,1,48,16a.86.86,0,0,1,.83-.89,13.07,13.07,0,0,1,1.77,0,.83.83,0,0,1,.81.85.88.88,0,0,1-.84.9c-.29,0-.59,0-.88,0Z"/><path class="cls-1" d="M45.31,20c.27,0,.55,0,.82,0a.88.88,0,0,1,.89.84.87.87,0,0,1-.82.91,12.92,12.92,0,0,1-1.76,0,.88.88,0,0,1-.84-.9.89.89,0,0,1,.88-.85C44.76,20,45,20,45.31,20Z"/><path class="cls-1" d="M46.51,24.84c.28,0,.56,0,.83,0a.83.83,0,0,1,.86.81.8.8,0,0,1-.74.92,9.77,9.77,0,0,1-2,0,.78.78,0,0,1-.71-.88.82.82,0,0,1,.82-.85C45.92,24.82,46.21,24.84,46.51,24.84Z"/><path class="cls-1" d="M38.53,16.9a6.59,6.59,0,0,1-.89,0,.83.83,0,0,1-.77-.9.8.8,0,0,1,.76-.84,11.3,11.3,0,0,1,1.84,0,.87.87,0,0,1,0,1.74,7.55,7.55,0,0,1-.95,0Z"/><path class="cls-1" d="M50.92,20c.27,0,.55,0,.82,0a.83.83,0,0,1,.84.83.81.81,0,0,1-.75.91,9.68,9.68,0,0,1-1.94,0,.78.78,0,0,1-.71-.92A.82.82,0,0,1,50,20c.32,0,.63,0,1,0Z"/><path class="cls-1" d="M39.76,20c.27,0,.55,0,.83,0a.86.86,0,0,1,.86.87.81.81,0,0,1-.78.88,11.3,11.3,0,0,1-1.84,0,.82.82,0,0,1-.78-.89.83.83,0,0,1,.82-.86,8.81,8.81,0,0,1,.89,0Z"/><path class="cls-1" d="M41.8,29.69c.28,0,.56,0,.83,0a.82.82,0,0,1,.83.84.78.78,0,0,1-.71.88,11.25,11.25,0,0,1-2,0,.77.77,0,0,1-.68-.9.82.82,0,0,1,.79-.81c.32,0,.64,0,.95,0Z"/><path class="cls-1" d="M41,24.84a6.59,6.59,0,0,1,.77,0,.86.86,0,0,1,.88.85.82.82,0,0,1-.78.89,10.17,10.17,0,0,1-1.83,0,.82.82,0,0,1-.8-.87.86.86,0,0,1,.87-.87C40.39,24.82,40.69,24.84,41,24.84Z"/><path class="cls-1" d="M52.11,24.84c.27,0,.55,0,.83,0a.82.82,0,0,1,.82.85.79.79,0,0,1-.71.88,10.69,10.69,0,0,1-2,0,.79.79,0,0,1-.73-.92.82.82,0,0,1,.86-.81c.29,0,.59,0,.89,0Z"/><path class="cls-1" d="M47.33,29.69c.29,0,.59,0,.89,0a.82.82,0,0,1,.8.8.76.76,0,0,1-.67.9,10.23,10.23,0,0,1-2.07,0,.76.76,0,0,1-.66-.91.83.83,0,0,1,.82-.79C46.73,29.67,47,29.69,47.33,29.69Z"/><path class="cls-1" d="M27.48,15.13c.27,0,.55,0,.83,0a.85.85,0,0,1,.84.89.82.82,0,0,1-.81.86,13.22,13.22,0,0,1-1.78,0,.8.8,0,0,1-.8-.85.85.85,0,0,1,.83-.9A8.77,8.77,0,0,1,27.48,15.13Z"/><path class="cls-1" d="M36.25,29.69c.28,0,.55,0,.83,0a.8.8,0,0,1,.81.79.78.78,0,0,1-.71.93,10.58,10.58,0,0,1-2,0,.79.79,0,0,1-.73-.92.81.81,0,0,1,.8-.8c.32,0,.63,0,1,0Z"/><path class="cls-1" d="M52.86,31.45a7.63,7.63,0,0,1-.83,0,.87.87,0,0,1-.85-.89.84.84,0,0,1,.87-.86c.55,0,1.1,0,1.66,0a.86.86,0,0,1,.88.85.9.9,0,0,1-.84.9A8.84,8.84,0,0,1,52.86,31.45Z"/><path class="cls-1" d="M29.86,24.84c.27,0,.55,0,.83,0a.82.82,0,0,1,.82.84.8.8,0,0,1-.76.9,9.18,9.18,0,0,1-1.89,0,.78.78,0,0,1-.73-.91.8.8,0,0,1,.84-.82C29.26,24.82,29.56,24.84,29.86,24.84Z"/><path class="cls-1" d="M33,16.9a6.63,6.63,0,0,1-.89,0,.81.81,0,0,1-.79-.86.8.8,0,0,1,.78-.88,11.18,11.18,0,0,1,1.83,0,.87.87,0,0,1,0,1.74A6.59,6.59,0,0,1,33,16.9Z"/><path class="cls-1" d="M35.4,24.84c.28,0,.56,0,.83,0a.82.82,0,0,1,.84.83.8.8,0,0,1-.74.91,10.05,10.05,0,0,1-1.9,0,.8.8,0,0,1-.75-.91.82.82,0,0,1,.83-.83C34.81,24.82,35.11,24.84,35.4,24.84Z"/><path class="cls-1" d="M30.7,29.69c.28,0,.55,0,.83,0a.8.8,0,0,1,.8.8.79.79,0,0,1-.72.92,10.58,10.58,0,0,1-1.95,0,.78.78,0,0,1-.71-.93.8.8,0,0,1,.8-.79C30.07,29.67,30.38,29.69,30.7,29.69Z"/><path class="cls-1" d="M34.19,20c.28,0,.56,0,.83,0a.86.86,0,0,1,.87.86.82.82,0,0,1-.78.89,11.18,11.18,0,0,1-1.83,0,.81.81,0,0,1-.78-.89.84.84,0,0,1,.86-.86C33.64,20,33.92,20,34.19,20Z"/><path class="cls-1" d="M28.61,21.75c-.28,0-.55,0-.83,0a.87.87,0,0,1-.84-.89.84.84,0,0,1,.85-.87c.58,0,1.15,0,1.72,0a.8.8,0,0,1,.81.85.82.82,0,0,1-.76.9,6,6,0,0,1-.95,0Z"/></g></g></svg>