<svg xmlns="http://www.w3.org/2000/svg" viewBox="0 0 53.93 45.27"><defs><style>.cls-1{fill:#29292a;}</style></defs><g id="Capa_2" data-name="Capa 2"><g id="Capa_1-2" data-name="Capa 1"><path class="cls-1" d="M53.93,9.77c-.21,1-.34,2-.64,2.91a22,22,0,0,1-1.16,2.75,1,1,0,0,1-1.48.56,1.05,1.05,0,0,1-.36-1.54,12.05,12.05,0,0,0,1.53-6.1A11.78,11.78,0,0,0,50.41,3c-.46-.85-.37-1.46.24-1.78s1.16-.06,1.61.78A13.63,13.63,0,0,1,53.84,7.1a2.37,2.37,0,0,0,.09.36Z"/><path class="cls-1" d="M5.06,11.86c0-.68,0-1.29,0-1.9A2.3,2.3,0,0,1,7.47,7.54h2.84a1.06,1.06,0,1,1,0,2.1c-.9,0-1.79,0-2.69,0-.33,0-.5.1-.46.46a2.94,2.94,0,0,1,0,.42q0,14.72,0,29.44c0,1.06-.08,2.12-.12,3.2H7.5q14.74,0,29.49,0c1.36,0,1.88-.51,1.88-1.87q0-12.37,0-24.75c0-.42-.11-.63-.51-.76-.56-.18-1.1-.42-1.71-.66v9.37c0,1-.36,1.35-1.33,1.35q-12.33,0-24.65,0c-.94,0-1.3-.38-1.3-1.32q0-5.68,0-11.37c0-.92.36-1.29,1.27-1.29H22.88c-.38-.7-.73-1.39-1.12-2.06a.56.56,0,0,0-.4-.14c-.76,0-1.51,0-2.27,0s-1.29-.43-1.28-1.07.47-1,1.25-1,1.48,0,2.22,0a.5.5,0,0,0,.57-.38A4.25,4.25,0,0,1,26,4.3c1.53,0,3.05,0,4.58,0a2.89,2.89,0,0,0,1-.2c3.29-1.3,6.58-2.62,9.87-3.93,1.07-.43,1.7,0,1.7,1.17q0,7.2,0,14.38c0,1.35-.56,1.73-1.84,1.26a2.54,2.54,0,0,0-.32-.1V41.31a3.62,3.62,0,0,1-4,4H4a3.62,3.62,0,0,1-3.95-4v-28c0-1.19.29-1.48,1.5-1.48Zm27.28,1.53V20.2c0,.93-.37,1.31-1.3,1.32-1.29,0-2.57,0-3.85,0-.9,0-1.27-.39-1.28-1.29V14H11.51v9.69h23c0-3.07,0-6.11,0-9.14a.43.43,0,0,0-.16-.34C33.72,13.93,33.06,13.67,32.34,13.39ZM2.11,14V41.39a3.73,3.73,0,0,0,0,.47,1.47,1.47,0,0,0,2.92,0,4.52,4.52,0,0,0,0-.52V14ZM41,2.64l-.2,0C38.08,3.77,35.36,4.85,32.66,6a.7.7,0,0,0-.31.5c0,1.39,0,2.77,0,4.16a.6.6,0,0,0,.45.68c2.27.89,4.52,1.8,6.78,2.71l1.44.57ZM30.21,6.42c-1.57,0-3.11,0-4.64,0a2,2,0,0,0-1.75,1.47,2.11,2.11,0,0,0,1.84,2.82c1.48.08,3,0,4.46,0,0,0,.06,0,.09-.06ZM28.05,12.9v6.48h2.14V12.9Z"/><path class="cls-1" d="M15.69,28.59h5.06a1.07,1.07,0,0,1,1.15.72,1,1,0,0,1-.81,1.34,2.78,2.78,0,0,1-.58,0h-10a1.07,1.07,0,0,1-1.08-1.07,1,1,0,0,1,1.1-1c1.74,0,3.47,0,5.21,0Z"/><path class="cls-1" d="M30.4,28.59h4.9a2.16,2.16,0,0,1,.72.09,1,1,0,0,1,.63,1,1,1,0,0,1-.72.94,2.53,2.53,0,0,1-.68.07H25.09a1,1,0,0,1-1-1.07,1,1,0,0,1,1.05-1c1.11,0,2.22,0,3.32,0Z"/><path class="cls-1" d="M15.68,33.46h5.16a1,1,0,0,1,1.06,1.38,1.08,1.08,0,0,1-1.16.72H16.11c-1.81,0-3.62,0-5.43,0a1.79,1.79,0,0,1-1-.38.84.84,0,0,1-.18-1.06,1,1,0,0,1,1-.64h5.22Z"/><path class="cls-1" d="M30.38,33.46h5c.78,0,1.25.38,1.26,1s-.48,1.08-1.28,1.08h-10c-.84,0-1.33-.5-1.22-1.22a1,1,0,0,1,1.12-.88Z"/><path class="cls-1" d="M15.64,40.42H10.59a1.09,1.09,0,0,1-1.21-1.05,1.06,1.06,0,0,1,1.18-1.06H20.72c.77,0,1.24.41,1.23,1.06s-.47,1-1.25,1.05Z"/><path class="cls-1" d="M49.62,8.56a9.87,9.87,0,0,1-1.21,4.7,1.06,1.06,0,1,1-1.85-1,7.54,7.54,0,0,0,0-7.35,1.07,1.07,0,1,1,1.87-1A9.85,9.85,0,0,1,49.62,8.56Z"/><path class="cls-1" d="M25.63,38.31h.53a1,1,0,0,1,1,1,1,1,0,0,1-1,1.11,8.08,8.08,0,0,1-1.1,0,1.05,1.05,0,1,1,0-2.1Z"/><path class="cls-1" d="M35.1,38.31h.53a1,1,0,0,1,0,2.08,7.36,7.36,0,0,1-1.15,0,1,1,0,0,1,0-2.09Z"/><path class="cls-1" d="M14.66,7.55a1,1,0,0,1,1,1,1.06,1.06,0,0,1-1.07,1.06,1.08,1.08,0,0,1-1-1A1,1,0,0,1,14.66,7.55Z"/><path class="cls-1" d="M31.4,39.36a1,1,0,0,1-1.06,1,1.07,1.07,0,0,1-1-1,1.05,1.05,0,0,1,1.08-1A1,1,0,0,1,31.4,39.36Z"/></g></g></svg>