<svg xmlns="http://www.w3.org/2000/svg" viewBox="0 0 149.14 65.41"><defs><style>.cls-1,.cls-5,.cls-8{fill:#29292a;}.cls-1,.cls-2,.cls-3{fill-rule:evenodd;}.cls-2{fill:#f5f3ef;}.cls-3,.cls-4{fill:#fefefe;}.cls-6{fill:#087d9f;}.cls-7{fill:#221f20;}.cls-8{stroke:#29292a;stroke-miterlimit:10;stroke-width:0.23px;}</style></defs><g id="Capa_2" data-name="Capa 2"><g id="Capa_1-2" data-name="Capa 1"><path class="cls-1" d="M1.21,40.62a4.49,4.49,0,0,0,.1.64,1.86,1.86,0,0,0-.56,1.8c0,.46.63.67,1.52.75A34.74,34.74,0,0,1,1,38.4a30.1,30.1,0,0,1-.35-5.66A40.26,40.26,0,0,1,1.77,22.48,45.51,45.51,0,0,1,4.18,16,39.21,39.21,0,0,1,8.88,8.7a25.66,25.66,0,0,1,6.51-5.59A23.15,23.15,0,0,1,24,.14a20.71,20.71,0,0,1,6.79.32A26.22,26.22,0,0,1,38.3,3.57a25.28,25.28,0,0,1,5.34,4.67,41.32,41.32,0,0,1,3.64,5.16,38.87,38.87,0,0,1,3.43,8,39.18,39.18,0,0,1,1.31,7,59.41,59.41,0,0,1,0,7.78A28.12,28.12,0,0,1,50.5,44c.63,0,1.3,0,1.55-.85a1.92,1.92,0,0,0-.6-1.52c0-.24,0-.53,0-.77a2.5,2.5,0,0,1,.56,3.88c-.49,1.28-1,2.52-1.48,3.79,1.76,1.41,2,2.54.6,3.43a7.45,7.45,0,0,0-1.63,3.68,1.58,1.58,0,0,1-1.1,1.73A6.55,6.55,0,0,1,44.2,57c.78,1.13.14,2.4-1.13,3.71a5.81,5.81,0,0,0-.92,4.14c-4.74.92-7.28-.11-10.18-.89a19.5,19.5,0,0,1-11.56-.14c-3.4.85-6.76,1.81-10.82.85.21-1.66.35-3.32-.78-4.7-1.24-1-1.27-2-.18-3.22-2.37.89-4.59.81-5.3-.35a8,8,0,0,0-2-4.88c-1.24-1.13-.6-2.34.81-3.18-.49-1.31-1-2.62-1.45-4a2.36,2.36,0,0,1,.5-3.72Z"/><path class="cls-2" d="M10.22,38.86a41.32,41.32,0,0,1-.53-8.77,29.2,29.2,0,0,1,3.68-12.63,20.93,20.93,0,0,1,7.28-7.21,13.4,13.4,0,0,1,9.41-.78A15.38,15.38,0,0,1,37.73,15c3.22,3.75,4.67,8.67,5.34,13.76a35,35,0,0,1-.88,12c-.39-.14-.78-.38-1.17-.53-.11-.74.46-.95,1.38-.88-.57-.32-1.7-.42-1.77.53,0,1.73.07,3.43,0,5a20.69,20.69,0,0,1-2,3.5,16,16,0,0,0-7.32-.43c0,1.77,0,3.57,0,5.34.77,0,1.55.11,2.37.14a13.6,13.6,0,0,1-7.5,2.3,11.8,11.8,0,0,1-7.46-2.51,21.36,21.36,0,0,1,2.65-.11c0-1.76,0-3.57.07-5.37a16.07,16.07,0,0,0-7.49.39c-.71-1.2-1.35-2.37-1.95-3.57,0-1.59.14-3.18.18-4.74-.11-1.1-.81-1.1-1.8-.78,1,0,1.52.25,1.41.92-.42.18-.81.36-1.24.53-.14-.53-.25-1.06-.39-1.62Z"/><path class="cls-3" d="M51.38,41.86c-.21.64-.39,1.27-.6,1.91a1,1,0,0,0,.6-1.91Z"/><path class="cls-3" d="M31.61,48.33c0,1.52.08,3.08.08,4.6a17.81,17.81,0,0,1,9.19,2,30,30,0,0,0,4.63,2c1.91.28,3.36.07,3.54-1a7.61,7.61,0,0,1,1.55-4.31,12.94,12.94,0,0,1-5.8-.85c-2.19-.78-4.38-1.52-6.57-2.3a15,15,0,0,0-6.62-.18Z"/><path class="cls-3" d="M42.26,46.92l.63.21c-.39.71-.77,1.45-1.16,2.16a6.15,6.15,0,0,1-.71-.18c.46-.71.85-1.45,1.24-2.19Z"/><path class="cls-3" d="M40.63,45.75a19.77,19.77,0,0,1-1.52,2.72l.6.21c.5-.74,1-1.59,1.45-2.47-.18-.14-.35-.32-.53-.46Z"/><path class="cls-3" d="M43.85,47.06c.1,1.06.14,2.08.14,3.15a14,14,0,0,0,6.08,1.16c1.59-.07,1.84-1.24,0-2.54a20,20,0,0,0-6.26-1.77Z"/><path class="cls-3" d="M49.75,44.65c-1.84.46-3.32.11-5,.25-1.38.36-1.27,1.45.29,2,1.34.35,2.93.56,4,.95a6.36,6.36,0,0,0,.74-3.15Z"/><path class="cls-3" d="M43.32,47c-.43-2.19.49-2.75,2-2.58a8.16,8.16,0,0,0,1.31-2.26A15,15,0,0,1,41,40.52a27,27,0,0,1,0,5.09c0,.14,2.33,1.63,2.37,1.41Z"/><path class="cls-3" d="M9.34,46.81c.6-2.05-.28-2.79-1.91-2.62a6.27,6.27,0,0,1-1.2-1.83,28.59,28.59,0,0,0,5.69-2.2c-.07,1.77-.18,3.5-.11,5.2a8.16,8.16,0,0,1-2.47,1.45Z"/><path class="cls-3" d="M2.66,43.84,4,44.05A39.33,39.33,0,0,1,2.3,30.44c.32-5.06,1.21-10.08,3.93-14.89a30.57,30.57,0,0,1,9-10.36,22.34,22.34,0,0,1,10.58-3.6c4.49,0,8.41,1,11.59,3.36A26.17,26.17,0,0,1,45,12.76a31.07,31.07,0,0,1,4.38,9.87,38.62,38.62,0,0,1-.56,21.6c.42,0,.88-.07,1.31-.14,1.59-4.49,1.8-10,1.38-16.73a35.68,35.68,0,0,0-6.23-16.44,27.27,27.27,0,0,0-8.2-7.67A20.83,20.83,0,0,0,23.23.67,24,24,0,0,0,11.92,6a36.57,36.57,0,0,0-6.75,8.84A36.56,36.56,0,0,0,1.35,27.12,40.65,40.65,0,0,0,2.66,43.84Z"/><path class="cls-3" d="M10.51,46.63a6.22,6.22,0,0,0-.68.25c.39.71.78,1.42,1.17,2.16l.71-.21a17.74,17.74,0,0,1-1.2-2.2Z"/><path class="cls-3" d="M12.1,45.47a20.62,20.62,0,0,0,1.52,2.72,5.54,5.54,0,0,0-.6.25c-.46-.78-1-1.59-1.42-2.48a5.83,5.83,0,0,0,.5-.49Z"/><path class="cls-3" d="M8.91,46.81c-.1,1-.17,2.09-.17,3.15a14.32,14.32,0,0,1-6.08,1.16c-1.59-.1-1.81-1.27,0-2.54a18.44,18.44,0,0,1,6.29-1.77Z"/><path class="cls-3" d="M3,44.37c1.84.5,3.36.11,5,.28,1.37.36,1.3,1.42-.25,1.91-1.38.39-3,.6-4,1A7,7,0,0,1,3,44.37Z"/><path class="cls-3" d="M1.38,41.61c.22.68.43,1.31.64,2A1.52,1.52,0,0,1,1,42.89a1.18,1.18,0,0,1,.42-1.28Z"/><path class="cls-3" d="M21.11,48.05c0,1.55,0,3.07-.07,4.63a18.09,18.09,0,0,0-9.19,2,27.4,27.4,0,0,1-4.63,2c-1.91.28-3.36.07-3.54-1a7.16,7.16,0,0,0-1.55-4.31,12.11,12.11,0,0,0,5.79-.89c2.2-.74,4.39-1.52,6.58-2.26a14.81,14.81,0,0,1,6.61-.21Z"/><path class="cls-1" d="M31.12,63.78a20.41,20.41,0,0,1-4.95.57,23,23,0,0,1-5-.71,18.91,18.91,0,0,1,4.88-.56,16.56,16.56,0,0,1,5,.7Z"/><path class="cls-3" d="M8.42,57.31c-.71,3.47,5.37,2.09,11,.74a24.42,24.42,0,0,1,10.82-.17c2.79.67,5.48,1.38,8.42,1.87a5.29,5.29,0,0,0,3.81-.39,2.13,2.13,0,0,0,1.35-2.08c.39.39.56.92-.14,2a5.85,5.85,0,0,0-1.88,5.2,18.45,18.45,0,0,1-6.18-.11,27.82,27.82,0,0,1-3.58-.78,37.15,37.15,0,0,0-5.79-1,37.1,37.1,0,0,0-9.13,1.48,18.83,18.83,0,0,1-7.25.21,7.77,7.77,0,0,0-.31-3.92,3.4,3.4,0,0,0-.85-1c-.57-.77-.92-1.52-.32-2.19Z"/><path class="cls-3" d="M9.2,56.43c1,.88,1.91,1.8,2.86,2.72a4.85,4.85,0,0,1-3-.46,1.53,1.53,0,0,1,.14-2.26Z"/><path class="cls-3" d="M15.7,53.67a18.69,18.69,0,0,0,6.09,3.64c-.39.11-.78.18-1.17.29A19,19,0,0,1,15.07,54c.21-.1.42-.17.63-.28Z"/><path class="cls-3" d="M14.36,58.83l-1.8.32a20.19,20.19,0,0,1-2.9-2.86c.39-.18.74-.36,1.13-.53a32,32,0,0,0,3.57,3.07Z"/><path class="cls-3" d="M11.74,55.23a24.46,24.46,0,0,0,3.93,3.39c-.28.07-.57.07-.89.14a18.32,18.32,0,0,1-3.6-3.18,5.72,5.72,0,0,0,.56-.35Z"/><path class="cls-1" d="M9.16,56.82c.74.74,1.52,1.48,2.27,2.12a2.58,2.58,0,0,1-2.3-.6,1.17,1.17,0,0,1,0-1.52Z"/><path class="cls-3" d="M36.81,53.81a18.93,18.93,0,0,1-6.11,3.68c.38.07.77.18,1.16.25a19.15,19.15,0,0,0,5.59-3.61l-.64-.32Z"/><path class="cls-3" d="M37.94,59.29c.6.07,1.14.14,1.74.25a33.21,33.21,0,0,0,3.43-3c-.39-.21-.85-.39-1.24-.57a29.94,29.94,0,0,1-3.93,3.29Z"/><path class="cls-3" d="M40.91,55.44A27.21,27.21,0,0,1,36.67,59c.28,0,.6.18.88.25a20.67,20.67,0,0,0,4-3.43,5.45,5.45,0,0,1-.6-.35Z"/><path class="cls-3" d="M43.39,56.64c-1.1,1-2.16,2-3.22,3a3.7,3.7,0,0,0,2.51-.78c.92-.67,1.24-1.41.71-2.26Z"/><path class="cls-3" d="M17.44,53.46l.84-.21a13.33,13.33,0,0,0,15.95.28l1,.11a13.89,13.89,0,0,1-17.75-.18Z"/><path class="cls-1" d="M42,40.45c.11-.32.18-.64.28-1-.63,0-1.09.14-1.16.64.31.1.6.21.88.32Z"/><path class="cls-3" d="M42.5,40.87a3.53,3.53,0,0,1,.57.25,34,34,0,0,0,1.17-6.68,33.43,33.43,0,0,0-.71-8.95A24.9,24.9,0,0,0,38.9,14.88C36,11,32.39,8.62,28.11,8a13.54,13.54,0,0,0-11.2,3.79,22.58,22.58,0,0,0-6.19,9.08A29.6,29.6,0,0,0,8.63,32.24a31.25,31.25,0,0,0,1.1,8.67,4.86,4.86,0,0,1,.56-.32,36.83,36.83,0,0,1-1-8.38,31.22,31.22,0,0,1,1.24-8.74,22.2,22.2,0,0,1,2.93-6.54,21.89,21.89,0,0,1,5.2-5.65,13.1,13.1,0,0,1,7-2.69A13.44,13.44,0,0,1,34.05,11a21.08,21.08,0,0,1,5.27,5.66,28.29,28.29,0,0,1,3.43,8.17,28.72,28.72,0,0,1,.82,6.5,29.39,29.39,0,0,1-1.07,9.55Z"/><path class="cls-1" d="M43.39,57.06l-2.55,2.37c.82.07,2.83-.92,2.55-2.37Z"/><path class="cls-4" d="M6.12,25.81a1,1,0,0,1,.71.42,1.51,1.51,0,0,1,.1.82,1.1,1.1,0,0,1-.42.74.94.94,0,0,1-.78.14l-1.55-.32.1-.53,1.52.28a.72.72,0,0,0,.5,0A.52.52,0,0,0,6.51,27a.55.55,0,0,0-.07-.43A.56.56,0,0,0,6,26.34l-1.56-.28.11-.57ZM7.71,23.3l-.14.53-2.08.6,1.8.49-.14.5-2.44-.67.17-.64,1.84-.56-1.59-.39.14-.53Zm.57-1.81L7.82,22.8l-.39-.1.14-.39-1.66-.6-.14.39L5.41,22l.46-1.31.36.11-.14.39,1.69.6.11-.39ZM6.76,18.14l2.08,1.73-.21.53-2.69.07.18-.53,2,0L6.58,18.67Zm3.29-1L9.34,18.7l-2.3-1,.71-1.59.39.14-.5,1.13.5.21.46-1,.39.18-.46,1L9.2,18l.49-1.1Zm1.41-2.47-.32.6-1.2.21-.18.28.85.46-.28.5L8.1,15.48l.46-.84A1.37,1.37,0,0,1,9.09,14a.63.63,0,0,1,.57,0,.8.8,0,0,1,.42.81Zm-2.72.56.67.35.14-.21a.66.66,0,0,0,.11-.46.63.63,0,0,0-.21-.28.36.36,0,0,0-.29,0c-.1,0-.17.14-.28.32Zm2.69-.74L11,14.11l0,0a3.35,3.35,0,0,0,.46-.18,1.38,1.38,0,0,0,.35-.32.52.52,0,0,0,.18-.35A.23.23,0,0,0,12,13a.7.7,0,0,0-.22-.07c-.07,0-.14.07-.24.14s-.18.15-.36.29a.88.88,0,0,1-.53.24.7.7,0,0,1-.49-.17.66.66,0,0,1-.25-.57,1.34,1.34,0,0,1,.32-.74,2,2,0,0,1,.67-.57l.42.32,0,0a1.13,1.13,0,0,0-.74.46.63.63,0,0,0-.15.32.19.19,0,0,0,.08.24.26.26,0,0,0,.21.07,1.31,1.31,0,0,0,.24-.14c.11-.1.22-.17.36-.28a.69.69,0,0,1,.32-.21c.07,0,.17,0,.24,0a.43.43,0,0,1,.22,0c.07,0,.1.07.17.1a.76.76,0,0,1,.29.64,1.15,1.15,0,0,1-.32.74,2.5,2.5,0,0,1-.74.64Zm2.43-2.83L13,12.73l-.32-.25.28-.32L11.57,11l-.25.32L11,11.13,11.88,10l.29.25-.25.31,1.38,1.1.28-.32Zm.32-.39L12.56,9.33l.6-.53a2,2,0,0,1,.74-.42,1,1,0,0,1,.64,0,1.57,1.57,0,0,1,.6.42,1.58,1.58,0,0,1,.28.67,1,1,0,0,1-.07.64,2.27,2.27,0,0,1-.53.64Zm-.95-2,1.13,1.34.21-.17a.77.77,0,0,0,.11-1.24.79.79,0,0,0-1.24-.11Zm4.88-1-.5.31-.46-.31-.85.56.18.53L16,9.65,15.35,7l.53-.35ZM16.8,8l-.88-.67.28,1.06Zm1.59.1L17.15,5.87l.71-.39a4.27,4.27,0,0,1,.81-.29.91.91,0,0,1,.6.18,1,1,0,0,1,.5.53,1.21,1.21,0,0,1,.18.67,1,1,0,0,1-.22.64,2,2,0,0,1-.63.5Zm-.53-2.15.81,1.55.25-.14a.76.76,0,0,0,.35-1.17.77.77,0,0,0-1.2-.35Zm6.19.14-.53.1L22.1,4.52l.29,1.84-.5.11L21.47,4l.67-.11,1.24,1.42-.25-1.6.49-.1Zm2.83-.25-.57,0-.25-.53-1,.07L24.93,6h-.56l.77-2.58.64,0Zm-1-.88L25.5,4l-.32,1Zm3.22.88a2.36,2.36,0,0,1-.53.18h-.35a1.1,1.1,0,0,1-.89-.39,1.28,1.28,0,0,1-.28-1,1.31,1.31,0,0,1,.39-1,1.14,1.14,0,0,1,.92-.28,1.57,1.57,0,0,1,.85.25l0,.53h0a1.07,1.07,0,0,0-.74-.39A.72.72,0,0,0,27.9,4a1,1,0,0,0-.25.67,1,1,0,0,0,.18.68.58.58,0,0,0,.5.28,1,1,0,0,0,.35,0,2.48,2.48,0,0,0,.42-.24h.07Zm1.63.64-1.35-.36.11-.35.39.11.49-1.74L30,4l.1-.36L31.44,4l-.11.39-.39-.14L30.45,6l.42.1ZM32.18,7a1.15,1.15,0,0,1-.71-.67,1.23,1.23,0,0,1,0-1,1.36,1.36,0,0,1,.67-.78,1.22,1.22,0,0,1,1,0,1.13,1.13,0,0,1,.71.67,1.39,1.39,0,0,1-.07,1,1.25,1.25,0,0,1-.68.77,1.13,1.13,0,0,1-1,0ZM33,4.91a.67.67,0,0,0-.57.07,1.32,1.32,0,0,0-.39.57.93.93,0,0,0-.1.67.52.52,0,0,0,.35.42.65.65,0,0,0,.53,0A1.23,1.23,0,0,0,33.28,6a1.35,1.35,0,0,0,.1-.7A.69.69,0,0,0,33,4.91Zm2.65,3.75-.49-.25-.11-2.15L34.2,7.88l-.46-.25,1.2-2.22.6.32.11,1.9.77-1.45.43.25Zm2.19,1.84-.46-.39.22-.53-.78-.67-.5.32-.42-.36L38.3,7.53l.46.39Zm-.1-1.31.39-1-1,.54ZM39.32,12l-1.23-1.24,1.83-1.8.39.42-1.52,1.49.85.85Zm1,1.09,2.12-1.41.43.67a1.62,1.62,0,0,1,.35.78,1,1,0,0,1-.07.64,1.81,1.81,0,0,1-.49.53,1.21,1.21,0,0,1-.68.21,1,1,0,0,1-.63-.14,2,2,0,0,1-.57-.6Zm2.09-.74-1.45,1,.18.21a.75.75,0,0,0,1.2.25.78.78,0,0,0,.25-1.2Zm.32,4.56-.85-1.55,2.23-1.24.84,1.56-.38.21L44,14.78l-.5.24.57,1-.39.22-.53-1-.64.35.57,1.06Zm1.87,2.23a.59.59,0,0,1-.6,0,.8.8,0,0,1-.46-.53,3.68,3.68,0,0,1-.18-.53l.39-.18,0,0a1.14,1.14,0,0,0,.07.42c0,.07.1.14.14.21a.46.46,0,0,0,.21.08,1.72,1.72,0,0,0,.39-.11l1.06-.5-.25-.49.39-.18.46,1Zm1.17,2.51a.93.93,0,0,1-.82,0,1.06,1.06,0,0,1-.49-.68,1.27,1.27,0,0,1,0-.81,1,1,0,0,1,.64-.53L46.54,19l.17.53-1.48.53a.65.65,0,0,0-.39.28.65.65,0,0,0,0,.39.58.58,0,0,0,.28.36.78.78,0,0,0,.46,0l1.49-.53.17.53ZM46,23.37a.75.75,0,0,1-.6-.11.9.9,0,0,1-.35-.56,1.65,1.65,0,0,1-.11-.57l.42-.1,0,0a.62.62,0,0,0,0,.39.66.66,0,0,0,.11.25.18.18,0,0,0,.17.1c.07,0,.21,0,.43,0l1.09-.32-.14-.53.39-.14.32,1.09ZM46.89,26a.84.84,0,0,1-.78-.15,1,1,0,0,1-.39-.7,1.35,1.35,0,0,1,.07-.85,1,1,0,0,1,.67-.43l1.6-.31.1.56-1.55.28a.81.81,0,0,0-.43.25.45.45,0,0,0-.07.39c0,.18.11.32.21.35a.7.7,0,0,0,.5.07l1.52-.31.1.53ZM49,28.32l-1.7-.6-1,.17-.1-.53.92-.17L48.52,26l.1.6-.95.81,1.2.36Z"/><path class="cls-5" d="M6.23,53.28l-1.13.18.1.6,1-.14,0,.46-1,.1.17,1.21-.53.07-.35-2.69,1.66-.21Zm2.3,1.66L7,55.44l-.81-2.58.49-.18.67,2.19,1.06-.35ZM10.86,54l-.53.21-.39-.49-.85.38.07.61-.49.21L8.42,52,9,51.83Zm-1.2-.6-.75-.89.15,1.14ZM13,53l-.46.22-.82-1.74.07,1.38L11.5,53l-1-1,.81,1.73-.46.21L9.73,51.48l.53-.25,1.17,1.06-.08-1.55.53-.25Zm2.51-1-.5.18-.67-1.81,0,1.38-.31.11-.92-1,.67,1.8-.46.14-1-2.54.53-.22L14,51.23l0-1.59.53-.18Zm2.33-.6-.53.14L17,51l-.92.25,0,.6-.5.14.18-2.87L16.3,49Zm-1.1-.78-.6-1,0,1.14Zm3.5.71h-.53l-.07-1.91L19.2,50.7l-.35,0-.57-1.28.08,1.91-.46,0-.11-2.73.57,0L19,50.1l.53-1.49.6,0Z"/><path class="cls-5" d="M34.87,49l-.85,0,.1,2.27-.56,0-.07-2.26-.85,0v-.46l2.19-.1ZM37,48.86l-1.23,2.62-.57-.07-.64-2.83.57.07.42,2.05.89-1.87ZM38.19,52l-.56-.14,0-.6-1-.25-.36.53-.53-.14L37.34,49l.6.14Zm-.64-1.2-.07-1.14-.6,1ZM40.6,53l-.5-.21.78-1.77-1,1-.32-.14V50.49l-.77,1.77L38.3,52l1.09-2.51.57.25v1.59l1.17-1.06.56.25Zm2.58,1.38-.46-.28.56-1.1-1-.49-.57,1.1-.49-.25L42.54,51l.5.25-.5.92,1,.5.46-.92.5.28Zm1,.53a1.11,1.11,0,0,1-.64-.74,1.47,1.47,0,0,1,.15-1.06,1.74,1.74,0,0,1,.77-.81,1.13,1.13,0,0,1,1,.07,1.24,1.24,0,0,1,.67.74,1.79,1.79,0,0,1-.18,1.1,1.73,1.73,0,0,1-.74.77,1.06,1.06,0,0,1-1-.07Zm1.06-2.15a.59.59,0,0,0-.53,0,1.13,1.13,0,0,0-.49.57,1.24,1.24,0,0,0-.18.74.51.51,0,0,0,.32.42.47.47,0,0,0,.53,0,1.17,1.17,0,0,0,.49-.6,1.12,1.12,0,0,0,.18-.7.6.6,0,0,0-.32-.46ZM48.41,56c-.25.07-.42.1-.53.14h-.35a1.32,1.32,0,0,1-.89-.49,1.67,1.67,0,0,1-.21-1.07,1.64,1.64,0,0,1,.46-1,1.15,1.15,0,0,1,1-.28,2.07,2.07,0,0,1,.85.32l-.07.57h-.07a1,1,0,0,0-.71-.46.6.6,0,0,0-.53.21,1.06,1.06,0,0,0-.28.71,1.2,1.2,0,0,0,.11.74.71.71,0,0,0,.49.32,1.23,1.23,0,0,0,.36,0,1.44,1.44,0,0,0,.42-.25h.07Z"/><path class="cls-5" d="M14.08,60.88H12.8v.6h1.14v.46H12.8v1.21h-.56V60.42h1.84ZM15.56,63a1,1,0,0,1-1-.24,1.4,1.4,0,0,1-.49-1,1.38,1.38,0,0,1,.21-1.09,1.08,1.08,0,0,1,.88-.5,1.22,1.22,0,0,1,1,.25,1.85,1.85,0,0,1,.29,2,1.2,1.2,0,0,1-.89.49Zm-.35-2.36a.67.67,0,0,0-.46.31,1.54,1.54,0,0,0-.07.75,1.16,1.16,0,0,0,.28.7.55.55,0,0,0,.53.18.5.5,0,0,0,.46-.32,1.14,1.14,0,0,0,.07-.74,1.28,1.28,0,0,0-.28-.71.57.57,0,0,0-.53-.17ZM19,62.12a1.52,1.52,0,0,1-.46.28,1.76,1.76,0,0,1-.35.15,1.3,1.3,0,0,1-1-.18,1.43,1.43,0,0,1-.56-1,1.48,1.48,0,0,1,.14-1.06,1.29,1.29,0,0,1,.85-.6,2.07,2.07,0,0,1,.92,0l.1.56h0a1.16,1.16,0,0,0-.85-.17.72.72,0,0,0-.5.35,1.42,1.42,0,0,0,0,.78,1.26,1.26,0,0,0,.35.67.62.62,0,0,0,.6.11.53.53,0,0,0,.32-.15,1.07,1.07,0,0,0,.36-.35l.07,0Zm1.13-.07a1.16,1.16,0,0,1-1-.14,1.51,1.51,0,0,1-.56-.92,1.43,1.43,0,0,1,.1-1.1,1.19,1.19,0,0,1,.82-.6,1.44,1.44,0,0,1,1,.14,1.86,1.86,0,0,1,.57,1A1.43,1.43,0,0,1,21,61.48a1.12,1.12,0,0,1-.85.57Zm-.53-2.33a.52.52,0,0,0-.42.35,1.46,1.46,0,0,0,0,.78,1.5,1.5,0,0,0,.32.67.66.66,0,0,0,1-.25,1.31,1.31,0,0,0,0-.74,1.08,1.08,0,0,0-.36-.67.55.55,0,0,0-.53-.14Zm5.7,1.48-.61.07-.28-.56-1,.1-.15.6-.56,0,.71-2.79.63-.07Zm-1.07-.92-.49-1.06-.25,1.13Zm3,.74a2.61,2.61,0,0,1-.53.22,1.5,1.5,0,0,1-.35,0,1.18,1.18,0,0,1-.95-.39,1.37,1.37,0,0,1-.36-1,1.61,1.61,0,0,1,.36-1.06,1.25,1.25,0,0,1,.95-.36,1.8,1.8,0,0,1,.88.22v.56h0a1.16,1.16,0,0,0-.78-.35.64.64,0,0,0-.56.25,1.09,1.09,0,0,0-.22.74,1.11,1.11,0,0,0,.22.74.76.76,0,0,0,.56.25,2,2,0,0,0,.36-.07,1.87,1.87,0,0,0,.42-.29h0Zm2.27.32a1.78,1.78,0,0,1-.53.11h-.39a1.31,1.31,0,0,1-.89-.5,1.81,1.81,0,0,1-.21-1.09,1.56,1.56,0,0,1,.5-1,1.12,1.12,0,0,1,1-.24,1.78,1.78,0,0,1,.85.31l-.07.57h0a1.3,1.3,0,0,0-.74-.46.65.65,0,0,0-.57.18A1,1,0,0,0,28,60a1.22,1.22,0,0,0,.11.75.74.74,0,0,0,.53.31A1,1,0,0,0,29,61a1.27,1.27,0,0,0,.46-.24h.07Zm2.05.64-1.77-.39.6-2.69,1.77.43-.11.42-1.2-.28-.14.56,1.13.29-.07.42-1.17-.25-.17.78,1.23.25Zm2.58.64-.53-.11-.67-2.23-.46,1.91-.53-.1.67-2.66.67.18.57,2,.42-1.7.53.14Zm.71.17.56-2.65.82.18a1.85,1.85,0,0,1,.81.32,1.31,1.31,0,0,1,.39.56,1.46,1.46,0,0,1,0,.78,2,2,0,0,1-.32.67,1.14,1.14,0,0,1-.6.35,1.66,1.66,0,0,1-.85,0Zm1-2.12-.39,1.84.29.07a.84.84,0,0,0,1.09-.74.83.83,0,0,0-.7-1.1Zm3.68,2.94-1.84-.22L38,60.67l1.84.21-.07.46-1.24-.14-.07.57,1.17.14-.08.46-1.16-.14L38.3,63l1.23.15Z"/><path class="cls-1" d="M10.68,40.23l1-.38c0-.5-.67-.78-1.2-.61Z"/><path class="cls-4" d="M26.45,41.58c-4,0-7.18-4.42-7.18-9.65H33.63c0,5.23-3.11,9.65-7.18,9.65Z"/><path class="cls-6" d="M28,19.9h.11s-.07-.53-1-.46h-.21l-.1.29.63,0s.46,0,.6.21Z"/><path class="cls-6" d="M27,20.26s.14-.14.14-.14h0s0,0,0,.07a.25.25,0,0,0,.14.21h.18a.3.3,0,0,0,.14-.21v-.07a.28.28,0,0,1,.21.14l.21,0s-.14-.53-1-.39a2.87,2.87,0,0,0-.21.36Z"/><path class="cls-6" d="M25,20.26l.21,0c0-.07.14-.1.21-.14v.07a.19.19,0,0,0,.14.21s.14,0,.14,0a.21.21,0,0,0,.18-.21,0,0,0,0,0,0,0h.07l.1.1s.21,0,.21,0L26,19.9c-.92-.17-1,.36-1,.36Z"/><path class="cls-6" d="M25.5,19.69l.67,0-.07-.29h-.18c-1-.07-1.09.46-1.09.46l.1,0c.14-.25.57-.18.57-.18Z"/><path class="cls-7" d="M27.41,26.62l0,0,0,0Z"/><path class="cls-5" d="M27.27,42.85A9.93,9.93,0,0,0,30.7,41.3c.81.07,1.09-.54,1.66-.85a.17.17,0,0,0-.14-.07c.31-.22.49-.5.84-.78a.58.58,0,0,0-.28-.07c.53-.18.18-.39.67-.78,0,0,0,0-.07-.07.32-.21.32-.53.6-.85,0-.07-.14-.11-.28-.11.57-.17.53-.56.88-.95a.81.81,0,0,1-.24,0c.32-.24.24-.6.49-1a1.23,1.23,0,0,0-.35,0c.53-.21.46-.71.74-1.17a.57.57,0,0,0-.25-.07c.43-.39-.1-.25.22-1.09-.08-.08-.22,0-.32,0,.42-.35.32-.78.56-1.31-.28-.07-.92.39-1.09.74v-.07a1,1,0,0,1,.39-.38c.6-.46.38-.89.56-1.49-.32,0-.85.46-1,.85a.78.78,0,0,0,0-.14c.1-.14.1-.36.46-.53.53-.29.38-.85.56-1.45a.6.6,0,0,0-.32.1c.11-.39-.14-.67-.07-1.13-.32,0-.7.57-.7.92a1.34,1.34,0,0,1-.11-.14.72.72,0,0,1,.32-.5c.53-.63.07-1,.14-1.59-.07,0-.11,0-.14,0,0-.28-.25-.5-.29-.89-.31,0-.6.61-.56,1a.7.7,0,0,0-.14-.17.94.94,0,0,1,.28-.53c.28-.6,0-.89,0-1.49a.44.44,0,0,0-.29.14c0-.38-.21-.56-.35-1-.18,0-.39.29-.46.57a1.75,1.75,0,0,1,.07-.42c0-.78-.32-.85-.57-1.45a.93.93,0,0,0-.24.46c-.07-.53-.29-.68-.57-1.17a1.3,1.3,0,0,0-.21,1,.71.71,0,0,1,0-.49c-.07-.6-.39-.81-.71-1.17a1,1,0,0,0,.5-.21.9.9,0,0,1-.43,0c-.14-.07-.25-.24-.39-.31s-.35,0-.63-.18l1.55-.32-1.52-.28a.44.44,0,0,1,.29-.11.67.67,0,0,0,.45-.17.85.85,0,0,1,.71-.25.84.84,0,0,0-.85,0c-.21.14-.31,0-.67,0l1.27-.81-1.52.31c.25-.39.46-.21.64-.67a1.12,1.12,0,0,1,.46-.42c-.28-.07-.57.1-.88.42a1.83,1.83,0,0,1-.53.21s.88-1.3.88-1.3-.88.63-1.31.88v0c.07-.35.28-.28.36-.67a.81.81,0,0,1,.28-.7c-.36.07-.53.31-.67.7,0,.14-.25.21-.43.39,0,0,.32-1.48.32-1.48L27.34,18a.45.45,0,0,1,0-.21,1.08,1.08,0,0,0,.11-.5.8.8,0,0,1,0-.81c-.5.28-.29.71-.39,1l-.25.39-.21-1.52-.32,1.52c-.18-.24-.07-.35-.18-.56s-.39-.25-.39-.89c-.1.25-.21.39,0,1,.07.07,0,.36,0,.57l-.85-1.27.32,1.48c-.21,0-.25-.32-.42-.46s-.5-.14-.68-.63c-.07.35.07.53.39.84a1.46,1.46,0,0,1,.21.57l-1.27-.88s.85,1.3.89,1.3c-.32,0-.32-.35-.89-.35-.35,0-.56-.32-.53-.25.18.64.64.46.81.71,0,.07.25.28.29.35L22.46,19l1.31.85c-.22.1-.5-.18-.78,0a.71.71,0,0,1-.78,0c.28.39.49.32.81.32a1.37,1.37,0,0,1,.64.25l-1.52.28,1.48.32c-.17.14-.46,0-.67.21-.46.53-.88.25-.74.32a.68.68,0,0,0,.81.11l-.39.39a.41.41,0,0,0-.1-.29c-.29.43-.67.46-.78,1a.93.93,0,0,0-.14-.36c-.28.46-.57.53-.64,1.06-.07-.14-.1-.24-.17-.28-.25.57-.68.71-.54,1.49a2.08,2.08,0,0,1,0,.46c0-.32-.18-.64-.39-.68a2.1,2.1,0,0,0-.42,1,.33.33,0,0,0-.25-.11c0,.6-.5.78-.07,1.49a.73.73,0,0,1,.25.56.08.08,0,0,0-.07.07c0-.35-.29-.91-.61-.95,0,.46-.24.64-.21,1a.39.39,0,0,0-.21,0c.07.61-.39.85.18,1.45a.8.8,0,0,1,.32.5.17.17,0,0,0-.08.14c0-.39-.42-.88-.7-.88,0,.63-.29.63-.07,1.06a.66.66,0,0,0-.32-.07c.18.6,0,1.06.53,1.41a.88.88,0,0,1,.46.53s0,.07,0,.11c-.1-.36-.67-.85-1-.82.14.5.07,1,.35,1.28a.94.94,0,0,0-.49-.11c.24.6.1.92.63,1.42a.42.42,0,0,0-.46-.07c.15.38.11.7.25,1a.44.44,0,0,0-.21.07c.28.46.18.84.67,1.13a.37.37,0,0,0-.28.07c.21.32.21.63.39.88-.07,0-.14,0-.18.11.35.35.39.71.78.92a.28.28,0,0,0-.25.1c.28.29.39.57.64.78a2.24,2.24,0,0,0-.29.11c.43.32.46.67.92.81a.41.41,0,0,0-.28.11c.53.42.18.56.71.74a.38.38,0,0,0-.11.07c.57.32.64,1,1.88,1h0a7.15,7.15,0,0,0,3.35,1.55Zm7.6-9.16h0c-.14.39,0,.64-.36.92-.21,0-.21.11-.28.18a1.55,1.55,0,0,1,.18-.39.75.75,0,0,0-.25.25.64.64,0,0,1-.28-.28c-.14-.32,0-.46-.07-.78a7.77,7.77,0,0,1,.46.74c.07-.28.46-.67.6-.64Zm-.64.22h0a.81.81,0,0,1,.32-.32,1.67,1.67,0,0,0-.32.42v-.1ZM35,32.39h0c-.21.38-.07.6-.46,1-.24.11-.24.14-.31.25l.21-.43a1.22,1.22,0,0,0-.28.32.43.43,0,0,1-.25-.21c-.14-.28,0-.46,0-.74.14.21.39.42.43.6.1-.29.56-.74.7-.74Zm-.7-.36h0a1.63,1.63,0,0,1,.56-.85c-.1.43.07.6-.28,1a.55.55,0,0,0-.25.29,1,1,0,0,1,.14-.43,2.22,2.22,0,0,0-.24.32s-.15,0-.29-.18-.1-.42-.17-.7c.17.21.49.38.53.56Zm-.46-.92h0c.17.18.28.25.32.39a2.49,2.49,0,0,0-.29-.25.78.78,0,0,1,0-.14Zm1-1.2h0c-.1.42.07.6-.24.95-.25.15-.22.18-.29.29a2.39,2.39,0,0,1,.14-.43,1.28,1.28,0,0,0-.24.32.59.59,0,0,1-.32-.18c-.18-.28-.07-.42-.14-.7.17.21.49.39.53.56a1.5,1.5,0,0,1,.56-.81Zm-.63-.11h0c0-.28.28-.81.46-.84,0,.42.17.56-.11,1a.54.54,0,0,0-.25.28,1,1,0,0,1,.11-.43.8.8,0,0,0-.21.32c-.07,0-.15,0-.32-.14s-.18-.35-.32-.64c.25.18.57.32.64.46Zm-.85,5.63h0c0-.07,0-.18,0-.25s0,0,0,0c.14.53.28.53.25.89l0,0a1.16,1.16,0,0,0-.28-.7Zm-.64,2.51h0a1,1,0,0,0-.18-.53,1.43,1.43,0,0,0,.11-.15c0,.36.14.46.07.68Zm.53-.15h0a1.64,1.64,0,0,0-.53.29v0a1.31,1.31,0,0,1,.53-.25Zm-1-.7h0a4.29,4.29,0,0,1-2.83-.82,1.31,1.31,0,0,0,.11-.84c0-.18,0,0-.07.1a1.31,1.31,0,0,1-.43.53A3.66,3.66,0,0,0,28,35.25c-.42-.25-.46-.39-.7-.53-.43.18-1.07.56-1.38.32s.28-.29.53-.64a.68.68,0,0,1,.77-.28,10.33,10.33,0,0,1,1.95.78,21,21,0,0,1,3.18.67,2.39,2.39,0,0,0,.64.1,11.46,11.46,0,0,1-.64,1.42Zm-5.09-1.28h0c.35.39.67.5.88,1a.21.21,0,0,1-.35.07c-.53-.57-1-.67-.81-.92-.11,0-.21.11-.18.21.11.39.57.57.71.92-.07.29-.64,0-.89-.67l0,0c-.11.17-.18.28.18.7.1.18.14.36-.15.32.07,0-.14,0,0,0h0a0,0,0,0,0,0,0c.14-.71-.53-.57-.53-.57.1-.25-.28-.53-.64-.35,0-.22-.35-.5-.92-.29-.07-.21-.56-.39-1,.18-.85.07-2.23.81-3,.46a10.41,10.41,0,0,1-.53-1.41,18,18,0,0,0,3.92-.57,3.11,3.11,0,0,1,2-.42c0,.21-.5.6-.25.77a1.32,1.32,0,0,0,1.59,0c.46.49,1.24.56,1.56,1.24l-.11.21c-.14.1-.18.1-.35-.18-.46-.6-.89-.46-1-.88-.15,0,0,.24,0,.31ZM25,37.09h0c-.14.07.07-.11.14-.14l.07-.11c.14-.11.35-.32.49,0s-.49.5-.6.54-.1,0-.17,0a.13.13,0,0,1,.07-.21Zm-.5,0h0c-.1,0-.17,0-.25-.07s.15-.28.22-.39a.22.22,0,0,1,.14-.07l.1-.1c.22,0,.18,0,.25.1s-.35.5-.46.53Zm1.42.07h0s.21-.24.31.11c0,.14-.21.28-.45.35s-.39,0,.14-.46Zm-2-.49h0c-.11,0-.25-.11-.18-.14l.11-.18c.14-.07.24-.14.31-.07s-.17.39-.24.39Zm-3.72.6h0a.34.34,0,0,1-.07.18,1.87,1.87,0,0,0,.07-.22v0Zm-.14.67h0a2.22,2.22,0,0,0-.32-.21.66.66,0,0,1,.29.14.11.11,0,0,0,0,.07ZM19.2,36h0v0c-.07-.32.07-.36.22-.85a1.72,1.72,0,0,0,.07.21c-.14.21-.32.46-.29.67Zm.07-6.89h0l-.21.1c0-.07.14-.1.25-.21a.13.13,0,0,1,0,.11ZM19.35,32h6.71v2a3.82,3.82,0,0,0-1.27,0c-1.24.21-.81.81-5.09.89A10.65,10.65,0,0,1,19.35,32Zm4.17-9.79h0c.07-.07.14-.07.17-.36.18-.53.46-.46.85-.7.11.17-.32.74-.6.95.18,0,.43.18.67.28-.31,0-.42.18-.7.11s-.22-.18-.29-.25a.69.69,0,0,0,.25-.32,1.23,1.23,0,0,1-.35.29Zm5.16-.18h0a.91.91,0,0,1-.35-.07l.46-.21c.28.07.53.21.56.46-.25-.07-.32.07-.67.14s-.5-.11-.81-.18a.35.35,0,0,1-.11-.17h.46l0,0a.78.78,0,0,0,.5,0Zm-1.1-.42h0a1,1,0,0,0,.46-.11.42.42,0,0,1-.31,0,1,1,0,0,1,.6-.28c.39,0,.39.21.6.1,0,.22-1.06.71-1.35.29Zm-.53-.07h0c.18,0,.36.35.57.56-.28-.1-.43,0-.67-.21a.42.42,0,0,1-.21-.32.6.6,0,0,0,.31-.21,2.3,2.3,0,0,1-.42.14c.11-.07.14,0,.28-.28.32-.32.5-.14.92-.21a1.52,1.52,0,0,1-.78.53Zm-.88.07h0c.18,0,.39.28.64.46-.29,0-.43.07-.71-.07s-.18-.22-.21-.29a.94.94,0,0,0,.24-.28.76.76,0,0,1-.35.21.61.61,0,0,0,.21-.32c.29-.35.43-.21.82-.39a1.28,1.28,0,0,1-.64.68Zm-.6.53h0c-.28,0-.43.14-.71,0s-.18-.18-.25-.25a.6.6,0,0,0,.25-.28.94.94,0,0,1-.35.24.47.47,0,0,0,.21-.31c.28-.43.49-.32.88-.53a1.48,1.48,0,0,1-.67.74c.18,0,.39.25.64.39Zm4.88,1.41h.1s-.07,0-.07,0,0,0,0,0ZM32.92,27h0a.94.94,0,0,1,.18.11.2.2,0,0,0-.14,0s0,0,0-.07Zm-3.53,7.53h0c-.67-.14-1.56-.88-2.55-.81V32h6.72a14.34,14.34,0,0,1-.5,3.22c-1.34,0-2.58-.74-3.67-.71ZM33.59,29h0a1.82,1.82,0,0,1,.29.21,1,1,0,0,0-.29-.14V29Zm.78-1.31h0c0,.42.18.56-.1,1-.22.14-.15.21-.22.29a.68.68,0,0,1,.07-.39.78.78,0,0,0-.17.31c-.07,0-.14,0-.36-.14s-.17-.39-.31-.67c.24.18.6.32.67.5a1.27,1.27,0,0,1,.42-.85Zm-.67,0h0c0-.28.14-.81.28-.85,0,.39.29.53.07.92-.17.18-.14.25-.14.32a2,2,0,0,1,0-.42,1.1,1.1,0,0,0-.11.35c-.07,0-.14.07-.39-.11s-.25-.35-.42-.6a2.9,2.9,0,0,1,.74.39Zm-.32-2.05h0c.07.43.29.53.11,1-.21.14-.14.21-.18.31a1,1,0,0,1,0-.42.64.64,0,0,0-.14.32.45.45,0,0,1-.35-.11c-.32-.21-.25-.35-.43-.63a8.48,8.48,0,0,1,.74.42c-.07-.28.11-.81.25-.85Zm-.56-.88h0c.14.42.39.53.28.95-.14.18-.11.21-.11.32a.92.92,0,0,1-.1-.42,1.14,1.14,0,0,0,0,.35.45.45,0,0,1-.39-.07c-.35-.14-.32-.32-.56-.57a5.52,5.52,0,0,1,.85.32,1.12,1.12,0,0,1,.07-.88Zm-.29.67h0a.35.35,0,0,0-.21-.18l.21.11v.07ZM32,23.62h0c.21.39.35.35.32.88-.07.25,0,.28,0,.39a1.07,1.07,0,0,1-.18-.43,1.14,1.14,0,0,0,0,.39c-.08,0-.11.15-.36.07s-.32-.28-.56-.46c.28,0,.63,0,.77.11a1.48,1.48,0,0,1,0-.95Zm-.67.21h0a1.5,1.5,0,0,1-.11-.92c.25.35.39.28.43.78-.08.28,0,.32,0,.39a.74.74,0,0,1-.18-.39,1.58,1.58,0,0,0,0,.39.28.28,0,0,1-.31.1c-.32,0-.36-.21-.64-.35.32,0,.64-.11.78,0ZM30.27,22h0c.25.35.5.31.57.84-.07.25,0,.25,0,.36a1.28,1.28,0,0,1-.22-.36,1.17,1.17,0,0,0,.08.36c-.08,0-.08.14-.36.1s-.35-.17-.63-.31c.31,0,.63-.11.81,0a1.58,1.58,0,0,1-.25-.95Zm-.18-.29h0a.29.29,0,0,1,0,.14c0-.07-.07-.14-.14-.17a1.39,1.39,0,0,1,.17,0ZM30,22.1h0a.51.51,0,0,0,.07.38H30a1.37,1.37,0,0,1-.24-.31,1.65,1.65,0,0,0,.14.39c0,.07-.07.1-.21.1a.81.81,0,0,1-.64-.14c.25-.11.39-.25.64-.18v-.07h0a.74.74,0,0,0-.25-.28.89.89,0,0,1-.14-.53c.28.28.56.18.7.64Zm-.28-.71h-.32l-.1-.11a1.68,1.68,0,0,1,.42.11ZM24,21.11h0a.75.75,0,0,0,.35-.22l-.92-.24,1-.18s0-.07-.6-.25c-.11,0,0-.14-.46-.21.17,0,.1,0,.42.07a2.55,2.55,0,0,0,.71,0,9.8,9.8,0,0,0-1-.64s.64.18,1.1.28c0,0-.39-.32-.64-.63-.07-.08-.07-.15-.14-.22.28.11.28.22.42.29a2.21,2.21,0,0,0,.61.24l-.68-1,1,.68a4.37,4.37,0,0,0-.21-.54,4.38,4.38,0,0,0-.18-.53,1.94,1.94,0,0,0,.78.85l-.21-1.23.6,1.09a3.45,3.45,0,0,0,0-.56,1.24,1.24,0,0,0,0-.64A2.56,2.56,0,0,1,26,18a3,3,0,0,0,.32.64l.24-1.14.18,1.14c.11-.22.11-.36.21-.53a2.88,2.88,0,0,0,.25-.57,3.83,3.83,0,0,0-.14.57c0,.24,0,.56.07.6l.71-1-.29,1.16c.07,0,.36-.39.64-.56a1.65,1.65,0,0,0,.18-.29c-.15.22-.18.36-.29.53s-.07.18-.21.57l1-.67-.67.95s.07,0,.49-.21a1.84,1.84,0,0,0,.64-.28c-.32.32-.49.28-.92.85l1.13-.25s-.92.57-1,.6.46,0,.75,0a.76.76,0,0,0,.49,0c-.28.1-.35.07-.67.17-.14.07-.43.18-.46.25l1.13.21s-1.13.25-1.31.32h-.21a.23.23,0,0,0-.14,0,.4.4,0,0,0,.07-.25,7.58,7.58,0,0,0-1,.07.27.27,0,0,0,0-.25c-.46.21-.84.14-1.23.43a.49.49,0,0,0-.07-.29c-.39.21-.75.07-1,.32a.51.51,0,0,0,0-.21,2.76,2.76,0,0,0-1.07.53c-.07,0-.14,0-.24,0l0,0,0,0h-.22a3.33,3.33,0,0,0,.82-.24Zm-1.35,1.34h0c.15-.42.39-.39.68-.67a1.2,1.2,0,0,1-.36.85c.14,0,.46.14.78.17-.28.11-.35.25-.71.22s-.24-.15-.32-.18a1.15,1.15,0,0,0,.15-.32,2.1,2.1,0,0,1-.29.32.46.46,0,0,0,.07-.39Zm.6.07Zm-1.3.53h0c.07-.49.28-.46.53-.81a1.52,1.52,0,0,1-.22,1c.15-.1.46,0,.78,0-.28.1-.32.32-.63.32s-.29-.11-.36-.11a.77.77,0,0,0,.07-.39,1.25,1.25,0,0,1-.17.39.69.69,0,0,0,0-.39Zm-.18.39h0a1.72,1.72,0,0,0-.07.21h0a.63.63,0,0,1,.07-.21Zm-.64.28h0c0-.53.18-.46.43-.81a1.5,1.5,0,0,1-.11.92c.14-.11.46,0,.74,0-.24.14-.28.35-.6.35s-.28-.07-.35-.07a.77.77,0,0,0,.07-.39,2.26,2.26,0,0,1-.18.39.68.68,0,0,0,0-.39Zm-.35,0h0a1.22,1.22,0,0,1,0,.95,2.15,2.15,0,0,1,.75-.1c-.22.17-.25.38-.53.46a.4.4,0,0,1-.36-.08,1.11,1.11,0,0,0,0-.38,1.73,1.73,0,0,1-.14.42.51.51,0,0,0,0-.39c0-.49.14-.49.32-.88Zm-.5,1.73h0c.08,0,.11-.07.15-.07s-.11.07-.15.1v0ZM20,24.85h0a.94.94,0,0,1,.07.85,3.11,3.11,0,0,1,.82-.32c-.22.22-.22.39-.53.57S20,26,20,26a.57.57,0,0,0,0-.35.73.73,0,0,1-.1.39c0-.07.07-.11-.11-.32-.11-.39.14-.5.28-.89Zm-.63,1.77h0c-.22-.39,0-.53.07-.92.14,0,.31.53.28.82.11-.15.46-.25.71-.43-.18.25-.11.43-.43.64a.42.42,0,0,1-.35.1.56.56,0,0,0-.11-.31,1.2,1.2,0,0,1,0,.38.5.5,0,0,0-.17-.28ZM20,27h0s0,.07,0,.11a1.25,1.25,0,0,0-.32.14c.07-.11.18-.14.36-.25Zm-1-.14h0c.14,0,.32.56.25.85a4.52,4.52,0,0,1,.74-.39c-.18.25-.1.39-.42.6s-.29.07-.36.11a1.18,1.18,0,0,0-.1-.36,1,1,0,0,1,0,.43.28.28,0,0,0-.14-.32c-.21-.43,0-.53.07-.92Zm-.28,1.8h0c-.28-.35-.07-.53-.11-.92.14,0,.43.53.43.82.07-.18.39-.32.63-.5-.1.28,0,.43-.28.67a.85.85,0,0,1-.35.14.94.94,0,0,0-.18-.31.68.68,0,0,1,.07.39c0-.08,0-.15-.21-.29Zm-.43.29h0c.15,0,.43.56.43.84.07-.17.39-.28.63-.46-.14.25-.07.43-.31.64a.37.37,0,0,1-.32.11.84.84,0,0,0-.18-.29,1.18,1.18,0,0,1,.07.39c0-.07,0-.14-.25-.28-.24-.39,0-.53-.07-.95Zm.43,2h0a1.29,1.29,0,0,0-.25-.28.51.51,0,0,1,.14.39c0-.07,0-.14-.25-.25-.35-.35-.21-.46-.31-.85.14,0,.53.42.6.71,0-.18.35-.36.53-.57-.07.28,0,.43-.14.67s-.25.18-.32.18Zm.39.11h0v.14a1,1,0,0,0-.32.25c.07-.18.14-.22.32-.39ZM18,31.22h0c.14,0,.53.46.6.74,0-.18.35-.32.53-.53-.07.28,0,.42-.14.67a.6.6,0,0,1-.32.18L18.43,32a2.16,2.16,0,0,1,.14.43c-.07-.11,0-.15-.29-.29-.31-.39-.21-.46-.31-.88Zm.6,1.48h0v0a1.91,1.91,0,0,0-.36-.43.74.74,0,0,1,.36.39Zm-.64-.28h0c.14,0,.53.35.64.64,0-.18.28-.39.42-.6,0,.28.14.42,0,.7s-.22.18-.25.22a1.11,1.11,0,0,0-.28-.29,1,1,0,0,1,.21.39.65.65,0,0,0-.32-.25c-.57-.53,0,.18-.39-.81Zm.74,1.41h0v.08a1.28,1.28,0,0,0-.39-.43,1.38,1.38,0,0,1,.39.35Zm0,.39h0c0-.17.29-.46.43-.74,0,.32.07.46-.07.78s-.21.21-.29.28a1.13,1.13,0,0,0-.24-.25.81.81,0,0,1,.17.39c-.07-.07,0-.14-.28-.21-.35-.25-.18-.39-.32-.78.14,0,.5.29.6.53Zm-.53.39h0c.11-.07.57.25.71.5a4.77,4.77,0,0,1,.32-.78c0,.32.18.42,0,.74s-.17.29-.21.32a.8.8,0,0,0-.28-.18,1.11,1.11,0,0,1,.25.32c-.11,0-.11-.1-.32-.14-.43-.21-.32-.42-.5-.78Zm1.13,1.7h0c0-.21.18-.5.32-.78,0,.28.14.39,0,.74a.42.42,0,0,1-.21.29l-.29-.18a3.47,3.47,0,0,1,.22.32.41.41,0,0,0-.32-.11c-.39-.21-.29-.46-.5-.81.14,0,.6.28.74.53Zm-.49.42h0a1.13,1.13,0,0,1,.85.39,2.66,2.66,0,0,1,.18-.81c.07.28.24.35.17.71a.43.43,0,0,1-.17.32.94.94,0,0,0-.32-.15,2.71,2.71,0,0,1,.32.29c-.11,0-.11-.11-.36-.07-.46-.15-.39-.39-.67-.68Zm.53,1h0a1.27,1.27,0,0,1,.81.42,2.38,2.38,0,0,1,.25-.77c0,.31.21.38.14.7s-.14.25-.17.32a.67.67,0,0,0-.36-.14c.14,0,.21.14.32.28-.11-.07-.11-.14-.35-.1-.46-.14-.36-.39-.64-.71Zm.39.88h0a1.39,1.39,0,0,1,.92.25c-.07-.14.07-.46.1-.74.11.25.29.32.29.63s-.11.29-.14.32a1.53,1.53,0,0,0-.36-.07.88.88,0,0,1,.36.21.43.43,0,0,0-.39,0c-.46-.07-.46-.32-.78-.57Zm1.31.85h0s0,.11,0,.14a1,1,0,0,0-.46-.21,1.54,1.54,0,0,1,.43.07Zm-.75.07h0a1.49,1.49,0,0,1,.92.32c-.07-.14.07-.46.15-.74.1.28.28.35.24.67s-.1.25-.14.32a1.28,1.28,0,0,0-.35-.14,1.28,1.28,0,0,1,.35.24.52.52,0,0,0-.39-.07c-.49-.1-.46-.35-.78-.6Zm2.13,1.49h0a.51.51,0,0,0-.39-.11c-.53,0-.67-.39-1.06-.6a1.72,1.72,0,0,1,1,.21c-.1-.14,0-.46,0-.74.17.25.35.28.39.6a2.16,2.16,0,0,0,.1.57,1.79,1.79,0,0,0-.28-.22,2.15,2.15,0,0,1,.25.29Zm2.68,1.34h0a5.24,5.24,0,0,1-2.33-1.27,2,2,0,0,1-.18-.74v0a6.14,6.14,0,0,0,2.58,1.38h-.07c-.31.39-.14.6,0,.67Zm1.35-.92h0c-3.08,0-4.92-2.58-5.62-3.78-.11-.14,1.76-.74,2.19-.85l.49-.14c0,.25.43.32.39.21.11.07,0,.21.21.39s.39.07.43,0c-.14.18.39.46.7.25,0,.17.22.21.29.24a.72.72,0,0,0,.56,0v1.7c0,.32.07.39.22.46.67,0,.53-.18.6-.39,0-.74,0-1.8,0-1.77.5-.07.35-.17.53-.24a.42.42,0,0,0,.5-.21.45.45,0,0,0,.53-.25c.21.07.49-.11.67-.5.46.14,2.12,1,2.9,1.28-.36.56-2.26,3.6-5.55,3.6Zm5.37-1.77h0a.57.57,0,0,1,.25-.07c-.11,0-.21.11-.28.14s0,0,0-.07Zm-.78.75h0v0Zm-.81.07h0c0,.28-.07.49-.11.67-.28.53-1.73,1-2.33,1.2a.42.42,0,0,0,0-.67h0a6.05,6.05,0,0,0,2.48-1.27s0,0,0,.07Zm.74.49h0a.53.53,0,0,0-.49.18.8.8,0,0,1,.28-.32,1.48,1.48,0,0,0-.32.14c0-.1,0-.25,0-.46s.25-.35.42-.6c0,.28.07.6-.07.74a2.08,2.08,0,0,1,1.06-.17c-.42.21-.42.46-.92.49Zm.82-.67h0a.52.52,0,0,0-.39.07,1.14,1.14,0,0,1,.35-.25.66.66,0,0,0-.35.11c0-.07-.14-.07-.14-.32s.17-.39.28-.67c0,.28.18.6.1.78a1.52,1.52,0,0,1,1-.36c-.35.29-.32.53-.81.64Zm.56-.92h0c-.25,0-.28,0-.39,0a2.56,2.56,0,0,1,.39-.22.82.82,0,0,0-.39.11c0-.07-.1-.11-.1-.35s.14-.39.28-.67c0,.31.14.63.07.77.21-.17.81-.35,1-.24-.35.24-.31.49-.81.56Zm.57-.74h0c-.29,0-.29,0-.36.07a1,1,0,0,1,.29-.28.78.78,0,0,0-.32.14.49.49,0,0,1-.21-.32c-.07-.32.1-.39.17-.71.07.32.25.6.22.82a1.2,1.2,0,0,1,.88-.43c-.28.28-.21.53-.67.71Zm.56-1.1h0c-.24,0-.24,0-.35.07a2.67,2.67,0,0,1,.32-.28.57.57,0,0,0-.32.18.63.63,0,0,1-.18-.36c-.07-.35.11-.42.18-.7a2.85,2.85,0,0,1,.18.77,1.21,1.21,0,0,1,.84-.35c-.28.28-.21.53-.67.67Zm.43-.85h0c-.25,0-.25.07-.32.15a1.16,1.16,0,0,1,.25-.36,1.6,1.6,0,0,0-.32.21c0-.07-.14-.07-.21-.31s0-.46,0-.75a3,3,0,0,1,.36.78c.14-.25.6-.56.74-.53-.21.35-.11.6-.53.81Zm.1-.81h0a.21.21,0,0,1,.18-.11c-.07,0-.14,0-.18.11Zm.32-.39h0c-.25,0-.25.11-.32.14a.72.72,0,0,1,.25-.31.72.72,0,0,0-.32.17c0-.07-.14-.07-.21-.32s0-.46,0-.77a5.25,5.25,0,0,1,.31.81c.15-.25.61-.6.75-.53-.22.35-.11.6-.5.81Z"/><path class="cls-4" d="M24,21.11a.75.75,0,0,0,.35-.22l-.92-.24,1-.18s0-.07-.6-.25c-.11,0,0-.14-.46-.21.17,0,.1,0,.42.07a2.55,2.55,0,0,0,.71,0,9.8,9.8,0,0,0-1-.64s.64.18,1.1.28c0,0-.39-.32-.64-.63-.07-.08-.07-.15-.14-.22.28.11.28.22.42.29a2.21,2.21,0,0,0,.61.24l-.68-1,1,.68a4.37,4.37,0,0,0-.21-.54,4.38,4.38,0,0,0-.18-.53,1.94,1.94,0,0,0,.78.85l-.21-1.23.6,1.09a3.45,3.45,0,0,0,0-.56,1.24,1.24,0,0,0,0-.64A2.56,2.56,0,0,1,26,18a3,3,0,0,0,.32.64l.24-1.14.18,1.14c.11-.22.11-.36.21-.53a2.88,2.88,0,0,0,.25-.57,3.83,3.83,0,0,0-.14.57c0,.24,0,.56.07.6l.71-1-.29,1.16c.07,0,.36-.39.64-.56a2.62,2.62,0,0,0,.21-.29,3.72,3.72,0,0,0-.32.53c-.1.25-.07.18-.21.57l1-.67-.67.95s.07,0,.49-.21a1.84,1.84,0,0,0,.64-.28c-.32.32-.49.28-.92.85l1.13-.25s-.92.57-1,.6.46,0,.75,0a.76.76,0,0,0,.49,0c-.28.1-.35.07-.67.17-.14.07-.43.18-.46.25l1.13.21s-1.13.25-1.31.32h-.21a.23.23,0,0,0-.14,0,.4.4,0,0,0,.07-.25,7.58,7.58,0,0,0-1,.07.27.27,0,0,0,0-.25c-.46.21-.84.14-1.23.43a.49.49,0,0,0-.07-.29c-.39.21-.75.07-1,.32a.51.51,0,0,0,0-.21,2.76,2.76,0,0,0-1.07.53c-.07,0-.14,0-.24,0l0,0,0,0h-.22a3.33,3.33,0,0,0,.82-.24Z"/><path class="cls-5" d="M28,19.9h.11s-.07-.53-1-.46h-.21l-.1.29.63,0s.46,0,.6.21Z"/><path class="cls-5" d="M27,20.26s.14-.14.14-.14h0s0,0,0,.07a.25.25,0,0,0,.14.21h.18a.3.3,0,0,0,.14-.21v-.07a.28.28,0,0,1,.21.14l.21,0s-.1-.53-1-.39a2.87,2.87,0,0,0-.21.36Z"/><path class="cls-5" d="M25,20.26l.21,0c0-.07.14-.1.21-.14v.07a.19.19,0,0,0,.14.21s.14,0,.14,0a.21.21,0,0,0,.18-.21,0,0,0,0,0,0,0h.07l.1.1s.21,0,.21,0L26,19.9c-.92-.17-1,.36-1,.36Z"/><path class="cls-5" d="M25.5,19.69l.67,0-.07-.29h-.18c-1-.07-1.09.46-1.09.46l.14,0c.1-.25.53-.18.53-.18Z"/><path class="cls-4" d="M34.87,33.69c-.14.39,0,.64-.36.92-.21,0-.21.11-.28.18a1.55,1.55,0,0,1,.18-.39.75.75,0,0,0-.25.25.51.51,0,0,1-.25-.28c-.17-.32-.07-.46-.1-.78a4.33,4.33,0,0,1,.46.74c.07-.28.46-.67.6-.64Z"/><path class="cls-4" d="M35,32.39c-.17.38-.07.6-.46,1-.24.11-.24.14-.31.25l.21-.43a1.11,1.11,0,0,0-.25.32c-.07,0-.18,0-.28-.21s0-.46,0-.74a4.43,4.43,0,0,1,.43.6c.1-.29.56-.74.7-.74Z"/><path class="cls-4" d="M34.34,32a1.46,1.46,0,0,1,.6-.85c-.14.43,0,.6-.28,1-.25.14-.22.22-.29.29a2.16,2.16,0,0,1,.14-.43,2.22,2.22,0,0,0-.24.32s-.15,0-.29-.18-.1-.42-.17-.7c.21.21.49.38.53.56Z"/><path class="cls-4" d="M34.94,29.91c-.14.42,0,.6-.28.95-.25.15-.22.18-.29.29a2.39,2.39,0,0,1,.14-.43,1.28,1.28,0,0,0-.24.32.47.47,0,0,1-.29-.18c-.21-.28-.1-.42-.17-.7.17.21.49.39.53.56a1.36,1.36,0,0,1,.6-.81Z"/><path class="cls-4" d="M34.3,29.8c0-.28.25-.81.43-.84,0,.42.17.56-.11,1-.21.14-.18.17-.21.28a1,1,0,0,1,.07-.43.5.5,0,0,0-.18.32A.36.36,0,0,1,34,30c-.28-.21-.18-.35-.32-.64a4.17,4.17,0,0,1,.67.46Z"/><path class="cls-4" d="M23.52,22.24c.07-.07.14-.07.17-.36.18-.53.46-.46.85-.7.14.17-.32.74-.6.95.18,0,.43.18.67.28-.31,0-.42.18-.7.11a.68.68,0,0,1-.29-.25.69.69,0,0,0,.25-.32.67.67,0,0,1-.35.29Z"/><path class="cls-4" d="M28.68,22.06a1,1,0,0,1-.35-.07,2.4,2.4,0,0,0,.46-.21c.28.07.53.21.56.46-.25-.07-.28.07-.67.14s-.5-.11-.78-.18c-.1-.07-.14-.14-.14-.17h.46v0a.66.66,0,0,0,.46,0Z"/><path class="cls-4" d="M27.58,21.64a1,1,0,0,0,.46-.11.42.42,0,0,1-.31,0,1,1,0,0,1,.6-.28c.39,0,.39.21.63.1,0,.22-1.09.71-1.38.29Z"/><path class="cls-4" d="M27.05,21.57c.18,0,.36.35.57.56-.28-.1-.43,0-.67-.21s-.18-.25-.18-.32a.67.67,0,0,0,.28-.21,1.82,1.82,0,0,1-.39.14c.08-.07.15,0,.25-.28.32-.32.5-.14.92-.21a1.32,1.32,0,0,1-.78.53Z"/><path class="cls-4" d="M26.17,21.64c.18,0,.39.28.64.46-.29,0-.43.1-.71-.07s-.18-.22-.21-.29a.94.94,0,0,0,.24-.28.64.64,0,0,1-.35.21.47.47,0,0,0,.21-.32c.29-.35.43-.21.82-.39a1.28,1.28,0,0,1-.64.68Z"/><path class="cls-4" d="M34.37,27.72c0,.42.18.56-.07,1-.25.18-.18.21-.25.32a.81.81,0,0,1,.07-.42.78.78,0,0,0-.17.31c-.07,0-.14,0-.36-.14s-.17-.39-.31-.67c.24.18.6.32.67.5a1.27,1.27,0,0,1,.42-.85Z"/><path class="cls-4" d="M33.74,27.68c-.07-.28.1-.81.24-.85,0,.39.29.53.07,1-.17.14-.1.21-.14.28a1.85,1.85,0,0,1,0-.39,1,1,0,0,0-.11.32c-.07,0-.14.07-.35-.11s-.29-.35-.46-.6a4.33,4.33,0,0,1,.78.39Z"/><path class="cls-4" d="M33.38,25.63c.07.43.32.53.11,1-.21.17-.14.21-.18.31a1,1,0,0,1,0-.42,1.48,1.48,0,0,0-.14.32.45.45,0,0,1-.35-.11c-.32-.21-.25-.35-.43-.63a8.48,8.48,0,0,1,.74.42c-.07-.28.11-.81.25-.85Z"/><path class="cls-4" d="M32.85,24.78c.11.39.36.5.25.92A.37.37,0,0,0,33,26a.92.92,0,0,1-.1-.42,1.14,1.14,0,0,0,0,.35.45.45,0,0,1-.39-.07c-.32-.14-.32-.32-.53-.57.29.14.67.18.82.36-.11-.29,0-.85.1-.89Z"/><path class="cls-4" d="M32,23.62c.21.39.35.35.32.88-.07.25,0,.28,0,.39a1.69,1.69,0,0,1-.18-.43,1.14,1.14,0,0,0,0,.39c-.08,0-.11.15-.32.07s-.36-.28-.6-.46c.31,0,.63,0,.77.11a1.48,1.48,0,0,1,0-.95Z"/><path class="cls-4" d="M31.37,23.83a1.5,1.5,0,0,1-.11-.92c.25.35.39.28.43.78a.55.55,0,0,0,0,.39.74.74,0,0,1-.18-.39,1.58,1.58,0,0,0,0,.39s-.07.14-.31.1-.36-.21-.64-.35c.32,0,.64-.11.78,0Z"/><path class="cls-4" d="M30.27,22c.25.35.5.31.57.84a.55.55,0,0,0,0,.36,1.28,1.28,0,0,1-.22-.36.61.61,0,0,0,.11.36c-.07,0-.11.14-.35.1s-.39-.17-.64-.31c.28,0,.6-.11.78,0a1.52,1.52,0,0,1-.25-.95Z"/><path class="cls-4" d="M30,22.1a.51.51,0,0,0,.07.38H30c-.1-.1-.17-.24-.24-.31a2.92,2.92,0,0,0,.14.42s-.07.07-.21.07a.87.87,0,0,1-.64-.14c.25-.11.39-.25.64-.18v-.07h0a.69.69,0,0,0-.25-.28.89.89,0,0,1-.14-.53c.28.28.56.18.7.64Z"/><path class="cls-4" d="M22.63,22.48c.15-.45.39-.42.68-.7.07.14-.15.67-.36.88.18-.07.46.11.78.18-.28.07-.35.25-.71.18s-.24-.15-.32-.18a1.15,1.15,0,0,0,.15-.32,2.1,2.1,0,0,1-.29.32c0-.11.11-.11.07-.36Z"/><path class="cls-4" d="M21.93,23.05c.07-.49.31-.46.53-.81.1.1,0,.7-.22,1,.15-.1.46,0,.78,0-.28.1-.32.32-.63.32s-.29-.11-.36-.11a.72.72,0,0,0,.07-.39,1.25,1.25,0,0,1-.17.39.69.69,0,0,0,0-.39Z"/><path class="cls-4" d="M21.11,23.72c0-.53.18-.46.43-.81a1.48,1.48,0,0,1-.11.92,2.57,2.57,0,0,1,.74,0c-.24.14-.28.35-.6.35a.38.38,0,0,1-.32-.07,1.29,1.29,0,0,0,0-.39.78.78,0,0,1-.18.39.68.68,0,0,0,0-.39Z"/><path class="cls-4" d="M20.76,23.69a1.22,1.22,0,0,1,0,.95,2.34,2.34,0,0,1,.78-.1c-.25.17-.28.38-.56.46a.31.31,0,0,1-.36-.08,1.11,1.11,0,0,0,0-.38.87.87,0,0,1-.14.42.51.51,0,0,0,0-.39c0-.49.14-.49.32-.88Z"/><path class="cls-4" d="M20,24.85c.14,0,.21.6.07.85a3.11,3.11,0,0,1,.82-.32c-.22.22-.18.39-.53.57S20,26,20,26a.57.57,0,0,0,0-.35.92.92,0,0,1-.1.42c0-.1.07-.14-.11-.32-.11-.42.14-.53.28-.92Z"/><path class="cls-4" d="M19.35,26.62c-.22-.39,0-.53.07-.92.14,0,.31.53.28.85.11-.18.46-.28.74-.46-.21.28-.14.43-.42.64a.53.53,0,0,1-.39.1.56.56,0,0,0-.11-.31,1.2,1.2,0,0,1,0,.38.5.5,0,0,0-.17-.28Z"/><path class="cls-4" d="M18.92,26.87c.14,0,.32.56.25.85a4.52,4.52,0,0,1,.74-.39c-.18.25-.1.39-.42.6s-.29.07-.36.11a1.18,1.18,0,0,0-.1-.36,1,1,0,0,1,0,.43.28.28,0,0,0-.14-.32c-.21-.43,0-.53.07-.92Z"/><path class="cls-4" d="M18.64,28.67c-.28-.35-.07-.53-.11-.92a1.22,1.22,0,0,1,.43.82c.07-.18.42-.32.63-.5-.1.28,0,.43-.28.67a.72.72,0,0,1-.35.14.94.94,0,0,0-.18-.31.68.68,0,0,1,.07.39c0-.08,0-.15-.21-.29Z"/><path class="cls-4" d="M18.21,29c.15,0,.43.56.43.84.07-.17.39-.28.63-.46-.14.25,0,.43-.28.64a.85.85,0,0,1-.35.14.75.75,0,0,0-.18-.32.72.72,0,0,1,.07.39c0-.07,0-.14-.21-.28-.28-.39-.07-.53-.11-.95Z"/><path class="cls-4" d="M18.64,31a1.77,1.77,0,0,0-.21-.32,1.29,1.29,0,0,1,.14.42c-.07-.1,0-.17-.29-.28-.35-.35-.21-.46-.31-.85.14,0,.53.42.6.71,0-.18.35-.36.56-.57-.1.28,0,.43-.17.67s-.25.18-.32.22Z"/><path class="cls-4" d="M18,31.22c.14,0,.53.46.6.74,0-.18.35-.32.53-.53-.07.28,0,.42-.14.67s-.25.14-.32.18a2,2,0,0,0-.21-.32,2.16,2.16,0,0,1,.14.43c-.07-.08,0-.15-.29-.29-.31-.39-.21-.46-.31-.88Z"/><path class="cls-4" d="M17.93,32.42a1.1,1.1,0,0,1,.64.64c0-.18.28-.39.42-.6,0,.28.14.42,0,.7s-.22.18-.25.22a1.11,1.11,0,0,0-.28-.29,1,1,0,0,1,.21.39.65.65,0,0,0-.32-.25c-.57-.53,0,.18-.39-.81Z"/><path class="cls-4" d="M18.67,34.22c0-.17.29-.46.46-.74-.07.32.07.46-.1.78s-.21.21-.29.28a1.13,1.13,0,0,0-.24-.25.81.81,0,0,1,.17.39c-.07-.07,0-.14-.28-.21-.32-.25-.18-.39-.32-.78.14,0,.5.29.6.53Z"/><path class="cls-4" d="M18.14,34.61c.14-.07.6.25.71.53a4,4,0,0,1,.32-.81c0,.32.18.42,0,.74s-.17.29-.21.32a.8.8,0,0,0-.28-.18,1.11,1.11,0,0,1,.25.32.58.58,0,0,0-.32-.14c-.39-.18-.32-.42-.5-.78Z"/><path class="cls-4" d="M19.27,36.31c0-.18.18-.5.32-.78,0,.28.14.39,0,.74s-.18.25-.21.32a1.76,1.76,0,0,0-.29-.21,2,2,0,0,1,.22.32.41.41,0,0,0-.32-.11c-.39-.21-.29-.46-.5-.81.14,0,.6.28.74.53Z"/><path class="cls-4" d="M18.78,36.73a1.13,1.13,0,0,1,.85.39,2.66,2.66,0,0,1,.18-.81c.07.28.24.39.17.71a.43.43,0,0,1-.17.32.42.42,0,0,0-.32-.11c.14,0,.21.14.32.25-.11,0-.11-.11-.36-.07-.46-.11-.39-.39-.67-.68Z"/><path class="cls-4" d="M19.31,37.76a1.56,1.56,0,0,1,.85.42c-.07-.17.14-.46.21-.77,0,.31.21.38.14.7s-.14.25-.17.32a.68.68,0,0,0-.32-.14.58.58,0,0,1,.28.28c-.07-.07-.11-.14-.35-.1-.46-.14-.36-.39-.64-.71Z"/><path class="cls-4" d="M19.7,38.64a1.39,1.39,0,0,1,.92.25,3.6,3.6,0,0,1,.1-.74c.11.25.29.32.29.63s-.11.29-.14.32a1.28,1.28,0,0,0-.36-.07.88.88,0,0,1,.36.21c-.11,0-.11-.1-.39,0-.46-.07-.46-.32-.78-.57Z"/><path class="cls-4" d="M20.26,39.56a1.67,1.67,0,0,1,1,.32c-.07-.14.07-.46.11-.74.1.28.28.35.24.67s-.1.25-.14.32a.92.92,0,0,0-.35-.14,1.28,1.28,0,0,1,.35.24.52.52,0,0,0-.39-.07c-.49-.1-.46-.35-.78-.6Z"/><path class="cls-4" d="M22.39,41.05a.51.51,0,0,0-.39-.11c-.53,0-.67-.35-1.06-.6a1.72,1.72,0,0,1,1,.21c-.1-.14,0-.46,0-.74.17.25.35.32.39.6a1.89,1.89,0,0,0,.1.57c-.07-.07-.18-.14-.28-.22.1.11.18.22.25.29Z"/><path class="cls-4" d="M30.94,41a.53.53,0,0,0-.49.18.8.8,0,0,1,.28-.32,1.48,1.48,0,0,0-.32.14c0-.1,0-.25,0-.46s.25-.35.42-.6c0,.28.07.6,0,.74a1.89,1.89,0,0,1,1-.17c-.42.21-.42.46-.92.49Z"/><path class="cls-4" d="M31.76,40.34a.59.59,0,0,0-.39.07.94.94,0,0,1,.39-.25.69.69,0,0,0-.39.11c0-.07-.14-.07-.14-.32s.17-.39.28-.67c0,.32.18.6.1.78a1.52,1.52,0,0,1,1-.36c-.35.29-.32.53-.81.64Z"/><path class="cls-4" d="M32.32,39.42a.72.72,0,0,0-.35,0,1.23,1.23,0,0,1,.35-.22.58.58,0,0,0-.35.11.46.46,0,0,1-.14-.35c0-.32.14-.39.28-.67a2.47,2.47,0,0,1,.07.81c.25-.21.81-.39,1-.28-.35.24-.31.49-.81.56Z"/><path class="cls-4" d="M32.89,38.68c-.29,0-.29,0-.36.07a1,1,0,0,1,.29-.28,1,1,0,0,0-.32.14s-.14,0-.18-.32.07-.39.14-.71c.07.32.25.6.22.82a1.2,1.2,0,0,1,.88-.43c-.28.28-.21.53-.67.71Z"/><path class="cls-4" d="M33.45,37.58c-.24,0-.24,0-.35.07a2.67,2.67,0,0,1,.32-.28.57.57,0,0,0-.32.18.63.63,0,0,1-.18-.36c-.07-.35.11-.42.18-.7.07.28.25.6.18.81a1.14,1.14,0,0,1,.88-.39c-.28.28-.25.53-.71.67Z"/><path class="cls-4" d="M33.88,36.73c-.25,0-.25.11-.32.15a.69.69,0,0,1,.25-.32.48.48,0,0,0-.29.17c-.07-.07-.17-.07-.24-.31s0-.43,0-.75a3,3,0,0,1,.36.78c.14-.25.6-.56.74-.53-.21.35-.11.6-.53.81Z"/><path class="cls-4" d="M34.3,35.53a.58.58,0,0,0-.32.14.72.72,0,0,1,.25-.31,1.24,1.24,0,0,0-.32.17c0-.07-.14-.07-.21-.32s0-.46,0-.77a2.93,2.93,0,0,1,.31.81c.15-.25.61-.6.75-.53-.22.35-.11.6-.5.81Z"/><path class="cls-4" d="M32.32,37.09a4.29,4.29,0,0,1-2.83-.82,1.28,1.28,0,0,0,.11-.84c0-.18,0,0-.07.1a1,1,0,0,1-.46.53,3.21,3.21,0,0,0-1.1-.81c-.42-.25-.46-.39-.7-.53-.43.18-1.07.56-1.42.32s.32-.29.57-.64a.68.68,0,0,1,.77-.28,9.21,9.21,0,0,1,1.91.78,17.67,17.67,0,0,1,3.22.7,4.27,4.27,0,0,0,.64.07,11.46,11.46,0,0,1-.64,1.42Z"/><path class="cls-4" d="M27.23,35.81c.35.39.67.5.88,1a.21.21,0,0,1-.35.07c-.53-.57-1-.67-.81-.92-.11,0-.21.11-.18.21.07.39.57.57.71,1-.07.25-.64,0-.89-.71l0,0c-.11.17-.18.28.18.74.07.14.14.32-.15.28.07,0-.14,0,0,0h0a0,0,0,0,1,0,0c.14-.71-.53-.57-.53-.57.1-.25-.28-.53-.64-.35,0-.22-.35-.5-.92-.29-.07-.21-.56-.39-1,.22-.85,0-2.23.77-3,.42,0,0-.53-1.34-.57-1.38a19.93,19.93,0,0,0,4-.6,3.11,3.11,0,0,1,2-.42c0,.21-.5.6-.25.77.42.43,1.09.25,1.59,0,.46.49,1.24.56,1.56,1.24l-.11.21c-.14.1-.18.1-.35-.18-.46-.6-.92-.46-1-.88-.18,0,0,.24,0,.31Z"/><path class="cls-4" d="M25,37.09c-.18.07.07-.11.14-.14l.07-.11c.14-.11.35-.32.49,0,.08.14-.49.46-.6.5s-.1,0-.17,0a.13.13,0,0,1,.07-.21Z"/><path class="cls-4" d="M24.47,37.05c-.1,0-.17,0-.25-.07s.15-.28.22-.39.1-.07.14-.07l.1-.1c.22,0,.18,0,.22.1s-.32.5-.43.53Z"/><path class="cls-4" d="M25.85,37.12s.25-.24.35.11c0,.14-.21.28-.45.35s-.39,0,.1-.46Z"/><path class="cls-4" d="M23.91,36.63c-.11.07-.25-.11-.18-.14l.11-.18c.14-.07.24-.14.31-.07s-.17.39-.24.39Z"/><path class="cls-8" d="M26.45,22.48c-3.82,0-7,4.07-7.1,9.16H33.52c-.14-5.09-3.25-9.16-7.07-9.16Z"/><path class="cls-6" d="M25.36,28.18c-.39,0-.57.24-.92.24a3.28,3.28,0,0,1,.81-1.62,4.39,4.39,0,0,1,1.38-.92l0-.07c-.31,0-1.16.21-1.41-.18,0-.35.49-.78,1.2-.81a1.51,1.51,0,0,1,1.06.32,1.66,1.66,0,0,1,.64,1.13,3.8,3.8,0,0,0-.67.35c.07,0,.21,0,.32,0s.28,0,.38,0v.25a.23.23,0,0,1,.07.14c-.84.35-1.27.53-1.34.46a1.13,1.13,0,0,0,.35.07,5.89,5.89,0,0,0,1-.21.35.35,0,0,0,.25.39v0h0c-.89.46-1.2.43-1.28.36L26.56,28a3.06,3.06,0,0,0,.81.39c.32.07.89-.21,1.2-.28l.11.39c-.53,0-1.1.74-1.87.46-.39-.29-.89-.78-1.45-.78Z"/><path class="cls-6" d="M26.06,29.27c-.39,0-1,0-1,0s-.71-.32-.64-.43a1.34,1.34,0,0,0,.67-.14c.53-.25,1,.46,1,.6Z"/><path class="cls-5" d="M28.75,28.85c0,.14-.14.39-.28.42s-.64,0-.92,0a.89.89,0,0,0,.46-.14c.85-.39.74-.28.74-.28Z"/><path class="cls-1" d="M26.49,42.25c.14.64-.53,1.63,1.2,2.76.11-.11.49-.25.6-.36-2.05-1.13-1.45-1.59-1.45-2.61a2.69,2.69,0,0,0-.35.21Z"/><path class="cls-1" d="M26.59,41.61c-.07.07.07,0,0,.11a4.55,4.55,0,0,1-.57.81,5.74,5.74,0,0,1-1.16.78c-1.06.57-1.81.28-1.24-.46s1.06-1.94,2.93-1.24Z"/><path class="cls-1" d="M26.45,41.65a2.86,2.86,0,0,1,.07.28c0,.11,0,.32.07.46s-.07.07,0,.14-.25-.35.18.11a2.38,2.38,0,0,0,2.4,1c.74-.28.07-1.13-.14-1.41-.39-.53-1-1-2.62-.53Z"/><path class="cls-3" d="M26.84,41.93c.25.28,0,.14.43.53,1.59,1.49,1.76-.07.49-.53a1.69,1.69,0,0,0-.92,0Z"/><path class="cls-3" d="M25.85,42.29a4,4,0,0,1-1.59.81c0-.07,0-.21.11-.36a3.15,3.15,0,0,1,.46-.56c.31-.28.84-.67,1.16-.39.14.14,0,.32-.14.5Z"/><path class="cls-1" d="M26.81,42.21c-.78.5-.39,1.35-1.42,2.69-.1-.1-.53-.1-.63-.21,1.27-1.31.88-1.8,1.66-2.69a2.75,2.75,0,0,0,.39.21Z"/><path class="cls-1" d="M26.52,42.53a.62.62,0,0,0,.67-.56.63.63,0,0,0-.67-.57.6.6,0,0,0-.63.57.59.59,0,0,0,.63.56Z"/><path class="cls-1" d="M23.38,29.63c-.11-1.7,0-2.37,1.66-4.07-.67.78-.74,1-.74,2.37-1.38,2.09,5.65,2,4.1.07,0-1.73-.39-2-1.49-3.39a1.16,1.16,0,0,0-1.59-.07C23.52,26.41,23,27,23,29.52c-1.06,1.31,1.34,1.2.39.11Z"/><path class="cls-4" d="M23.23,29.63a4.86,4.86,0,0,1,.22-2.09,6.16,6.16,0,0,1,1.48-2.05h0a.1.1,0,0,1,.18,0c.07,0,.07.11,0,.18h0a2.13,2.13,0,0,0-.57.88,4.29,4.29,0,0,0-.14,1.38V28h0a.6.6,0,0,0,.18,1,3.78,3.78,0,0,0,1.91.38,3.07,3.07,0,0,0,1.8-.46c.21-.17.28-.46,0-.81,0,0,0,0,0-.07a3.51,3.51,0,0,0-1.07-2.86c-.1-.14-.24-.29-.38-.46a1,1,0,0,0-1.38,0,9.74,9.74,0,0,0-1.84,2.19,6,6,0,0,0-.5,2.69.15.15,0,0,1,0,.11c-.28.35-.25.56-.14.63a.29.29,0,0,0,.24.07.59.59,0,0,0,.25-.07c.11-.1.11-.28-.14-.56,0,0,0,0,0-.07Zm.46-2a4.24,4.24,0,0,0-.21,1.91c.36.42.29.7.11.88a.64.64,0,0,1-.43.18.7.7,0,0,1-.42-.14c-.21-.18-.28-.5.11-1a5.35,5.35,0,0,1,.53-2.76,9.3,9.3,0,0,1,1.87-2.27v0h0A1.31,1.31,0,0,1,27,24.5h0v0a3,3,0,0,1,.35.46,3.47,3.47,0,0,1,1.13,3,.7.7,0,0,1-.07,1.13,3.4,3.4,0,0,1-1.94.49,3.55,3.55,0,0,1-2-.42.83.83,0,0,1-.29-1.28,5.64,5.64,0,0,1,.07-1.2,4.24,4.24,0,0,0-.53,1Z"/><path class="cls-3" d="M24.3,27.68a7.21,7.21,0,0,1,4.06.11V28a8.35,8.35,0,0,0-4.06-.11.34.34,0,0,0,0-.25Z"/><path class="cls-3" d="M24.19,28.6a10,10,0,0,1,4.28,0c.32.88-3.93,1.27-4.28,0Z"/><path class="cls-3" d="M26.38,28.53h0c.14,0,.46.11.46.28V32h-.78V28.81a.29.29,0,0,1,.32-.28Z"/><path class="cls-5" d="M62.59,48.47v-.6H59.65V54h.71v-2.9h2.12v-.6H60.36v-2ZM66.05,54V51c0-.92-.46-1.35-1.41-1.35-.74,0-1.49.32-1.52,1.17h.67c.07-.49.39-.67.88-.67.82,0,.78.67.78,1.31v.07a2,2,0,0,1-.42,0c-.78,0-2,.36-2,1.31a1.05,1.05,0,0,0,1.13,1.17,1.45,1.45,0,0,0,1.27-.64h0V54Zm-.6-1.91a1.76,1.76,0,0,1-.14.85,1.16,1.16,0,0,1-1,.63.57.57,0,0,1-.6-.6c0-.67.85-.88,1.38-.88Zm4.85-1a1.26,1.26,0,0,0-1.42-1.38c-1.31,0-1.73,1-1.73,2.09a2,2,0,0,0,2.16,2.3,2.34,2.34,0,0,0,.88-.11v-.46a2.19,2.19,0,0,1-.67.07c-1.2,0-1.66-.84-1.66-1.9,0-.64.21-1.49,1-1.49.53,0,.74.39.74.88ZM74.19,54V49.78h-.61v1.73c0,.64-.35,2-1.2,2-.67,0-.6-.89-.6-1.35V49.78h-.6v3c0,.67.32,1.27,1.06,1.27A1.27,1.27,0,0,0,73.55,53h0v1Zm2.08,0V47.87h-.6V54Zm3.5-3.71v-.5H78.64V48.4l-.6.39v1h-.67v.5H78V53c0,.81.39,1.06,1.17,1.06a2.41,2.41,0,0,0,.53,0v-.53a1.38,1.38,0,0,1-.43.07c-.46,0-.67-.24-.67-.7V50.28ZM83.38,54V51c0-.92-.46-1.35-1.42-1.35-.74,0-1.48.32-1.52,1.17h.68c.07-.49.35-.67.84-.67.85,0,.82.67.82,1.31v.07a2.08,2.08,0,0,1-.43,0c-.77,0-2,.36-2,1.31a1.07,1.07,0,0,0,1.13,1.17,1.53,1.53,0,0,0,1.31-.64h0V54Zm-.6-1.91a1.78,1.78,0,0,1-.18.85,1.15,1.15,0,0,1-.95.63A.57.57,0,0,1,81,53c0-.67.85-.88,1.38-.88ZM87.62,54V47.87H87v2.58h0a1.1,1.1,0,0,0-1.09-.78c-1.13,0-1.42,1.35-1.42,2.23s.22,2.16,1.42,2.16A1.13,1.13,0,0,0,87,53.25h0V54ZM87,51.9c0,.57-.25,1.66-1,1.66s-.88-1-.88-1.55.07-1.84.88-1.84,1,1.13,1,1.73ZM94.13,54V47.87h-.6v2.58h0a1.12,1.12,0,0,0-1.1-.78C91.26,49.67,91,51,91,51.9s.25,2.16,1.45,2.16a1.15,1.15,0,0,0,1.1-.81h0V54Zm-.6-2.09c0,.57-.22,1.66-1,1.66s-.85-1-.85-1.55.07-1.84.88-1.84,1,1.13,1,1.73Zm4.84-.42v-.21a1.43,1.43,0,0,0-1.48-1.6c-1.24,0-1.63,1-1.63,2.06,0,1.37.6,2.33,2,2.33a2.78,2.78,0,0,0,1-.11v-.49a3.21,3.21,0,0,1-.81.1c-1.06,0-1.52-.91-1.52-1.83v-.25Zm-.71-.5H96a.88.88,0,0,1,.89-.81.77.77,0,0,1,.77.81Zm8.28,3V47.87h-1v2.55h-2.19V47.87h-1V54h1V51.2h2.19V54Zm4.63,0V49.78h-1v1.8c0,.57-.28,1.56-1,1.56a.42.42,0,0,1-.28-.07c-.15-.14-.15-.71-.15-.88V49.78h-1v2.9c0,.74.36,1.38,1.17,1.38a1.32,1.32,0,0,0,1.24-.88h0V54Zm6.72,0V51.05c0-.7-.36-1.38-1.17-1.38a1.27,1.27,0,0,0-1.17.85h0a1,1,0,0,0-1-.85,1.2,1.2,0,0,0-1.13.75h0v-.64h-1V54h1V52.15c0-.49.21-1.56.85-1.56a.37.37,0,0,1,.28.07c.18.18.14.71.14.92V54h1V52.15c0-.49.22-1.56.85-1.56a.46.46,0,0,1,.29.07,2,2,0,0,1,.14.92V54Zm4.24,0V51c0-.95-.64-1.31-1.52-1.31s-1.59.39-1.59,1.35h1a.56.56,0,0,1,.64-.64c.49,0,.6.36.6.74v.43c-1,0-2.33.14-2.33,1.41a1.09,1.09,0,0,0,1.2,1.1,1.11,1.11,0,0,0,1.09-.57h0V54Zm-.92-1.88c0,.54-.21,1.28-.88,1.28a.48.48,0,0,1-.53-.5c0-.63,1-.78,1.41-.78ZM126.09,54V51.05c0-.7-.32-1.38-1.13-1.38a1.3,1.3,0,0,0-1.24.89h0v-.78h-1V54h1V52.15c0-.57.28-1.56,1-1.56a.38.38,0,0,1,.28.07c.18.18.14.71.14.92V54Zm2.23-5.13v-1h-1v1Zm0,5.13V49.78h-1V54Zm4.49,0V47.87h-1v2.41h0a1.21,1.21,0,0,0-1.06-.61c-1.17,0-1.45,1.28-1.45,2.2s.21,2.19,1.45,2.19a1.27,1.27,0,0,0,1.06-.67h0V54Zm-1-2.12c0,.46-.11,1.45-.74,1.45s-.71-1-.71-1.45,0-1.42.71-1.42.74.92.74,1.42ZM137.05,54V51c0-.95-.63-1.31-1.52-1.31s-1.59.39-1.59,1.35h.95a.57.57,0,0,1,.64-.64c.5,0,.6.36.6.74v.43c-.95,0-2.37.14-2.37,1.41a1.29,1.29,0,0,0,2.34.53h0V54Zm-.92-1.88c0,.54-.25,1.28-.88,1.28a.48.48,0,0,1-.53-.5c0-.63.92-.78,1.41-.78ZM141.47,54V47.87h-1v2.41h0a1.17,1.17,0,0,0-1-.61c-1.17,0-1.45,1.28-1.45,2.2s.21,2.19,1.45,2.19a1.19,1.19,0,0,0,1-.67h0V54Zm-1-2.12c0,.46-.1,1.45-.74,1.45s-.74-1-.74-1.45,0-1.42.74-1.42.74.92.74,1.42Zm5.3-.25v-.25a1.5,1.5,0,0,0-1.59-1.7c-1.27,0-1.8.78-1.8,2,0,1.37.6,2.4,2.12,2.4a4.68,4.68,0,0,0,1.17-.14v-.71a2,2,0,0,1-.81.18,1.7,1.7,0,0,1-1.6-1.77Zm-.91-.6h-1.56a.78.78,0,0,1,.81-.71.7.7,0,0,1,.75.71Zm4.27,1.8c0-1.2-1.83-1.48-1.83-2,0-.28.42-.39.63-.39a2.19,2.19,0,0,1,1,.28v-.81a3.25,3.25,0,0,0-1-.18c-.78,0-1.52.36-1.52,1.24,0,1.1,1.8,1.52,1.8,2s-.46.39-.7.39a2.58,2.58,0,0,1-1.06-.25v.85a3.88,3.88,0,0,0,1.09.14c.82,0,1.59-.32,1.59-1.24Zm-86.3,6.54h-1l-.88,2.83h0l-1-2.83h-1l1.56,4.25-.6,1.8h.88Zm7.42-.24a1.77,1.77,0,0,0-2-1.77c-1.88,0-2.41,1.52-2.41,3.14s.64,3.15,2.55,3.15a4.44,4.44,0,0,0,1.66-.35v-.92a2.63,2.63,0,0,1-1.42.46c-1.41,0-1.66-1.38-1.66-2.51,0-.85.14-2.23,1.28-2.23.67,0,.88.42.88,1Zm1.7-.68v-1H71v1Zm0,5.1V59.36H71v4.18Zm4.42-2.34V61a1.5,1.5,0,0,0-1.59-1.69c-1.28,0-1.81.77-1.81,2,0,1.38.64,2.4,2.12,2.4a3.18,3.18,0,0,0,1.17-.18v-.67a2,2,0,0,1-.81.18A1.66,1.66,0,0,1,73.9,61.2Zm-.92-.6H73.9a.79.79,0,0,1,.82-.71.68.68,0,0,1,.74.71Zm5.23,2.94v-2.9c0-.71-.32-1.38-1.13-1.38a1.29,1.29,0,0,0-1.24.88h0v-.78h-1v4.18h1V61.73c0-.56.28-1.55,1-1.55a.38.38,0,0,1,.28.07c.18.17.14.7.14.92v2.37Zm4.46-2.76a1.38,1.38,0,0,0-1.59-1.52,1.8,1.8,0,0,0-2,2,2.1,2.1,0,0,0,2.26,2.37,4.77,4.77,0,0,0,1.24-.18v-.6a2.67,2.67,0,0,1-.71.11,1.69,1.69,0,0,1-1.73-1.87c0-.5.18-1.17.78-1.17s.64.42.64.85Zm1.69-2.34v-1h-1v1Zm0,5.1V59.36h-1v4.18Zm4.32,0v-3c0-1-.64-1.31-1.52-1.31s-1.59.35-1.59,1.34h1a.59.59,0,0,1,.64-.67c.49,0,.6.35.6.78v.42c-1,0-2.37.14-2.37,1.42a1.28,1.28,0,0,0,2.33.53h0v.46Zm-.92-1.84c0,.53-.21,1.27-.89,1.27a.49.49,0,0,1-.53-.53c0-.64,1-.74,1.42-.74Zm4.52.67c0-1.17-1.83-1.45-1.83-2,0-.28.42-.39.63-.39a2.33,2.33,0,0,1,1,.29V59.4a4.54,4.54,0,0,0-1-.14c-.78,0-1.52.35-1.52,1.23,0,1.1,1.8,1.52,1.8,2,0,.32-.46.39-.7.39a2.2,2.2,0,0,1-1.06-.28v.84a2.66,2.66,0,0,0,1.09.18c.82,0,1.59-.32,1.59-1.27Zm7.18-.46c0-1.84-2.9-2-2.9-3.08,0-.53.43-.74.92-.74a3.72,3.72,0,0,1,1.52.39v-1a7.46,7.46,0,0,0-1.48-.17c-1,0-2.09.42-2.09,1.59,0,1.73,2.9,1.8,2.9,3.11,0,.64-.53.85-1.06.85A3.25,3.25,0,0,1,98,62.33v1.06a6.34,6.34,0,0,0,1.69.25c1.1,0,2.23-.46,2.23-1.73Zm4.28-.46c0-1.2-.5-2.19-1.84-2.19s-1.84,1-1.84,2.19.5,2.19,1.84,2.19,1.84-1,1.84-2.19Zm-1,0c0,.56,0,1.52-.81,1.52s-.81-1-.81-1.52,0-1.52.81-1.52.81,1,.81,1.52Zm5.24-.67a1.38,1.38,0,0,0-1.59-1.52,1.79,1.79,0,0,0-1.91,2,2.1,2.1,0,0,0,2.26,2.37,4.53,4.53,0,0,0,1.2-.18v-.6a2.3,2.3,0,0,1-.71.11A1.71,1.71,0,0,1,108,61.1c0-.5.21-1.17.82-1.17s.63.42.63.85Zm1.69-2.34v-1h-1v1Zm0,5.1V59.36h-1v4.18Zm4.35,0v-3c0-1-.63-1.31-1.52-1.31s-1.59.35-1.59,1.34h.92a.62.62,0,0,1,.67-.67c.46,0,.57.35.57.78v.42c-1,0-2.33.14-2.33,1.42a1.11,1.11,0,0,0,1.23,1.09,1.13,1.13,0,0,0,1.1-.56h0v.46Zm-1-1.84c0,.53-.21,1.27-.85,1.27a.47.47,0,0,1-.53-.53c0-.64.92-.74,1.38-.74Zm3.15,1.84V57.45h-1v6.09Zm4.38-2.34V61a1.5,1.5,0,0,0-1.59-1.69c-1.24,0-1.8.77-1.8,2,0,1.38.63,2.4,2.12,2.4a2.92,2.92,0,0,0,1.16-.18v-.67a2,2,0,0,1-.77.18,1.7,1.7,0,0,1-1.6-1.77Zm-.92-.6h-1.52a.75.75,0,0,1,.78-.71.66.66,0,0,1,.74.71Zm4.31,1.77c0-1.17-1.83-1.45-1.83-2,0-.28.42-.39.63-.39a2.33,2.33,0,0,1,1,.29V59.4a4.54,4.54,0,0,0-1-.14c-.81,0-1.52.35-1.52,1.23,0,1.1,1.8,1.52,1.8,2,0,.32-.45.39-.7.39a2.53,2.53,0,0,1-1.1-.28v.84a3,3,0,0,0,1.13.18c.82,0,1.59-.32,1.59-1.27Z"/><path class="cls-5" d="M71.25,22.1V19.44H59.72V39.88h3.47V30.62h7.64V28H63.19V22.1Zm17,17.78V19.44H84.76v8.49H77.44V19.44H74V39.88h3.47V30.55h7.32v9.33Zm15.42-14.07h-3.43l-3.08,9.47h0l-3.26-9.47H90.38l5.23,14.25-2,6.15h3Zm16.19-.74c0-4-3.14-5.94-6.86-5.94-6.26,0-8.06,5.05-8.06,10.46,0,5.69,2.16,10.61,8.59,10.61A14.5,14.5,0,0,0,119.05,39V36a9.47,9.47,0,0,1-4.77,1.49c-4.74,0-5.55-4.64-5.55-8.42,0-2.83.49-7.46,4.24-7.46,2.27,0,3,1.38,3,3.47Zm14.78,9.33c0-6.15-9.76-6.68-9.76-10.29,0-1.8,1.45-2.51,3.08-2.51a13.42,13.42,0,0,1,5.13,1.27V19.69a26.58,26.58,0,0,0-5-.56c-3.39,0-7,1.34-7,5.26,0,5.8,9.76,6.09,9.76,10.51,0,2.08-1.76,2.86-3.6,2.86a10.6,10.6,0,0,1-5.77-2v3.57a23.63,23.63,0,0,0,5.66.85c3.71,0,7.53-1.49,7.53-5.8Z"/></g></g></svg>