<svg xmlns="http://www.w3.org/2000/svg" viewBox="0 0 181.06 95.58"><defs><style>.cls-1,.cls-5{fill:#29292a;}.cls-1,.cls-2,.cls-3{fill-rule:evenodd;}.cls-2{fill:#f5f3ef;}.cls-3,.cls-4{fill:#fefefe;}.cls-6{fill:#087d9f;}.cls-7{fill:#221f20;}.cls-8{fill:none;stroke:#29292a;stroke-miterlimit:10;stroke-width:0.23px;}</style></defs><g id="Capa_2" data-name="Capa 2"><g id="Capa_1-2" data-name="Capa 1"><path class="cls-1" d="M1.77,59.52a6,6,0,0,1,.15.93,2.83,2.83,0,0,0-.82,2.64c.1.68,1,1,2.22,1.09a59,59,0,0,1-1.81-7.92A44.65,44.65,0,0,1,1,48a56.93,56.93,0,0,1,1.56-15,72.73,72.73,0,0,1,3.57-9.53A55.24,55.24,0,0,1,13,12.74a38.31,38.31,0,0,1,9.58-8.19A33.65,33.65,0,0,1,35.13.2a30.89,30.89,0,0,1,10,.47,39.09,39.09,0,0,1,11,4.56,36.36,36.36,0,0,1,7.82,6.84,55.8,55.8,0,0,1,5.34,7.56,54.25,54.25,0,0,1,5,11.66,50.91,50.91,0,0,1,1.92,10.2,76.11,76.11,0,0,1,0,11.4A38.71,38.71,0,0,1,74,64.44c.94,0,2,0,2.28-1.24A2.61,2.61,0,0,0,75.38,61a8.7,8.7,0,0,0,.05-1.14,3.65,3.65,0,0,1,.83,5.7c-.72,1.86-1.45,3.68-2.17,5.54,2.64,2.07,2.9,3.73.88,5a10.92,10.92,0,0,0-2.38,5.38A2.34,2.34,0,0,1,71,84c-2.12.68-4.19.16-6.27-.57,1.14,1.66.21,3.53-1.65,5.44A8.46,8.46,0,0,0,61.76,95c-6.89,1.35-10.67-.15-14.87-1.29a28.82,28.82,0,0,1-17-.21c-5,1.24-9.9,2.64-15.85,1.24.31-2.43.57-4.86-1.14-6.89-1.76-1.45-1.82-3-.26-4.71-3.42,1.3-6.74,1.19-7.77-.52A11.48,11.48,0,0,0,2,75.42C.16,73.77,1.1,72,3.22,70.76,2.49,68.84,1.77,66.93,1,65c-1.86-1.5-1-4.56.73-5.44"/><path class="cls-2" d="M15,56.93c-1-5-.78-8.7-.83-12.85a43.38,43.38,0,0,1,5.39-18.49A31,31,0,0,1,30.26,15,19.58,19.58,0,0,1,44,13.88,22.49,22.49,0,0,1,55.28,22c4.72,5.49,6.84,12.7,7.83,20.16a50.2,50.2,0,0,1-1.3,17.56c-.57-.21-1.14-.57-1.71-.78-.15-1.09.73-1.4,2.07-1.3-.83-.46-2.54-.62-2.64.78,0,2.54.16,5,0,7.31a32,32,0,0,1-2.9,5.12,23.92,23.92,0,0,0-10.77-.62c.05,2.59.05,5.24.05,7.83,1.14.05,2.33.15,3.47.2a19.68,19.68,0,0,1-11,3.37A17.28,17.28,0,0,1,27.52,78a33.56,33.56,0,0,1,3.88-.15c.05-2.59.05-5.24.1-7.88a23.73,23.73,0,0,0-11,.57c-1-1.76-2-3.47-2.8-5.23.06-2.33.16-4.66.21-6.94-.1-1.61-1.19-1.61-2.59-1.14,1.45,0,2.23.36,2,1.35-.62.25-1.19.51-1.81.77-.16-.77-.36-1.55-.52-2.38"/><path class="cls-3" d="M75.28,61.33c-.26.93-.57,1.87-.88,2.8a1.53,1.53,0,0,0,.88-2.8"/><path class="cls-3" d="M46.37,70.81c0,2.23.05,4.51.05,6.74a26.13,26.13,0,0,1,13.52,3,39.75,39.75,0,0,0,6.79,2.9c2.75.42,4.92.11,5.13-1.45a11.2,11.2,0,0,1,2.28-6.32,18.85,18.85,0,0,1-8.5-1.24c-3.21-1.14-6.42-2.23-9.58-3.37a21.94,21.94,0,0,0-9.69-.26"/><path class="cls-3" d="M61.91,68.74l.94.31c-.57,1-1.14,2.13-1.71,3.16a8.31,8.31,0,0,1-1-.26c.67-1,1.24-2.12,1.81-3.21"/><path class="cls-3" d="M59.53,67a28.3,28.3,0,0,1-2.23,4l.94.31c.67-1.09,1.39-2.33,2.07-3.63-.26-.2-.52-.46-.78-.67"/><path class="cls-3" d="M64.24,69c.16,1.55.21,3,.26,4.61a20.24,20.24,0,0,0,8.91,1.71c2.28-.11,2.65-1.82.06-3.73A30,30,0,0,0,64.24,69"/><path class="cls-3" d="M73,65.43c-2.75.67-4.92.15-7.36.36-2,.52-1.92,2.12.36,2.85,2,.52,4.36.83,5.91,1.4A10,10,0,0,0,73,65.43"/><path class="cls-3" d="M63.47,68.9c-.57-3.22.72-4,3-3.79a13.6,13.6,0,0,0,1.87-3.31,21.57,21.57,0,0,1-8.24-2.44,51.6,51.6,0,0,1,0,7.46c-.11.21,3.37,2.39,3.42,2.08"/><path class="cls-3" d="M13.68,68.59c.94-3-.41-4.1-2.79-3.84a9.12,9.12,0,0,1-1.71-2.69,42.52,42.52,0,0,0,8.34-3.21c-.16,2.59-.26,5.12-.21,7.61.1.21-3.52,2.44-3.63,2.13"/><path class="cls-3" d="M3.89,64.23,6,64.54A59.19,59.19,0,0,1,3.37,44.6c.47-7.41,1.77-14.76,5.75-21.81A44.22,44.22,0,0,1,22.39,7.61,32.26,32.26,0,0,1,37.88,2.33c6.52,0,12.27,1.5,16.94,4.92A37.22,37.22,0,0,1,65.9,18.7a45.42,45.42,0,0,1,6.43,14.45A56.31,56.31,0,0,1,71.5,64.8c.67,0,1.29-.1,1.91-.2C75.75,58,76.06,50,75.49,40.09A52.94,52.94,0,0,0,66.37,16C62.64,11.13,58.7,7.2,54.3,4.76A30.51,30.51,0,0,0,34,1,35.24,35.24,0,0,0,17.47,8.85a54.9,54.9,0,0,0-9.9,13A54.72,54.72,0,0,0,2,39.73a59.71,59.71,0,0,0,1.91,24.5"/><path class="cls-3" d="M15.39,68.33a5.93,5.93,0,0,0-.93.36c.57,1,1.14,2.07,1.71,3.16.31-.1.67-.21,1-.31a26.78,26.78,0,0,1-1.82-3.21"/><path class="cls-3" d="M17.78,66.62a26.15,26.15,0,0,0,2.22,4,5.93,5.93,0,0,0-.93.36c-.67-1.14-1.4-2.33-2.07-3.63.26-.26.52-.46.78-.72"/><path class="cls-3" d="M13.06,68.59c-.15,1.5-.21,3-.26,4.61a20.92,20.92,0,0,1-8.91,1.71c-2.28-.16-2.64-1.87-.05-3.73a27.33,27.33,0,0,1,9.22-2.59"/><path class="cls-3" d="M4.36,65c2.74.73,4.92.16,7.35.42,2,.51,1.92,2.07-.36,2.79-2,.57-4.35.88-5.9,1.45A10,10,0,0,1,4.36,65"/><path class="cls-3" d="M2.08,61c.31,1,.57,1.92.88,2.9a2.44,2.44,0,0,1-1.55-1A1.65,1.65,0,0,1,2.08,61"/><path class="cls-3" d="M30.93,70.4c0,2.28-.05,4.51-.1,6.78a26.67,26.67,0,0,0-13.47,3A40.86,40.86,0,0,1,10.58,83c-2.75.41-4.93.1-5.13-1.4a11.27,11.27,0,0,0-2.28-6.32A17.8,17.8,0,0,0,11.66,74c3.22-1.08,6.43-2.22,9.59-3.31a21.91,21.91,0,0,1,9.68-.31"/><path class="cls-1" d="M45.59,93.45a29.83,29.83,0,0,1-7.25.83,32.6,32.6,0,0,1-7.25-1,27.7,27.7,0,0,1,7.15-.82,24.33,24.33,0,0,1,7.35,1"/><path class="cls-3" d="M12.34,84c-1,5.08,7.92,3.06,16.21,1.09A35.65,35.65,0,0,1,44.4,84.8c4,1,8,2,12.33,2.75a8,8,0,0,0,5.6-.57,3.15,3.15,0,0,0,1.91-3.06c.63.57.83,1.35-.15,3-1.71,1.87-3.26,3.89-2.8,7.62a26.4,26.4,0,0,1-9-.16A40.15,40.15,0,0,1,47,93.24a53.27,53.27,0,0,0-8.49-1.39C34,91.79,29.59,92.93,25.18,94a28,28,0,0,1-10.67.31,10.29,10.29,0,0,0-.46-5.75,4.21,4.21,0,0,0-1.25-1.4C12,86,11.46,85,12.34,84"/><path class="cls-3" d="M13.48,82.68c1.39,1.29,2.79,2.64,4.19,4a7.35,7.35,0,0,1-4.4-.68,2.28,2.28,0,0,1,.21-3.31"/><path class="cls-3" d="M23,78.64A27.66,27.66,0,0,0,32,84c-.57.16-1.14.26-1.71.42a27.39,27.39,0,0,1-8.18-5.34c.31-.16.62-.26.93-.41"/><path class="cls-3" d="M21,86.2l-2.59.46a27.32,27.32,0,0,1-4.3-4.19l1.66-.78A47.84,47.84,0,0,0,21,86.2"/><path class="cls-3" d="M17.26,80.91a32.48,32.48,0,0,0,5.7,5c-.42.1-.83.1-1.25.2a25.49,25.49,0,0,1-5.33-4.66,6.75,6.75,0,0,0,.88-.52"/><path class="cls-1" d="M13.42,83.25c1.14,1.08,2.23,2.17,3.32,3.1a3.72,3.72,0,0,1-3.37-.88,1.79,1.79,0,0,1,.05-2.22"/><path class="cls-3" d="M53.94,78.84A27.5,27.5,0,0,1,45,84.23c.57.1,1.13.26,1.7.36a27.42,27.42,0,0,0,8.14-5.28l-.93-.47"/><path class="cls-3" d="M55.64,86.87c.83.11,1.61.21,2.49.37a44,44,0,0,0,5-4.36c-.57-.31-1.25-.57-1.77-.83a47.09,47.09,0,0,1-5.75,4.82"/><path class="cls-3" d="M59.94,81.23a36.7,36.7,0,0,1-6.21,5.18c.41,0,.88.25,1.34.36a32.24,32.24,0,0,0,5.76-5c-.21-.15-.63-.31-.89-.51"/><path class="cls-3" d="M63.57,83c-1.55,1.5-3.11,3-4.71,4.45a5.63,5.63,0,0,0,3.73-1.14c1.29-1,1.76-2.07,1-3.31"/><path class="cls-3" d="M25.55,78.32,26.79,78a19.51,19.51,0,0,0,23.36.42l1.4.15c-7.72,5.91-17.77,6.38-26-.26"/><path class="cls-1" d="M61.6,59.26c.11-.47.26-.93.37-1.4-.89,0-1.56.21-1.66.93.41.16.83.32,1.29.47"/><path class="cls-3" d="M62.28,59.88a4.41,4.41,0,0,1,.82.36,54,54,0,0,0,1.77-9.79,51.36,51.36,0,0,0-1.09-13.1A36.48,36.48,0,0,0,57,21.81c-4.25-5.76-9.48-9.17-15.8-10-6-.78-11.45,1.08-16.42,5.54A33.76,33.76,0,0,0,15.7,30.61a43.26,43.26,0,0,0-3,16.63,43.18,43.18,0,0,0,1.55,12.69l.83-.46a56.52,56.52,0,0,1-1.45-12.28,44,44,0,0,1,1.76-12.8,34.46,34.46,0,0,1,4.3-9.58,32,32,0,0,1,7.62-8.29,19.39,19.39,0,0,1,10.31-3.94A19.82,19.82,0,0,1,50,16.11a30.43,30.43,0,0,1,7.66,8.29,41.53,41.53,0,0,1,5,12,42.81,42.81,0,0,1,1.19,9.54,43.09,43.09,0,0,1-1.55,14"/><path class="cls-1" d="M63.57,83.61l-3.73,3.47c1.19.1,4.15-1.35,3.73-3.47"/><path class="cls-4" d="M9,37.81a1.5,1.5,0,0,1,1,.63,1.56,1.56,0,0,1,.15,1.19,1.77,1.77,0,0,1-.57,1.08,1.48,1.48,0,0,1-1.19.21l-2.28-.46.16-.78,2.27.41A1,1,0,0,0,9.23,40a.75.75,0,0,0,.31-.52.65.65,0,0,0-.1-.62.94.94,0,0,0-.63-.31l-2.22-.41.15-.83Zm2.28-3.67-.21.77L8,35.79l2.64.73-.21.72-3.57-1,.26-.93,2.69-.83-2.33-.57.21-.78Zm.83-2.65-.67,1.92-.52-.16.21-.57L8.66,31.8l-.21.57-.52-.15.68-1.92.51.16-.2.57,2.48.88.21-.57ZM9.9,26.57,13,29.11l-.26.78-4,.1L9,29.21l2.9-.05L9.64,27.35Zm4.87-1.5-1,2.33-3.42-1.5,1-2.33.57.2-.72,1.66.72.31.68-1.5.57.26L12.49,26l1,.42.72-1.61Zm2-3.63-.46.88-1.77.31-.25.42,1.24.67-.36.73-3.27-1.76.68-1.25a1.49,1.49,0,0,1,.77-.88.86.86,0,0,1,.78.05,1.12,1.12,0,0,1,.62,1.2Zm-4,.83,1,.52.15-.31a.93.93,0,0,0,.16-.67.84.84,0,0,0-.31-.42.61.61,0,0,0-.42,0,1.34,1.34,0,0,0-.41.47Zm3.94-1.09-.62-.51.05-.06a2.52,2.52,0,0,0,.67-.25,2.91,2.91,0,0,0,.57-.47,1,1,0,0,0,.21-.52.32.32,0,0,0-.1-.36.83.83,0,0,0-.31-.11,1.52,1.52,0,0,0-.37.21c-.1.11-.26.21-.51.42a1.38,1.38,0,0,1-.78.36.9.9,0,0,1-.67-.26.86.86,0,0,1-.37-.83,1.94,1.94,0,0,1,.42-1.09,3.28,3.28,0,0,1,1-.83l.57.47-.05,0a2.06,2.06,0,0,0-1.09.68.93.93,0,0,0-.2.46.28.28,0,0,0,.1.36.37.37,0,0,0,.31.11A3.17,3.17,0,0,0,16,18.8a4.72,4.72,0,0,1,.52-.41,2.78,2.78,0,0,1,.47-.31c.15,0,.26-.06.36-.06a.57.57,0,0,1,.31.06l.31.15a1.05,1.05,0,0,1,.36.93,1.66,1.66,0,0,1-.46,1.09,3.06,3.06,0,0,1-1.09.93M20.31,17l-1.24,1.61-.41-.37.36-.46-2-1.66-.42.47-.41-.32,1.24-1.6.47.36-.41.47,2.07,1.6.36-.46Zm.52-.57-2.43-2.8.88-.77a3,3,0,0,1,1.09-.63,1.48,1.48,0,0,1,.93,0,2,2,0,0,1,.88.63,2.28,2.28,0,0,1,.41,1,1.14,1.14,0,0,1-.1.93,3.06,3.06,0,0,1-.78.93Zm-1.4-2.9,1.61,2,.31-.26a1.12,1.12,0,0,0,.16-1.81,1.15,1.15,0,0,0-1.82-.16Zm7.1-1.5-.72.46-.68-.46-1.19.83.21.77-.68.47-.93-3.83.73-.52Zm-1.92-.37-1.24-1,.42,1.55Zm2.34.16L25.18,8.6l1-.57a5.21,5.21,0,0,1,1.19-.42,1.57,1.57,0,0,1,.93.26,2.13,2.13,0,0,1,.73.78,1.75,1.75,0,0,1,.21,1,1.42,1.42,0,0,1-.32.93,2.27,2.27,0,0,1-.93.73ZM26.17,8.7,27.36,11l.36-.21a1.09,1.09,0,0,0,.52-1.71,1.1,1.1,0,0,0-1.71-.52Zm9.06.21-.77.15L32.39,6.63l.46,2.69-.78.16L31.45,5.8l1-.16L34.3,7.72l-.41-2.34.72-.15Zm4.2-.37-.88.06-.31-.78-1.5.1-.21.83H35.7L36.89,5l.88,0ZM38,7.25,37.36,5.8l-.42,1.5Zm4.71,1.29A3.85,3.85,0,0,1,42,8.8H41.4a1.6,1.6,0,0,1-1.3-.57,1.88,1.88,0,0,1-.41-1.45,1.94,1.94,0,0,1,.57-1.4A1.71,1.71,0,0,1,41.61,5a2.05,2.05,0,0,1,1.24.36v.78h-.1a1.65,1.65,0,0,0-1.09-.57,1.06,1.06,0,0,0-.78.31,1.68,1.68,0,0,0-.36,1,1.39,1.39,0,0,0,.26,1,.89.89,0,0,0,.77.41,2,2,0,0,0,.52-.05,2.39,2.39,0,0,0,.57-.36h.11Zm2.39.94-2-.52.15-.52.57.16.73-2.54L44,5.9l.15-.52,1.92.52-.15.57-.57-.21L44.66,8.8l.57.16Zm2.07.77a1.62,1.62,0,0,1-1-1,2,2,0,0,1,.06-1.45,1.93,1.93,0,0,1,1-1.14,1.75,1.75,0,0,1,1.45,0,1.66,1.66,0,0,1,1,1,2,2,0,0,1-.06,1.51,2.17,2.17,0,0,1-1,1.14,1.8,1.8,0,0,1-1.45-.06m1.24-3a.82.82,0,0,0-.77.1,1.6,1.6,0,0,0-.63.83,1.81,1.81,0,0,0-.15,1,.93.93,0,0,0,.52.63,1,1,0,0,0,.77-.06,1.73,1.73,0,0,0,.63-.83,2,2,0,0,0,.15-1,1,1,0,0,0-.52-.62m3.89,5.49-.73-.36L51.4,9.17l-1.3,2.38-.67-.36,1.76-3.27.88.47.16,2.8,1.14-2.13.67.36Zm3.21,2.69-.67-.57.31-.77-1.14-1-.73.47L52.64,13l3.47-2,.67.57Zm-.16-1.91L55.9,12l-1.34.78Zm2.28,4-1.76-1.82,2.64-2.64.57.62-2.22,2.18,1.24,1.24Zm1.45,1.6L62.17,17l.68,1a3.12,3.12,0,0,1,.51,1.14,1.49,1.49,0,0,1-.15.94,2.47,2.47,0,0,1-.73.77,1.68,1.68,0,0,1-1,.31,1.51,1.51,0,0,1-.93-.2,2.84,2.84,0,0,1-.83-.88ZM62.17,18l-2.12,1.45.21.32a1.27,1.27,0,0,0,2.12-1.4Zm.42,6.69-1.25-2.28,3.27-1.82,1.24,2.28-.52.31-.88-1.55-.67.36.78,1.45-.52.31-.83-1.45-.93.52.88,1.56ZM65.33,28a.87.87,0,0,1-.88,0,1.24,1.24,0,0,1-.67-.78,3.88,3.88,0,0,1-.26-.77l.62-.26v.05a2,2,0,0,0,.1.62c.11.1.16.21.26.31a.44.44,0,0,0,.26.11,2,2,0,0,0,.57-.16l1.56-.73-.31-.72.51-.26.68,1.5ZM67,31.65a1.28,1.28,0,0,1-1.14,0,1.56,1.56,0,0,1-.77-1,1.52,1.52,0,0,1,0-1.19,1.23,1.23,0,0,1,.88-.78l2.17-.77.31.77-2.17.78c-.31.1-.52.21-.57.42a.53.53,0,0,0,0,.57.77.77,0,0,0,.36.51,1,1,0,0,0,.67-.05L69,30.09l.31.78Zm.42,2.59a1.06,1.06,0,0,1-.88-.16,1.31,1.31,0,0,1-.52-.83,4,4,0,0,1-.16-.82l.62-.16.06,0a1.74,1.74,0,0,0,0,.57,1.16,1.16,0,0,0,.15.36c.11.11.16.16.26.16a1.47,1.47,0,0,0,.62,0l1.66-.47L69,32.12l.62-.21.42,1.6Zm1.29,3.83a1.31,1.31,0,0,1-1.19-.2,1.8,1.8,0,0,1-.57-1,1.61,1.61,0,0,1,.16-1.24,1.35,1.35,0,0,1,1-.63l2.28-.46.15.83-2.27.41a1.26,1.26,0,0,0-.63.36c-.1.11-.1.31-.1.57s.16.47.36.52a.89.89,0,0,0,.68.11l2.28-.47.15.78Zm3,3.42-2.49-.88-1.4.26-.15-.78,1.34-.26,2-1.81.21.88-1.45,1.19,1.76.52Z"/><path class="cls-5" d="M9.18,78.07l-1.66.25.1.89L9.12,79l.11.67-1.5.16.2,1.76-.77.1-.52-3.94,2.43-.31Zm3.36,2.43-2.33.73L9,77.44l.73-.25,1,3.21,1.61-.52Zm3.37-1.4-.72.31-.63-.72-1.24.57.1.88-.72.31-.31-4.2.77-.31Zm-1.76-.88-1-1.29.16,1.65Zm4.92-.62-.67.31-1.14-2.54,0,2-.42.21-1.45-1.4,1.14,2.54-.67.31L14.3,75.42l.78-.36,1.66,1.56,0-2.28.77-.37Zm3.68-1.4-.73.26-1-2.64-.05,2-.47.15-1.35-1.45,1,2.65-.67.2-1.4-3.73.77-.31,1.61,1.71.05-2.33.83-.26Zm3.42-.88-.78.21-.47-.78-1.34.36,0,.88-.73.21.31-4.2.83-.2Zm-1.61-1.14-.88-1.4-.05,1.66Zm5.13,1h-.78l-.1-2.8-.67,1.86-.52.06-.78-1.87.1,2.8-.72,0-.16-4,.88,0,.94,2.12.83-2.17.83,0Z"/><path class="cls-5" d="M51.09,71.85l-1.2.05L50,75.22l-.78,0L49.07,72l-1.2,0,0-.67L51,71.18Zm3.16-.26-1.82,3.83-.83-.1-.93-4.14.83.1.67,3,1.3-2.74ZM56,76.2,55.13,76l-.05-.88-1.4-.36-.47.78-.83-.21,2.33-3.52.88.2ZM55,74.44l-.1-1.66L54,74.18Zm4.46,3.26-.73-.31,1.14-2.59-1.45,1.4L57.92,76V74l-1.08,2.59-.73-.31,1.61-3.68.83.37v2.33l1.71-1.56.82.37Zm3.83,2-.72-.41.83-1.61L62.07,77l-.88,1.6-.68-.36,1.82-3.52.72.36-.67,1.35,1.35.72.72-1.34.73.41Zm1.35.78a1.58,1.58,0,0,1-.93-1.09A1.88,1.88,0,0,1,64,77.86a2.2,2.2,0,0,1,1.08-1.19,1.77,1.77,0,0,1,1.45.1,1.93,1.93,0,0,1,.94,1.09,2.32,2.32,0,0,1-.26,1.6,2.11,2.11,0,0,1-1.09,1.14,1.6,1.6,0,0,1-1.45-.1m1.55-3.16a.84.84,0,0,0-.77,0,2,2,0,0,0-.73.83,1.78,1.78,0,0,0-.21,1.09.62.62,0,0,0,.42.62.78.78,0,0,0,.83,0,2.14,2.14,0,0,0,.67-.88,1.7,1.7,0,0,0,.26-1,.91.91,0,0,0-.47-.67M70.93,82a6.74,6.74,0,0,1-.78.21h-.52a1.67,1.67,0,0,1-1.24-.73,1.92,1.92,0,0,1-.31-1.55,1.94,1.94,0,0,1,.67-1.45,1.56,1.56,0,0,1,1.35-.41,2.76,2.76,0,0,1,1.24.46l-.1.83h-.11a1.61,1.61,0,0,0-1-.67.94.94,0,0,0-.83.31,1.72,1.72,0,0,0-.41,1,1.8,1.8,0,0,0,.15,1.09,1,1,0,0,0,.73.47,1.87,1.87,0,0,0,.52,0,2.34,2.34,0,0,0,.62-.37H71Z"/><path class="cls-5" d="M20.63,89.2H18.76v.88h1.71v.68H18.76l0,1.76h-.88v-4h2.7Zm2.17,3.11A1.56,1.56,0,0,1,21.35,92a2.27,2.27,0,0,1-.72-1.4,2.53,2.53,0,0,1,.31-1.61,1.63,1.63,0,0,1,1.29-.72,1.79,1.79,0,0,1,1.45.36A2.08,2.08,0,0,1,24.36,90a2.21,2.21,0,0,1-.26,1.56,1.67,1.67,0,0,1-1.3.72m-.47-3.47a.82.82,0,0,0-.67.47,1.73,1.73,0,0,0-.15,1.09,2.11,2.11,0,0,0,.41,1,.86.86,0,0,0,.78.26.71.71,0,0,0,.67-.47,1.4,1.4,0,0,0,.1-1.08,1.86,1.86,0,0,0-.36-1,1,1,0,0,0-.78-.26M27.88,91a2.81,2.81,0,0,1-.73.41,2.1,2.1,0,0,1-.52.21,1.72,1.72,0,0,1-1.45-.26,2.58,2.58,0,0,1-.67-2.95,1.83,1.83,0,0,1,1.24-.88,2.83,2.83,0,0,1,1.35,0l.21.83H27.2A1.62,1.62,0,0,0,26,88.17a.87.87,0,0,0-.67.52,1.63,1.63,0,0,0-.11,1.14,1.9,1.9,0,0,0,.57,1,.77.77,0,0,0,.83.15.92.92,0,0,0,.52-.2,2.51,2.51,0,0,0,.52-.52l.05,0Zm1.66-.11a1.89,1.89,0,0,1-1.51-.2,2.29,2.29,0,0,1-.83-1.35,2.08,2.08,0,0,1,.16-1.61,1.79,1.79,0,0,1,1.19-.88,2.08,2.08,0,0,1,1.5.21,2.33,2.33,0,0,1,.83,1.4,2.06,2.06,0,0,1-.15,1.6,1.58,1.58,0,0,1-1.19.83m-.83-3.42a1.06,1.06,0,0,0-.63.52,2.18,2.18,0,0,0,0,1.14,1.84,1.84,0,0,0,.52,1,.82.82,0,0,0,.78.15.72.72,0,0,0,.62-.52,1.79,1.79,0,0,0,0-1.08,2,2,0,0,0-.46-1,1,1,0,0,0-.83-.21m8.34,2.18-.88.1-.37-.83-1.5.16-.21.88-.88,0,1-4.09.93-.1Zm-1.56-1.35-.67-1.55-.41,1.66Zm4.35,1.09a3.72,3.72,0,0,1-.77.31,1.87,1.87,0,0,1-.52,0,1.81,1.81,0,0,1-1.4-.57,2.28,2.28,0,0,1-.52-1.5,2.43,2.43,0,0,1,.52-1.55,1.85,1.85,0,0,1,1.4-.52,3.16,3.16,0,0,1,1.35.31v.83h-.11a1.72,1.72,0,0,0-1.14-.52,1,1,0,0,0-.83.36,2.24,2.24,0,0,0-.31,1.09,1.74,1.74,0,0,0,.31,1.09,1.13,1.13,0,0,0,.83.36,1.84,1.84,0,0,0,.52-.1,2.39,2.39,0,0,0,.62-.42h.05Zm3.37.47a3.25,3.25,0,0,1-.83.15h-.52a1.91,1.91,0,0,1-1.34-.72,2.3,2.3,0,0,1-.26-1.61,2,2,0,0,1,.67-1.4,1.63,1.63,0,0,1,1.45-.36,3,3,0,0,1,1.3.47l-.11.82h-.1a1.84,1.84,0,0,0-1-.67,1.06,1.06,0,0,0-.88.26,1.79,1.79,0,0,0-.41,1,1.23,1.23,0,0,0,.16,1.08,1,1,0,0,0,.72.47,1.8,1.8,0,0,0,.52,0,1.64,1.64,0,0,0,.67-.36h.11Zm3,.93-2.65-.57.89-3.94,2.59.62-.11.63-1.81-.42-.21.83,1.71.41-.15.63-1.66-.37-.26,1.14,1.76.37Zm3.73.93-.78-.15-.93-3.27-.73,2.8L46.73,91l1-3.88,1,.26.83,2.85.68-2.49.72.21ZM51,92l.83-3.88,1.19.25a2.83,2.83,0,0,1,1.19.47,1.6,1.6,0,0,1,.57.83,2,2,0,0,1,0,1.14,1.72,1.72,0,0,1-.46,1,1.55,1.55,0,0,1-.88.52,2.58,2.58,0,0,1-1.25,0Zm1.5-3.11-.57,2.7.42.1a1.25,1.25,0,0,0,1.61-1.09,1.21,1.21,0,0,0-1-1.6Zm5.39,4.3-2.64-.31.41-4,2.7.31-.1.68-1.82-.21-.1.83,1.71.21-.05.67-1.71-.21-.16,1.14,1.81.21Z"/><path class="cls-1" d="M15.7,59l1.45-.57c0-.73-1-1.14-1.76-.88Z"/><path class="cls-4" d="M38.76,60.92c-5.91,0-10.52-6.48-10.52-14.14h21c0,7.66-4.56,14.14-10.51,14.14"/><path class="cls-6" d="M41.09,29.16h.15s-.1-.77-1.45-.67h-.31s-.15.41-.15.41l.93,0s.62-.05.83.31"/><path class="cls-6" d="M39.59,29.68c0-.05.2-.21.2-.21h.05a.18.18,0,0,0-.05.11.35.35,0,0,0,.26.31h.21a.41.41,0,0,0,.26-.31.18.18,0,0,0-.05-.11.44.44,0,0,1,.31.21l.31.05s-.16-.77-1.45-.57a4.68,4.68,0,0,0-.37.52Z"/><path class="cls-6" d="M36.58,29.68l.31-.05c0-.11.21-.16.31-.21v.1a.28.28,0,0,0,.21.31s.21.06.26,0a.35.35,0,0,0,.21-.31v-.05h0s.15.16.2.16.32.05.26,0l-.31-.47c-1.29-.26-1.5.52-1.5.52"/><path class="cls-6" d="M37.36,28.85l1,0-.1-.41H38c-1.45-.1-1.61.67-1.61.67l.21-.05c.16-.36.78-.26.78-.26"/><path class="cls-7" d="M40.21,39a0,0,0,0,1-.05,0s0,0,.05,0"/><path class="cls-5" d="M40,62.78A14.71,14.71,0,0,0,45,60.5c1.13.11,1.55-.77,2.38-1.24,0,0-.11-.1-.21-.1.47-.31.73-.73,1.24-1.14a.65.65,0,0,0-.41-.11c.78-.26.26-.57,1-1.14-.06-.05-.11-.05-.16-.1.52-.31.47-.78.93-1.24a.6.6,0,0,0-.46-.16c.88-.26.77-.83,1.29-1.4a1.17,1.17,0,0,1-.31,0c.47-.36.31-.88.67-1.45a1.45,1.45,0,0,0-.51,0c.77-.31.67-1,1.08-1.71a.54.54,0,0,0-.31-.1c.57-.57-.2-.37.31-1.61-.15-.1-.31,0-.51.05.62-.52.51-1.14.83-1.92-.37-.1-1.3.57-1.61,1.09V48a1.43,1.43,0,0,1,.57-.57c.93-.67.57-1.3.83-2.18-.47-.05-1.25.68-1.45,1.25,0-.11,0-.16,0-.21a1.66,1.66,0,0,1,.67-.78c.83-.41.57-1.24.83-2.12a1,1,0,0,0-.47.15c.21-.57-.15-1-.1-1.65-.47,0-1,.82-1,1.34-.05,0-.1-.15-.15-.2a1.07,1.07,0,0,1,.46-.73c.78-.93.16-1.45.21-2.33a.33.33,0,0,0-.21,0c0-.41-.36-.72-.41-1.29-.47,0-.88.88-.83,1.45a.71.71,0,0,0-.21-.26,1.43,1.43,0,0,1,.42-.78c.41-.88,0-1.3-.05-2.18-.16,0-.26.11-.42.21,0-.57-.31-.83-.52-1.45-.26,0-.52.42-.67.83a1.59,1.59,0,0,1,.15-.62c0-1.14-.46-1.25-.82-2.13a1.06,1.06,0,0,0-.37.68,4.65,4.65,0,0,0-.88-1.71,2.18,2.18,0,0,0-.31,1.5,1.13,1.13,0,0,1,0-.72,2.9,2.9,0,0,0-1-1.71,1.68,1.68,0,0,0,.67-.32,1.12,1.12,0,0,1-.57-.05c-.26-.1-.41-.36-.62-.46s-.47,0-.88-.26l2.28-.47-2.23-.41a.42.42,0,0,1,.36-.16.93.93,0,0,0,.68-.26,1.22,1.22,0,0,1,1-.36A1.18,1.18,0,0,0,44,29.06c-.31.21-.47.05-1,.05l1.87-1.19-2.23.46c.36-.57.73-.31.93-1a1.74,1.74,0,0,1,.68-.62c-.36-.1-.83.15-1.3.62a3.13,3.13,0,0,1-.72.31c0-.05,1.24-1.92,1.24-1.92s-1.29.94-1.92,1.3l.06-.05c0-.52.41-.42.46-1a1.38,1.38,0,0,1,.42-1c-.52.1-.73.46-.94,1-.1.21-.41.31-.62.57,0,.06.42-2.17.42-2.17L40.1,26.31A.45.45,0,0,1,40,26a.85.85,0,0,0,.16-.72,1.36,1.36,0,0,1,0-1.2c-.73.42-.37,1-.57,1.51-.11.15-.21.41-.32.57l-.36-2.23-.46,2.23c-.26-.37-.11-.52-.26-.83s-.52-.36-.57-1.3c-.16.37-.31.57.1,1.45a5.89,5.89,0,0,1,0,.83l-1.24-1.86.46,2.17c-.26,0-.36-.46-.57-.67s-.78-.21-1-.93c-.11.52.1.77.57,1.24a2.68,2.68,0,0,1,.36.83l-1.92-1.3,1.3,1.92c-.42.05-.47-.52-1.3-.52a1.31,1.31,0,0,1-.78-.36c.26.93.94.67,1.2,1a3.67,3.67,0,0,1,.41.51L33,27.87l1.87,1.24c-.31.16-.73-.26-1.14-.05a1.06,1.06,0,0,1-1.14,0c.47.57.73.46,1.19.46a1.91,1.91,0,0,1,.93.37l-2.22.41,2.22.47c-.25.21-.72.05-1,.31a1,1,0,0,1-1.09.46,1,1,0,0,0,1.24.16,7.66,7.66,0,0,0-.57.57,1,1,0,0,0-.2-.41c-.42.62-.94.67-1.14,1.5a.8.8,0,0,0-.21-.52c-.36.67-.78.78-.93,1.55a.65.65,0,0,0-.26-.41c-.36.83-1,1-.78,2.18a1.07,1.07,0,0,1,0,.67c0-.47-.26-.93-.57-1a3.79,3.79,0,0,0-.62,1.4.45.45,0,0,0-.31-.15c0,.88-.78,1.14-.1,2.17a1.19,1.19,0,0,1,.31.83c-.05,0-.05,0-.11.11.06-.52-.41-1.35-.88-1.4-.05.67-.36.93-.31,1.45a.65.65,0,0,0-.31,0c.11.88-.52,1.24.26,2.12a1.16,1.16,0,0,1,.52.73c-.1.05-.16.1-.16.2-.05-.57-.62-1.29-1-1.29.1.93-.42.93-.11,1.55a.77.77,0,0,0-.46-.1c.26.88-.05,1.55.83,2.07a1.36,1.36,0,0,1,.62.78.18.18,0,0,1,0,.15c-.16-.52-.94-1.24-1.4-1.19.26.73.1,1.45.52,1.87a1.22,1.22,0,0,0-.73-.16c.41.88.16,1.35,1,2.07a.77.77,0,0,0-.72-.1c.26.57.21,1,.41,1.45a.76.76,0,0,0-.36.1c.47.68.31,1.25,1,1.66a.58.58,0,0,0-.42.1c.31.47.36.94.62,1.3a.58.58,0,0,0-.31.16c.57.51.57,1,1.19,1.34a.49.49,0,0,0-.41.16c.41.41.57.83,1,1.14a1.17,1.17,0,0,0-.41.15c.62.47.67,1,1.35,1.19a.65.65,0,0,0-.47.16c.83.62.31.83,1,1.09-.06.05-.11.1-.16.1.83.47.93,1.5,2.75,1.5a10.25,10.25,0,0,0,5,2.28ZM51.09,49.37h0c-.21.57,0,.93-.47,1.34-.36,0-.36.16-.41.26a1.92,1.92,0,0,1,.2-.57c-.1.11-.26.21-.31.36a.59.59,0,0,1-.41-.41c-.26-.47-.11-.67-.16-1.14a6,6,0,0,1,.68,1.09c.1-.42.67-1,.88-.93m-.94.31h0a1.62,1.62,0,0,1,.52-.47,1.56,1.56,0,0,0-.46.62s-.06-.1-.06-.15m1.2-2.23h0c-.26.57-.06.88-.68,1.4-.36.15-.31.2-.41.36a1.64,1.64,0,0,1,.31-.62,1.84,1.84,0,0,0-.42.46.63.63,0,0,1-.41-.31c-.21-.41,0-.67-.05-1.08.2.31.62.62.62.88.15-.42.83-1.09,1-1.09m-1-.52h0a2.1,2.1,0,0,1,.88-1.24c-.21.62.05.88-.41,1.45-.37.21-.32.31-.42.41a2.67,2.67,0,0,1,.21-.62,1.16,1.16,0,0,0-.31.47c-.11,0-.26.05-.47-.26s-.15-.62-.26-1c.31.31.73.57.78.83m-.62-1.35h0c.2.26.36.37.41.57a3,3,0,0,0-.41-.36Zm1.5-1.76h0c-.16.62.1.88-.41,1.4-.37.21-.32.26-.42.42a2.59,2.59,0,0,1,.21-.63c-.11.16-.26.26-.31.47-.11,0-.26,0-.47-.26s-.15-.62-.26-1c.31.32.73.58.78.83a2,2,0,0,1,.88-1.19m-.93-.15h0a1.9,1.9,0,0,1,.62-1.25c-.05.63.26.83-.16,1.45-.31.21-.26.26-.31.42a1.22,1.22,0,0,1,.11-.62,1,1,0,0,0-.26.46.56.56,0,0,1-.52-.2c-.36-.31-.26-.52-.47-.94a6.11,6.11,0,0,1,1,.68M49,51.9h0a.83.83,0,0,1,.11-.36v.05c.2.78.41.78.36,1.3a0,0,0,0,1,0,0,1.78,1.78,0,0,0-.42-1m-.88,3.68h0a3.68,3.68,0,0,0-.26-.77.33.33,0,0,1,.11-.21c0,.52.2.67.15,1m.73-.21h0a2.87,2.87,0,0,0-.78.42l0,0a1.36,1.36,0,0,1,.73-.37m-1.4-1h0a6.41,6.41,0,0,1-4.2-1.19,2,2,0,0,0,.21-1.25c-.1-.26-.1,0-.16.16a1.64,1.64,0,0,1-.62.78A4.73,4.73,0,0,0,41,51.64c-.62-.36-.67-.56-1-.77-.62.26-1.56.83-2,.46-.42-.2.46-.41.78-.93A1,1,0,0,1,39.9,50a13.84,13.84,0,0,1,2.79,1.14,29.87,29.87,0,0,1,4.67,1,3.62,3.62,0,0,0,.93.16,11.32,11.32,0,0,1-.88,2.07M39.9,52.47h0c.51.57,1,.73,1.29,1.4a.32.32,0,0,1-.52.11c-.77-.83-1.45-1-1.19-1.35-.15-.05-.26.15-.26.31.16.57.83.83,1,1.35-.1.41-.93.05-1.3-1v0c-.15.26-.31.42.26,1,.11.26.21.52-.2.46,0,.06-.21,0-.11,0H39c-.06,0-.06,0-.11,0,.21-1-.77-.83-.72-.83.1-.36-.42-.77-1-.52.11-.31-.52-.72-1.29-.41-.16-.31-.83-.57-1.56.26-1.24.1-3.21,1.19-4.45.67a16.35,16.35,0,0,1-.78-2.07c1.4-.1,4.61-.31,5.75-.83a4.67,4.67,0,0,1,3-.62c0,.31-.72.88-.36,1.14a2,2,0,0,0,2.33-.05c.73.72,1.87.83,2.28,1.81l-.1.31c-.26.16-.26.16-.57-.26-.67-.88-1.3-.67-1.4-1.29-.26.05-.1.36-.1.46m-3.27,1.87h0c-.26.1.11-.16.16-.21l.15-.15c.21-.16.47-.47.68-.06.1.26-.73.73-.88.78a.18.18,0,0,1-.26-.05.22.22,0,0,1,.15-.31m-.77-.05h0c-.16,0-.26.05-.32-.11s.16-.41.26-.57a.34.34,0,0,1,.21-.1l.16-.16c.31-.05.31,0,.36.16s-.52.73-.67.78m2.07.1h0s.31-.36.46.16c.06.2-.31.41-.62.51-.2-.1-.62-.05.16-.67M35,53.67h0c-.16,0-.37-.16-.21-.21l.1-.26c.26-.1.37-.21.47-.1s-.26.57-.36.57m-5.39.88h0c-.05.1-.1.15-.16.26.06-.11.06-.21.11-.32s0,.06.05.06m-.26,1h0a1.73,1.73,0,0,0-.47-.31,1,1,0,0,1,.42.21c.05,0,.05,0,.05.1m-1.19-2.8h0c-.05,0-.05,0-.05,0-.05-.47.1-.52.31-1.24.05.1.05.2.1.31-.21.31-.46.67-.36,1m.1-10.1h0c-.1,0-.26.1-.36.16.1-.11.21-.16.36-.31Zm.11,4.3h9.84v2.9a6.14,6.14,0,0,0-1.92,0c-1.76.31-1.19,1.19-7.46,1.3a16.87,16.87,0,0,1-.46-4.2m6.06-14.35h0c.1-.1.2-.1.31-.52.21-.77.67-.67,1.19-1,.21.26-.47,1.08-.88,1.4.26-.06.62.25,1,.41-.41,0-.62.26-1,.16s-.31-.26-.37-.37c.16-.1.21-.26.37-.46a2.58,2.58,0,0,1-.57.41M42,32.32h0a2.46,2.46,0,0,1-.52-.1,5.7,5.7,0,0,0,.68-.31c.41.1.77.31.82.67-.36-.1-.41.1-.93.21s-.77-.16-1.19-.26c-.15-.1-.21-.21-.21-.26h.68v0a1,1,0,0,0,.67,0m-1.61-.62h0a1.39,1.39,0,0,0,.68-.16.64.64,0,0,1-.47,0c.31-.15.52-.41.88-.41.57,0,.57.31.93.16,0,.31-1.6,1-2,.41m-.77-.1h0c.26,0,.52.51.83.83-.42-.16-.63,0-1-.32a.52.52,0,0,1-.26-.46,1.14,1.14,0,0,0,.42-.31,2,2,0,0,1-.57.2c.1-.1.2-.05.36-.41.52-.47.78-.21,1.35-.31,0,.21-.68.67-1.14.78m-1.25.1h0c.26,0,.57.41.88.67-.41,0-.62.11-1-.1a.62.62,0,0,1-.36-.41,1.46,1.46,0,0,0,.36-.42,1,1,0,0,1-.52.31.65.65,0,0,0,.31-.46c.42-.52.63-.31,1.19-.57.06.2-.51.82-.88,1m-.93.78h0c-.41,0-.62.2-1,0s-.31-.26-.37-.37a1.33,1.33,0,0,0,.37-.41,2.12,2.12,0,0,1-.57.36.71.71,0,0,0,.31-.46c.41-.62.72-.47,1.29-.78a2.15,2.15,0,0,1-1,1.09,3.59,3.59,0,0,1,.93.57m7.15,2.07h.16c-.06,0-.06.05-.11.05a0,0,0,0,1,0-.05m3.63,5h0l.31.16a.6.6,0,0,0-.26,0s0,0,0-.11m-5.18,11h0c-1-.21-2.28-1.3-3.73-1.19V46.93h9.84a23.73,23.73,0,0,1-.67,4.71c-2,0-3.84-1.08-5.44-1m6.16-8.08h0a2.41,2.41,0,0,1,.42.31,2.16,2.16,0,0,0-.37-.21.15.15,0,0,1-.05-.1m1.14-1.92h0c0,.62.31.83-.1,1.4-.31.21-.26.31-.37.41a2,2,0,0,1,.11-.57,1.27,1.27,0,0,0-.26.47c-.1,0-.21,0-.52-.21s-.26-.57-.41-1c.36.26.83.46.93.72,0-.41.41-1.19.62-1.24m-.93,0h0c-.1-.42.15-1.19.36-1.24.1.57.42.77.16,1.34-.31.26-.21.37-.26.47a1.3,1.3,0,0,1,0-.62.93.93,0,0,0-.16.52.56.56,0,0,1-.57-.16c-.46-.26-.36-.52-.67-.88a6,6,0,0,1,1.14.57m-.47-3h0c0,.63.42.78.11,1.4-.31.21-.21.31-.26.47a1.3,1.3,0,0,1,0-.62.78.78,0,0,0-.16.46.73.73,0,0,1-.57-.15c-.41-.31-.36-.52-.62-.93a5.8,5.8,0,0,1,1.09.62c0-.42.21-1.19.41-1.25m-.83-1.29h0c.16.62.57.78.37,1.4-.21.26-.16.31-.16.46a2.59,2.59,0,0,1-.1-.62,1,1,0,0,0-.11.52.67.67,0,0,1-.57-.1c-.46-.21-.46-.47-.77-.83.41.21,1,.26,1.19.46-.16-.41,0-1.19.15-1.29m-.46,1h0a.59.59,0,0,0-.31-.26l.31.16ZM47,34.6h0c.26.57.47.52.42,1.3a.66.66,0,0,0,0,.57,2.8,2.8,0,0,1-.26-.63,2,2,0,0,0,.05.57c-.1.06-.15.21-.47.11s-.51-.42-.82-.68c.41.06.88-.05,1.08.16a1.9,1.9,0,0,1,0-1.4m-1,.31h0a2.16,2.16,0,0,1-.16-1.34c.36.51.57.41.62,1.13a.92.92,0,0,0,0,.57,2.14,2.14,0,0,1-.26-.57,1,1,0,0,0,.11.57.55.55,0,0,1-.52.16c-.47,0-.52-.31-.88-.52.41,0,.88-.15,1.09,0M44.4,32.27h0c.31.52.68.47.78,1.24-.1.37,0,.37,0,.52a4,4,0,0,1-.31-.52A1.65,1.65,0,0,0,45,34c-.11,0-.16.21-.52.16s-.57-.26-.94-.47c.42,0,.94-.15,1.14,0-.25-.36-.46-1.24-.31-1.4m-.26-.41h0c0,.05,0,.1,0,.2-.1-.1-.15-.2-.26-.26.11,0,.21.06.31.06m-.15.51h0a.72.72,0,0,0,.1.57H44a1.6,1.6,0,0,1-.31-.46,1.32,1.32,0,0,0,.15.57c0,.1-.1.15-.31.15a1.4,1.4,0,0,1-.93-.2c.41-.16.57-.37,1-.26a.22.22,0,0,1,0-.11.67.67,0,0,0-.36-.41,1.42,1.42,0,0,1-.21-.78c.42.42.83.26,1,.93m-.36-1h-.47a.76.76,0,0,1-.21-.16,4.63,4.63,0,0,1,.68.16m-8.5-.42h0a1.11,1.11,0,0,0,.52-.31l-1.35-.36L35.7,30s-.05-.1-.83-.36c-.15-.05,0-.21-.72-.31.26-.05.15.05.62.1a3.73,3.73,0,0,0,1-.05,14.41,14.41,0,0,0-1.39-.93s.93.26,1.65.41c0-.05-.57-.47-.93-.93a3.88,3.88,0,0,0-.26-.31c.42.15.42.31.62.41a5,5,0,0,0,.88.36c-.41-.62-1-1.45-1-1.45l1.45,1c-.05-.36-.36-.67-.36-.78-.16-.62-.11-.57-.26-.78.41.57.52.89,1.14,1.25l-.26-1.82.83,1.61a2.3,2.3,0,0,0,0-.83c.1-.83.1-.31,0-.93,0,.36,0,.31.1.67s.31.62.47.94l.36-1.66s.31,1.66.26,1.66a7.46,7.46,0,0,1,.31-.78,4.27,4.27,0,0,0,.36-.83,5,5,0,0,0-.15.83c0,.36,0,.83,0,.88l1-1.45-.42,1.71c.1,0,.57-.57.93-.83a3,3,0,0,0,.31-.42,2.46,2.46,0,0,0-.41.78,2.89,2.89,0,0,0-.36.83l1.5-1-1,1.39s.11.06.78-.31a2.89,2.89,0,0,0,.88-.41c-.47.47-.67.41-1.29,1.24l1.6-.36s-1.34.83-1.4.88.62-.05,1,0a1.36,1.36,0,0,0,.78-.05c-.47.15-.57.1-1,.26a2.51,2.51,0,0,0-.67.36l1.65.31s-1.6.36-1.91.47H41.4c-.1,0-.16,0-.21.05a1.06,1.06,0,0,0,.05-.36,11.43,11.43,0,0,0-1.5.1.44.44,0,0,0,0-.36c-.67.31-1.24.2-1.81.62a.69.69,0,0,0-.11-.42c-.57.32-1.08.11-1.5.47v-.31c-.62.26-1.14.31-1.55.78-.16,0-.26-.05-.42-.05,0,0,0-.06-.05-.06s0,.06,0,.06H34a4.85,4.85,0,0,0,1.14-.37m-2,2h0c.21-.62.57-.57,1-1a1.74,1.74,0,0,1-.52,1.24c.26,0,.67.21,1.14.26-.42.16-.52.36-1,.31-.31,0-.36-.21-.46-.26a1.84,1.84,0,0,0,.2-.46,3.39,3.39,0,0,1-.41.46.72.72,0,0,0,.1-.57m.93.11Zm-2,.77h0c.1-.72.41-.67.77-1.19.16.16,0,1-.31,1.4.26-.16.73,0,1.14.05-.41.16-.46.47-.93.47a.69.69,0,0,1-.47-.16c.05-.21.05-.36.11-.57a2.21,2.21,0,0,1-.31.57,1,1,0,0,0,0-.57m-.26.57h0a2.83,2.83,0,0,1-.11.31c.06,0,.06-.2.11-.31m-.94.42h0c.11-.78.32-.68.63-1.19a2.16,2.16,0,0,1-.16,1.34c.21-.15.67,0,1.09,0-.36.21-.42.52-.88.52a.57.57,0,0,1-.47-.1,2.39,2.39,0,0,0,.11-.57,1.74,1.74,0,0,1-.32.57c.06-.16.11-.21,0-.57m-.51-.06h0a2.21,2.21,0,0,1,0,1.4c.2-.15.67-.1,1.08-.15-.36.26-.41.57-.82.67a.65.65,0,0,1-.52-.1,1.07,1.07,0,0,0,.05-.57,1.21,1.21,0,0,1-.21.62c0-.16.11-.21-.05-.57,0-.73.21-.73.47-1.3m-.68,2.54h0a.28.28,0,0,1,.21-.1c-.1,0-.16.1-.26.16s0,0,0-.06m-.46-.83h0c.2.06.31.89.15,1.25.16-.21.73-.31,1.19-.47-.36.31-.31.57-.83.83-.36.16-.46,0-.51.1a1.53,1.53,0,0,0-.11-.51,1.1,1.1,0,0,1-.15.57c0-.11.1-.16-.16-.47-.15-.57.26-.73.42-1.3M28.34,39h0c-.31-.57.06-.77.11-1.34.2.05.46.77.41,1.19.16-.21.68-.36,1.09-.62-.26.36-.21.62-.62.93a.78.78,0,0,1-.57.16.78.78,0,0,0-.16-.47,1.1,1.1,0,0,1,0,.57.76.76,0,0,0-.26-.42m.94.57h0c-.06.06-.06.11-.11.16a1.57,1.57,0,0,0-.46.21,2.56,2.56,0,0,1,.57-.37m-1.56-.2h0c.21.05.47.83.42,1.24.15-.21.67-.36,1-.57-.26.36-.15.57-.62.88-.31.21-.41.11-.52.16a1.52,1.52,0,0,0-.15-.52,1.36,1.36,0,0,1-.05.62.44.44,0,0,0-.21-.47c-.31-.62.05-.77.1-1.34M27.31,42h0c-.42-.52-.11-.78-.16-1.35.26,0,.62.78.62,1.19.11-.26.63-.46,1-.72-.21.41-.11.62-.47,1a1.08,1.08,0,0,1-.52.21,1.41,1.41,0,0,0-.25-.47,1.08,1.08,0,0,1,.1.57.58.58,0,0,0-.31-.41m-.62.41h0a2,2,0,0,1,.62,1.25c.1-.26.57-.42.93-.68-.15.37,0,.63-.41.94a.67.67,0,0,1-.52.15,1.15,1.15,0,0,0-.26-.41,1,1,0,0,1,.1.57.57.57,0,0,0-.31-.42c-.41-.57-.1-.77-.15-1.4m.62,3h0c0-.16-.21-.26-.31-.42a1.92,1.92,0,0,1,.2.57c-.1-.1-.05-.21-.41-.36-.47-.52-.31-.67-.47-1.24.26,0,.78.62.88,1,.11-.26.52-.52.83-.83-.15.42.06.63-.26,1s-.36.26-.46.26m.57.15h0v.21a1.68,1.68,0,0,0-.47.36c.11-.26.26-.31.47-.57m-1.56.21h0a1.73,1.73,0,0,1,.88,1.09c.11-.26.52-.47.78-.78-.1.41.05.62-.21,1s-.36.21-.46.26a1.25,1.25,0,0,0-.31-.46,2.8,2.8,0,0,1,.2.62c-.1-.16-.05-.21-.41-.42-.47-.57-.26-.67-.47-1.29m.88,2.17h0V48a1.67,1.67,0,0,0-.51-.62.87.87,0,0,1,.51.56m-.93-.41h0a1.88,1.88,0,0,1,1,.93c0-.26.36-.57.57-.88,0,.42.2.62-.06,1s-.31.26-.36.31a1.64,1.64,0,0,0-.41-.42,1.33,1.33,0,0,1,.31.57c-.11-.1,0-.2-.42-.36-.88-.78.06.26-.62-1.19m1.14,2.07h0c-.05,0-.05,0-.05.11a2,2,0,0,0-.57-.63,3.45,3.45,0,0,1,.62.52m-.05.57h0A5.64,5.64,0,0,1,28,49.05c-.1.47.11.68-.15,1.14s-.31.32-.42.42a.9.9,0,0,0-.31-.36,1.61,1.61,0,0,1,.21.57c-.05-.11-.05-.21-.36-.31-.52-.37-.31-.57-.52-1.14.21-.06.78.41.88.77m-.78.57h0c.21-.1.88.37,1,.73a4.74,4.74,0,0,1,.52-1.14c0,.46.2.62.05,1.09s-.31.41-.36.46a1.19,1.19,0,0,0-.42-.26,1.51,1.51,0,0,1,.36.47.72.72,0,0,0-.46-.21c-.57-.31-.42-.62-.73-1.14m1.66,2.49h0a4.6,4.6,0,0,1,.47-1.14c0,.41.2.57.05,1.09a.56.56,0,0,1-.31.41A1.19,1.19,0,0,0,28,53.3a1.71,1.71,0,0,1,.37.47c-.16-.05-.16-.16-.52-.16-.57-.31-.42-.67-.73-1.19.21-.05.88.42,1.09.78m-.72.62h0a1.63,1.63,0,0,1,1.24.57c-.05-.26.21-.72.26-1.19.15.41.36.52.26,1,0,.36-.16.41-.26.46a1.14,1.14,0,0,0-.47-.21,1.89,1.89,0,0,1,.47.42c-.16,0-.16-.16-.52-.1-.67-.21-.57-.57-1-1m.77,1.5h0a1.92,1.92,0,0,1,1.25.62c-.06-.25.2-.67.31-1.13.1.46.31.56.2,1s-.2.36-.26.47a.87.87,0,0,0-.46-.21.81.81,0,0,1,.41.41c-.1-.1-.15-.2-.52-.15-.67-.21-.51-.57-.93-1m.57,1.3h0a2.2,2.2,0,0,1,1.4.36c-.1-.21,0-.67.1-1.09.16.37.42.47.42.94a.46.46,0,0,1-.21.46,1.55,1.55,0,0,0-.52-.1,1,1,0,0,1,.52.31c-.15,0-.15-.16-.57,0-.67-.11-.62-.47-1.14-.83m2,1.24h0a.33.33,0,0,0,.05.21,1.67,1.67,0,0,0-.72-.31,2.7,2.7,0,0,1,.67.1M29.69,58h0a2.39,2.39,0,0,1,1.4.46c-.1-.21.1-.67.16-1.09.15.42.41.52.36,1s-.16.36-.21.46a1.53,1.53,0,0,0-.52-.2,1.61,1.61,0,0,1,.52.36.68.68,0,0,0-.57-.1c-.72-.16-.67-.52-1.14-.88m3.11,2.17h0a.63.63,0,0,0-.57-.15c-.78-.06-1-.57-1.5-.89a2.41,2.41,0,0,1,1.45.32c-.16-.21,0-.68,0-1.09.25.36.51.41.57.88s0,.57.15.83c-.1-.16-.26-.21-.41-.31a2.64,2.64,0,0,1,.36.41m4,2h0a7.62,7.62,0,0,1-3.47-1.87,3.78,3.78,0,0,1-.26-1.08V59.1a8.91,8.91,0,0,0,3.83,2h-.15c-.47.56-.21.88,0,1m1.92-1.35h0c-4.51,0-7.21-3.78-8.24-5.54-.16-.21,2.59-1.09,3.21-1.24l.78-.21c0,.36.57.47.57.31.1.1-.05.31.26.57s.62.1.67,0c-.26.26.52.67,1,.36,0,.26.31.31.42.36a1.19,1.19,0,0,0,.88,0v2.49c0,.47,0,.57.26.67,1,.06.83-.25.93-.56,0-1.09-.1-2.65-.1-2.6.72-.1.51-.25.83-.36.25.05.41.05.67-.31a.65.65,0,0,0,.78-.36c.31.1.72-.16,1-.73.67.21,3.11,1.51,4.25,1.87-.52.83-3.32,5.28-8.13,5.28m7.87-2.59h0a1,1,0,0,1,.41-.1,1.67,1.67,0,0,0-.46.21c0-.06,0-.06,0-.11m-1.09,1.09h0a0,0,0,0,0-.05.05,0,0,0,0,1,.05-.05m-1.19.1h0a7.85,7.85,0,0,1-.21,1c-.41.78-2.48,1.45-3.36,1.76.25-.26.41-.73.05-1h-.11a8.82,8.82,0,0,0,3.63-1.87Zm1,.73h0a.85.85,0,0,0-.73.26,2,2,0,0,1,.42-.47,1,1,0,0,0-.42.21,2.92,2.92,0,0,1,0-.67c.1-.47.36-.52.62-.89,0,.42.11.89,0,1.09a3,3,0,0,1,1.5-.26c-.57.31-.57.68-1.34.73m1.19-1h0a.78.78,0,0,0-.57.11,1.23,1.23,0,0,1,.57-.36A1.05,1.05,0,0,0,46,59c-.05-.1-.21-.1-.21-.47s.26-.56.41-1c.06.42.26.88.16,1.14a2.26,2.26,0,0,1,1.4-.52c-.47.42-.42.78-1.19.93m.88-1.34h0a1.33,1.33,0,0,0-.57.05,1.67,1.67,0,0,1,.52-.31.89.89,0,0,0-.52.15.67.67,0,0,1-.21-.51c-.05-.47.26-.57.42-1,.05.47.2.93.1,1.14.36-.26,1.19-.52,1.4-.36-.52.36-.42.72-1.14.83m.78-1.09h0a.59.59,0,0,0-.52.1,1.24,1.24,0,0,1,.46-.41,1.37,1.37,0,0,0-.51.21.58.58,0,0,1-.26-.47c-.11-.47.1-.57.2-1,.11.47.42.88.37,1.2.26-.37,1-.73,1.24-.63-.41.42-.31.78-1,1m.88-1.61h0c-.42-.05-.42.06-.52.11a1.64,1.64,0,0,1,.41-.42,1.2,1.2,0,0,0-.46.26.82.82,0,0,1-.26-.52c-.11-.51.15-.62.26-1,.1.41.36.88.26,1.14a1.91,1.91,0,0,1,1.29-.52c-.41.41-.36.78-1,1m.57-1.24h0c-.37,0-.37.1-.47.21a1.93,1.93,0,0,1,.36-.52,1.27,1.27,0,0,0-.41.31c-.11-.1-.26-.1-.36-.47s.05-.67.1-1.08a6.15,6.15,0,0,1,.47,1.14c.2-.37.88-.83,1.08-.78-.31.52-.15.88-.77,1.19m.15-1.19h0a.3.3,0,0,1,.26-.16c0,.06-.16.06-.26.16m.47-.57h0c-.37,0-.37.15-.47.21a1.11,1.11,0,0,1,.36-.47.68.68,0,0,0-.41.26.88.88,0,0,1-.36-.47c-.16-.51,0-.67,0-1.14.15.47.52.94.52,1.19.15-.36.83-.88,1-.77-.31.52-.1.88-.72,1.19"/><path class="cls-4" d="M35.13,30.92a1.66,1.66,0,0,0,.57-.31l-1.4-.36L35.7,30s-.05-.1-.83-.36c-.15-.05,0-.21-.72-.31.26-.05.15.05.62.1a3.73,3.73,0,0,0,1-.05,14.41,14.41,0,0,0-1.39-.93s.93.26,1.65.41a12.26,12.26,0,0,1-.93-.93c-.1-.1-.15-.21-.26-.31.42.15.42.31.62.41a5.11,5.11,0,0,0,.88.37c-.41-.63-1-1.46-1-1.46l1.45,1c-.05-.36-.36-.67-.36-.78-.16-.62-.11-.57-.26-.78.41.57.52.89,1.14,1.25l-.26-1.82.83,1.61a2.3,2.3,0,0,0,0-.83c.1-.83.1-.31,0-.93a3.1,3.1,0,0,1,.1.67c.16.37.31.62.47.94l.36-1.66s.31,1.66.26,1.66a7.46,7.46,0,0,1,.31-.78,4.27,4.27,0,0,0,.36-.83,5,5,0,0,0-.15.83,3.59,3.59,0,0,0,0,.88l1-1.45-.42,1.71c.1,0,.57-.57.93-.83a3,3,0,0,0,.31-.42,2.46,2.46,0,0,0-.41.78,2.89,2.89,0,0,0-.36.83l1.5-1-1,1.4s.11.05.78-.32a2.67,2.67,0,0,0,.88-.41c-.47.47-.67.41-1.29,1.24l1.6-.36s-1.34.83-1.4.88.62-.05,1,0a1.36,1.36,0,0,0,.78-.05c-.47.15-.57.1-1,.26a2.51,2.51,0,0,0-.67.36l1.65.31s-1.6.36-1.91.47H41.4c-.1,0-.16,0-.21.05a1.06,1.06,0,0,0,.05-.36,13.47,13.47,0,0,0-1.5.1.45.45,0,0,0,0-.36c-.67.31-1.24.21-1.81.62a1.3,1.3,0,0,0,0-.41c-.63.31-1.14.1-1.56.46v-.31c-.62.26-1.14.31-1.55.78-.16,0-.26-.05-.42-.05,0,0,0-.06-.05-.06s0,.06,0,.06H34a4.85,4.85,0,0,0,1.14-.37"/><path class="cls-5" d="M41.09,29.16h.15s-.1-.77-1.45-.67h-.31l-.15.41.93,0s.62-.05.83.31"/><path class="cls-5" d="M39.59,29.68c0-.05.2-.21.2-.21h.05a.18.18,0,0,0-.05.11.35.35,0,0,0,.26.31h.21a.41.41,0,0,0,.26-.31.18.18,0,0,0-.05-.11.44.44,0,0,1,.31.21l.31.05s-.16-.77-1.45-.57a4.68,4.68,0,0,0-.37.52Z"/><path class="cls-5" d="M36.58,29.68l.31-.05c0-.11.21-.16.31-.21v.1a.28.28,0,0,0,.21.31s.21.06.26,0a.35.35,0,0,0,.21-.31v-.05h0l.2.16c0,.05.32.05.26,0l-.31-.47c-1.29-.26-1.5.52-1.5.52"/><path class="cls-5" d="M37.36,28.85l1,0-.1-.41H38c-1.45-.1-1.61.67-1.61.67l.21-.05c.21-.36.78-.26.78-.26"/><path class="cls-4" d="M51.09,49.37c-.21.57,0,.93-.47,1.34-.36,0-.36.16-.41.26a1.18,1.18,0,0,1,.25-.57c-.15.11-.31.21-.36.36-.1,0-.21,0-.41-.41s-.11-.67-.16-1.14a6,6,0,0,1,.68,1.09c.1-.42.67-1,.88-.93"/><path class="cls-4" d="M51.35,47.45c-.26.57-.06.88-.68,1.4-.36.15-.31.2-.41.36a1.64,1.64,0,0,1,.31-.62,1.84,1.84,0,0,0-.42.46c-.1,0-.26,0-.41-.31s0-.67-.05-1.08c.26.31.62.67.62.88.21-.42.83-1.09,1-1.09"/><path class="cls-4" d="M50.31,46.93a2.38,2.38,0,0,1,.88-1.24c-.16.62.05.88-.42,1.45-.36.2-.31.31-.41.41a2.52,2.52,0,0,1,.21-.62,2.12,2.12,0,0,0-.31.47c-.11-.06-.26.05-.47-.26s-.15-.62-.26-1c.31.31.73.57.78.83"/><path class="cls-4" d="M51.19,43.82c-.16.62.1.88-.41,1.4-.37.21-.32.26-.42.42a2.59,2.59,0,0,1,.21-.63c-.11.16-.26.26-.31.47-.11,0-.26,0-.47-.26s-.15-.62-.26-1c.31.31.73.57.83.82a2,2,0,0,1,.83-1.19"/><path class="cls-4" d="M50.26,43.67a1.9,1.9,0,0,1,.62-1.25c-.05.63.26.83-.16,1.45-.31.21-.26.26-.31.42a1.22,1.22,0,0,1,.11-.62,1.79,1.79,0,0,0-.26.46.54.54,0,0,1-.52-.2c-.36-.31-.26-.52-.47-.94.37.26.88.47,1,.68"/><path class="cls-4" d="M34.51,32.58a1.08,1.08,0,0,0,.26-.52c.2-.77.67-.67,1.19-1,.21.26-.47,1.09-.88,1.4.26-.06.62.26,1,.41-.41,0-.62.26-1,.16s-.31-.26-.37-.37a1.16,1.16,0,0,0,.37-.46,2,2,0,0,1-.52.41"/><path class="cls-4" d="M42,32.32a1.65,1.65,0,0,1-.47-.1,2.47,2.47,0,0,0,.63-.31c.46.1.82.31.82.67-.36-.1-.41.11-.93.21s-.77-.16-1.19-.26c-.15-.1-.21-.21-.21-.26h.68v0a1,1,0,0,0,.67,0"/><path class="cls-4" d="M40.47,31.7a1.45,1.45,0,0,0,.62-.15.76.76,0,0,1-.47,0c.31-.16.52-.42.93-.42s.52.31.89.16c0,.31-1.56,1-2,.41"/><path class="cls-4" d="M39.64,31.6c.26,0,.52.51.83.83-.42-.16-.63,0-1-.32s-.21-.36-.26-.46a1.14,1.14,0,0,0,.42-.31,2,2,0,0,1-.57.2c.1-.1.2-.05.36-.41.52-.47.78-.21,1.35-.31,0,.21-.68.72-1.14.78"/><path class="cls-4" d="M38.39,31.7c.26.05.57.42.94.67-.47,0-.68.16-1-.1a.6.6,0,0,1-.36-.41,3.29,3.29,0,0,0,.41-.42,1.14,1.14,0,0,1-.57.31.65.65,0,0,0,.31-.46c.47-.52.68-.31,1.25-.57a2.07,2.07,0,0,1-.94,1"/><path class="cls-4" d="M50.36,40.61c0,.62.31.83-.1,1.4a1.19,1.19,0,0,0-.37.47,2.36,2.36,0,0,1,.11-.63.75.75,0,0,0-.21.47c-.15,0-.26,0-.52-.21-.41-.36-.31-.57-.46-1,.36.26.83.46,1,.72,0-.41.36-1.19.57-1.24"/><path class="cls-4" d="M49.43,40.56c-.11-.42.15-1.19.36-1.24.1.57.42.77.16,1.39-.31.21-.21.31-.26.42a1.1,1.1,0,0,1,0-.57.78.78,0,0,0-.16.46.56.56,0,0,1-.57-.15c-.46-.26-.36-.52-.62-.88.36.21.93.36,1.09.57"/><path class="cls-4" d="M49,37.55c0,.63.42.78.11,1.4a.69.69,0,0,0-.26.47,1.3,1.3,0,0,1,0-.62.78.78,0,0,0-.16.46.73.73,0,0,1-.57-.15c-.41-.31-.36-.52-.62-.93.41.26.93.41,1.09.62,0-.42.21-1.19.41-1.25"/><path class="cls-4" d="M48.13,36.31c.16.57.57.73.37,1.35-.21.26-.11.36-.16.46a2.59,2.59,0,0,1-.1-.62,2.43,2.43,0,0,0-.11.52.67.67,0,0,1-.57-.1c-.46-.21-.46-.47-.77-.83.41.2,1,.26,1.19.52-.16-.42,0-1.25.15-1.3"/><path class="cls-4" d="M47,34.6c.26.57.47.52.42,1.3-.11.36,0,.41,0,.57a1.25,1.25,0,0,1-.21-.63,1.1,1.1,0,0,0,0,.57c-.1.06-.15.21-.47.11s-.51-.42-.82-.68c.41.06.88,0,1.08.16a1.9,1.9,0,0,1,0-1.4"/><path class="cls-4" d="M46,34.91a1.8,1.8,0,0,1-.11-1.34c.31.51.52.41.57,1.14a.94.94,0,0,0,0,.57,2.48,2.48,0,0,1-.26-.57,1,1,0,0,0,.11.57.58.58,0,0,1-.52.15c-.47,0-.52-.31-.88-.52.41,0,.88-.15,1.09,0"/><path class="cls-4" d="M44.4,32.27c.37.52.68.47.78,1.24-.1.37,0,.42,0,.52a1.78,1.78,0,0,1-.36-.52A1.33,1.33,0,0,0,45,34c-.11,0-.16.21-.52.16s-.57-.26-.94-.47c.42,0,.94-.15,1.14,0-.25-.36-.46-1.19-.31-1.4"/><path class="cls-4" d="M44,32.37a.72.72,0,0,0,.1.57H44a1.6,1.6,0,0,1-.31-.46,1.88,1.88,0,0,0,.15.62s-.1.1-.31.1a1.4,1.4,0,0,1-.93-.2c.41-.16.57-.37,1-.26a.22.22,0,0,1,0-.11.83.83,0,0,0-.36-.41,1.42,1.42,0,0,1-.21-.78c.42.42.83.26,1,.93"/><path class="cls-4" d="M33.21,32.94c.16-.67.52-.62.94-1a1.93,1.93,0,0,1-.52,1.29c.26-.1.72.16,1.14.26-.42.11-.52.36-1,.26a.87.87,0,0,1-.51-.26,1.84,1.84,0,0,0,.2-.46,2.41,2.41,0,0,1-.36.46c0-.15.1-.15.1-.52"/><path class="cls-4" d="M32.13,33.77c.1-.72.46-.67.82-1.19a2.27,2.27,0,0,1-.36,1.4c.26-.16.73,0,1.14.05-.41.16-.46.47-.93.47a.69.69,0,0,1-.47-.16,1.86,1.86,0,0,0,.11-.57,2.21,2.21,0,0,1-.31.57,1,1,0,0,0,0-.57"/><path class="cls-4" d="M31,34.76c.05-.78.25-.68.57-1.2a2.16,2.16,0,0,1-.16,1.35,3.9,3.9,0,0,1,1.09,0c-.36.21-.42.52-.88.52s-.37-.1-.47-.1a2.36,2.36,0,0,0,.1-.57,1.23,1.23,0,0,1-.31.57.61.61,0,0,0,.06-.57"/><path class="cls-4" d="M30.42,34.7a1.91,1.91,0,0,1,0,1.4c.2-.15.67-.1,1.08-.15-.36.26-.36.57-.82.67a.48.48,0,0,1-.52-.1.74.74,0,0,0,.05-.57,1.18,1.18,0,0,1-.21.62A.73.73,0,0,0,30,36c0-.73.21-.73.47-1.3"/><path class="cls-4" d="M29.28,36.41c.2.06.31.89.15,1.25a3.91,3.91,0,0,1,1.19-.47c-.36.31-.31.57-.77.83s-.47,0-.57.1a.79.79,0,0,0-.11-.51,2.76,2.76,0,0,1-.1.62c-.05-.16.05-.21-.16-.47-.2-.62.21-.78.37-1.35"/><path class="cls-4" d="M28.34,39c-.26-.57.06-.77.11-1.34.2.05.46.77.41,1.24.16-.26.68-.41,1.09-.67-.26.41-.21.62-.62.93a.75.75,0,0,1-.57.16.78.78,0,0,0-.16-.47,1.1,1.1,0,0,1,0,.57c-.05-.1,0-.16-.26-.42"/><path class="cls-4" d="M27.77,39.37a1.85,1.85,0,0,1,.37,1.24c.15-.21.67-.36,1.09-.57-.32.36-.21.57-.68.88-.31.21-.41.11-.52.16a.89.89,0,0,0-.15-.52,1.36,1.36,0,0,1-.05.62.44.44,0,0,0-.21-.47c-.31-.62.05-.77.15-1.34"/><path class="cls-4" d="M27.31,42c-.42-.52-.11-.78-.11-1.35.21.05.57.78.57,1.19.11-.25.63-.46,1-.72-.21.41-.11.62-.47,1a1.08,1.08,0,0,1-.52.21.82.82,0,0,0-.26-.47,1,1,0,0,1,.11.57.58.58,0,0,0-.31-.41"/><path class="cls-4" d="M26.69,42.42a2,2,0,0,1,.62,1.25c.1-.26.57-.42.93-.68-.15.37,0,.62-.41.94a1.44,1.44,0,0,1-.52.2,1,1,0,0,0-.26-.46,1,1,0,0,1,.1.57.57.57,0,0,0-.31-.42c-.41-.57-.1-.77-.15-1.4"/><path class="cls-4" d="M27.31,45.43A1,1,0,0,0,27,45a1.81,1.81,0,0,1,.2.62c-.1-.15-.05-.26-.41-.41-.47-.52-.26-.67-.47-1.24.26,0,.83.62.88,1,.11-.26.52-.52.83-.83-.1.42,0,.63-.26,1a.62.62,0,0,1-.46.31"/><path class="cls-4" d="M26.32,45.74c.26,0,.83.67.88,1.09.11-.26.52-.47.78-.78-.1.41.1.62-.21,1s-.36.21-.46.26a1.25,1.25,0,0,0-.31-.46,2.8,2.8,0,0,1,.2.62c-.1-.1-.05-.21-.41-.42-.47-.57-.26-.67-.47-1.29"/><path class="cls-4" d="M26.27,47.5a1.88,1.88,0,0,1,1,.93c0-.26.36-.57.57-.88,0,.42.2.62-.06,1s-.31.26-.36.31a1.64,1.64,0,0,0-.41-.42,1.33,1.33,0,0,1,.31.57c-.11-.1,0-.2-.42-.36-.88-.78.05.26-.62-1.19"/><path class="cls-4" d="M27.36,50.14A5.64,5.64,0,0,1,28,49.05c-.05.47.11.68-.15,1.14s-.31.32-.42.42a.9.9,0,0,0-.31-.36,3.84,3.84,0,0,1,.26.57.65.65,0,0,0-.41-.31c-.52-.37-.31-.57-.52-1.14.21-.06.78.41.88.77"/><path class="cls-4" d="M26.58,50.71c.21-.1.88.37,1,.78a4.2,4.2,0,0,1,.52-1.19c0,.46.2.62.05,1.09s-.31.41-.36.46a1.19,1.19,0,0,0-.42-.26,1.51,1.51,0,0,1,.36.47.72.72,0,0,0-.46-.21c-.57-.26-.42-.62-.73-1.14"/><path class="cls-4" d="M28.24,53.2a5.52,5.52,0,0,1,.47-1.14c.05.41.26.57.05,1.09-.11.36-.26.36-.31.46A1.48,1.48,0,0,0,28,53.3a3,3,0,0,1,.37.47c-.16-.05-.11-.16-.47-.16-.62-.31-.47-.67-.78-1.19.21-.05.88.42,1.09.78"/><path class="cls-4" d="M27.52,53.82a1.63,1.63,0,0,1,1.24.57c-.05-.26.21-.72.26-1.19.15.41.36.57.31,1a.56.56,0,0,1-.26.46.91.91,0,0,0-.52-.15c.21.05.31.2.47.36-.16,0-.16-.16-.52-.11-.67-.15-.57-.56-1-1"/><path class="cls-4" d="M28.29,55.32a2.15,2.15,0,0,1,1.25.63c-.06-.26.2-.68.31-1.14.1.46.31.57.2,1s-.2.36-.26.47a.87.87,0,0,0-.46-.21.81.81,0,0,1,.41.41c-.1-.1-.1-.2-.46-.15-.73-.21-.57-.57-1-1"/><path class="cls-4" d="M28.86,56.62a2.13,2.13,0,0,1,1.4.36c-.1-.21,0-.67.1-1.09.16.37.47.47.42.94a.46.46,0,0,1-.21.46,1.55,1.55,0,0,0-.52-.1,1,1,0,0,1,.52.31c-.1,0-.15-.16-.52,0-.72-.11-.67-.47-1.19-.83"/><path class="cls-4" d="M29.69,58a2.3,2.3,0,0,1,1.4.46c-.1-.21.1-.67.15-1.09.16.42.42.52.37,1s-.16.36-.21.46a1.61,1.61,0,0,0-.52-.2,1.73,1.73,0,0,1,.52.36.71.71,0,0,0-.57-.1c-.73-.16-.62-.52-1.14-.88"/><path class="cls-4" d="M32.8,60.14a.57.57,0,0,0-.57-.15c-.78-.06-.93-.52-1.5-.89a2.41,2.41,0,0,1,1.45.32c-.16-.21,0-.68,0-1.09.26.36.51.46.62.88s0,.62.1.83a2.31,2.31,0,0,0-.41-.31c.15.15.26.31.36.41"/><path class="cls-4" d="M45.34,60.09a.84.84,0,0,0-.73.26,2.22,2.22,0,0,1,.41-.47,1.06,1.06,0,0,0-.41.21v-.67c.1-.47.36-.52.62-.88,0,.41.11.88,0,1.08a3,3,0,0,1,1.5-.26c-.57.32-.57.68-1.34.73"/><path class="cls-4" d="M46.53,59.1a.78.78,0,0,0-.57.11,1.23,1.23,0,0,1,.57-.36A1.05,1.05,0,0,0,46,59c-.05-.1-.21-.1-.21-.46s.26-.57.41-1c.06.47.26.88.16,1.14a2.26,2.26,0,0,1,1.4-.52c-.47.42-.42.78-1.19.93"/><path class="cls-4" d="M47.41,57.76a1.33,1.33,0,0,0-.57.05,1.67,1.67,0,0,1,.52-.31.89.89,0,0,0-.52.15.67.67,0,0,1-.21-.51c-.05-.47.26-.57.42-1,.05.47.25.93.15,1.19.31-.31,1.19-.57,1.35-.41-.47.36-.42.72-1.14.83"/><path class="cls-4" d="M48.19,56.67a.65.65,0,0,0-.52.1,1.81,1.81,0,0,1,.46-.41,1.37,1.37,0,0,0-.51.21c-.06-.06-.21-.06-.26-.47s.15-.57.2-1c.16.47.42.89.37,1.2.26-.37,1-.73,1.24-.63-.41.42-.31.78-1,1"/><path class="cls-4" d="M49.07,55.06c-.42-.05-.42.06-.52.11a1.64,1.64,0,0,1,.41-.42,1.2,1.2,0,0,0-.46.26.82.82,0,0,1-.26-.52c-.11-.51.15-.62.26-1,.1.41.36.88.25,1.19a1.81,1.81,0,0,1,1.3-.57c-.41.41-.31.78-1,1"/><path class="cls-4" d="M49.64,53.82c-.37,0-.37.16-.47.21a1.18,1.18,0,0,1,.36-.47.73.73,0,0,0-.41.26.88.88,0,0,1-.37-.47c-.15-.51.06-.62.11-1.08a6,6,0,0,1,.46,1.14c.21-.37.89-.83,1.09-.78-.31.52-.15.88-.77,1.19"/><path class="cls-4" d="M50.26,52.06a.68.68,0,0,0-.47.21,1.11,1.11,0,0,1,.36-.47,1.15,1.15,0,0,0-.41.26.88.88,0,0,1-.36-.47c-.16-.51,0-.67,0-1.14A5.26,5.26,0,0,1,50,51.64c.15-.36.83-.88,1-.77-.31.52-.1.88-.72,1.19"/><path class="cls-4" d="M47.41,54.34a6.41,6.41,0,0,1-4.2-1.19,1.94,1.94,0,0,0,.21-1.25c-.1-.25-.1,0-.16.16-.2.57-.41.57-.62.78A4.67,4.67,0,0,0,41,51.65c-.62-.37-.67-.58-1-.78-.62.26-1.56.83-2,.46-.42-.15.46-.41.78-.93A1,1,0,0,1,39.84,50a14.46,14.46,0,0,1,2.85,1.14,25.24,25.24,0,0,1,4.67,1,6.08,6.08,0,0,0,.93.11,11.32,11.32,0,0,1-.88,2.07"/><path class="cls-4" d="M39.9,52.47c.51.57,1,.73,1.29,1.4a.32.32,0,0,1-.52.11c-.77-.83-1.45-1-1.19-1.35-.15-.05-.26.15-.26.31.16.57.83.83,1,1.4-.1.36-.93,0-1.3-1v0c-.15.26-.31.42.26,1.09.11.21.16.46-.2.41,0,0-.21,0-.11,0H39c-.06,0-.06,0-.11,0,.21-1-.77-.83-.72-.83.1-.36-.47-.77-1-.52.11-.31-.52-.72-1.29-.41-.16-.31-.88-.57-1.56.31-1.24,0-3.21,1.14-4.45.62a18.91,18.91,0,0,1-.78-2c1.4-.15,4.61-.36,5.75-.88a4.67,4.67,0,0,1,3-.62c0,.31-.72.88-.36,1.14a2,2,0,0,0,2.33-.05c.73.72,1.87.83,2.28,1.81l-.1.31c-.26.16-.26.16-.57-.26-.67-.88-1.3-.67-1.4-1.29-.26.05-.1.36-.1.46"/><path class="cls-4" d="M36.63,54.34c-.26.1.11-.16.16-.21l.1-.15c.26-.16.52-.47.73,0,.1.2-.73.67-.88.72a.18.18,0,0,1-.26-.05.22.22,0,0,1,.15-.31"/><path class="cls-4" d="M35.86,54.29c-.16,0-.26.05-.32-.11s.16-.41.26-.57a.34.34,0,0,1,.21-.1l.16-.16c.31-.05.31,0,.36.16s-.52.73-.67.78"/><path class="cls-4" d="M37.93,54.39s.31-.36.46.16c.06.2-.31.41-.67.51-.16-.1-.57-.05.21-.67"/><path class="cls-4" d="M35,53.67c-.16.1-.37-.16-.26-.21l.15-.26c.26-.1.37-.21.47-.1s-.26.57-.36.57"/><path class="cls-5" d="M38.76,32.94c-5.6,0-10.16,6-10.36,13.42H49.17C49,38.9,44.4,32.94,38.76,32.94"/><path class="cls-8" d="M38.76,32.94c-5.6,0-10.16,6-10.36,13.42H49.17C49,38.9,44.4,32.94,38.76,32.94Z"/><path class="cls-6" d="M37.15,41.28c-.57.06-.83.37-1.35.37A4.91,4.91,0,0,1,37,39.26a8.15,8.15,0,0,1,2-1.34v-.11c-.52.06-1.77.31-2.08-.26,0-.51.68-1.14,1.71-1.19a2.58,2.58,0,0,1,1.61.47,2.21,2.21,0,0,1,.88,1.66,4.17,4.17,0,0,0-.93.51c.1,0,.26.06.46.06a4.73,4.73,0,0,0,.52-.06v.37a.38.38,0,0,1,.1.2c-1.19.52-1.86.78-1.91.68a1.32,1.32,0,0,0,.52.1A8.6,8.6,0,0,0,41.35,40a.51.51,0,0,0,.36.57v0c-1.3.68-1.76.62-1.87.52L39,41a4,4,0,0,0,1.2.57c.41.1,1.24-.32,1.7-.42l.16.57c-.78,0-1.61,1.09-2.75.67C38.7,42,38,41.28,37.15,41.28"/><path class="cls-6" d="M38.24,42.89c-.57,0-1.5,0-1.5,0-.31-.05-1-.47-.94-.62a2,2,0,0,0,.94-.21c.77-.36,1.45.67,1.5.88"/><path class="cls-7" d="M42.12,42.27a.75.75,0,0,1-.41.62,11.8,11.8,0,0,0-1.35,0,1,1,0,0,0,.68-.21c1.24-.57,1.08-.41,1.08-.41"/><path class="cls-1" d="M38.81,61.9c.21.93-.78,2.39,1.76,4,.16-.15.73-.36.88-.51-3-1.66-2.12-2.34-2.12-3.84-.16.11-.37.21-.52.31"/><path class="cls-1" d="M39,61c-.1.1.16.05.11.16a11.92,11.92,0,0,1-.88,1.19,8.52,8.52,0,0,1-1.66,1.14c-1.61.83-2.7.41-1.81-.68S36.22,59.93,39,61"/><path class="cls-1" d="M38.76,61a.66.66,0,0,1,.1.42c0,.15,0,.46.1.67s-.1.1.06.21-.32-.52.25.15c1.25,1.4,2.75,1.71,3.53,1.4,1.09-.41.1-1.66-.16-2.07C42,61,41.09,60.4,38.76,61"/><path class="cls-3" d="M39.33,61.44c.36.41.05.2.67.77,2.28,2.18,2.54-.1.67-.77a2.27,2.27,0,0,0-1.34,0"/><path class="cls-3" d="M37.88,62c-.68.57-2.18,1.35-2.33,1.2s0-.31.15-.52a3.4,3.4,0,0,1,.73-.83c.41-.42,1.19-1,1.65-.57.26.21.05.47-.2.72"/><path class="cls-1" d="M39.27,61.85c-1.08.73-.57,2-2,3.94-.2-.16-.77-.16-1-.31,1.86-1.92,1.35-2.65,2.43-3.94.21.1.37.21.57.31"/><path class="cls-1" d="M38.91,62.32a.84.84,0,1,0,0-1.66.84.84,0,1,0,0,1.66"/><path class="cls-1" d="M34.25,43.41c-.16-2.49,0-3.47,2.43-6-1,1.14-1.08,1.4-1.08,3.47-2,3.06,8.29,2.9,6,.11,0-2.54-.57-3-2.18-5a1.66,1.66,0,0,0-2.28-.1c-2.69,2.74-3.42,3.57-3.47,7.3-1.5,1.92,2,1.76.57.16"/><path class="cls-4" d="M34,43.41a7.14,7.14,0,0,1,.31-3.06,10,10,0,0,1,2.18-3,.19.19,0,0,1,.31,0,.24.24,0,0,1,0,.26A3.25,3.25,0,0,0,36,38.9a6.31,6.31,0,0,0-.16,2,.18.18,0,0,0,0,.11A.89.89,0,0,0,36,42.42a5.43,5.43,0,0,0,2.8.57,4.55,4.55,0,0,0,2.64-.67c.36-.26.41-.67,0-1.19a.17.17,0,0,1-.05-.1c.05-2.18-.42-2.75-1.56-4.2-.15-.21-.31-.42-.51-.67a1.56,1.56,0,0,0-2.08-.06,14,14,0,0,0-2.64,3.22,8,8,0,0,0-.72,3.93s-.06.11-.06.16c-.41.52-.41.83-.25.93a.49.49,0,0,0,.36.1.76.76,0,0,0,.36-.1c.16-.15.16-.41-.21-.83a.17.17,0,0,1-.05-.1m.68-2.9a5.8,5.8,0,0,0-.26,2.79c.46.63.41,1,.1,1.3a.84.84,0,0,1-.62.26.75.75,0,0,1-.57-.21c-.31-.26-.42-.72.1-1.45a9.11,9.11,0,0,1,.78-4A13.82,13.82,0,0,1,37,35.85a.06.06,0,0,1,.06-.06,1.94,1.94,0,0,1,2.54.11V36c.2.21.36.46.56.67,1.2,1.5,1.66,2.07,1.66,4.35a1.07,1.07,0,0,1-.15,1.66,4.89,4.89,0,0,1-2.85.73,5.39,5.39,0,0,1-3-.62,1.21,1.21,0,0,1-.41-1.87,14.27,14.27,0,0,1,.1-1.76,5.33,5.33,0,0,0-.77,1.4"/><path class="cls-3" d="M35.65,40.56a10.4,10.4,0,0,1,5.9.15v.37a12.05,12.05,0,0,0-5.9-.16Z"/><path class="cls-3" d="M35.44,41.91a14.87,14.87,0,0,1,6.27.05c.47,1.29-5.75,1.86-6.27-.05"/><path class="cls-3" d="M38.65,41.8h0c.26,0,.73.16.73.42v4.71H38.24V42.22a.38.38,0,0,1,.41-.42"/><path class="cls-5" d="M110.25,52.73V31.39h-5.18V52.73c0,3.68-1.51,6.22-5.44,6.22s-5.49-2.54-5.49-6.22V31.39H88.9V52.73c0,6.69,4.3,9.9,10.73,9.9s10.62-3.06,10.62-9.9"/><polygon class="cls-5" points="139.67 62.16 139.67 31.39 134.91 31.39 134.91 54.03 134.8 54.03 122.94 31.39 116.52 31.39 116.52 62.16 121.28 62.16 121.28 38.38 121.39 38.38 133.82 62.16 139.67 62.16"/><path class="cls-5" d="M157.49,53.87V31.39h-5.23V54.18c0,3.27-1.4,4.77-4.77,4.77a14.28,14.28,0,0,1-4.55-1v4.09a17.7,17.7,0,0,0,4.61.57c6.89,0,9.94-1.71,9.94-8.76"/><path class="cls-5" d="M180.44,62.16V40.92h-5v9.17c0,2.85-1.4,7.93-5,7.93a2,2,0,0,1-1.45-.42c-.83-.83-.73-3.52-.73-4.56V40.92h-5V55.63c0,3.68,1.71,7,5.75,7a6.59,6.59,0,0,0,6.27-4.46h.1v4Z"/><path class="cls-5" d="M94.6,77.5V71.85H93.51V77.5c0,1.19,0,2.9-1.86,2.9s-1.92-1.71-1.92-2.9V71.85H88.64V77.5c0,1.39,0,3.57,3,3.57s3-2.18,3-3.57m6.84,3.42V76.15a1.56,1.56,0,0,0-1.5-1.66,2.48,2.48,0,0,0-2.23,1.71h0V74.65h-.93v6.27h1v-2.7c0-1.19.57-2.9,1.92-2.9.83,0,.83.88.83,1.55v4Zm3.21-9.07h-1.09V73h1.09Zm-.05,2.8h-1v6.26h1Zm6.84,0h-.93l-1.71,5-1.92-5h-1.09l2.49,6.27h.93ZM116.93,77a2.19,2.19,0,0,0-2.23-2.54c-1.81,0-2.54,1.35-2.54,3.11,0,2.33,1.19,3.47,3.11,3.47a4.55,4.55,0,0,0,1.56-.26v-.57a3.45,3.45,0,0,1-1.2.21c-1.91,0-2.38-2-2.38-3.42Zm-1-.57h-2.64a1.39,1.39,0,0,1,1.4-1.4c1.09,0,1.24.88,1.24,1.4m5.65-.78V74.49c-1,0-1.71,1-2,1.66v-1.5h-1v6.27h1V78c0-1.14.36-2.28,1.76-2.28Zm4.51,3.53A1.77,1.77,0,0,0,125,77.55c-1.09-.68-2-.88-2-1.61,0-.52.52-.78,1-.78a3.35,3.35,0,0,1,1.6.52v-.93a5.64,5.64,0,0,0-1.45-.26c-1.4,0-2.17.67-2.17,1.76s.93,1.4,1.71,1.82,1.34.72,1.34,1.34-.57,1-1.29,1a3.48,3.48,0,0,1-1.76-.62v1a4.88,4.88,0,0,0,1.71.26c1.65,0,2.33-.88,2.33-1.86m2.38-7.36h-1.09V73h1.09Zm-.05,2.8h-1v6.26h1ZM135,80.92V71.85h-1v3.94a1.71,1.71,0,0,0-1.7-1.3c-1.56,0-2.23,1.5-2.23,3.32,0,1.65.41,3.26,2.12,3.26A2,2,0,0,0,134,79.72v1.2Zm-1-3.22c0,1.56-.62,2.75-1.6,2.75s-1.24-1.35-1.24-2.59.31-2.7,1.29-2.7c1.19,0,1.55,1.77,1.55,2.54m7.1,3.22v-4.3c0-.89-.21-2.13-2-2.13s-2.23,1-2.33,1.81h1.14c.05-.46.1-1.24,1.14-1.24s1.09.93,1.09,1.61v.83c-1.14,0-3.52.15-3.52,2a1.59,1.59,0,0,0,1.7,1.55,2.18,2.18,0,0,0,1.82-1v.89Zm-1-2.23a1.64,1.64,0,0,1-1.45,1.76,1,1,0,0,1-1-1.09c0-1.35,2.13-1.29,2.44-1.35Zm7.61,2.23V71.85h-1v3.94h-.05a1.72,1.72,0,0,0-1.66-1.3c-1.61,0-2.28,1.5-2.28,3.32,0,1.65.47,3.26,2.12,3.26a1.86,1.86,0,0,0,1.82-1.35h.05v1.2Zm-1-3.22c0,1.56-.67,2.75-1.66,2.75s-1.24-1.35-1.24-2.59.31-2.7,1.34-2.7c1.2,0,1.56,1.77,1.56,2.54m-52,14.92V83.51h-.94v7.71h0L90,83.51H88.7v9.11h1V84.85h0l3.78,7.77Zm6.21,0V88.27c0-.88-.2-2.07-2.07-2.07s-2.23,1-2.28,1.76h1.14c0-.47.11-1.24,1.09-1.24s1.14.93,1.14,1.6v.83c-1.19.11-3.52.16-3.52,2a1.64,1.64,0,0,0,1.71,1.61,2,2,0,0,0,1.76-1h0v.88Zm-1-2.22a1.62,1.62,0,0,1-1.5,1.7,1,1,0,0,1-1-1.08c0-1.35,2.13-1.3,2.49-1.35Zm7.36-2.13a1.94,1.94,0,0,0-2.18-2.07c-1.55,0-2.59,1-2.59,3.06s.83,3.52,3.16,3.52a4.1,4.1,0,0,0,1.4-.26V92a3,3,0,0,1-1,.15c-1.86,0-2.38-1.7-2.38-3,0-1,.26-2.33,1.4-2.33s1.09,1,1.09,1.55Zm2.43-4.76h-1.09V84.7h1.09Zm0,2.84h-1v6.27h1Zm7.1,3.16c0-2-.88-3.31-2.75-3.31s-2.69,1.35-2.69,3.31.83,3.27,2.69,3.27,2.75-1.19,2.75-3.27m-1.09.06c0,1.29-.31,2.64-1.66,2.64s-1.55-1.35-1.55-2.64.2-2.85,1.55-2.85,1.66,1.5,1.66,2.85m7.46,3.05V87.86a1.53,1.53,0,0,0-1.5-1.66,2.44,2.44,0,0,0-2.23,1.66h0V86.35h-.94v6.27h1V89.93c0-1.24.57-3,1.91-3,.83,0,.83.88.83,1.55v4.09Zm6.11,0V88.27a1.79,1.79,0,0,0-2-2.07c-1.86,0-2.23,1-2.28,1.76h1.09c.05-.47.1-1.24,1.14-1.24s1.09.93,1.09,1.6v.83c-1.14.11-3.53.16-3.53,2a1.65,1.65,0,0,0,1.71,1.61,2.2,2.2,0,0,0,1.82-1v.88Zm-1-2.22a1.58,1.58,0,0,1-1.45,1.7,1,1,0,0,1-1-1.08c0-1.35,2.13-1.3,2.44-1.35Zm4.09-6.89h-.93v9.11h.93Zm10.1,9.11V83.51h-1v3.93a1.76,1.76,0,0,0-1.71-1.24c-1.56,0-2.23,1.5-2.23,3.26s.41,3.32,2.12,3.32a2,2,0,0,0,1.82-1.4v1.24Zm-1-3.26c0,1.55-.63,2.74-1.61,2.74s-1.24-1.34-1.24-2.53c0-1.35.31-2.75,1.34-2.75s1.51,1.81,1.51,2.54m7.4-.62a2.19,2.19,0,0,0-2.22-2.54c-1.82,0-2.54,1.29-2.54,3.11,0,2.28,1.24,3.47,3.11,3.47a6.23,6.23,0,0,0,1.55-.26V92a3.45,3.45,0,0,1-1.14.15c-2,0-2.43-2-2.43-3.36Zm-1-.62h-2.64a1.37,1.37,0,0,1,1.35-1.4,1.23,1.23,0,0,1,1.29,1.4m9.27,2V83.51h-1.55v6.73c0,1-.42,1.4-1.4,1.4a4.3,4.3,0,0,1-1.35-.26v1.19a4.2,4.2,0,0,0,1.35.21c2.07,0,2.95-.52,2.95-2.64M164,92.62V86.35h-1.45v2.7c0,.83-.42,2.33-1.5,2.33a.66.66,0,0,1-.42-.1c-.26-.26-.2-1-.2-1.35V86.35H159v4.36c0,1,.47,2.07,1.66,2.07a2,2,0,0,0,1.87-1.35h0v1.19Zm3.47-9.11H166V85h1.5Zm0,9.48V86.35H166v6.27c0,1-.11,1.92-1.4,1.92a2.6,2.6,0,0,1-.62-.05v1.09h.52c1.71,0,3-.68,3-2.59m6.79-.37V86.35h-1.45v2.7c0,.83-.42,2.33-1.51,2.33a.63.63,0,0,1-.41-.1c-.26-.26-.21-1-.21-1.35V86.35h-1.45v4.36c0,1,.47,2.07,1.71,2.07a1.94,1.94,0,0,0,1.81-1.35h.06v1.19Zm6.78-6.27h-1.5l-1.4,4.2-1.45-4.2h-1.55l2.33,6.32-.88,2.75H178Z"/></g></g></svg>