<svg xmlns="http://www.w3.org/2000/svg" viewBox="0 0 123.58 65.23"><defs><style>.cls-1,.cls-5,.cls-8{fill:#29292a;}.cls-1,.cls-2,.cls-3{fill-rule:evenodd;}.cls-2{fill:#f5f3ef;}.cls-3,.cls-4{fill:#fefefe;}.cls-6{fill:#087d9f;}.cls-7{fill:#221f20;}.cls-8{stroke:#29292a;stroke-miterlimit:10;stroke-width:0.23px;}</style></defs><g id="Capa_2" data-name="Capa 2"><g id="Capa_1-2" data-name="Capa 1"><path class="cls-1" d="M1.21,40.62a5,5,0,0,1,.1.64,1.93,1.93,0,0,0-.56,1.8c.07.46.67.67,1.52.75A40,40,0,0,1,1,38.4a30.92,30.92,0,0,1-.32-5.66A38.92,38.92,0,0,1,1.77,22.48,49.62,49.62,0,0,1,4.21,16,37.53,37.53,0,0,1,8.88,8.7a26,26,0,0,1,6.54-5.59A22.81,22.81,0,0,1,24,.14,20.88,20.88,0,0,1,30.8.46a26.39,26.39,0,0,1,7.5,3.11,25.28,25.28,0,0,1,5.34,4.67,38.41,38.41,0,0,1,3.64,5.16,36.79,36.79,0,0,1,3.43,8,35.9,35.9,0,0,1,1.31,7,53.17,53.17,0,0,1,0,7.78A27.09,27.09,0,0,1,50.5,44c.63,0,1.34,0,1.55-.85a1.8,1.8,0,0,0-.6-1.52,5,5,0,0,0,0-.77,2.49,2.49,0,0,1,.56,3.88c-.49,1.28-1,2.52-1.48,3.79,1.8,1.41,2,2.54.6,3.43a7.45,7.45,0,0,0-1.63,3.68,1.59,1.59,0,0,1-1.06,1.73A6.67,6.67,0,0,1,44.2,57c.78,1.13.14,2.4-1.13,3.71a5.81,5.81,0,0,0-.92,4.14c-4.7.92-7.28-.11-10.15-.89a19.6,19.6,0,0,1-11.59-.14c-3.4.85-6.76,1.81-10.82.85.21-1.66.39-3.32-.78-4.7-1.2-1-1.24-2-.18-3.22-2.33.89-4.59.81-5.3-.35a7.81,7.81,0,0,0-2-4.88c-1.24-1.13-.6-2.34.85-3.18-.5-1.31-1-2.62-1.49-4a2.36,2.36,0,0,1,.5-3.72Z"/><path class="cls-2" d="M10.26,38.86a40.88,40.88,0,0,1-.57-8.77,29.75,29.75,0,0,1,3.68-12.63,21.19,21.19,0,0,1,7.28-7.21,13.43,13.43,0,0,1,9.41-.78A15.38,15.38,0,0,1,37.73,15c3.22,3.75,4.67,8.67,5.34,13.76a34.26,34.26,0,0,1-.88,12c-.39-.14-.78-.38-1.17-.53-.11-.74.49-.95,1.41-.88-.56-.32-1.73-.42-1.8.53,0,1.73.11,3.43,0,5a23.45,23.45,0,0,1-2,3.5,16.22,16.22,0,0,0-7.36-.43c0,1.77,0,3.57,0,5.34.77,0,1.59.11,2.37.14a13.41,13.41,0,0,1-7.5,2.3,11.8,11.8,0,0,1-7.46-2.51,21.36,21.36,0,0,1,2.65-.11c0-1.76,0-3.57.07-5.37a16.1,16.1,0,0,0-7.49.39c-.71-1.2-1.35-2.37-1.91-3.57,0-1.59.1-3.18.14-4.74-.07-1.1-.81-1.1-1.77-.78,1,0,1.52.25,1.38.92-.42.18-.81.36-1.24.53-.1-.53-.25-1.06-.35-1.62Z"/><path class="cls-3" d="M51.38,41.86c-.18.64-.39,1.27-.6,1.91a1,1,0,0,0,.6-1.91Z"/><path class="cls-3" d="M31.65,48.33c0,1.52,0,3.08,0,4.6a17.83,17.83,0,0,1,9.22,2,27.45,27.45,0,0,0,4.64,2c1.87.28,3.35.07,3.5-1a7.61,7.61,0,0,1,1.55-4.31,12.94,12.94,0,0,1-5.8-.85c-2.19-.78-4.38-1.52-6.54-2.3a15,15,0,0,0-6.61-.18Z"/><path class="cls-3" d="M42.26,46.92l.63.21c-.39.71-.77,1.45-1.16,2.16-.22,0-.46-.11-.71-.18.46-.71.85-1.45,1.24-2.19Z"/><path class="cls-3" d="M40.63,45.75a19.77,19.77,0,0,1-1.52,2.72l.64.21c.46-.74,1-1.59,1.41-2.47-.18-.14-.35-.32-.53-.46Z"/><path class="cls-3" d="M43.85,47.06c.1,1.06.14,2.08.18,3.15a13.75,13.75,0,0,0,6.08,1.16c1.55-.07,1.8-1.24,0-2.54a20.39,20.39,0,0,0-6.29-1.77Z"/><path class="cls-3" d="M49.79,44.65c-1.88.46-3.36.11-5,.25-1.38.36-1.31,1.45.25,2,1.34.35,3,.56,4,.95a6.84,6.84,0,0,0,.74-3.15Z"/><path class="cls-3" d="M43.32,47c-.39-2.19.49-2.75,2-2.58a9,9,0,0,0,1.28-2.26A14.72,14.72,0,0,1,41,40.52a33.26,33.26,0,0,1,0,5.09c-.07.14,2.3,1.63,2.34,1.41Z"/><path class="cls-3" d="M2.66,43.84l1.41.21A40.54,40.54,0,0,1,2.3,30.44c.32-5.06,1.21-10.08,3.93-14.89a30.22,30.22,0,0,1,9-10.36,22.06,22.06,0,0,1,10.57-3.6c4.46,0,8.38,1,11.56,3.36A25.47,25.47,0,0,1,45,12.76a31.07,31.07,0,0,1,4.38,9.87,38.35,38.35,0,0,1-.56,21.6c.46,0,.88-.07,1.31-.14,1.59-4.49,1.8-10,1.41-16.73A36.11,36.11,0,0,0,45.3,10.92a27.85,27.85,0,0,0-8.24-7.67A20.83,20.83,0,0,0,23.23.67,24,24,0,0,0,11.92,6a37.61,37.61,0,0,0-6.75,8.84A37.49,37.49,0,0,0,1.35,27.12,40.65,40.65,0,0,0,2.66,43.84Z"/><path class="cls-3" d="M21.11,48.05c0,1.55,0,3.07-.07,4.63a18.09,18.09,0,0,0-9.19,2,27.4,27.4,0,0,1-4.63,2c-1.88.28-3.36.07-3.5-1a7.65,7.65,0,0,0-1.56-4.31A12.23,12.23,0,0,0,8,50.52c2.19-.74,4.38-1.52,6.54-2.26a14.82,14.82,0,0,1,6.61-.21Z"/><path class="cls-1" d="M31.12,63.78a20.41,20.41,0,0,1-4.95.57,23,23,0,0,1-5-.71,18.91,18.91,0,0,1,4.88-.56,16.56,16.56,0,0,1,5,.7Z"/><path class="cls-3" d="M8.42,57.31c-.67,3.47,5.41,2.09,11.07.74a24.4,24.4,0,0,1,10.82-.17c2.75.67,5.44,1.38,8.41,1.87a5.34,5.34,0,0,0,3.82-.39,2.15,2.15,0,0,0,1.31-2.08c.42.39.56.92-.11,2a5.89,5.89,0,0,0-1.91,5.2,18.28,18.28,0,0,1-6.15-.11,27.24,27.24,0,0,1-3.61-.78,36.4,36.4,0,0,0-5.79-1,36.49,36.49,0,0,0-9.09,1.48,19,19,0,0,1-7.29.21,7,7,0,0,0-.31-3.92,2.88,2.88,0,0,0-.85-1c-.57-.77-.92-1.52-.32-2.19Z"/><path class="cls-3" d="M15.7,53.67a19,19,0,0,0,6.12,3.64c-.39.11-.78.18-1.17.29A18.73,18.73,0,0,1,15.07,54c.21-.1.42-.17.63-.28Z"/><path class="cls-3" d="M14.36,58.83l-1.77.32a19,19,0,0,1-2.93-2.86c.39-.18.74-.36,1.13-.53a32,32,0,0,0,3.57,3.07Z"/><path class="cls-3" d="M11.78,55.23a22.54,22.54,0,0,0,3.89,3.39c-.28.07-.57.07-.85.14a17.47,17.47,0,0,1-3.64-3.18c.17-.11.42-.21.6-.35Z"/><path class="cls-3" d="M36.81,53.81a18.75,18.75,0,0,1-6.08,3.68c.39.07.78.18,1.17.25a18.9,18.9,0,0,0,5.55-3.61l-.64-.32Z"/><path class="cls-3" d="M38,59.29c.56.07,1.1.14,1.7.25a30.32,30.32,0,0,0,3.43-3c-.39-.21-.85-.39-1.21-.57A32.72,32.72,0,0,1,38,59.29Z"/><path class="cls-3" d="M40.91,55.44A23.94,23.94,0,0,1,36.67,59c.28,0,.6.18.92.25a21.68,21.68,0,0,0,3.92-3.43c-.14-.1-.42-.21-.6-.35Z"/><path class="cls-3" d="M43.39,56.64c-1.06,1-2.12,2-3.22,3a3.86,3.86,0,0,0,2.55-.78c.88-.67,1.2-1.41.67-2.26Z"/><path class="cls-3" d="M17.44,53.46l.84-.21a13.33,13.33,0,0,0,15.95.28l1,.11a13.89,13.89,0,0,1-17.75-.18Z"/><path class="cls-1" d="M42.05,40.45c.07-.32.17-.64.24-1-.6,0-1.06.14-1.13.64l.89.32Z"/><path class="cls-3" d="M42.5,40.87a2.46,2.46,0,0,1,.57.25,36.51,36.51,0,0,0,1.2-6.68,34.73,34.73,0,0,0-.74-8.95A24.9,24.9,0,0,0,38.9,14.88C36,11,32.43,8.62,28.11,8a13.58,13.58,0,0,0-11.2,3.79,23,23,0,0,0-6.19,9.08A29.4,29.4,0,0,0,8.67,32.24a29.84,29.84,0,0,0,1.06,8.67c.17-.11.39-.22.56-.32a38.58,38.58,0,0,1-1-8.38,30.12,30.12,0,0,1,1.21-8.74,23,23,0,0,1,2.93-6.54,21.89,21.89,0,0,1,5.2-5.65,13.1,13.1,0,0,1,7-2.69A13.5,13.5,0,0,1,34.09,11a21,21,0,0,1,5.23,5.66,28.29,28.29,0,0,1,3.43,8.17,28.72,28.72,0,0,1,.82,6.5,29.39,29.39,0,0,1-1.07,9.55Z"/><path class="cls-1" d="M43.39,57.06l-2.55,2.37c.82.07,2.83-.92,2.55-2.37Z"/><path class="cls-4" d="M6.16,25.81a1,1,0,0,1,.67.42,1,1,0,0,1,.1.82,1.26,1.26,0,0,1-.38.74,1.07,1.07,0,0,1-.82.14l-1.55-.32.1-.53,1.56.28a.62.62,0,0,0,.46,0A.52.52,0,0,0,6.51,27a.42.42,0,0,0-.07-.43A.56.56,0,0,0,6,26.34L4.5,26.06l.1-.57ZM7.71,23.3l-.14.53-2.08.6,1.8.49-.14.5-2.44-.67.17-.64,1.84-.56-1.59-.39.14-.53Zm.57-1.81L7.82,22.8l-.35-.1.14-.39-1.7-.6-.14.39L5.41,22l.46-1.31.36.11-.14.39,1.69.6.14-.39ZM6.76,18.14l2.08,1.73-.17.53-2.73.07.18-.53,2,0L6.58,18.67Zm3.32-1L9.37,18.7,7,17.68l.71-1.59.39.14-.5,1.13.5.21.46-1,.39.18-.46,1L9.2,18l.49-1.1Zm1.38-2.47-.32.6-1.2.21-.18.28.85.46-.25.5L8.14,15.48l.46-.84A1,1,0,0,1,9.13,14a.56.56,0,0,1,.53,0,.74.74,0,0,1,.42.81Zm-2.72.56.71.35.1-.21a.66.66,0,0,0,.11-.46.63.63,0,0,0-.21-.28.37.37,0,0,0-.29,0,.93.93,0,0,0-.28.32Zm2.69-.74L11,14.11l0,0a2.32,2.32,0,0,0,.46-.18,1.56,1.56,0,0,0,.38-.32.64.64,0,0,0,.15-.35A.23.23,0,0,0,12,13a.7.7,0,0,0-.22-.07,1,1,0,0,0-.24.14c-.07.07-.18.15-.36.29a.88.88,0,0,1-.53.24.63.63,0,0,1-.46-.17.61.61,0,0,1-.25-.57,1.28,1.28,0,0,1,.29-.74,2.25,2.25,0,0,1,.7-.57l.39.32,0,0a1.37,1.37,0,0,0-.74.46.63.63,0,0,0-.15.32.19.19,0,0,0,.08.24.26.26,0,0,0,.21.07,1.31,1.31,0,0,0,.24-.14c.11-.1.22-.17.36-.28a1.65,1.65,0,0,1,.32-.21c.1,0,.17,0,.24,0a.43.43,0,0,1,.22,0l.21.1a.75.75,0,0,1,.25.64,1.15,1.15,0,0,1-.32.74,2.17,2.17,0,0,1-.74.64Zm2.43-2.83L13,12.73l-.29-.25.25-.32L11.6,11l-.28.32L11,11.13,11.88,10l.32.25-.28.31,1.41,1.1.25-.32Zm.36-.39L12.56,9.33l.6-.53a2,2,0,0,1,.74-.42,1,1,0,0,1,.64,0,1.38,1.38,0,0,1,.6.42,1.58,1.58,0,0,1,.28.67.8.8,0,0,1-.07.64,2.27,2.27,0,0,1-.53.64Zm-1-2,1.1,1.34.21-.17a.77.77,0,0,0,.11-1.24.79.79,0,0,0-1.24-.11Zm4.85-1-.5.31-.46-.31-.81.56.14.53L16,9.65,15.39,7l.49-.35ZM16.8,8,16,7.32l.28,1.06Zm1.59.1-1.2-2.22.67-.39a4.27,4.27,0,0,1,.81-.29,1.1,1.1,0,0,1,.64.18,1.51,1.51,0,0,1,.5.53,1.25,1.25,0,0,1,.14.67,1,1,0,0,1-.22.64,1.6,1.6,0,0,1-.63.5Zm-.53-2.15.81,1.55.25-.14a.74.74,0,0,0,.35-1.17.74.74,0,0,0-1.16-.35Zm6.19.14-.53.1L22.1,4.52l.32,1.84-.53.11L21.47,4l.67-.11,1.27,1.42-.28-1.6.49-.1Zm2.86-.25-.6,0-.21-.53-1,.07L24.93,6h-.56l.81-2.58.6,0Zm-1-.88L25.5,4l-.29,1Zm3.22.88a2.87,2.87,0,0,1-.5.18h-.38a1.1,1.1,0,0,1-.89-.39,1.28,1.28,0,0,1-.28-1,1.31,1.31,0,0,1,.39-1,1.19,1.19,0,0,1,.92-.28,1.4,1.4,0,0,1,.85.25v.53h-.08a1.07,1.07,0,0,0-.74-.39A.72.72,0,0,0,27.9,4a1.21,1.21,0,0,0-.25.67,1,1,0,0,0,.18.68.63.63,0,0,0,.53.28,1.23,1.23,0,0,0,.36,0,1.76,1.76,0,0,0,.38-.24h.07Zm1.63.64-1.35-.36.11-.35.39.11.49-1.74L30,4l.11-.36L31.44,4l-.11.39-.39-.14L30.48,6l.39.1ZM32.18,7a1.15,1.15,0,0,1-.71-.67,1.42,1.42,0,0,1,0-1,1.36,1.36,0,0,1,.67-.78,1.22,1.22,0,0,1,1,0,1.13,1.13,0,0,1,.71.67,1.33,1.33,0,0,1,0,1,1.48,1.48,0,0,1-.67.77,1.23,1.23,0,0,1-1,0ZM33,4.91A.6.6,0,0,0,32.5,5a1.09,1.09,0,0,0-.43.57,1.21,1.21,0,0,0-.1.67.6.6,0,0,0,.35.42.64.64,0,0,0,.53,0A1.23,1.23,0,0,0,33.28,6a1.35,1.35,0,0,0,.1-.7A.69.69,0,0,0,33,4.91Zm2.65,3.75-.49-.25-.11-2.15L34.2,7.88l-.46-.25,1.2-2.22.6.32.11,1.9.77-1.45.46.25Zm2.19,1.84-.46-.39.22-.53-.78-.67-.5.32-.42-.36L38.3,7.53l.46.39Zm-.1-1.31.39-1-.92.54ZM39.32,12l-1.2-1.24,1.8-1.8.39.42-1.52,1.49.85.85Zm1,1.09,2.12-1.41.46.67a2.16,2.16,0,0,1,.36.78,1.06,1.06,0,0,1-.11.64,1.81,1.81,0,0,1-.49.53,1.21,1.21,0,0,1-.68.21,1.12,1.12,0,0,1-.63-.14,2,2,0,0,1-.57-.6Zm2.12-.74-1.45,1,.15.21a.75.75,0,0,0,1.2.25.77.77,0,0,0,.25-1.2Zm.29,4.56-.85-1.55,2.23-1.24.84,1.56-.35.21L44,14.78l-.46.24.53,1-.35.22-.57-1-.64.35.61,1.06Zm1.87,2.23a.59.59,0,0,1-.6,0,.89.89,0,0,1-.46-.53,3.68,3.68,0,0,1-.18-.53l.43-.18v0a1.14,1.14,0,0,0,.07.42c.07.07.1.14.18.21a.23.23,0,0,0,.17.08,1.39,1.39,0,0,0,.39-.11l1.06-.5-.21-.49.35-.18.46,1Zm1.17,2.51a.84.84,0,0,1-.78,0,1.06,1.06,0,0,1-.53-.68,1,1,0,0,1,0-.81.84.84,0,0,1,.6-.53L46.54,19l.21.53-1.49.53c-.21.07-.35.14-.39.28a.39.39,0,0,0,0,.39.59.59,0,0,0,.25.36.77.77,0,0,0,.46,0l1.49-.53.21.53ZM46,23.37a.75.75,0,0,1-.6-.11.9.9,0,0,1-.35-.56,3.82,3.82,0,0,1-.11-.57l.42-.1,0,0a1.22,1.22,0,0,0,0,.39.66.66,0,0,0,.11.25c.07.07.1.1.17.1s.21,0,.43,0l1.13-.32-.18-.53.43-.14.28,1.09ZM46.92,26a.88.88,0,0,1-.81-.15,1.22,1.22,0,0,1-.39-.7,1.11,1.11,0,0,1,.11-.85.93.93,0,0,1,.67-.43l1.56-.31.1.56-1.55.28a.81.81,0,0,0-.43.25c-.07.07-.07.21-.07.39s.11.32.25.35a.59.59,0,0,0,.46.07l1.55-.31.11.53ZM49,28.32l-1.7-.6-1,.17-.1-.53.92-.17L48.52,26l.14.6-1,.81,1.2.36Z"/><path class="cls-5" d="M6.26,53.28l-1.13.18.07.6,1-.14.07.46-1,.1.14,1.21-.53.07-.35-2.69,1.66-.21Zm2.3,1.66L7,55.44l-.81-2.58.49-.18.67,2.19,1.1-.35Zm2.3-.95-.5.21-.42-.49-.85.38.07.61-.49.21L8.46,52,9,51.83Zm-1.2-.6L9,52.5l.11,1.14ZM13,53l-.46.22-.78-1.74,0,1.38-.28.14-1-1,.78,1.73-.46.21-1.1-2.47.53-.25,1.14,1.06,0-1.55.53-.25Zm2.51-1-.5.18-.67-1.81,0,1.38-.31.11-.92-1,.67,1.8-.46.14-1-2.54.53-.22L14,51.23l0-1.59.56-.18Zm2.33-.6-.53.14L17,51l-.92.25,0,.6-.5.14.21-2.87.57-.14Zm-1.1-.78-.6-1,0,1.14Zm3.5.71h-.53l-.07-1.91L19.2,50.7l-.35,0-.53-1.28.07,1.91-.49,0-.11-2.73.6,0L19,50.1l.56-1.49.57,0Z"/><path class="cls-5" d="M34.87,49l-.82,0,.07,2.27-.53,0-.1-2.26-.81,0,0-.46,2.19-.1ZM37,48.86l-1.23,2.62-.57-.07-.64-2.83.57.07.46,2.05.88-1.87ZM38.19,52l-.56-.14,0-.6-1-.25-.32.53-.57-.14L37.34,49l.6.14Zm-.64-1.2-.07-1.14-.6,1ZM40.6,53l-.5-.21.78-1.77-1,1-.36-.14V50.49l-.74,1.77L38.3,52l1.09-2.51.57.25v1.59l1.17-1.06.56.25Zm2.61,1.38-.49-.28.56-1.1-.92-.49-.6,1.1-.46-.25L42.54,51l.5.25-.46.92.91.5.5-.92.49.28Zm.92.53a1.11,1.11,0,0,1-.64-.74,1.36,1.36,0,0,1,.18-1.06,1.56,1.56,0,0,1,.74-.81,1.2,1.2,0,0,1,1,.07,1.29,1.29,0,0,1,.64.74,1.55,1.55,0,0,1-.18,1.1,1.4,1.4,0,0,1-.74.77,1.06,1.06,0,0,1-1-.07Zm1.06-2.15a.59.59,0,0,0-.53,0,1.29,1.29,0,0,0-.49.57,1.17,1.17,0,0,0-.14.74.42.42,0,0,0,.28.42.52.52,0,0,0,.56,0,1.3,1.3,0,0,0,.46-.6,1.12,1.12,0,0,0,.18-.7.6.6,0,0,0-.32-.46ZM48.41,56c-.21.07-.39.1-.53.14h-.35a1.15,1.15,0,0,1-.85-.49,1.33,1.33,0,0,1-.22-1.07,1.37,1.37,0,0,1,.46-1,1.13,1.13,0,0,1,.92-.28,1.92,1.92,0,0,1,.85.32l-.07.57h-.07a1,1,0,0,0-.67-.46.63.63,0,0,0-.57.21,1.23,1.23,0,0,0-.28.71,1.2,1.2,0,0,0,.11.74.71.71,0,0,0,.49.32,1.11,1.11,0,0,0,.36,0,1.44,1.44,0,0,0,.42-.25h.07Z"/><path class="cls-5" d="M14.08,60.88H12.8v.6H14v.46H12.8l0,1.21h-.6V60.42h1.84ZM15.56,63a1.07,1.07,0,0,1-1-.24,1.53,1.53,0,0,1-.49-1,1.68,1.68,0,0,1,.21-1.09,1.12,1.12,0,0,1,.88-.5,1.22,1.22,0,0,1,1,.25,1.35,1.35,0,0,1,.46,1,1.52,1.52,0,0,1-.17,1.06,1.13,1.13,0,0,1-.89.49Zm-.32-2.36a.56.56,0,0,0-.46.31,1.23,1.23,0,0,0-.1.75,1.48,1.48,0,0,0,.28.7.55.55,0,0,0,.53.18.5.5,0,0,0,.46-.32,1,1,0,0,0,.07-.74,1.2,1.2,0,0,0-.25-.71.62.62,0,0,0-.53-.17ZM19,62.12a1.74,1.74,0,0,1-.5.28,1.76,1.76,0,0,1-.35.15,1.18,1.18,0,0,1-1-.18,1.74,1.74,0,0,1-.46-2,1.29,1.29,0,0,1,.85-.6,2.07,2.07,0,0,1,.92,0l.14.56h-.07a1.16,1.16,0,0,0-.85-.17.58.58,0,0,0-.46.35,1.11,1.11,0,0,0-.07.78,1.24,1.24,0,0,0,.39.67.54.54,0,0,0,.56.11.68.68,0,0,0,.36-.15,1.62,1.62,0,0,0,.35-.35l0,0Zm1.13-.07a1.25,1.25,0,0,1-1-.14,1.51,1.51,0,0,1-.56-.92,1.43,1.43,0,0,1,.1-1.1,1.26,1.26,0,0,1,.82-.6,1.44,1.44,0,0,1,1,.14,1.63,1.63,0,0,1,.57,1A1.43,1.43,0,0,1,21,61.48a1.07,1.07,0,0,1-.81.57Zm-.57-2.33a.65.65,0,0,0-.42.35,1.46,1.46,0,0,0,0,.78,1.26,1.26,0,0,0,.35.67.55.55,0,0,0,.53.11.52.52,0,0,0,.43-.36,1.68,1.68,0,0,0-.32-1.41.66.66,0,0,0-.57-.14Zm5.7,1.48-.61.07-.24-.56-1,.1-.14.6-.6,0,.71-2.79.63-.07Zm-1.07-.92-.45-1.06-.29,1.13Zm3,.74a2.61,2.61,0,0,1-.53.22,1.34,1.34,0,0,1-.35,0,1.23,1.23,0,0,1-.95-.39,1.5,1.5,0,0,1-.36-1,1.61,1.61,0,0,1,.36-1.06,1.25,1.25,0,0,1,.95-.36,2.07,2.07,0,0,1,.92.22v.56h-.07a1.16,1.16,0,0,0-.78-.35.64.64,0,0,0-.56.25,1.35,1.35,0,0,0-.22.74,1.11,1.11,0,0,0,.22.74.76.76,0,0,0,.56.25,1.53,1.53,0,0,0,.36-.07,1.87,1.87,0,0,0,.42-.29h0Zm2.3.32a2.16,2.16,0,0,1-.56.11h-.36a1.32,1.32,0,0,1-.92-.5,1.57,1.57,0,0,1-.17-1.09,1.36,1.36,0,0,1,.46-1,1.12,1.12,0,0,1,1-.24,2,2,0,0,1,.88.31l-.07.57h-.07a1.33,1.33,0,0,0-.71-.46.73.73,0,0,0-.6.18,1.16,1.16,0,0,0-.28.7.88.88,0,0,0,.1.75.7.7,0,0,0,.5.31A1,1,0,0,0,29,61a1.08,1.08,0,0,0,.46-.24h.07Zm2.05.64-1.8-.39.6-2.69,1.77.43-.07.42-1.24-.28-.14.56,1.17.29-.11.42-1.13-.25-.18.78,1.2.25Zm2.55.64-.53-.11-.64-2.23-.49,1.91-.53-.1.67-2.66.67.18.57,2,.46-1.7.49.14Zm.71.17.56-2.65.82.18a1.85,1.85,0,0,1,.81.32,1,1,0,0,1,.39.56,1.46,1.46,0,0,1,0,.78,1.2,1.2,0,0,1-.32.67,1,1,0,0,1-.6.35,1.66,1.66,0,0,1-.85,0Zm1-2.12-.39,1.84.29.07a.84.84,0,0,0,1.09-.74.83.83,0,0,0-.7-1.1Zm3.68,2.94-1.8-.22L38,60.67l1.84.21-.07.46-1.24-.14-.07.57,1.17.14,0,.46-1.17-.14-.1.77,1.23.15Z"/><path class="cls-4" d="M26.45,41.58c-4,0-7.18-4.42-7.18-9.65H33.63c0,5.23-3.11,9.65-7.18,9.65Z"/><path class="cls-6" d="M28,19.9h.11s-.07-.53-1-.46H27s-.11.29-.11.29l.64,0s.42,0,.56.21Z"/><path class="cls-6" d="M27,20.26s.14-.14.14-.14h0a.11.11,0,0,0,0,.07.23.23,0,0,0,.18.21h.14a.27.27,0,0,0,.17-.21.11.11,0,0,0,0-.07.28.28,0,0,1,.21.14l.21,0s-.1-.53-1-.39a2.81,2.81,0,0,0-.24.36Z"/><path class="cls-6" d="M25,20.26l.21,0c0-.07.14-.1.21-.14v.07a.19.19,0,0,0,.14.21s.14,0,.18,0a.22.22,0,0,0,.14-.21v0h0s.1.1.14.1.21,0,.17,0L26,19.9c-.88-.17-1,.36-1,.36Z"/><path class="cls-6" d="M25.5,19.69l.67,0-.07-.29h-.18c-1-.07-1.09.46-1.09.46l.14,0c.1-.25.53-.18.53-.18Z"/><path class="cls-7" d="M27.44,26.62a0,0,0,0,1,0,0s0,0,0,0Z"/><path class="cls-5" d="M27.27,42.85a10.06,10.06,0,0,0,3.46-1.55c.78.07,1.06-.54,1.63-.85,0,0-.07-.07-.14-.07.31-.22.49-.5.84-.78a.41.41,0,0,0-.28-.07c.53-.18.18-.39.71-.78,0,0-.07,0-.11-.07.36-.21.32-.53.64-.85a.44.44,0,0,0-.32-.11c.6-.17.53-.56.88-.95a.69.69,0,0,1-.21,0c.32-.24.21-.6.46-1a1.13,1.13,0,0,0-.35,0c.53-.21.46-.71.74-1.17a.4.4,0,0,0-.21-.07c.39-.39-.14-.25.21-1.09-.11-.08-.21,0-.35,0,.42-.35.35-.78.56-1.31-.24-.07-.88.39-1.09.74v-.07a1,1,0,0,1,.39-.38c.63-.46.38-.89.56-1.49-.32,0-.85.46-1,.85,0-.07,0-.11,0-.14a1.11,1.11,0,0,1,.46-.53c.56-.29.38-.85.56-1.45a.68.68,0,0,0-.32.1c.14-.39-.1-.67-.07-1.13-.32,0-.67.57-.7.92a1.34,1.34,0,0,1-.11-.14.72.72,0,0,1,.32-.5c.53-.63.1-1,.14-1.59,0,0-.11,0-.14,0,0-.28-.25-.5-.29-.89-.31,0-.6.61-.56,1a.7.7,0,0,0-.14-.17.94.94,0,0,1,.28-.53c.28-.6,0-.89,0-1.49-.11,0-.18.07-.29.14,0-.38-.21-.56-.35-1-.18,0-.35.29-.46.57a.91.91,0,0,1,.11-.42c0-.78-.32-.85-.57-1.45a.7.7,0,0,0-.25.46,3.26,3.26,0,0,0-.6-1.17,1.43,1.43,0,0,0-.21,1,.71.71,0,0,1,0-.49c-.07-.6-.39-.81-.67-1.17a1,1,0,0,0,.46-.21.74.74,0,0,1-.39,0c-.18-.07-.29-.24-.43-.31s-.31,0-.6-.18L31,20.68l-1.52-.28a.29.29,0,0,1,.25-.11.61.61,0,0,0,.45-.17.85.85,0,0,1,.71-.25.84.84,0,0,0-.85,0c-.21.14-.31,0-.67,0l1.27-.81-1.52.31c.25-.39.5-.21.64-.67a1.12,1.12,0,0,1,.46-.42c-.25-.07-.57.1-.88.42a2,2,0,0,1-.5.21s.85-1.3.85-1.3-.88.63-1.31.88l0,0c0-.35.28-.28.32-.67a1,1,0,0,1,.28-.7c-.36.07-.5.31-.64.7-.07.14-.28.21-.42.39s.28-1.48.28-1.48L27.37,18a.31.31,0,0,1-.07-.21.63.63,0,0,0,.11-.5.91.91,0,0,1,0-.81c-.5.28-.25.71-.39,1-.07.11-.14.29-.21.39l-.25-1.52-.32,1.52c-.18-.24-.07-.35-.18-.56s-.35-.25-.39-.89c-.1.25-.21.39.08,1a5.22,5.22,0,0,1,0,.57l-.85-1.27.32,1.48c-.18,0-.25-.32-.39-.46s-.53-.14-.71-.63c-.07.35.07.53.39.84a1.71,1.71,0,0,1,.25.57l-1.31-.88.89,1.3c-.29,0-.32-.35-.89-.35-.35,0-.56-.32-.53-.25.18.64.64.46.81.71a2.24,2.24,0,0,1,.29.35L22.49,19l1.28.85c-.22.1-.5-.18-.78,0a.71.71,0,0,1-.78,0c.32.39.49.32.81.32a1.37,1.37,0,0,1,.64.25l-1.52.28,1.52.32c-.18.14-.5,0-.71.21a.72.72,0,0,1-.74.32.73.73,0,0,0,.85.11,3.59,3.59,0,0,0-.39.39.78.78,0,0,0-.14-.29c-.29.43-.64.46-.78,1a.56.56,0,0,0-.14-.36c-.25.46-.53.53-.64,1.06a.42.42,0,0,0-.17-.28c-.25.57-.68.71-.54,1.49a.64.64,0,0,1,0,.46c0-.32-.18-.64-.39-.68a2.48,2.48,0,0,0-.42,1,.31.31,0,0,0-.22-.11c0,.6-.53.78-.07,1.49.22.21.18.39.22.56,0,0,0,0-.07.07,0-.35-.29-.91-.61-.95,0,.46-.24.64-.21,1a.39.39,0,0,0-.21,0c.07.61-.35.85.18,1.45a.83.83,0,0,1,.35.5c-.07,0-.11.07-.11.14,0-.39-.42-.88-.7-.88.07.63-.29.63-.07,1.06a.55.55,0,0,0-.32-.07c.18.6,0,1.06.56,1.41a.91.91,0,0,1,.43.53.13.13,0,0,1,0,.11c-.1-.36-.63-.85-1-.82.18.5.07,1,.35,1.28a.88.88,0,0,0-.49-.11c.28.6.1.92.67,1.42a.49.49,0,0,0-.5-.07c.18.38.15.7.29,1a.46.46,0,0,0-.25.07c.32.46.21.84.67,1.13a.37.37,0,0,0-.28.07c.21.32.25.63.42.88a.47.47,0,0,0-.21.11c.39.35.39.71.81.92a.34.34,0,0,0-.28.1,6.76,6.76,0,0,0,.67.78.71.71,0,0,0-.28.11c.42.32.46.67.92.81a.44.44,0,0,0-.32.11c.57.42.21.56.71.74,0,0-.07.07-.11.07.57.32.64,1,1.88,1h0a7.12,7.12,0,0,0,3.39,1.55Zm7.6-9.16h0c-.14.39,0,.64-.32.92-.25,0-.25.11-.28.18a1.21,1.21,0,0,1,.14-.39c-.07.07-.18.14-.21.25a.43.43,0,0,1-.29-.28c-.17-.32-.07-.46-.1-.78a4.33,4.33,0,0,1,.46.74c.07-.28.46-.67.6-.64Zm-.64.22h0a1,1,0,0,1,.35-.32,1,1,0,0,0-.31.42s0-.07,0-.1ZM35,32.39h0c-.17.38,0,.6-.46,1-.24.11-.21.14-.28.25a1.42,1.42,0,0,1,.21-.43,1.43,1.43,0,0,0-.28.32.4.4,0,0,1-.28-.21c-.14-.28,0-.46,0-.74.14.21.43.42.43.6.1-.29.56-.74.7-.74Zm-.7-.36h0a1.46,1.46,0,0,1,.6-.85c-.14.43,0,.6-.28,1-.25.14-.22.22-.29.29a2.16,2.16,0,0,1,.14-.43,1,1,0,0,0-.21.32c-.07,0-.18,0-.32-.18s-.1-.42-.17-.7c.21.21.49.38.53.56Zm-.43-.92h0c.14.18.25.25.29.39a2.49,2.49,0,0,0-.29-.25v-.14Zm1-1.2h0c-.11.42.07.6-.28.95-.25.15-.22.18-.29.29a2.39,2.39,0,0,1,.14-.43c-.07.11-.17.18-.21.32a.45.45,0,0,1-.32-.18c-.21-.28-.1-.42-.17-.7.21.21.49.39.53.56a1.36,1.36,0,0,1,.6-.81Zm-.64-.11h0c0-.28.28-.81.43-.84,0,.42.17.56-.11,1-.21.14-.18.17-.21.28a1,1,0,0,1,.07-.43.81.81,0,0,0-.18.32A.36.36,0,0,1,34,30c-.25-.21-.18-.35-.32-.64a4.17,4.17,0,0,1,.67.46Zm-.88,5.63h0a.59.59,0,0,1,.07-.25v0c.14.53.28.53.25.89,0,0,0,0,0,0a1.16,1.16,0,0,0-.28-.7Zm-.6,2.51h0a3.31,3.31,0,0,0-.18-.53.34.34,0,0,1,.07-.15c0,.36.14.46.11.68Zm.49-.15h0a2,2,0,0,0-.53.29l0,0a.91.91,0,0,1,.49-.25Zm-1-.7h0a4.38,4.38,0,0,1-2.87-.82,1.31,1.31,0,0,0,.14-.84c-.07-.18-.07,0-.1.1a1.06,1.06,0,0,1-.43.53A3.33,3.33,0,0,0,28,35.25c-.42-.25-.46-.39-.7-.53-.43.18-1.07.56-1.38.32s.31-.29.53-.64a.72.72,0,0,1,.81-.28,9.44,9.44,0,0,1,1.91.78,20,20,0,0,1,3.18.67,2.39,2.39,0,0,0,.64.1,7.07,7.07,0,0,1-.6,1.42Zm-5.13-1.28h0c.35.39.67.5.88,1a.21.21,0,0,1-.35.07c-.53-.57-1-.67-.81-.92-.11,0-.18.11-.18.21.11.39.57.57.71.92-.07.29-.64,0-.89-.67v0c-.1.17-.21.28.18.7.07.18.14.36-.14.32,0,0-.14,0-.07,0h.07s0,0-.07,0c.14-.71-.53-.57-.5-.57.07-.25-.28-.53-.67-.35.07-.22-.35-.5-.88-.29-.11-.21-.57-.39-1.06.18-.85.07-2.2.81-3,.46a10.41,10.41,0,0,1-.53-1.41,18,18,0,0,0,3.92-.57,3.15,3.15,0,0,1,2-.42c0,.21-.5.6-.25.77a1.32,1.32,0,0,0,1.59,0c.49.49,1.27.56,1.56,1.24l-.08.21c-.17.1-.17.1-.38-.18-.46-.6-.89-.46-1-.88-.18,0-.07.24-.07.31ZM25,37.09h0c-.17.07.07-.11.11-.14l.1-.11c.15-.11.32-.32.46,0s-.49.5-.6.54-.1,0-.17,0a.14.14,0,0,1,.1-.21Zm-.53,0h0c-.1,0-.17,0-.21-.07s.11-.28.18-.39a.22.22,0,0,1,.14-.07l.1-.1c.22,0,.22,0,.25.1s-.35.5-.46.53Zm1.42.07h0s.21-.24.31.11c0,.14-.21.28-.42.35s-.42,0,.11-.46Zm-2-.49h0c-.11,0-.25-.11-.14-.14l.07-.18c.17-.07.24-.14.31-.07s-.17.39-.24.39Zm-3.68.6h0l-.11.18a1.87,1.87,0,0,0,.07-.22,0,0,0,0,0,0,0Zm-.18.67h0a1.1,1.1,0,0,0-.32-.21.66.66,0,0,1,.29.14s0,0,0,.07ZM19.24,36h0s0,0,0,0c0-.32.07-.36.22-.85a1.72,1.72,0,0,0,.07.21c-.14.21-.32.46-.25.67Zm.07-6.89h0l-.25.1c.07-.07.14-.1.25-.21v.11ZM19.38,32H26.1v2a4.09,4.09,0,0,0-1.31,0c-1.2.21-.81.81-5.09.89A12,12,0,0,1,19.38,32Zm4.14-9.79h0c.07-.07.14-.07.21-.36.14-.53.46-.46.81-.7.14.17-.32.74-.6.95.18,0,.43.18.67.28-.28,0-.42.18-.7.11s-.22-.18-.25-.25.14-.17.25-.32a1.58,1.58,0,0,1-.39.29Zm5.16-.18h0a1.27,1.27,0,0,1-.35-.07,3.4,3.4,0,0,0,.46-.21c.28.07.53.21.56.46-.25-.07-.28.07-.63.14s-.54-.11-.82-.18c-.1-.07-.14-.14-.14-.17h.46v0a.66.66,0,0,0,.46,0Zm-1.1-.42h0a1,1,0,0,0,.46-.11.42.42,0,0,1-.31,0c.21-.11.35-.28.6-.28s.39.21.63.1c0,.22-1.09.71-1.38.29Zm-.53-.07h0c.18,0,.36.35.57.56-.28-.1-.43,0-.67-.21a.36.36,0,0,1-.18-.32.67.67,0,0,0,.28-.21,1.27,1.27,0,0,1-.39.14c.08-.07.15,0,.25-.28.36-.32.53-.14.92-.21,0,.14-.46.45-.78.53Zm-.85.07h0c.18,0,.39.28.61.46-.29,0-.43.07-.68-.07a.41.41,0,0,1-.24-.29.94.94,0,0,0,.24-.28.64.64,0,0,1-.35.21.47.47,0,0,0,.21-.32c.29-.35.43-.21.82-.39,0,.15-.36.57-.61.68Zm-.63.53h0c-.28,0-.43.14-.67,0s-.22-.18-.25-.25a1,1,0,0,0,.25-.28,1.7,1.7,0,0,1-.39.24.47.47,0,0,0,.21-.31c.28-.43.49-.32.88-.53a1.48,1.48,0,0,1-.67.74,2.39,2.39,0,0,1,.64.39Zm4.88,1.41h.1s0,0-.07,0,0,0,0,0ZM32.92,27h0l.21.11a.33.33,0,0,0-.17,0s0,0,0-.07Zm-3.53,7.53h0c-.67-.14-1.56-.88-2.55-.81V32h6.72a16.16,16.16,0,0,1-.46,3.22c-1.34,0-2.62-.74-3.71-.71ZM33.59,29h0a1.82,1.82,0,0,1,.29.21l-.25-.14a.11.11,0,0,1,0-.07Zm.78-1.31h0c0,.42.21.56-.07,1-.21.14-.18.21-.25.29a1.36,1.36,0,0,1,.07-.39.78.78,0,0,0-.17.31c-.07,0-.14,0-.36-.14s-.17-.39-.28-.67c.25.18.57.32.64.5,0-.29.28-.82.42-.85Zm-.63,0h0c-.07-.28.1-.81.24-.85.07.39.29.53.11.92-.21.18-.14.25-.18.32a1,1,0,0,1,0-.42.64.64,0,0,0-.1.35.38.38,0,0,1-.39-.11c-.32-.17-.25-.35-.46-.6a4.33,4.33,0,0,1,.78.39Zm-.32-2.05h0c0,.43.28.53.07,1-.21.14-.14.21-.18.31a1,1,0,0,1,0-.42.57.57,0,0,0-.1.32.52.52,0,0,1-.39-.11c-.29-.21-.25-.35-.43-.63.29.17.64.28.74.42,0-.28.15-.81.29-.85Zm-.57-.88h0c.11.42.39.53.25.95-.14.18-.11.21-.11.32a2,2,0,0,1-.07-.42.68.68,0,0,0-.07.35.45.45,0,0,1-.39-.07c-.32-.14-.32-.32-.53-.57.29.14.67.18.82.32-.11-.28,0-.81.1-.88Zm-.32.67h0a.35.35,0,0,0-.21-.18l.21.11v.07Zm-.46-1.8h0c.18.39.32.35.29.88-.07.25,0,.28,0,.39a2.3,2.3,0,0,1-.18-.43,1.14,1.14,0,0,0,0,.39c-.08,0-.11.15-.32.07s-.36-.28-.57-.46c.28,0,.6,0,.74.11a1.27,1.27,0,0,1,0-.95Zm-.7.21h0a1.5,1.5,0,0,1-.11-.92c.25.35.39.28.43.78a.55.55,0,0,0,0,.39,1.07,1.07,0,0,1-.18-.39.72.72,0,0,0,.07.39c-.07,0-.11.14-.35.1s-.36-.21-.61-.35c.29,0,.61-.11.75,0ZM30.31,22h0c.21.35.46.31.53.84-.07.25,0,.25,0,.36-.07-.11-.14-.21-.22-.36a1.65,1.65,0,0,0,.11.36c-.07,0-.11.14-.35.1s-.39-.17-.64-.31c.28,0,.64-.11.78,0-.18-.25-.32-.85-.21-.95Zm-.18-.29h0s0,.07,0,.14-.1-.14-.17-.17l.21,0ZM30,22.1h0a.51.51,0,0,0,.07.38H30a1.41,1.41,0,0,1-.21-.31,1,1,0,0,0,.11.39c0,.07-.07.1-.21.1a.93.93,0,0,1-.64-.14c.28-.11.39-.25.67-.18a.11.11,0,0,1,0-.07h0a.51.51,0,0,0-.25-.28.89.89,0,0,1-.14-.53c.28.28.56.18.7.64Zm-.24-.71h-.32a.42.42,0,0,1-.14-.11,3.13,3.13,0,0,1,.46.11ZM24,21.11h0a.75.75,0,0,0,.35-.22l-.92-.24,1-.18s0-.07-.57-.25c-.11,0,0-.14-.49-.21.17,0,.1,0,.42.07a2.51,2.51,0,0,0,.71,0,9.8,9.8,0,0,0-1-.64s.64.18,1.13.28a8.47,8.47,0,0,1-.63-.63c-.07-.08-.11-.15-.18-.22.28.11.28.22.42.29a3.59,3.59,0,0,0,.61.24l-.68-1,1,.68c0-.25-.24-.46-.24-.54-.11-.42-.07-.38-.18-.53.28.39.35.61.78.85l-.18-1.23.57,1.09a1.49,1.49,0,0,0,0-.56c.07-.57.07-.22,0-.64,0,.25,0,.21.07.46s.21.42.32.64l.24-1.14a11.24,11.24,0,0,1,.18,1.14c.11-.22.11-.36.21-.53a2.88,2.88,0,0,0,.25-.57,3.58,3.58,0,0,0-.11.57c0,.24,0,.56,0,.6l.71-1-.29,1.16c.07,0,.39-.39.64-.56a2.62,2.62,0,0,0,.21-.29,1.61,1.61,0,0,0-.28.53,2.25,2.25,0,0,0-.25.57l1-.67-.71.95s.07,0,.53-.21a2,2,0,0,0,.6-.28c-.32.32-.46.28-.88.85l1.09-.25s-.92.57-.95.6.42,0,.71,0a.86.86,0,0,0,.53,0c-.32.1-.39.07-.71.17-.14.07-.43.18-.46.25l1.13.21s-1.1.25-1.31.32h-.17c-.08,0-.11,0-.15,0a.64.64,0,0,0,0-.25,8.07,8.07,0,0,0-1,.07.27.27,0,0,0,0-.25c-.46.21-.84.14-1.23.43a.49.49,0,0,0-.07-.29c-.39.21-.75.07-1,.32v-.21c-.42.18-.78.21-1.06.53-.11,0-.18,0-.28,0s0,0,0,0a0,0,0,0,1,0,0H23.2a3.48,3.48,0,0,0,.78-.24Zm-1.35,1.34h0c.15-.42.39-.39.68-.67a1.2,1.2,0,0,1-.36.85c.18,0,.46.14.78.17-.28.11-.35.25-.71.22s-.24-.15-.32-.18a1.15,1.15,0,0,0,.15-.32,2.1,2.1,0,0,1-.29.32.46.46,0,0,0,.07-.39Zm.64.07Zm-1.34.53h0c.07-.49.28-.46.53-.81.1.1,0,.7-.22,1,.18-.1.5,0,.78,0-.28.1-.32.32-.63.32a.44.44,0,0,1-.32-.11c0-.14,0-.25.07-.39a1.62,1.62,0,0,1-.21.39.69.69,0,0,0,0-.39Zm-.18.39h0a1.72,1.72,0,0,0-.07.21h0s0-.14.07-.21Zm-.64.28h0c.07-.53.22-.46.43-.81a1.5,1.5,0,0,1-.11.92c.14-.11.46,0,.74,0-.24.14-.28.35-.6.35a.38.38,0,0,1-.32-.07,1.36,1.36,0,0,0,.08-.39,1.1,1.1,0,0,1-.22.39c0-.1.07-.14,0-.39Zm-.35,0h0a1.39,1.39,0,0,1,0,.95,2.09,2.09,0,0,1,.74-.1c-.25.17-.28.38-.56.46a.44.44,0,0,1-.36-.08.67.67,0,0,0,0-.38.87.87,0,0,1-.14.42.51.51,0,0,0,0-.39c0-.49.14-.49.32-.88Zm-.46,1.73h0a.17.17,0,0,1,.14-.07c-.07,0-.1.07-.18.1s0,0,0,0ZM20,24.85h0c.14,0,.21.6.11.85.1-.14.49-.21.81-.32-.25.22-.21.39-.56.57S20,26,20,26a.91.91,0,0,0-.07-.35.73.73,0,0,1-.1.39c0-.07.07-.11-.11-.32-.11-.39.18-.5.28-.89Zm-.63,1.77h0c-.22-.39,0-.53.07-.92.14,0,.31.53.28.82.11-.15.46-.25.74-.43-.18.25-.14.43-.42.64a.53.53,0,0,1-.39.1.56.56,0,0,0-.11-.31.61.61,0,0,1,0,.38.5.5,0,0,0-.17-.28ZM20,27h0s0,.07-.07.11a1.25,1.25,0,0,0-.32.14A2.2,2.2,0,0,1,20,27Zm-1.06-.14h0c.14,0,.32.56.28.85a3.22,3.22,0,0,1,.71-.39c-.18.25-.1.39-.42.6s-.29.07-.36.11a1.18,1.18,0,0,0-.1-.36,1,1,0,0,1,0,.43.28.28,0,0,0-.14-.32c-.21-.43,0-.53.07-.92Zm-.28,1.8h0c-.28-.35-.07-.53-.11-.92.18,0,.43.53.43.82.07-.18.42-.32.67-.5-.14.28-.07.43-.32.67a.72.72,0,0,1-.35.14.94.94,0,0,0-.18-.31.68.68,0,0,1,.07.39c0-.08,0-.15-.21-.29Zm-.43.29h0c.15,0,.43.56.43.84.07-.17.39-.28.63-.46-.1.25,0,.43-.28.64a.45.45,0,0,1-.35.11.84.84,0,0,0-.18-.29.72.72,0,0,1,.07.39c0-.07,0-.14-.21-.28-.28-.39-.07-.53-.11-.95Zm.43,2h0c0-.11-.14-.18-.21-.28a1.38,1.38,0,0,1,.14.39c-.07-.07,0-.14-.29-.25-.31-.35-.21-.46-.31-.85.17,0,.53.42.6.71.07-.18.35-.36.56-.57-.1.28,0,.43-.17.67s-.25.18-.32.18Zm.39.11h0v.14a1,1,0,0,0-.32.25c.07-.18.18-.22.32-.39ZM18,31.22h0a1.22,1.22,0,0,1,.6.74c.07-.18.35-.32.53-.53-.07.28,0,.42-.14.67s-.25.14-.32.18a1,1,0,0,0-.21-.32,2.16,2.16,0,0,1,.14.43c-.07-.11,0-.15-.29-.29-.31-.39-.17-.46-.31-.88Zm.6,1.48h0v0a1.35,1.35,0,0,0-.36-.43.63.63,0,0,1,.36.39Zm-.64-.28h0a1.23,1.23,0,0,1,.67.64c0-.18.25-.39.39-.6,0,.28.14.42,0,.7s-.22.18-.25.22a1.11,1.11,0,0,0-.28-.29,1,1,0,0,1,.21.39c-.07-.07,0-.14-.28-.25-.61-.53,0,.18-.43-.81Zm.78,1.41h0s0,0,0,.08a1.28,1.28,0,0,0-.39-.43,2.8,2.8,0,0,1,.43.35Zm0,.39h0a4.75,4.75,0,0,1,.46-.74c-.07.32.07.46-.1.78s-.21.21-.29.28c0-.1-.14-.17-.21-.25a1.21,1.21,0,0,1,.14.39c0-.07,0-.14-.24-.21-.36-.25-.22-.39-.36-.78.14,0,.53.29.6.53Zm-.53.39h0c.14-.07.6.25.71.5a3.38,3.38,0,0,1,.35-.78c0,.32.15.42,0,.74s-.21.29-.25.32a.8.8,0,0,0-.28-.18,1.11,1.11,0,0,1,.25.32.58.58,0,0,0-.32-.14c-.39-.21-.28-.42-.5-.78Zm1.13,1.7h0c0-.21.22-.5.32-.78,0,.28.14.39,0,.74a.42.42,0,0,1-.21.29.84.84,0,0,0-.29-.18,1,1,0,0,1,.25.32c-.11,0-.11-.11-.35-.11-.39-.21-.29-.46-.5-.81.14,0,.6.28.74.53Zm-.49.42h0a1.13,1.13,0,0,1,.85.39c0-.17.14-.49.18-.81.1.28.24.35.17.71s-.1.28-.17.32a.68.68,0,0,0-.32-.15,1.26,1.26,0,0,1,.32.29c-.11,0-.11-.11-.36-.07-.46-.15-.39-.39-.67-.68Zm.53,1h0a1.31,1.31,0,0,1,.85.42c0-.17.14-.46.21-.77.07.31.21.38.14.7s-.14.25-.17.32a.68.68,0,0,0-.32-.14.58.58,0,0,1,.28.28c-.07-.07-.11-.14-.35-.1-.46-.14-.36-.39-.64-.71Zm.39.88h0a1.51,1.51,0,0,1,.95.25c-.07-.14,0-.46.07-.74.11.25.29.32.29.63s-.11.29-.14.32a1.28,1.28,0,0,0-.36-.07.88.88,0,0,1,.36.21.43.43,0,0,0-.39,0c-.46-.07-.43-.32-.78-.57Zm1.34.85h0s0,.11,0,.14a1.4,1.4,0,0,0-.5-.21,2,2,0,0,1,.46.07Zm-.78.07h0a1.67,1.67,0,0,1,1,.32c-.07-.14.07-.46.11-.74.1.28.28.35.24.67s-.1.25-.14.32a.92.92,0,0,0-.35-.14,1.28,1.28,0,0,1,.35.24.52.52,0,0,0-.39-.07c-.49-.1-.46-.35-.78-.6Zm2.13,1.49h0a.46.46,0,0,0-.39-.11c-.53,0-.67-.39-1-.6a1.67,1.67,0,0,1,1,.21c-.1-.14,0-.46,0-.74.17.25.35.28.39.6s0,.39.1.57c-.07-.11-.18-.14-.28-.22a2.15,2.15,0,0,1,.25.29Zm2.72,1.34h0a5.2,5.2,0,0,1-2.37-1.27,2.75,2.75,0,0,1-.18-.74v0a6,6,0,0,0,2.62,1.38h-.11c-.31.39-.14.6,0,.67Zm1.31-.92h0c-3.08,0-4.92-2.58-5.62-3.78-.11-.14,1.76-.74,2.19-.85l.53-.14c0,.25.39.32.39.21.07.07,0,.21.17.39s.43.07.46,0c-.17.18.36.46.67.25,0,.17.22.21.29.24a.81.81,0,0,0,.6,0v1.7c0,.32,0,.39.18.46.7,0,.56-.18.63-.39,0-.74-.07-1.8-.07-1.77.5-.07.35-.17.57-.24s.28,0,.46-.21a.45.45,0,0,0,.53-.25c.21.07.49-.11.67-.5.46.14,2.12,1,2.9,1.28-.36.56-2.26,3.6-5.55,3.6Zm5.37-1.77h0a.77.77,0,0,1,.28-.07,1.92,1.92,0,0,0-.31.14s0,0,0-.07Zm-.74.75h0s0,0,0,0,0,0,0,0Zm-.81.07h0c-.08.28-.08.49-.15.67-.28.53-1.69,1-2.29,1.2.17-.18.28-.49,0-.67h-.07a6.05,6.05,0,0,0,2.48-1.27v.07Zm.7.49h0a.57.57,0,0,0-.49.18,1.13,1.13,0,0,1,.28-.32.74.74,0,0,0-.28.14,1.71,1.71,0,0,1,0-.46c.07-.32.25-.35.42-.6,0,.28.07.6,0,.74a1.94,1.94,0,0,1,1-.17c-.39.21-.39.46-.92.49Zm.82-.67h0a.59.59,0,0,0-.39.07.94.94,0,0,1,.39-.25.69.69,0,0,0-.39.11c0-.07-.14-.07-.14-.32s.17-.39.28-.67c0,.28.18.6.1.78a1.58,1.58,0,0,1,1-.36c-.32.29-.28.53-.81.64Zm.6-.92h0c-.29,0-.29,0-.39,0a1.23,1.23,0,0,1,.35-.22.58.58,0,0,0-.35.11.46.46,0,0,1-.14-.35c0-.32.17-.39.28-.67,0,.31.14.63.07.77.25-.17.81-.35,1-.24-.35.24-.28.49-.77.56Zm.53-.74h0a.38.38,0,0,0-.36.07.8.8,0,0,1,.32-.28.92.92,0,0,0-.35.14.4.4,0,0,1-.18-.32c-.07-.32.07-.39.14-.71.07.32.29.6.25.82.18-.25.71-.5.85-.43-.28.28-.21.53-.67.71Zm.6-1.1h0a.42.42,0,0,0-.36.07,1.28,1.28,0,0,1,.29-.28.74.74,0,0,0-.32.18.63.63,0,0,1-.18-.36c-.07-.35.11-.42.18-.7.07.28.25.6.18.77a1.3,1.3,0,0,1,.88-.35c-.28.28-.25.53-.67.67Zm.39-.85h0c-.25,0-.25.07-.32.15a1.16,1.16,0,0,1,.25-.36.9.9,0,0,0-.29.21c-.07-.07-.17-.07-.24-.31s0-.46.07-.75a4.6,4.6,0,0,1,.32.78c.14-.25.6-.56.74-.53-.21.35-.11.6-.53.81Zm.1-.81h0a.21.21,0,0,1,.18-.11s-.11,0-.18.11Zm.32-.39h0c-.25,0-.25.11-.32.14a.72.72,0,0,1,.25-.31.46.46,0,0,0-.28.17.65.65,0,0,1-.25-.32c-.11-.35,0-.46,0-.77.1.31.35.63.35.81.11-.25.57-.6.71-.53-.22.35-.07.6-.5.81Z"/><path class="cls-4" d="M24,21.11a1.21,1.21,0,0,0,.39-.22l-1-.24,1-.18s0-.07-.57-.25c-.11,0,0-.14-.49-.21.17,0,.1,0,.42.07a2.51,2.51,0,0,0,.71,0,9.8,9.8,0,0,0-1-.64s.64.18,1.13.28a8.47,8.47,0,0,1-.63-.63c-.07-.08-.11-.15-.18-.22.28.11.28.22.42.29a3.59,3.59,0,0,0,.61.24l-.68-1,1,.68c0-.25-.24-.46-.24-.54-.11-.42-.07-.38-.18-.53.28.39.35.61.78.85l-.18-1.23.57,1.09a1.49,1.49,0,0,0,0-.56c.07-.57.07-.22,0-.64A2.44,2.44,0,0,1,26,18c.1.25.21.42.32.64l.24-1.14a11.24,11.24,0,0,1,.18,1.14c.11-.22.11-.36.21-.53a2.88,2.88,0,0,0,.25-.57,3.58,3.58,0,0,0-.11.57,2.14,2.14,0,0,0,0,.6l.71-1-.29,1.16c.07,0,.39-.39.64-.56a2.62,2.62,0,0,0,.21-.29,1.61,1.61,0,0,0-.28.53,2.25,2.25,0,0,0-.25.57l1-.67-.71.95s.07,0,.53-.21a2,2,0,0,0,.6-.28c-.32.32-.46.28-.88.85l1.09-.25s-.92.57-.95.6.42,0,.71,0a.86.86,0,0,0,.53,0c-.32.1-.39.07-.71.17-.14.07-.43.18-.46.25l1.13.21s-1.1.25-1.31.32h-.17c-.08,0-.11,0-.15,0a.64.64,0,0,0,0-.25,8.07,8.07,0,0,0-1,.07.27.27,0,0,0,0-.25c-.46.21-.84.14-1.23.43a.8.8,0,0,0,0-.29c-.42.21-.78.07-1.06.32v-.21c-.42.18-.78.21-1.06.53-.11,0-.18,0-.28,0s0,0,0,0a0,0,0,0,1,0,0H23.2a3.48,3.48,0,0,0,.78-.24Z"/><path class="cls-5" d="M28,19.9h.11s-.07-.53-1-.46H27l-.11.29.64,0s.42,0,.56.21Z"/><path class="cls-5" d="M27,20.26s.14-.14.14-.14h0a.11.11,0,0,0,0,.07.23.23,0,0,0,.18.21h.14a.27.27,0,0,0,.17-.21.11.11,0,0,0,0-.07.28.28,0,0,1,.21.14l.21,0s-.1-.53-1-.39a2.81,2.81,0,0,0-.24.36Z"/><path class="cls-5" d="M25,20.26l.21,0c0-.07.14-.1.21-.14v.07a.19.19,0,0,0,.14.21s.14,0,.18,0a.22.22,0,0,0,.14-.21v0h0l.14.1s.21,0,.17,0L26,19.9c-.88-.17-1,.36-1,.36Z"/><path class="cls-5" d="M25.5,19.69l.67,0-.07-.29h-.18c-1-.07-1.09.46-1.09.46l.14,0c.14-.25.53-.18.53-.18Z"/><path class="cls-4" d="M34.87,33.69c-.14.39,0,.64-.32.92-.25,0-.25.11-.28.18a.81.81,0,0,1,.17-.39c-.1.07-.21.14-.24.25s-.15,0-.29-.28-.07-.46-.1-.78a4.33,4.33,0,0,1,.46.74c.07-.28.46-.67.6-.64Z"/><path class="cls-4" d="M35,32.39c-.17.38,0,.6-.46,1-.24.11-.21.14-.28.25a1.42,1.42,0,0,1,.21-.43,1.43,1.43,0,0,0-.28.32c-.07,0-.18,0-.28-.21s0-.46,0-.74c.18.21.43.46.43.6.14-.29.56-.74.7-.74Z"/><path class="cls-4" d="M34.34,32a1.66,1.66,0,0,1,.6-.85c-.11.43,0,.6-.28,1-.25.14-.22.22-.29.29a2.16,2.16,0,0,1,.14-.43,2,2,0,0,0-.21.32c-.07,0-.18,0-.32-.18s-.1-.42-.17-.7c.21.21.49.38.53.56Z"/><path class="cls-4" d="M34.94,29.91c-.11.42.07.6-.28.95-.25.15-.22.18-.29.29a2.39,2.39,0,0,1,.14-.43c-.07.11-.17.18-.21.32a.45.45,0,0,1-.32-.18c-.21-.28-.1-.42-.17-.7.21.21.49.39.56.56a1.37,1.37,0,0,1,.57-.81Z"/><path class="cls-4" d="M34.3,29.8c0-.28.28-.81.43-.84,0,.42.17.56-.11,1-.21.14-.18.17-.21.28a1,1,0,0,1,.07-.43,2.11,2.11,0,0,0-.18.32A.36.36,0,0,1,34,30c-.25-.21-.18-.35-.32-.64.25.18.6.32.67.46Z"/><path class="cls-4" d="M23.55,22.24a.66.66,0,0,0,.18-.36c.14-.53.46-.46.81-.7.14.17-.32.74-.6.95.18,0,.43.18.67.28-.28,0-.42.18-.7.11s-.22-.18-.25-.25a.69.69,0,0,0,.25-.32,1.15,1.15,0,0,1-.36.29Z"/><path class="cls-4" d="M28.68,22.06a.92.92,0,0,1-.32-.07,1.91,1.91,0,0,0,.43-.21c.31.07.56.21.56.46-.25-.07-.28.07-.63.14s-.54-.11-.82-.18c-.1-.07-.14-.14-.14-.17h.46v0a.66.66,0,0,0,.46,0Z"/><path class="cls-4" d="M27.62,21.64a.94.94,0,0,0,.42-.11.42.42,0,0,1-.31,0c.21-.11.35-.28.63-.28s.36.21.6.1c0,.22-1.06.71-1.34.29Z"/><path class="cls-4" d="M27.05,21.57c.18,0,.36.35.57.56-.28-.1-.43,0-.67-.21s-.14-.25-.18-.32a.67.67,0,0,0,.28-.21,1.27,1.27,0,0,1-.39.14c.08-.07.15,0,.25-.28.36-.32.53-.14.92-.21,0,.14-.46.49-.78.53Z"/><path class="cls-4" d="M26.2,21.64c.18,0,.39.28.64.46-.32,0-.46.1-.71-.07a.41.41,0,0,1-.24-.29,2.46,2.46,0,0,0,.28-.28.79.79,0,0,1-.39.21.47.47,0,0,0,.21-.32c.32-.35.46-.21.85-.39,0,.15-.39.57-.64.68Z"/><path class="cls-4" d="M34.37,27.72c0,.42.21.56-.07,1a.78.78,0,0,0-.25.32,1.67,1.67,0,0,1,.07-.42.5.5,0,0,0-.14.31c-.1,0-.17,0-.35-.14s-.21-.39-.32-.67c.25.18.57.32.67.5,0-.29.25-.82.39-.85Z"/><path class="cls-4" d="M33.74,27.68c-.07-.28.1-.81.24-.85.07.39.29.53.11,1-.21.14-.14.21-.18.28a.85.85,0,0,1,0-.39.57.57,0,0,0-.1.32.39.39,0,0,1-.39-.11c-.32-.17-.25-.35-.43-.6.25.14.64.25.75.39Z"/><path class="cls-4" d="M33.42,25.63c0,.43.28.53.07,1a.48.48,0,0,0-.18.31,1,1,0,0,1,0-.42.57.57,0,0,0-.1.32.52.52,0,0,1-.39-.11c-.29-.21-.25-.35-.43-.63.29.17.64.28.74.42,0-.28.15-.81.29-.85Z"/><path class="cls-4" d="M32.85,24.78c.11.39.39.5.25.92C33,25.88,33,26,33,26a2,2,0,0,1-.07-.42,1.8,1.8,0,0,0-.07.35.45.45,0,0,1-.39-.07c-.32-.14-.32-.32-.53-.57.29.14.67.18.82.36-.11-.29,0-.85.1-.89Z"/><path class="cls-4" d="M32.07,23.62c.18.39.32.35.29.88a.69.69,0,0,0,0,.39.88.88,0,0,1-.14-.43.64.64,0,0,0,0,.39c-.08,0-.11.15-.32.07s-.36-.28-.57-.46c.28,0,.6,0,.74.11a1.27,1.27,0,0,1,0-.95Z"/><path class="cls-4" d="M31.37,23.83a1.22,1.22,0,0,1-.07-.92c.21.35.35.28.39.78a.55.55,0,0,0,0,.39,1.07,1.07,0,0,1-.18-.39.72.72,0,0,0,.07.39c-.07,0-.11.14-.35.1s-.36-.21-.61-.35c.29,0,.61-.11.75,0Z"/><path class="cls-4" d="M30.31,22c.24.35.46.31.53.84-.07.25,0,.29,0,.36a1.64,1.64,0,0,1-.25-.36,1.17,1.17,0,0,0,.11.36c-.07,0-.11.14-.35.1s-.39-.17-.64-.31c.28,0,.64-.11.78,0-.18-.25-.32-.81-.21-.95Z"/><path class="cls-4" d="M30,22.1a.51.51,0,0,0,.07.38H30a1.41,1.41,0,0,1-.21-.31,1.34,1.34,0,0,0,.11.42s-.07.07-.21.07a.93.93,0,0,1-.64-.14c.28-.11.39-.25.67-.18a.11.11,0,0,1,0-.07h0a.69.69,0,0,0-.25-.28.89.89,0,0,1-.14-.53c.28.28.56.18.7.64Z"/><path class="cls-4" d="M22.67,22.48c.11-.45.35-.42.64-.7.07.14-.15.67-.36.88.18-.07.5.11.78.18-.28.07-.35.25-.67.18s-.28-.15-.36-.18a1.15,1.15,0,0,0,.15-.32,2.33,2.33,0,0,1-.25.32c0-.11.07-.11.07-.36Z"/><path class="cls-4" d="M21.93,23.05c.07-.49.31-.46.56-.81a1.58,1.58,0,0,1-.25,1c.18-.1.5,0,.78,0-.28.1-.32.32-.63.32a.44.44,0,0,1-.32-.11,1.51,1.51,0,0,0,.07-.39,1.62,1.62,0,0,1-.21.39.69.69,0,0,0,0-.39Z"/><path class="cls-4" d="M21.15,23.72c0-.53.18-.46.39-.81a1.48,1.48,0,0,1-.11.92,2.57,2.57,0,0,1,.74,0c-.24.14-.28.35-.6.35s-.24-.07-.32-.07a1.36,1.36,0,0,0,.08-.39.84.84,0,0,1-.22.39.41.41,0,0,0,0-.39Z"/><path class="cls-4" d="M20.76,23.69a1.23,1.23,0,0,1,0,.95,2.09,2.09,0,0,1,.74-.1c-.25.17-.25.38-.56.46a.33.33,0,0,1-.36-.08.49.49,0,0,0,0-.38.87.87,0,0,1-.14.42.51.51,0,0,0,0-.39c0-.49.14-.49.32-.88Z"/><path class="cls-4" d="M20,24.85c.14,0,.21.6.11.85a2.66,2.66,0,0,1,.81-.32c-.25.22-.21.39-.53.57s-.32,0-.39.07a.57.57,0,0,0-.07-.35,1.54,1.54,0,0,1-.07.42c0-.1,0-.14-.11-.32-.14-.42.15-.53.25-.92Z"/><path class="cls-4" d="M19.35,26.62c-.18-.39,0-.53.07-.92.14,0,.31.53.28.85.11-.18.46-.28.74-.46-.18.28-.14.43-.42.64a.5.5,0,0,1-.39.1.56.56,0,0,0-.11-.31.61.61,0,0,1,0,.38c0-.07,0-.1-.17-.28Z"/><path class="cls-4" d="M19,26.87a1.27,1.27,0,0,1,.24.85,2.83,2.83,0,0,1,.75-.39c-.22.25-.14.39-.46.6s-.29.07-.36.11a.61.61,0,0,0-.1-.36,1,1,0,0,1,0,.43.28.28,0,0,0-.14-.32c-.21-.43,0-.53.11-.92Z"/><path class="cls-4" d="M18.64,28.67c-.28-.35-.07-.53-.07-.92a1.2,1.2,0,0,1,.39.82c.07-.18.42-.32.67-.5-.14.28-.07.43-.32.67a.72.72,0,0,1-.35.14.55.55,0,0,0-.18-.31.68.68,0,0,1,.07.39c0-.08,0-.15-.21-.29Z"/><path class="cls-4" d="M18.21,29c.15,0,.43.56.43.84.07-.17.39-.28.63-.46-.1.25,0,.43-.28.64a.85.85,0,0,1-.35.14.75.75,0,0,0-.18-.32.72.72,0,0,1,.07.39c0-.07,0-.14-.21-.28-.28-.39-.07-.53-.11-.95Z"/><path class="cls-4" d="M18.64,31a.64.64,0,0,0-.21-.32,1.29,1.29,0,0,1,.14.42c-.07-.1,0-.17-.29-.28-.31-.35-.17-.46-.31-.85.17,0,.56.42.6.71.07-.18.35-.36.56-.57-.07.28,0,.43-.17.67s-.25.18-.32.22Z"/><path class="cls-4" d="M18,31.22c.17,0,.56.46.6.74.07-.18.35-.32.53-.53-.07.28.07.42-.14.67s-.25.14-.32.18a1,1,0,0,0-.21-.32,2.16,2.16,0,0,1,.14.43c-.07-.08,0-.15-.29-.29-.31-.39-.17-.46-.31-.88Z"/><path class="cls-4" d="M17.93,32.42a1.23,1.23,0,0,1,.67.64c0-.18.25-.39.39-.6,0,.28.14.42,0,.7s-.22.18-.25.22a1.11,1.11,0,0,0-.28-.29,1,1,0,0,1,.21.39c-.07-.07,0-.14-.28-.25-.61-.53,0,.18-.43-.81Z"/><path class="cls-4" d="M18.67,34.22a4.75,4.75,0,0,1,.46-.74c0,.32.07.46-.1.78s-.21.21-.29.28c0-.1-.14-.17-.21-.25.07.11.11.25.18.39a.48.48,0,0,0-.28-.21c-.36-.25-.22-.39-.36-.78.14,0,.53.29.6.53Z"/><path class="cls-4" d="M18.14,34.61c.14-.07.6.25.71.53a3,3,0,0,1,.35-.81c0,.32.15.42,0,.74s-.21.29-.25.32a.8.8,0,0,0-.28-.18,1.11,1.11,0,0,1,.25.32.58.58,0,0,0-.32-.14c-.39-.18-.28-.42-.5-.78Z"/><path class="cls-4" d="M19.27,36.31a4.29,4.29,0,0,1,.32-.78c0,.28.18.39,0,.74s-.18.25-.21.32a.9.9,0,0,0-.29-.21,1.75,1.75,0,0,1,.25.32c-.11,0-.07-.11-.32-.11-.42-.21-.32-.46-.53-.81.14,0,.6.28.74.53Z"/><path class="cls-4" d="M18.78,36.73a1.13,1.13,0,0,1,.85.39c0-.17.14-.49.18-.81.1.28.24.39.21.71a.42.42,0,0,1-.18.32.54.54,0,0,0-.35-.11c.14,0,.21.14.32.25-.11,0-.11-.11-.36-.07-.46-.11-.39-.39-.67-.68Z"/><path class="cls-4" d="M19.31,37.76a1.47,1.47,0,0,1,.85.42c0-.17.14-.46.21-.77.07.31.21.38.14.7s-.14.25-.17.32a.68.68,0,0,0-.32-.14.58.58,0,0,1,.28.28c-.07-.07-.07-.14-.32-.1-.49-.14-.39-.39-.67-.71Z"/><path class="cls-4" d="M19.7,38.64a1.46,1.46,0,0,1,.95.25c-.07-.14,0-.46.07-.74.11.25.32.32.29.63s-.11.29-.14.32a1.28,1.28,0,0,0-.36-.07.88.88,0,0,1,.36.21c-.07,0-.11-.1-.36,0-.49-.07-.46-.32-.81-.57Z"/><path class="cls-4" d="M20.26,39.56a1.59,1.59,0,0,1,1,.32c-.07-.14.07-.46.11-.74.1.28.28.35.24.67s-.1.25-.14.32a.92.92,0,0,0-.35-.14,1.28,1.28,0,0,1,.35.24.52.52,0,0,0-.39-.07c-.49-.1-.42-.35-.78-.6Z"/><path class="cls-4" d="M22.39,41.05a.42.42,0,0,0-.39-.11c-.53,0-.64-.35-1-.6a1.67,1.67,0,0,1,1,.21c-.1-.14,0-.46,0-.74.17.25.35.32.42.6s0,.43.07.57c-.07-.07-.18-.14-.28-.22.1.11.18.22.25.29Z"/><path class="cls-4" d="M30.94,41a.57.57,0,0,0-.49.18,1.13,1.13,0,0,1,.28-.32.74.74,0,0,0-.28.14v-.46c.07-.32.25-.35.42-.6,0,.28.07.6,0,.74a1.94,1.94,0,0,1,1-.17c-.39.21-.39.46-.92.49Z"/><path class="cls-4" d="M31.76,40.34a.59.59,0,0,0-.39.07.94.94,0,0,1,.39-.25.69.69,0,0,0-.39.11c0-.07-.14-.07-.14-.32s.17-.39.28-.67c0,.32.18.6.1.78a1.58,1.58,0,0,1,1-.36c-.32.29-.28.53-.81.64Z"/><path class="cls-4" d="M32.36,39.42c-.29,0-.29,0-.39,0a1.23,1.23,0,0,1,.35-.22.58.58,0,0,0-.35.11.46.46,0,0,1-.14-.35c0-.32.17-.39.28-.67,0,.31.18.63.11.81.21-.21.81-.39.91-.28-.31.24-.28.49-.77.56Z"/><path class="cls-4" d="M32.89,38.68c-.25,0-.25,0-.36.07a1.22,1.22,0,0,1,.32-.28.92.92,0,0,0-.35.14s-.14,0-.18-.32.11-.39.14-.71c.11.32.29.6.25.82.18-.25.71-.5.85-.43-.28.28-.21.53-.67.71Z"/><path class="cls-4" d="M33.49,37.58a.42.42,0,0,0-.36.07,1.28,1.28,0,0,1,.29-.28.74.74,0,0,0-.32.18.63.63,0,0,1-.18-.36c-.07-.35.11-.42.18-.7.07.28.25.6.18.81a1.19,1.19,0,0,1,.88-.39c-.28.28-.21.53-.67.67Z"/><path class="cls-4" d="M33.88,36.73c-.25,0-.25.11-.32.15a.69.69,0,0,1,.25-.32.48.48,0,0,0-.29.17.6.6,0,0,1-.24-.31c-.11-.36,0-.43.07-.75a4.6,4.6,0,0,1,.32.78c.14-.25.6-.56.74-.53-.21.35-.11.6-.53.81Z"/><path class="cls-4" d="M34.3,35.53a.58.58,0,0,0-.32.14.72.72,0,0,1,.25-.31.66.66,0,0,0-.28.17.65.65,0,0,1-.25-.32c-.11-.35,0-.46,0-.77a3.31,3.31,0,0,1,.35.81c.11-.25.57-.6.71-.53-.22.35-.07.6-.5.81Z"/><path class="cls-4" d="M32.36,37.09a4.38,4.38,0,0,1-2.87-.82,1.28,1.28,0,0,0,.14-.84c-.07-.18-.07,0-.1.1-.14.39-.28.39-.43.53A3.33,3.33,0,0,0,28,35.25c-.42-.25-.46-.39-.7-.53-.43.18-1.07.56-1.38.32s.31-.29.53-.64a.68.68,0,0,1,.77-.28,9.6,9.6,0,0,1,1.95.78,17.27,17.27,0,0,1,3.18.7,4.27,4.27,0,0,0,.64.07,7.07,7.07,0,0,1-.6,1.42Z"/><path class="cls-4" d="M27.23,35.81c.35.39.67.5.88,1a.21.21,0,0,1-.35.07c-.53-.57-1-.67-.81-.92-.11,0-.18.11-.18.21.11.39.57.57.71,1-.07.25-.64,0-.89-.71v0c-.1.17-.21.28.18.74.07.14.11.32-.14.28,0,0-.14,0-.07,0h.07s0,0-.07,0c.14-.71-.53-.57-.5-.57.07-.25-.31-.53-.67-.35.07-.22-.35-.5-.88-.29-.11-.21-.6-.39-1.06.22-.85,0-2.2.77-3,.42a11.67,11.67,0,0,1-.53-1.38,20,20,0,0,0,3.92-.6,3.15,3.15,0,0,1,2-.42c0,.21-.5.6-.25.77a1.32,1.32,0,0,0,1.59,0c.49.49,1.27.56,1.56,1.24l-.08.21c-.17.1-.17.1-.38-.18-.46-.6-.89-.46-1-.88-.18,0-.07.24-.07.31Z"/><path class="cls-4" d="M25,37.09c-.17.07.07-.11.11-.14l.07-.11c.18-.11.35-.32.49,0,.08.14-.49.46-.6.5s-.1,0-.17,0a.14.14,0,0,1,.1-.21Z"/><path class="cls-4" d="M24.47,37.05c-.1,0-.17,0-.21-.07s.11-.28.18-.39a.22.22,0,0,1,.14-.07l.1-.1c.22,0,.22,0,.25.1s-.35.5-.46.53Z"/><path class="cls-4" d="M25.89,37.12s.21-.24.31.11c0,.14-.21.28-.45.35s-.39,0,.14-.46Z"/><path class="cls-4" d="M23.91,36.63c-.11.07-.25-.11-.18-.14l.11-.18c.17-.07.24-.14.31-.07s-.17.39-.24.39Z"/><path class="cls-8" d="M26.45,22.48c-3.82,0-6.93,4.07-7.07,9.16H33.56c-.14-5.09-3.25-9.16-7.11-9.16Z"/><path class="cls-6" d="M25.36,28.18c-.39,0-.57.24-.92.24a3.28,3.28,0,0,1,.81-1.62,5.54,5.54,0,0,1,1.38-.92v-.07c-.35,0-1.2.21-1.42-.18,0-.35.46-.78,1.17-.81a1.68,1.68,0,0,1,1.1.32,1.51,1.51,0,0,1,.6,1.13,3.19,3.19,0,0,0-.64.35c.07,0,.18,0,.32,0a3.14,3.14,0,0,0,.35,0v.25a.23.23,0,0,1,.07.14c-.81.35-1.27.53-1.3.46a.85.85,0,0,0,.35.07,5.68,5.68,0,0,0,1-.21.35.35,0,0,0,.25.39v0h0c-.89.46-1.2.43-1.28.36l-.6-.11a2.61,2.61,0,0,0,.82.39c.28.07.85-.21,1.16-.28l.11.39c-.53,0-1.1.74-1.87.46-.39-.29-.89-.78-1.45-.78Z"/><path class="cls-6" d="M26.1,29.27c-.39,0-1,0-1,0-.21,0-.7-.32-.63-.43a1.23,1.23,0,0,0,.63-.14c.53-.25,1,.46,1,.6Z"/><path class="cls-7" d="M28.75,28.85a.51.51,0,0,1-.28.42,9.13,9.13,0,0,0-.92,0,.71.71,0,0,0,.46-.14c.85-.39.74-.28.74-.28Z"/><path class="cls-1" d="M26.49,42.25c.14.64-.53,1.63,1.2,2.76.11-.11.49-.25.6-.36-2.05-1.13-1.45-1.59-1.45-2.61l-.35.21Z"/><path class="cls-1" d="M26.59,41.61c-.07.07.11,0,.07.11a6.54,6.54,0,0,1-.6.81,5.25,5.25,0,0,1-1.13.78c-1.09.57-1.84.28-1.24-.46s1-1.94,2.9-1.24Z"/><path class="cls-1" d="M26.45,41.65a.42.42,0,0,1,.07.28c0,.11,0,.32.07.46s-.07.07,0,.14-.21-.35.18.11a2.38,2.38,0,0,0,2.4,1c.74-.28.07-1.13-.11-1.41-.42-.53-1.06-1-2.65-.53Z"/><path class="cls-3" d="M26.84,41.93c.25.28,0,.14.46.53,1.56,1.49,1.73-.07.46-.53a1.69,1.69,0,0,0-.92,0Z"/><path class="cls-3" d="M25.85,42.29c-.46.38-1.48.91-1.59.81s0-.21.11-.36a2.42,2.42,0,0,1,.49-.56c.28-.28.81-.67,1.13-.39s0,.32-.14.5Z"/><path class="cls-1" d="M26.81,42.21c-.75.5-.39,1.35-1.38,2.69-.14-.1-.53-.1-.67-.21,1.27-1.31.91-1.8,1.66-2.69.14.07.24.14.39.21Z"/><path class="cls-1" d="M26.56,42.53a.59.59,0,0,0,.63-.56.6.6,0,0,0-.63-.57.61.61,0,0,0-.67.57.6.6,0,0,0,.67.56Z"/><path class="cls-1" d="M23.38,29.63c-.11-1.7,0-2.37,1.66-4.07-.67.78-.74,1-.74,2.37-1.38,2.09,5.65,2,4.1.07,0-1.73-.39-2-1.49-3.39a1.11,1.11,0,0,0-1.55-.07C23.52,26.41,23,27,23,29.52c-1,1.31,1.38,1.2.39.11Z"/><path class="cls-4" d="M23.23,29.63a4.86,4.86,0,0,1,.22-2.09,6.64,6.64,0,0,1,1.48-2.05h0a.13.13,0,0,1,.21,0,.15.15,0,0,1,0,.18h0a2.37,2.37,0,0,0-.6.88,4.65,4.65,0,0,0-.1,1.38s0,0,0,.07h0a.62.62,0,0,0,.18,1,3.78,3.78,0,0,0,1.91.38,3.07,3.07,0,0,0,1.8-.46c.25-.17.28-.46,0-.81a.11.11,0,0,1,0-.07,3.51,3.51,0,0,0-1.07-2.86c-.1-.14-.21-.29-.35-.46a1,1,0,0,0-1.41,0,9.45,9.45,0,0,0-1.81,2.19,5.59,5.59,0,0,0-.49,2.69s0,.07,0,.11c-.28.35-.28.56-.17.63a.32.32,0,0,0,.24.07.46.46,0,0,0,.25-.07c.11-.1.11-.28-.14-.56,0,0,0,0,0-.07Zm.46-2a4.14,4.14,0,0,0-.17,1.91c.32.42.28.7.07.88a.59.59,0,0,1-.43.18.53.53,0,0,1-.38-.14c-.22-.18-.29-.5.07-1a6,6,0,0,1,.53-2.76,9.3,9.3,0,0,1,1.87-2.27s0,0,0,0h0A1.31,1.31,0,0,1,27,24.5h0v0c.14.14.25.31.39.46a3.72,3.72,0,0,1,1.13,3,.73.73,0,0,1-.11,1.13,3.4,3.4,0,0,1-1.94.49,3.55,3.55,0,0,1-2-.42.83.83,0,0,1-.29-1.28,10.73,10.73,0,0,1,.07-1.2,4.24,4.24,0,0,0-.53,1Z"/><path class="cls-3" d="M24.33,27.68a7.09,7.09,0,0,1,4,.11V28a8.22,8.22,0,0,0-4-.11v-.25Z"/><path class="cls-3" d="M24.19,28.6a10,10,0,0,1,4.28,0c.32.88-3.93,1.27-4.28,0Z"/><path class="cls-3" d="M26.38,28.53h0c.18,0,.5.11.5.28V32H26.1V28.81a.26.26,0,0,1,.28-.28Z"/><path class="cls-5" d="M75.25,36V21.42H71.71V36c0,2.51-1,4.24-3.71,4.24S64.25,38.5,64.25,36V21.42H60.68V36c0,4.56,2.93,6.75,7.32,6.75s7.25-2.08,7.25-6.75Z"/><polygon class="cls-5" points="95.33 42.43 95.33 21.42 92.08 21.42 92.08 36.88 92.01 36.88 83.91 21.42 79.52 21.42 79.52 42.43 82.78 42.43 82.78 26.2 82.85 26.2 91.33 42.43 95.33 42.43"/><path class="cls-5" d="M107.49,36.77V21.42h-3.57V37c0,2.23-1,3.25-3.25,3.25a9.43,9.43,0,0,1-3.11-.67v2.8a12,12,0,0,0,3.14.38c4.71,0,6.79-1.16,6.79-6Z"/><path class="cls-5" d="M123.16,42.43V27.93h-3.4v6.26c0,1.94-1,5.41-3.39,5.41a1.39,1.39,0,0,1-1-.28c-.57-.57-.5-2.41-.5-3.12V27.93h-3.39V38c0,2.51,1.16,4.77,3.92,4.77a4.49,4.49,0,0,0,4.28-3h.07v2.73Z"/><path class="cls-5" d="M64.57,52.89V49h-.74v3.85c0,.82,0,2-1.28,2s-1.31-1.16-1.31-2V49H60.5v3.85c0,1,0,2.44,2,2.44s2-1.48,2-2.44Zm4.67,2.34V52a1.07,1.07,0,0,0-1-1.13A1.7,1.7,0,0,0,66.69,52h0V51H66v4.28h.67V53.39c0-.82.39-2,1.31-2,.56,0,.56.6.56,1.06v2.76Zm2.19-5.38V49h-.75v.81h.75Zm0,5.38V51h-.67v4.28ZM76.06,51h-.64l-1.16,3.39L73,51h-.74l1.69,4.28h.64Zm3.75,1.62a1.5,1.5,0,0,0-1.52-1.73c-1.24,0-1.74.92-1.74,2.12,0,1.59.82,2.37,2.13,2.37a3.36,3.36,0,0,0,1.06-.17v-.39a2.48,2.48,0,0,1-.82.14c-1.3,0-1.62-1.38-1.62-2.34Zm-.71-.38H77.3a.94.94,0,0,1,1-1c.74,0,.85.6.85,1ZM83,51.66v-.82c-.67,0-1.16.67-1.37,1.13h0V51H80.9v4.28h.68v-2c0-.78.24-1.55,1.2-1.55ZM86,54.06a1.22,1.22,0,0,0-.74-1.13c-.74-.46-1.35-.6-1.35-1.1s.36-.53.71-.53a2.19,2.19,0,0,1,1.1.36V51a3.64,3.64,0,0,0-1-.18c-1,0-1.49.46-1.49,1.2s.64,1,1.17,1.24.92.5.92.92-.39.71-.89.71a2.4,2.4,0,0,1-1.2-.43v.68a3.53,3.53,0,0,0,1.17.17c1.13,0,1.59-.6,1.59-1.27Zm1.63-4.21V49h-.75v.81h.75Zm0,5.38V51H87v4.28Zm4.53,0V49h-.67v2.69h0a1.19,1.19,0,0,0-1.17-.89c-1.06,0-1.52,1-1.52,2.26s.28,2.23,1.45,2.23a1.34,1.34,0,0,0,1.24-.92h0v.82ZM91.48,53c0,1.06-.43,1.88-1.1,1.88s-.85-.92-.85-1.77.21-1.84.88-1.84c.82,0,1.07,1.2,1.07,1.73Zm4.84,2.2V52.29c0-.6-.14-1.45-1.38-1.45s-1.52.71-1.59,1.24h.78c0-.32.07-.85.78-.85s.74.64.74,1.1v.56c-.78,0-2.41.11-2.41,1.38a1.09,1.09,0,0,0,1.17,1.06,1.49,1.49,0,0,0,1.24-.7h0v.6Zm-.67-1.52a1.12,1.12,0,0,1-1,1.2.67.67,0,0,1-.67-.74c0-.92,1.45-.89,1.66-.92Zm5.2,1.52V49h-.68v2.69h0A1.18,1.18,0,0,0,99,50.84c-1.1,0-1.56,1-1.56,2.26s.32,2.23,1.45,2.23a1.27,1.27,0,0,0,1.24-.92h0v.82Zm-.68-2.2c0,1.06-.46,1.88-1.13,1.88s-.85-.92-.85-1.77.22-1.84.92-1.84,1.06,1.2,1.06,1.73ZM64.67,63.22V57H64v5.27h0L61.42,57h-.88v6.23h.67V57.91h0l2.59,5.31Zm4.25,0v-3c0-.6-.14-1.42-1.42-1.42S66,59.5,66,60h.77c0-.31.08-.84.75-.84s.78.63.78,1.09v.57c-.82.07-2.41.1-2.41,1.38A1.12,1.12,0,0,0,67,63.32a1.38,1.38,0,0,0,1.2-.7h0v.6Zm-.67-1.52a1.11,1.11,0,0,1-1,1.16.67.67,0,0,1-.67-.74c0-.92,1.45-.88,1.7-.92Zm5-1.45a1.33,1.33,0,0,0-1.49-1.42c-1.06,0-1.77.71-1.77,2.09s.57,2.4,2.16,2.4a2.77,2.77,0,0,0,1-.17v-.39a2,2,0,0,1-.7.1c-1.28,0-1.63-1.16-1.63-2.08,0-.71.18-1.59,1-1.59s.74.7.74,1.06Zm1.66-2.44V57h-.74v.82h.74Zm0,5.41V58.94h-.67v4.28Zm4.85-2.12c0-1.35-.6-2.27-1.88-2.27S76,59.75,76,61.1s.57,2.22,1.84,2.22,1.88-.81,1.88-2.22Zm-.75,0c0,.88-.21,1.8-1.13,1.8S76.8,62,76.8,61.13s.14-1.94,1.06-1.94,1.13,1,1.13,1.94Zm5.1,2.09V60a1.05,1.05,0,0,0-1-1.13A1.67,1.67,0,0,0,81.54,60h0v-1h-.63v4.28h.67V61.38c0-.85.39-2,1.31-2,.56,0,.56.6.56,1.06v2.8Zm4.17,0v-3c0-.6-.14-1.42-1.38-1.42s-1.52.67-1.56,1.2h.75c0-.31.07-.84.77-.84s.75.63.75,1.09v.57c-.78.07-2.41.1-2.41,1.38a1.12,1.12,0,0,0,1.17,1.09,1.51,1.51,0,0,0,1.24-.7h0v.6Zm-.67-1.52a1.08,1.08,0,0,1-1,1.16.67.67,0,0,1-.68-.74c0-.92,1.45-.88,1.67-.92Zm2.79,1.52V57h-.64v6.23Zm6.89,0V57H96.6v2.69h0a1.18,1.18,0,0,0-1.16-.85c-1.07,0-1.52,1-1.52,2.23s.28,2.26,1.44,2.26a1.37,1.37,0,0,0,1.24-1h0v.85ZM96.6,61c0,1.06-.42,1.87-1.09,1.87s-.85-.92-.85-1.73.21-1.87.92-1.87,1,1.23,1,1.73Zm5.06-.42a1.5,1.5,0,0,0-1.52-1.74c-1.24,0-1.73.89-1.73,2.12,0,1.56.84,2.37,2.12,2.37a4.27,4.27,0,0,0,1.06-.17v-.39a2.34,2.34,0,0,1-.78.1c-1.34,0-1.66-1.38-1.66-2.29Zm-.67-.43H99.18a.93.93,0,0,1,.92-1,.84.84,0,0,1,.89,1Zm6.33,1.38V57h-1.07v4.6c0,.67-.28,1-1,1a3,3,0,0,1-.92-.18v.81a2.82,2.82,0,0,0,.92.14c1.41,0,2-.35,2-1.8Zm4.63,1.7V58.94h-1v1.84c0,.56-.29,1.59-1,1.59a.42.42,0,0,1-.28-.07c-.18-.18-.14-.71-.14-.92V58.94h-1v3c0,.71.32,1.41,1.13,1.41a1.37,1.37,0,0,0,1.27-.92h0v.82ZM114.32,58V57h-1v1Zm0,5.48V58.94h-1v4.28c0,.7-.07,1.31-1,1.31a1.53,1.53,0,0,1-.43,0v.74h.36c1.16,0,2-.46,2-1.77Zm4.63-.24V58.94h-1v1.84c0,.56-.28,1.59-1,1.59a.42.42,0,0,1-.28-.07c-.18-.18-.14-.71-.14-.92V58.94h-1v3c0,.71.32,1.41,1.17,1.41a1.32,1.32,0,0,0,1.23-.92h0v.82Zm4.63-4.28h-1l-1,2.86h0l-1-2.86h-1.06l1.59,4.31-.6,1.88h.92Z"/></g></g></svg>