<svg xmlns="http://www.w3.org/2000/svg" viewBox="0 0 193.01 61.67"><defs><style>.cls-1,.cls-3{fill:#29292a;}.cls-1,.cls-2{fill-rule:evenodd;}.cls-2{fill:#fff;}</style></defs><g id="Capa_2" data-name="Capa 2"><g id="Capa_1-2" data-name="Capa 1"><path class="cls-1" d="M8.36,24.47c1.49-6.57-4.56-7.56-7-5.12-3.42,3.4.24,9.3,4.9,7.17,1.13-.51,1.49,0,2.6.51s1.77.77,2.74,1.17a56.73,56.73,0,0,0,18.77,4.36c-.13.91-11.35,17.85-12.14,19.06-2.82,0-4.27,0-5.42,2.27a4.6,4.6,0,0,0,1.44,5.7A4.36,4.36,0,0,0,21,56c0-2-.72-2.06-1-3-.17-.65,5.17-8.41,5.94-9.64l6.26-9.49a2.29,2.29,0,0,1,.52.6l6,9.1c1,1.62,2.11,3.15,3.2,4.85.55.84,3,4,2.64,4.84-3,6.4,3.35,8.37,6.14,6.15s2.4-8.66-4.27-7.71C45.05,49,34.47,34.19,34.07,32.53a59.22,59.22,0,0,0,19.08-4.48c1.6-.65,4.58-2.24,5.4-1.86,2.31,1.07,4,1,5.56-.78,3.28-3.58-1.17-9.4-5.5-6.74-2.11,1.3-2.14,3-1.83,5.62-1.73.66-3.51,1.52-5.36,2.23s-3.67,1.31-5.74,1.93a49.75,49.75,0,0,1-13,2.11A44.91,44.91,0,0,1,19.2,28.64c-2.46-.73-9.3-3-10.84-4.17"/><path class="cls-1" d="M5.9,16.22,7.68,17c.68-.86,1.26-2.07,1.92-3a18,18,0,0,1,2.22-2.72c5.55-5.44,11.5-9.19,20.62-9.21,7.76,0,13.12,2.72,18.2,6.67a34.25,34.25,0,0,1,2.51,2.44c1,.89,3.68,4.41,4.17,5.92l1.84-.67c-.18-1.9-4.85-7.29-7-9C41.56-1.32,27.58-2.6,16.05,5,12.43,7.36,7.63,12.13,5.9,16.22"/><path class="cls-1" d="M30.68,8.18C19.29,10.84,23.5,27.37,34.17,25A8.58,8.58,0,0,0,40.6,14.68a8.35,8.35,0,0,0-9.92-6.5"/><path class="cls-1" d="M60.83,28.79c-.18,5.8-.14,8.06-2.19,13.22a27.07,27.07,0,0,1-6.19,9.21,4,4,0,0,0,1.23,1.65,30.79,30.79,0,0,0,9.1-24.33Z"/><path class="cls-1" d="M11.2,52.68A4.21,4.21,0,0,0,12.45,51c-2-1.66-4.68-5.71-6-9-1.94-4.77-2.09-7.46-2.19-13a5.37,5.37,0,0,0-2-.54c-.1,5.92.31,9.45,2.31,14.37a29.21,29.21,0,0,0,6.62,9.85"/><path class="cls-1" d="M43.1,59.8l-1-1.79c-1.58.29-2.89.88-4.62,1.18a28.09,28.09,0,0,1-10.58-.12c-1.52-.31-3.18-1-4.35-1.17l-.8,1.63c1.34,1.25,8.1,2.12,10.45,2.14,4.78,0,6.86-.86,10.87-1.87"/><path class="cls-2" d="M31,10.18a6.36,6.36,0,0,1,7.63,4.94A6.57,6.57,0,0,1,33.82,23C25.56,24.88,22.47,12.2,31,10.18"/><path class="cls-2" d="M3.62,20.32c2.89-1.1,4.37,3.33,1.66,4.43a2.37,2.37,0,1,1-1.66-4.43"/><path class="cls-2" d="M18.83,56.84c-1.24,2.88-5.53,1-4.33-1.88s5.59-1,4.33,1.88"/><path class="cls-2" d="M50.17,56.84A2.35,2.35,0,0,1,45.85,55c1.24-3,5.62-.92,4.32,1.86"/><path class="cls-2" d="M59.93,20.35c2.87-1.45,4.62,3,2,4.28a2.35,2.35,0,1,1-2-4.28"/><path class="cls-3" d="M76.59,30.87,82,17.57H85.1l5.41,13.3H87.57l-1-2.49H80.52l-1,2.49ZM81.42,26h4.29l-1.86-4.77a5.79,5.79,0,0,1-.29-1.05,4.42,4.42,0,0,1-.3,1.05Zm.45-9.67,1.71-2.81h2.89l-2,2.81Z"/><path class="cls-3" d="M97.71,21.56v2.57a3.12,3.12,0,0,0-3.38,1.38v5.36H91.69V21.75H94v1.37A3.79,3.79,0,0,1,97.71,21.56Z"/><path class="cls-3" d="M103.09,21.49c3.78,0,5,3,4.39,5.68h-6.42c.3,1.33,1.71,1.88,3.21,1.88A6.88,6.88,0,0,0,107,28.5v2.07a8.65,8.65,0,0,1-3.34.57c-2.89,0-5.28-1.66-5.28-4.83A4.59,4.59,0,0,1,103.09,21.49Zm.1,2a2,2,0,0,0-2.15,2h4.06A1.75,1.75,0,0,0,103.19,23.5Z"/><path class="cls-3" d="M118.1,29.12a1.76,1.76,0,0,0,.49-.07v1.73a4.51,4.51,0,0,1-1.46.26,2.15,2.15,0,0,1-2-1,5.08,5.08,0,0,1-3.28,1.12c-1.71,0-3.19-1-3.19-2.8,0-2.31,2.18-3,4-3a10,10,0,0,1,2.16.24v-.32c0-.91-.72-1.54-2.15-1.54a8.73,8.73,0,0,0-3.22.68V22.1a11.74,11.74,0,0,1,3.53-.61c2.73,0,4.48,1.12,4.48,4.12v2.91C117.45,29,117.75,29.12,118.1,29.12Zm-6.77-1c0,.68.63,1.12,1.43,1.12a3,3,0,0,0,2-.74V27.09a7.55,7.55,0,0,0-1.56-.21C112.28,26.88,111.33,27.21,111.33,28.14Z"/><path class="cls-3" d="M76.59,48,82,34.67H85.1L90.51,48H87.57l-1-2.49H80.52l-1,2.49Zm4.83-4.85h4.29l-1.86-4.76a6,6,0,0,1-.29-1,4.57,4.57,0,0,1-.3,1Z"/><path class="cls-3" d="M96.06,38.56a6,6,0,0,1,2.81.67v2.32a4.61,4.61,0,0,0-2.43-.69c-1.44,0-2.83.71-2.83,2.55A2.53,2.53,0,0,0,96.4,46,5.15,5.15,0,0,0,99,45.29v2.33a7.83,7.83,0,0,1-3.08.61c-2.49,0-5-1.44-5-4.69C90.91,40.05,93.53,38.56,96.06,38.56Z"/><path class="cls-3" d="M105.37,38.56a6,6,0,0,1,2.81.67v2.32a4.67,4.67,0,0,0-2.43-.69c-1.44,0-2.83.71-2.83,2.55A2.53,2.53,0,0,0,105.71,46a5.08,5.08,0,0,0,2.56-.66v2.33a7.74,7.74,0,0,1-3.07.61c-2.49,0-5-1.44-5-4.69C100.22,40.05,102.84,38.56,105.37,38.56Z"/><path class="cls-3" d="M114.22,38.58c3.78,0,5,3,4.39,5.68h-6.42c.3,1.33,1.71,1.88,3.21,1.88a6.88,6.88,0,0,0,2.75-.55v2.07a8.65,8.65,0,0,1-3.34.57c-2.89,0-5.28-1.65-5.28-4.82A4.6,4.6,0,0,1,114.22,38.58Zm.1,2a2,2,0,0,0-2.15,1.95h4.06A1.75,1.75,0,0,0,114.32,40.6Z"/><path class="cls-3" d="M123.83,38.58a7.71,7.71,0,0,1,3.36.78v2.17A6.26,6.26,0,0,0,124,40.6c-.59,0-1.27.17-1.27.72,0,1.52,5.15.76,5.15,4.1,0,2.15-2,2.81-4.14,2.81a7.33,7.33,0,0,1-3.63-.85V45.19a6.73,6.73,0,0,0,3.48,1c1,0,1.59-.17,1.59-.68,0-1.46-5.15-.82-5.15-4.09C120,39.29,121.91,38.58,123.83,38.58Z"/><path class="cls-3" d="M130.82,37.33a1.49,1.49,0,1,1,1.56-1.5A1.42,1.42,0,0,1,130.82,37.33ZM129.51,48V38.85h2.64V48Z"/><path class="cls-3" d="M137.07,34.67v5.15a3.88,3.88,0,0,1,3-1.24c2.89,0,4.45,2.34,4.45,4.83s-1.56,4.82-4.45,4.82a3.85,3.85,0,0,1-3.3-1.59V48h-2.34V34.67Zm2.36,6.14a2.6,2.6,0,0,0-2.38,1.52v2.16A2.6,2.6,0,0,0,139.43,46a2.61,2.61,0,0,0,0-5.2Z"/><path class="cls-3" d="M147.58,37.33a1.49,1.49,0,1,1,1.55-1.5A1.41,1.41,0,0,1,147.58,37.33ZM146.27,48V38.85h2.64V48Z"/><path class="cls-3" d="M153.86,34.1V48h-2.64V34.1Z"/><path class="cls-3" d="M157.47,37.33a1.49,1.49,0,1,1,1.56-1.5A1.42,1.42,0,0,1,157.47,37.33ZM156.16,48V38.85h2.64V48Z"/><path class="cls-3" d="M170.65,34.67V48h-2.31V46.64A3.92,3.92,0,0,1,165,48.23c-2.9,0-4.46-2.33-4.46-4.82s1.56-4.83,4.46-4.83a3.9,3.9,0,0,1,3,1.24V34.67Zm-5,6.14a2.61,2.61,0,0,0,0,5.2A2.59,2.59,0,0,0,168,44.49V42.33A2.59,2.59,0,0,0,165.66,40.81Z"/><path class="cls-3" d="M181.69,46.22a1.48,1.48,0,0,0,.49-.08v1.73a4.41,4.41,0,0,1-1.46.27,2.12,2.12,0,0,1-2-1,5.05,5.05,0,0,1-3.29,1.12c-1.71,0-3.19-1-3.19-2.79,0-2.32,2.19-3,4-3a10.15,10.15,0,0,1,2.17.25v-.32c0-.92-.73-1.54-2.15-1.54a8.74,8.74,0,0,0-3.23.68V39.19a11.8,11.8,0,0,1,3.53-.61c2.74,0,4.49,1.12,4.49,4.13v2.9C181.05,46.09,181.35,46.22,181.69,46.22Zm-6.76-1c0,.69.63,1.12,1.42,1.12a3,3,0,0,0,2.06-.74V44.19a6.93,6.93,0,0,0-1.56-.21C175.88,44,174.93,44.3,174.93,45.23Z"/><path class="cls-3" d="M193,34.67V48h-2.32V46.64a3.89,3.89,0,0,1-3.3,1.59c-2.91,0-4.46-2.33-4.46-4.82s1.55-4.83,4.46-4.83a3.92,3.92,0,0,1,3,1.24V34.67Zm-5,6.14a2.61,2.61,0,0,0,0,5.2,2.6,2.6,0,0,0,2.37-1.52V42.33A2.6,2.6,0,0,0,188,40.81Z"/></g></g></svg>