<svg xmlns="http://www.w3.org/2000/svg" viewBox="0 0 210.2 53.88"><defs><style>.cls-1{fill:#29292a;}</style></defs><g id="Capa_2" data-name="Capa 2"><g id="Capa_1-2" data-name="Capa 1"><path class="cls-1" d="M179.45,53.88C178,53.09,177.63,52,178,50.3c.91-4.31,1.78-8.65,2.38-13,.27-2,1.55-2.09,2.81-1.95,1.8.2.71,1.67.67,2.51a15.27,15.27,0,0,0-.33,3.16c.18.08.34.21.45.18,5.23-1.48,6.52-.38,5.65,4.84A24.93,24.93,0,0,0,189.1,49c-.15,3-2.56,3.75-4.61,4.9Zm7-9.54c.1-.59-.37-1-1.64-.75-2.93.52-2.39,3-2.77,4.88-.13.69-1,2,.6,2.16,1.2.15,2.43-.09,2.82-1.48S186,46.39,186.43,44.34Z"/><path class="cls-1" d="M167.86,53.88c-2.46-2.06-2.84-6.26-1-10.5,1-2.23,3.33-3.18,6.42-2.7,1.46.22,2.62.83,2.95,2.31a3.56,3.56,0,0,1-1.57,3.94,13.46,13.46,0,0,1-4.19,1.62c-.78.21-1.53.61-1.31,1.51s1.13.77,1.87.55,1.59-.51,2.4-.72c.55-.14,1.26-.8,1.52.4.17.79.76,1.62-.46,2.07l-4.16,1.52Zm5.07-9.75c-.13-.82-.72-.86-1.32-.8A1.78,1.78,0,0,0,170,45.2c-.06.77.6.68,1.05.55C171.88,45.49,172.84,45.28,172.93,44.13Z"/><path class="cls-1" d="M10.62,0a2,2,0,0,1,0,.25c.08,3.77.07,3.89-3.77,3.75C4.93,4,4.26,4.6,4.58,6.44a2.09,2.09,0,0,1,0,.25c0,4.71,0,4.71-4.54,4.92C0,8.17.09,4.73,0,1.3,0,.21.21,0,1.3,0,4.4.1,7.51,0,10.62,0Z"/><path class="cls-1" d="M210.2,41.3c-2.94,0-5.88,0-8.8.09-1.77.07-1.57-1-1.6-2.11s-.05-2,1.64-2.07c4.64-.14,4.76-.24,4.61-4.74-.07-2.13.61-2.88,2.67-2.57a5.48,5.48,0,0,0,1.48-.17Z"/><path class="cls-1" d="M50.45,33.2c-5.76.37-5.76.37-8.25-4.61a84,84,0,0,0-5.41-9.69c0,4.13-.15,8.26.06,12.38.13,2.36-1.22,2-2.63,2s-2.52.21-2.47-1.95c.16-6.45.1-12.91,0-19.36,0-1.49.35-1.85,1.91-2,3.37-.4,5.33.63,6.57,3.95A60.34,60.34,0,0,0,46,25c0-3.5-.07-7,0-10.51,0-1.41-.57-2.93.41-4.26.18.22.33.19.46-.05h3.56l.44.44V32.76Z"/><path class="cls-1" d="M82.73,10.62c0,5.53.1,11.05.09,16.58a5.86,5.86,0,0,1-2.64,4.9c-3,2.16-9.24,2.11-12.22-.05a6.17,6.17,0,0,1-2.63-5.18c0-5.11,0-10.23,0-15.34,0-2.51,1.86-1.28,2.91-1.43s2.4-.58,2.35,1.49c-.12,4.61-.06,9.23,0,13.84,0,2.74,1,3.71,3.58,3.71s3.56-1,3.58-3.69c0-4.19.13-8.39,0-12.58-.1-2.25.48-3.25,2.83-2.83a14.42,14.42,0,0,0,1.75.11Z"/><path class="cls-1" d="M14.63,10.6c0,4.85.06,9.71.13,14.56,0,2.9,1.07,4,3.66,4s3.7-1,3.73-3.62c.06-4.53.15-9,0-13.57-.09-2.2,1.13-2,2.47-1.89s2.86-.7,2.76,1.85c-.2,4.85,0,9.72-.07,14.57a6.52,6.52,0,0,1-5.47,6.8,13.86,13.86,0,0,1-6,.13c-4.26-.91-6.16-3.13-6.18-7.5s.13-8.71-.06-13.06c-.1-2.28.52-3.22,2.83-2.81a14.55,14.55,0,0,0,1.75.11Z"/><path class="cls-1" d="M181.13,16.27c6.26-.05,6.75.55,5.58,6.57-.54,2.78-.94,5.59-1.45,8.37-.36,1.92-2.81,3.17-4.07,1.82-1.05-1.13-1.49-.38-2.23-.17s-1.42.52-2.15.67c-3.88.8-5.85-1-5.36-4.86a60.38,60.38,0,0,1,1.14-6.4C173.59,18,176.08,16.3,181.13,16.27ZM176.3,28.05c0,.86.2,1.71,1.2,1.51,1.52-.3,3.24-.62,3.7-2.46s.67-3.75,1-5.63a.87.87,0,0,0-.66-1.11,3.26,3.26,0,0,0-4.1,1.85C177,24.12,176.68,26.1,176.3,28.05Z"/><path class="cls-1" d="M87.78,33c.83-4.85,1.69-9.69,2.47-14.55.18-1.11.74-1.83,1.76-1.69s2.3-1.45,2.8.6c.27,1.12,1,.31,1.32.17a17.41,17.41,0,0,1,4.33-1.24c2.73-.4,4.05.68,3.94,3.41a73.53,73.53,0,0,1-2.09,12.59c-.46,2.07-2.52.75-3.81.91-1.59.19-.75-1.18-.67-1.76q.61-4.22,1.47-8.39c.47-2.23-.43-2.34-2.25-1.82a4,4,0,0,0-3.2,3.86c-.13,1.5-.41,3-.67,4.46C92.42,33.81,92.4,33.81,87.78,33Z"/><path class="cls-1" d="M113.62,33.69c-5,0-7.43-2.89-6.47-7.7.19-1,.34-2,.55-2.95,1.27-5.71,6.35-8.4,11.81-6.27a5.37,5.37,0,0,1,3.38,6c-.22,1.31-.51,2.62-.78,3.92C121.08,31.76,118.74,33.68,113.62,33.69Zm-1.86-6.58a1.94,1.94,0,0,0,1.7,2.54c1.63.26,3.09-.2,3.65-1.91a26.29,26.29,0,0,0,.83-4.15c.23-1.45.43-3-1.58-3.33a3.08,3.08,0,0,0-3.84,2.38C112.15,24.09,112,25.6,111.76,27.11Z"/><path class="cls-1" d="M56.47,10.15C61,9.86,61,9.86,61,14.36c0,6.19-.09,12.38,0,18.56.07,3.4-1.85,5.51-4.34,7.13-1.71,1.12-1.91-1.23-2.86-1.9-.79-.55-1-1.25,0-1.91,1.68-1.06,2-2.69,2-4.57,0-7,.07-14,.12-21.05Z"/><path class="cls-1" d="M130.75,33.67c-3.67.07-4.87-1.39-4.33-4.56.41-2.47.8-4.94,1.23-7.4.11-.6.3-1.26-.54-1.34s-2-.06-1.43-1.47c.37-.9-.22-2.53,1.81-2.32,1.7.18,1.29-1.4,1.51-2.33.34-1.4,3.56-3,4.73-2.15.8.57.18,1.37,0,2.05-.35,1.56-.47,2.84,1.84,2.51.53-.08,1.84-.52,1.49.83-.27,1,.24,3-1.65,2.75-2.86-.39-3.08,1.35-3.34,3.34a38.93,38.93,0,0,1-.78,4.42c-.35,1.37,0,2.13,1.39,1.53,1.62-.69,1.69.23,2.12,1.35.56,1.42-.12,1.82-1.21,2.1S131.35,33.53,130.75,33.67Z"/><path class="cls-1" d="M159.2,48.24a11.07,11.07,0,0,0,1.63-5.51c-.11-2,1.29-1.85,2.47-1.93,1.62-.1,1.12,1.26,1,2-.37,3.44-1.87,6.57-3.05,9.77-.56,1.55-2.2.57-3.34.76s-1.12-.65-1.25-1.43c-.21-1.2-.53-2.38-.83-3.73a7.38,7.38,0,0,0-2.14,3.32c-.7,1.77-2,2-3.59,1.9-1,0-1.47-.32-1.52-1.42-.16-3.18-.34-6.36-.72-9.51-.19-1.61,1-1.29,1.71-1.52s1.53-.28,1.76,1c.38,2.13.32,4.28.56,6.48,1.1-2,2.89-3.67,2.79-6.16-.06-1.36,1-1.07,1.71-1.32.92-.33,1.36.06,1.52,1C158.32,44.06,158.78,46.15,159.2,48.24Z"/><path class="cls-1" d="M197.9,16.24c.38.05,1.36.24,2.36.34,1.16.11,2.22.19,1.86,1.86-.27,1.3-.47,2.22-2.31,1.84-1.31-.27-3.4-1.15-4.07.54-.8,2,1.61,2.17,2.76,2.83,2.07,1.18,3.13,2.64,2.62,5.07s-1.51,4.35-4.36,4.78a15.45,15.45,0,0,1-5.47-.25c-1.16-.23-2.31-.32-1.81-2.14.4-1.46.82-2.33,2.46-1.45a.53.53,0,0,0,.25,0c1.47-.09,3.53,1.16,4.2-.86.58-1.76-1.58-2-2.7-2.72-2.77-1.7-3.34-3.08-2.44-6.3C192,17,193.41,16.21,197.9,16.24Z"/><path class="cls-1" d="M153.53,33.68c-4.85,0-6.31-1.48-5.86-5.66.21-2,.65-3.95,1.05-5.91a7.85,7.85,0,0,1,10.94-5.49,1,1,0,0,1,.51,1.6c-.54.78.19,2.39-1.62,2.36-4.85-.11-4.85-.08-5.7,4.62-.08.41-.08.83-.15,1.25-.56,3.53-.52,3.52,3.05,2.81.78-.15,2.17-1.53,2.43.65.16,1.4.61,2.91-1.58,3.2C155.36,33.27,154.13,33.57,153.53,33.68Z"/><path class="cls-1" d="M145.62,16.44c-1,5.28-1.92,10.27-2.75,15.28-.47,2.83-2.57,1.39-3.9,1.49-1.9.14-.83-1.48-.73-2.16.55-3.79,1.38-7.54,1.91-11.34.3-2.17,1.13-3.35,3.46-3.11A11.51,11.51,0,0,0,145.62,16.44Z"/><path class="cls-1" d="M163.94,33.27c-1.88.35-2.3-.2-1.87-2.12.93-4.13,1.52-8.34,2.25-12.52.24-1.37,3.65-2.91,4.76-2.11.48.35.28.91.2,1.39-.82,4.67-1.7,9.33-2.47,14C166.48,33.91,165,33.12,163.94,33.27Z"/><path class="cls-1" d="M165.3,13.37c0-3.15,1-4.24,4.11-4.28.53,0,1.32-.47,1.29.78-.07,3.31-1.18,4.47-4.44,4.65C165.18,14.58,165.19,14.11,165.3,13.37Z"/><path class="cls-1" d="M146.7,10.34c-.18,3.13-1.56,4.34-4.64,4.22-1,0-.8-.46-.73-1.12.39-3.6,1.17-4.43,4.24-4.36C146.77,9.1,146.77,9.1,146.7,10.34Z"/><path class="cls-1" d="M14.63,10.6l-.47-.45C14.51,10.1,14.69,10.22,14.63,10.6Z"/><path class="cls-1" d="M46.89,10.16c-.13.24-.28.27-.46.05A.38.38,0,0,1,46.89,10.16Z"/><path class="cls-1" d="M50.89,10.59l-.44-.44C50.8,10.1,50.94,10.24,50.89,10.59Z"/><path class="cls-1" d="M56.47,10.15l-.54.47C55.86,10.18,56.12,10.12,56.47,10.15Z"/><path class="cls-1" d="M82.73,10.62l-.53-.47C82.55,10.11,82.79,10.19,82.73,10.62Z"/><path class="cls-1" d="M50.45,33.2l.44-.44C50.94,33.11,50.8,33.26,50.45,33.2Z"/></g></g></svg>